solid cube1
 facet normal -1 0 0
  outer loop
   vertex -0.5 -0.5 -0.5
   vertex -0.5 -0.5 0.5
   vertex -0.5 0.5 -0.5
  endloop
 endfacet
 facet normal -1 0 0
  outer loop
   vertex -0.5 0.5 0.5
   vertex -0.5 0.5 -0.5
   vertex -0.5 -0.5 0.5
  endloop
 endfacet
 facet normal 1 0 0
  outer loop
   vertex 0.5 -0.5 -0.5
   vertex 0.5 0.5 -0.5
   vertex 0.5 -0.5 0.5
  endloop
 endfacet
 facet normal 1 -0 0
  outer loop
   vertex 0.5 0.5 0.5
   vertex 0.5 -0.5 0.5
   vertex 0.5 0.5 -0.5
  endloop
 endfacet
 facet normal 0 -1 0
  outer loop
   vertex -0.5 -0.5 -0.5
   vertex 0.5 -0.5 -0.5
   vertex -0.5 -0.5 0.5
  endloop
 endfacet
 facet normal 0 -1 0
  outer loop
   vertex 0.5 -0.5 0.5
   vertex -0.5 -0.5 0.5
   vertex 0.5 -0.5 -0.5
  endloop
 endfacet
 facet normal 0 1 0
  outer loop
   vertex -0.5 0.5 -0.5
   vertex -0.5 0.5 0.5
   vertex 0.5 0.5 -0.5
  endloop
 endfacet
 facet normal 0 1 -0
  outer loop
   vertex 0.5 0.5 0.5
   vertex 0.5 0.5 -0.5
   vertex -0.5 0.5 0.5
  endloop
 endfacet
 facet normal 0 0 -1
  outer loop
   vertex -0.5 -0.5 -0.5
   vertex -0.5 0.5 -0.5
   vertex 0.5 -0.5 -0.5
  endloop
 endfacet
 facet normal 0 0 -1
  outer loop
   vertex 0.5 0.5 -0.5
   vertex 0.5 -0.5 -0.5
   vertex -0.5 0.5 -0.5
  endloop
 endfacet
 facet normal 0 0 1
  outer loop
   vertex -0.5 -0.5 0.5
   vertex 0.5 -0.5 0.5
   vertex -0.5 0.5 0.5
  endloop
 endfacet
 facet normal -0 0 1
  outer loop
   vertex 0.5 0.5 0.5
   vertex -0.5 0.5 0.5
   vertex 0.5 -0.5 0.5
  endloop
 endfacet
endsolid cube1
solid cube2
 facet normal -1 0 0
  outer loop
   vertex -1.5 -0.5 -0.5
   vertex -1.5 -0.5 0.5
   vertex -1.5 0.5 -0.5
  endloop
 endfacet
 facet normal -1 0 0
  outer loop
   vertex -1.5 0.5 0.5
   vertex -1.5 0.5 -0.5
   vertex -1.5 -0.5 0.5
  endloop
 endfacet
 facet normal 1 0 0
  outer loop
   vertex -0.5 -0.5 -0.5
   vertex -0.5 0.5 -0.5
   vertex -0.5 -0.5 0.5
  endloop
 endfacet
 facet normal 1 -0 0
  outer loop
   vertex -0.5 0.5 0.5
   vertex -0.5 -0.5 0.5
   vertex -0.5 0.5 -0.5
  endloop
 endfacet
 facet normal 0 -1 0
  outer loop
   vertex -1.5 -0.5 -0.5
   vertex -0.5 -0.5 -0.5
   vertex -1.5 -0.5 0.5
  endloop
 endfacet
 facet normal 0 -1 0
  outer loop
   vertex -0.5 -0.5 0.5
   vertex -1.5 -0.5 0.5
   vertex -0.5 -0.5 -0.5
  endloop
 endfacet
 facet normal 0 1 0
  outer loop
   vertex -1.5 0.5 -0.5
   vertex -1.5 0.5 0.5
   vertex -0.5 0.5 -0.5
  endloop
 endfacet
 facet normal 0 1 -0
  outer loop
   vertex -0.5 0.5 0.5
   vertex -0.5 0.5 -0.5
   vertex -1.5 0.5 0.5
  endloop
 endfacet
 facet normal 0 0 -1
  outer loop
   vertex -1.5 -0.5 -0.5
   vertex -1.5 0.5 -0.5
   vertex -0.5 -0.5 -0.5
  endloop
 endfacet
 facet normal 0 0 -1
  outer loop
   vertex -0.5 0.5 -0.5
   vertex -0.5 -0.5 -0.5
   vertex -1.5 0.5 -0.5
  endloop
 endfacet
 facet normal 0 0 1
  outer loop
   vertex -1.5 -0.5 0.5
   vertex -0.5 -0.5 0.5
   vertex -1.5 0.5 0.5
  endloop
 endfacet
 facet normal -0 0 1
  outer loop
   vertex -0.5 0.5 0.5
   vertex -1.5 0.5 0.5
   vertex -0.5 -0.5 0.5
  endloop
 endfacet
endsolid cube2
