solid Visualization Toolkit generated SLA File
 facet normal -0 0 1
  outer loop
   vertex 0.39774757623672485 0.39774757623672485 0
   vertex 0.35355338454246521 0.35355338454246521 0
   vertex 0.5625 0 0
  endloop
 endfacet
 facet normal 0 0 1
  outer loop
   vertex 0.5 0 0
   vertex 0.5625 0 0
   vertex 0.35355338454246521 0.35355338454246521 0
  endloop
 endfacet
 facet normal 0 0 1
  outer loop
   vertex 0.625 0 0
   vertex 0.44194173812866211 0.44194173812866211 0
   vertex 0.5625 0 0
  endloop
 endfacet
 facet normal -0 0 1
  outer loop
   vertex 0.44194173812866211 0.44194173812866211 0
   vertex 0.39774757623672485 0.39774757623672485 0
   vertex 0.5625 0 0
  endloop
 endfacet
 facet normal 0 0 1
  outer loop
   vertex 0.6875 0 0
   vertex 0.48613590002059937 0.48613590002059937 0
   vertex 0.625 0 0
  endloop
 endfacet
 facet normal 0 0 1
  outer loop
   vertex 0.44194173812866211 0.44194173812866211 0
   vertex 0.625 0 0
   vertex 0.48613590002059937 0.48613590002059937 0
  endloop
 endfacet
 facet normal 0 0 1
  outer loop
   vertex 0.75 0 0
   vertex 0.53033006191253662 0.53033006191253662 0
   vertex 0.6875 0 0
  endloop
 endfacet
 facet normal 0 0 1
  outer loop
   vertex 0.48613590002059937 0.48613590002059937 0
   vertex 0.6875 0 0
   vertex 0.53033006191253662 0.53033006191253662 0
  endloop
 endfacet
 facet normal -0 0 1
  outer loop
   vertex 0.57452428340911865 0.57452428340911865 0
   vertex 0.53033006191253662 0.53033006191253662 0
   vertex 0.8125 0 0
  endloop
 endfacet
 facet normal 0 0 1
  outer loop
   vertex 0.75 0 0
   vertex 0.8125 0 0
   vertex 0.53033006191253662 0.53033006191253662 0
  endloop
 endfacet
 facet normal 0 0 1
  outer loop
   vertex 0.875 0 0
   vertex 0.61871844530105591 0.61871844530105591 0
   vertex 0.8125 0 0
  endloop
 endfacet
 facet normal 0 0 1
  outer loop
   vertex 0.57452428340911865 0.57452428340911865 0
   vertex 0.8125 0 0
   vertex 0.61871844530105591 0.61871844530105591 0
  endloop
 endfacet
 facet normal 0 0 1
  outer loop
   vertex 0.9375 0 0
   vertex 0.66291260719299316 0.66291260719299316 0
   vertex 0.875 0 0
  endloop
 endfacet
 facet normal 0 0 1
  outer loop
   vertex 0.61871844530105591 0.61871844530105591 0
   vertex 0.875 0 0
   vertex 0.66291260719299316 0.66291260719299316 0
  endloop
 endfacet
 facet normal 0 0 1
  outer loop
   vertex 1 0 0
   vertex 0.70710676908493042 0.70710676908493042 0
   vertex 0.9375 0 0
  endloop
 endfacet
 facet normal 0 0 1
  outer loop
   vertex 0.66291260719299316 0.66291260719299316 0
   vertex 0.9375 0 0
   vertex 0.70710676908493042 0.70710676908493042 0
  endloop
 endfacet
 facet normal 0 0 1
  outer loop
   vertex 0.39774757623672485 0.39774757623672485 0
   vertex 3.4443191901777233e-17 0.5625 0
   vertex 0.35355338454246521 0.35355338454246521 0
  endloop
 endfacet
 facet normal 0 0 1
  outer loop
   vertex 3.0616171314629196e-17 0.5 0
   vertex 0.35355338454246521 0.35355338454246521 0
   vertex 3.4443191901777233e-17 0.5625 0
  endloop
 endfacet
 facet normal -0 0 1
  outer loop
   vertex 3.827021248892527e-17 0.625 0
   vertex 3.4443191901777233e-17 0.5625 0
   vertex 0.44194173812866211 0.44194173812866211 0
  endloop
 endfacet
 facet normal 0 0 1
  outer loop
   vertex 0.39774757623672485 0.39774757623672485 0
   vertex 0.44194173812866211 0.44194173812866211 0
   vertex 3.4443191901777233e-17 0.5625 0
  endloop
 endfacet
 facet normal -0 0 1
  outer loop
   vertex 4.2097233076073307e-17 0.6875 0
   vertex 3.827021248892527e-17 0.625 0
   vertex 0.48613590002059937 0.48613590002059937 0
  endloop
 endfacet
 facet normal 0 0 1
  outer loop
   vertex 0.44194173812866211 0.44194173812866211 0
   vertex 0.48613590002059937 0.48613590002059937 0
   vertex 3.827021248892527e-17 0.625 0
  endloop
 endfacet
 facet normal -0 0 1
  outer loop
   vertex 4.5924253663221344e-17 0.75 0
   vertex 4.2097233076073307e-17 0.6875 0
   vertex 0.53033006191253662 0.53033006191253662 0
  endloop
 endfacet
 facet normal 0 -0 1
  outer loop
   vertex 4.2097233076073307e-17 0.6875 0
   vertex 0.48613590002059937 0.48613590002059937 0
   vertex 0.53033006191253662 0.53033006191253662 0
  endloop
 endfacet
 facet normal 0 0 1
  outer loop
   vertex 0.57452428340911865 0.57452428340911865 0
   vertex 4.9751277559091832e-17 0.8125 0
   vertex 0.53033006191253662 0.53033006191253662 0
  endloop
 endfacet
 facet normal 0 0 1
  outer loop
   vertex 4.5924253663221344e-17 0.75 0
   vertex 0.53033006191253662 0.53033006191253662 0
   vertex 4.9751277559091832e-17 0.8125 0
  endloop
 endfacet
 facet normal -0 0 1
  outer loop
   vertex 5.3578298146239869e-17 0.875 0
   vertex 4.9751277559091832e-17 0.8125 0
   vertex 0.61871844530105591 0.61871844530105591 0
  endloop
 endfacet
 facet normal 0 0 1
  outer loop
   vertex 0.57452428340911865 0.57452428340911865 0
   vertex 0.61871844530105591 0.61871844530105591 0
   vertex 4.9751277559091832e-17 0.8125 0
  endloop
 endfacet
 facet normal -0 0 1
  outer loop
   vertex 5.7405315424665455e-17 0.9375 0
   vertex 5.3578298146239869e-17 0.875 0
   vertex 0.66291260719299316 0.66291260719299316 0
  endloop
 endfacet
 facet normal 0 0 1
  outer loop
   vertex 0.61871844530105591 0.61871844530105591 0
   vertex 0.66291260719299316 0.66291260719299316 0
   vertex 5.3578298146239869e-17 0.875 0
  endloop
 endfacet
 facet normal -0 0 1
  outer loop
   vertex 6.1232342629258393e-17 1 0
   vertex 5.7405315424665455e-17 0.9375 0
   vertex 0.70710676908493042 0.70710676908493042 0
  endloop
 endfacet
 facet normal 0 0 1
  outer loop
   vertex 0.66291260719299316 0.66291260719299316 0
   vertex 0.70710676908493042 0.70710676908493042 0
   vertex 5.7405315424665455e-17 0.9375 0
  endloop
 endfacet
 facet normal 0 -0 1
  outer loop
   vertex -0.39774757623672485 0.39774757623672485 0
   vertex -0.35355338454246521 0.35355338454246521 0
   vertex 3.4443191901777233e-17 0.5625 0
  endloop
 endfacet
 facet normal 0 -0 1
  outer loop
   vertex -0.35355338454246521 0.35355338454246521 0
   vertex 3.0616171314629196e-17 0.5 0
   vertex 3.4443191901777233e-17 0.5625 0
  endloop
 endfacet
 facet normal 0 0 1
  outer loop
   vertex 3.827021248892527e-17 0.625 0
   vertex -0.44194173812866211 0.44194173812866211 0
   vertex 3.4443191901777233e-17 0.5625 0
  endloop
 endfacet
 facet normal 0 0 1
  outer loop
   vertex -0.39774757623672485 0.39774757623672485 0
   vertex 3.4443191901777233e-17 0.5625 0
   vertex -0.44194173812866211 0.44194173812866211 0
  endloop
 endfacet
 facet normal 0 0 1
  outer loop
   vertex 4.2097233076073307e-17 0.6875 0
   vertex -0.48613590002059937 0.48613590002059937 0
   vertex 3.827021248892527e-17 0.625 0
  endloop
 endfacet
 facet normal 0 0 1
  outer loop
   vertex -0.44194173812866211 0.44194173812866211 0
   vertex 3.827021248892527e-17 0.625 0
   vertex -0.48613590002059937 0.48613590002059937 0
  endloop
 endfacet
 facet normal 0 0 1
  outer loop
   vertex 4.5924253663221344e-17 0.75 0
   vertex -0.53033006191253662 0.53033006191253662 0
   vertex 4.2097233076073307e-17 0.6875 0
  endloop
 endfacet
 facet normal 0 0 1
  outer loop
   vertex -0.48613590002059937 0.48613590002059937 0
   vertex 4.2097233076073307e-17 0.6875 0
   vertex -0.53033006191253662 0.53033006191253662 0
  endloop
 endfacet
 facet normal 0 -0 1
  outer loop
   vertex -0.57452428340911865 0.57452428340911865 0
   vertex -0.53033006191253662 0.53033006191253662 0
   vertex 4.9751277559091832e-17 0.8125 0
  endloop
 endfacet
 facet normal 0 0 1
  outer loop
   vertex 4.5924253663221344e-17 0.75 0
   vertex 4.9751277559091832e-17 0.8125 0
   vertex -0.53033006191253662 0.53033006191253662 0
  endloop
 endfacet
 facet normal 0 0 1
  outer loop
   vertex 5.3578298146239869e-17 0.875 0
   vertex -0.61871844530105591 0.61871844530105591 0
   vertex 4.9751277559091832e-17 0.8125 0
  endloop
 endfacet
 facet normal 0 0 1
  outer loop
   vertex -0.57452428340911865 0.57452428340911865 0
   vertex 4.9751277559091832e-17 0.8125 0
   vertex -0.61871844530105591 0.61871844530105591 0
  endloop
 endfacet
 facet normal 0 0 1
  outer loop
   vertex 5.7405315424665455e-17 0.9375 0
   vertex -0.66291260719299316 0.66291260719299316 0
   vertex 5.3578298146239869e-17 0.875 0
  endloop
 endfacet
 facet normal 0 0 1
  outer loop
   vertex -0.61871844530105591 0.61871844530105591 0
   vertex 5.3578298146239869e-17 0.875 0
   vertex -0.66291260719299316 0.66291260719299316 0
  endloop
 endfacet
 facet normal 0 0 1
  outer loop
   vertex 6.1232342629258393e-17 1 0
   vertex -0.70710676908493042 0.70710676908493042 0
   vertex 5.7405315424665455e-17 0.9375 0
  endloop
 endfacet
 facet normal 0 0 1
  outer loop
   vertex -0.66291260719299316 0.66291260719299316 0
   vertex 5.7405315424665455e-17 0.9375 0
   vertex -0.70710676908493042 0.70710676908493042 0
  endloop
 endfacet
 facet normal 0 0 1
  outer loop
   vertex -0.39774757623672485 0.39774757623672485 0
   vertex -0.5625 6.8886383803554467e-17 0
   vertex -0.35355338454246521 0.35355338454246521 0
  endloop
 endfacet
 facet normal 0 0 1
  outer loop
   vertex -0.5 6.1232342629258393e-17 0
   vertex -0.35355338454246521 0.35355338454246521 0
   vertex -0.5625 6.8886383803554467e-17 0
  endloop
 endfacet
 facet normal 0 -0 1
  outer loop
   vertex -0.625 7.6540424977850541e-17 0
   vertex -0.5625 6.8886383803554467e-17 0
   vertex -0.44194173812866211 0.44194173812866211 0
  endloop
 endfacet
 facet normal 0 0 1
  outer loop
   vertex -0.39774757623672485 0.39774757623672485 0
   vertex -0.44194173812866211 0.44194173812866211 0
   vertex -0.5625 6.8886383803554467e-17 0
  endloop
 endfacet
 facet normal 0 -0 1
  outer loop
   vertex -0.6875 8.4194466152146615e-17 0
   vertex -0.625 7.6540424977850541e-17 0
   vertex -0.48613590002059937 0.48613590002059937 0
  endloop
 endfacet
 facet normal 0 0 1
  outer loop
   vertex -0.44194173812866211 0.44194173812866211 0
   vertex -0.48613590002059937 0.48613590002059937 0
   vertex -0.625 7.6540424977850541e-17 0
  endloop
 endfacet
 facet normal 0 -0 1
  outer loop
   vertex -0.75 9.1848507326442689e-17 0
   vertex -0.6875 8.4194466152146615e-17 0
   vertex -0.53033006191253662 0.53033006191253662 0
  endloop
 endfacet
 facet normal 0 0 1
  outer loop
   vertex -0.48613590002059937 0.48613590002059937 0
   vertex -0.53033006191253662 0.53033006191253662 0
   vertex -0.6875 8.4194466152146615e-17 0
  endloop
 endfacet
 facet normal 0 0 1
  outer loop
   vertex -0.57452428340911865 0.57452428340911865 0
   vertex -0.8125 9.9502555118183663e-17 0
   vertex -0.53033006191253662 0.53033006191253662 0
  endloop
 endfacet
 facet normal -0 0 1
  outer loop
   vertex -0.53033006191253662 0.53033006191253662 0
   vertex -0.8125 9.9502555118183663e-17 0
   vertex -0.75 9.1848507326442689e-17 0
  endloop
 endfacet
 facet normal 0 -0 1
  outer loop
   vertex -0.875 1.0715659629247974e-16 0
   vertex -0.8125 9.9502555118183663e-17 0
   vertex -0.61871844530105591 0.61871844530105591 0
  endloop
 endfacet
 facet normal 0 0 1
  outer loop
   vertex -0.57452428340911865 0.57452428340911865 0
   vertex -0.61871844530105591 0.61871844530105591 0
   vertex -0.8125 9.9502555118183663e-17 0
  endloop
 endfacet
 facet normal 0 -0 1
  outer loop
   vertex -0.9375 1.1481063084933091e-16 0
   vertex -0.875 1.0715659629247974e-16 0
   vertex -0.66291260719299316 0.66291260719299316 0
  endloop
 endfacet
 facet normal 0 0 1
  outer loop
   vertex -0.61871844530105591 0.61871844530105591 0
   vertex -0.66291260719299316 0.66291260719299316 0
   vertex -0.875 1.0715659629247974e-16 0
  endloop
 endfacet
 facet normal 0 -0 1
  outer loop
   vertex -1 1.2246468525851679e-16 0
   vertex -0.9375 1.1481063084933091e-16 0
   vertex -0.70710676908493042 0.70710676908493042 0
  endloop
 endfacet
 facet normal 0 0 1
  outer loop
   vertex -0.66291260719299316 0.66291260719299316 0
   vertex -0.70710676908493042 0.70710676908493042 0
   vertex -0.9375 1.1481063084933091e-16 0
  endloop
 endfacet
 facet normal 0 0 1
  outer loop
   vertex -0.39774757623672485 -0.39774757623672485 0
   vertex -0.35355338454246521 -0.35355338454246521 0
   vertex -0.5625 6.8886383803554467e-17 0
  endloop
 endfacet
 facet normal 0 0 1
  outer loop
   vertex -0.35355338454246521 -0.35355338454246521 0
   vertex -0.5 6.1232342629258393e-17 0
   vertex -0.5625 6.8886383803554467e-17 0
  endloop
 endfacet
 facet normal 0 0 1
  outer loop
   vertex -0.625 7.6540424977850541e-17 0
   vertex -0.44194173812866211 -0.44194173812866211 0
   vertex -0.5625 6.8886383803554467e-17 0
  endloop
 endfacet
 facet normal 0 0 1
  outer loop
   vertex -0.39774757623672485 -0.39774757623672485 0
   vertex -0.5625 6.8886383803554467e-17 0
   vertex -0.44194173812866211 -0.44194173812866211 0
  endloop
 endfacet
 facet normal 0 0 1
  outer loop
   vertex -0.6875 8.4194466152146615e-17 0
   vertex -0.48613590002059937 -0.48613590002059937 0
   vertex -0.625 7.6540424977850541e-17 0
  endloop
 endfacet
 facet normal 0 0 1
  outer loop
   vertex -0.44194173812866211 -0.44194173812866211 0
   vertex -0.625 7.6540424977850541e-17 0
   vertex -0.48613590002059937 -0.48613590002059937 0
  endloop
 endfacet
 facet normal 0 0 1
  outer loop
   vertex -0.75 9.1848507326442689e-17 0
   vertex -0.53033006191253662 -0.53033006191253662 0
   vertex -0.6875 8.4194466152146615e-17 0
  endloop
 endfacet
 facet normal 0 0 1
  outer loop
   vertex -0.48613590002059937 -0.48613590002059937 0
   vertex -0.6875 8.4194466152146615e-17 0
   vertex -0.53033006191253662 -0.53033006191253662 0
  endloop
 endfacet
 facet normal 0 0 1
  outer loop
   vertex -0.57452428340911865 -0.57452428340911865 0
   vertex -0.53033006191253662 -0.53033006191253662 0
   vertex -0.8125 9.9502555118183663e-17 0
  endloop
 endfacet
 facet normal 0 0 1
  outer loop
   vertex -0.75 9.1848507326442689e-17 0
   vertex -0.8125 9.9502555118183663e-17 0
   vertex -0.53033006191253662 -0.53033006191253662 0
  endloop
 endfacet
 facet normal 0 0 1
  outer loop
   vertex -0.875 1.0715659629247974e-16 0
   vertex -0.61871844530105591 -0.61871844530105591 0
   vertex -0.8125 9.9502555118183663e-17 0
  endloop
 endfacet
 facet normal 0 0 1
  outer loop
   vertex -0.57452428340911865 -0.57452428340911865 0
   vertex -0.8125 9.9502555118183663e-17 0
   vertex -0.61871844530105591 -0.61871844530105591 0
  endloop
 endfacet
 facet normal 0 0 1
  outer loop
   vertex -0.9375 1.1481063084933091e-16 0
   vertex -0.66291260719299316 -0.66291260719299316 0
   vertex -0.875 1.0715659629247974e-16 0
  endloop
 endfacet
 facet normal 0 0 1
  outer loop
   vertex -0.61871844530105591 -0.61871844530105591 0
   vertex -0.875 1.0715659629247974e-16 0
   vertex -0.66291260719299316 -0.66291260719299316 0
  endloop
 endfacet
 facet normal 0 0 1
  outer loop
   vertex -1 1.2246468525851679e-16 0
   vertex -0.70710676908493042 -0.70710676908493042 0
   vertex -0.9375 1.1481063084933091e-16 0
  endloop
 endfacet
 facet normal 0 0 1
  outer loop
   vertex -0.66291260719299316 -0.66291260719299316 0
   vertex -0.9375 1.1481063084933091e-16 0
   vertex -0.70710676908493042 -0.70710676908493042 0
  endloop
 endfacet
 facet normal 0 0 1
  outer loop
   vertex -0.39774757623672485 -0.39774757623672485 0
   vertex -1.033295757053317e-16 -0.5625 0
   vertex -0.35355338454246521 -0.35355338454246521 0
  endloop
 endfacet
 facet normal 0 0 1
  outer loop
   vertex -9.1848507326442689e-17 -0.5 0
   vertex -0.35355338454246521 -0.35355338454246521 0
   vertex -1.033295757053317e-16 -0.5625 0
  endloop
 endfacet
 facet normal 0 0 1
  outer loop
   vertex -1.1481063084933091e-16 -0.625 0
   vertex -1.033295757053317e-16 -0.5625 0
   vertex -0.44194173812866211 -0.44194173812866211 0
  endloop
 endfacet
 facet normal -0 0 1
  outer loop
   vertex -0.39774757623672485 -0.39774757623672485 0
   vertex -0.44194173812866211 -0.44194173812866211 0
   vertex -1.033295757053317e-16 -0.5625 0
  endloop
 endfacet
 facet normal 0 0 1
  outer loop
   vertex -1.2629169922821992e-16 -0.6875 0
   vertex -1.1481063084933091e-16 -0.625 0
   vertex -0.48613590002059937 -0.48613590002059937 0
  endloop
 endfacet
 facet normal 0 0 1
  outer loop
   vertex -1.1481063084933091e-16 -0.625 0
   vertex -0.44194173812866211 -0.44194173812866211 0
   vertex -0.48613590002059937 -0.48613590002059937 0
  endloop
 endfacet
 facet normal 0 0 1
  outer loop
   vertex -1.3777276760710893e-16 -0.75 0
   vertex -1.2629169922821992e-16 -0.6875 0
   vertex -0.53033006191253662 -0.53033006191253662 0
  endloop
 endfacet
 facet normal -0 0 1
  outer loop
   vertex -0.48613590002059937 -0.48613590002059937 0
   vertex -0.53033006191253662 -0.53033006191253662 0
   vertex -1.2629169922821992e-16 -0.6875 0
  endloop
 endfacet
 facet normal 0 0 1
  outer loop
   vertex -0.57452428340911865 -0.57452428340911865 0
   vertex -1.4925382275110814e-16 -0.8125 0
   vertex -0.53033006191253662 -0.53033006191253662 0
  endloop
 endfacet
 facet normal 0 -0 1
  outer loop
   vertex -0.53033006191253662 -0.53033006191253662 0
   vertex -1.4925382275110814e-16 -0.8125 0
   vertex -1.3777276760710893e-16 -0.75 0
  endloop
 endfacet
 facet normal 0 0 1
  outer loop
   vertex -1.6073489112999716e-16 -0.875 0
   vertex -1.4925382275110814e-16 -0.8125 0
   vertex -0.61871844530105591 -0.61871844530105591 0
  endloop
 endfacet
 facet normal -0 0 1
  outer loop
   vertex -0.57452428340911865 -0.57452428340911865 0
   vertex -0.61871844530105591 -0.61871844530105591 0
   vertex -1.4925382275110814e-16 -0.8125 0
  endloop
 endfacet
 facet normal 0 0 1
  outer loop
   vertex -1.7221595950888617e-16 -0.9375 0
   vertex -1.6073489112999716e-16 -0.875 0
   vertex -0.66291260719299316 -0.66291260719299316 0
  endloop
 endfacet
 facet normal -0 0 1
  outer loop
   vertex -0.61871844530105591 -0.61871844530105591 0
   vertex -0.66291260719299316 -0.66291260719299316 0
   vertex -1.6073489112999716e-16 -0.875 0
  endloop
 endfacet
 facet normal 0 0 1
  outer loop
   vertex -1.8369701465288538e-16 -1 0
   vertex -1.7221595950888617e-16 -0.9375 0
   vertex -0.70710676908493042 -0.70710676908493042 0
  endloop
 endfacet
 facet normal 0 0 1
  outer loop
   vertex -1.7221595950888617e-16 -0.9375 0
   vertex -0.66291260719299316 -0.66291260719299316 0
   vertex -0.70710676908493042 -0.70710676908493042 0
  endloop
 endfacet
 facet normal 0 0 1
  outer loop
   vertex 0.39774757623672485 -0.39774757623672485 0
   vertex 0.35355338454246521 -0.35355338454246521 0
   vertex -1.033295757053317e-16 -0.5625 0
  endloop
 endfacet
 facet normal -0 0 1
  outer loop
   vertex 0.35355338454246521 -0.35355338454246521 0
   vertex -9.1848507326442689e-17 -0.5 0
   vertex -1.033295757053317e-16 -0.5625 0
  endloop
 endfacet
 facet normal 0 0 1
  outer loop
   vertex -1.1481063084933091e-16 -0.625 0
   vertex 0.44194173812866211 -0.44194173812866211 0
   vertex -1.033295757053317e-16 -0.5625 0
  endloop
 endfacet
 facet normal 0 0 1
  outer loop
   vertex 0.39774757623672485 -0.39774757623672485 0
   vertex -1.033295757053317e-16 -0.5625 0
   vertex 0.44194173812866211 -0.44194173812866211 0
  endloop
 endfacet
 facet normal 0 0 1
  outer loop
   vertex -1.2629169922821992e-16 -0.6875 0
   vertex 0.48613590002059937 -0.48613590002059937 0
   vertex -1.1481063084933091e-16 -0.625 0
  endloop
 endfacet
 facet normal 0 0 1
  outer loop
   vertex 0.44194173812866211 -0.44194173812866211 0
   vertex -1.1481063084933091e-16 -0.625 0
   vertex 0.48613590002059937 -0.48613590002059937 0
  endloop
 endfacet
 facet normal 0 0 1
  outer loop
   vertex -1.3777276760710893e-16 -0.75 0
   vertex 0.53033006191253662 -0.53033006191253662 0
   vertex -1.2629169922821992e-16 -0.6875 0
  endloop
 endfacet
 facet normal 0 0 1
  outer loop
   vertex 0.48613590002059937 -0.48613590002059937 0
   vertex -1.2629169922821992e-16 -0.6875 0
   vertex 0.53033006191253662 -0.53033006191253662 0
  endloop
 endfacet
 facet normal 0 0 1
  outer loop
   vertex 0.57452428340911865 -0.57452428340911865 0
   vertex 0.53033006191253662 -0.53033006191253662 0
   vertex -1.4925382275110814e-16 -0.8125 0
  endloop
 endfacet
 facet normal 0 0 1
  outer loop
   vertex -1.3777276760710893e-16 -0.75 0
   vertex -1.4925382275110814e-16 -0.8125 0
   vertex 0.53033006191253662 -0.53033006191253662 0
  endloop
 endfacet
 facet normal 0 0 1
  outer loop
   vertex -1.6073489112999716e-16 -0.875 0
   vertex 0.61871844530105591 -0.61871844530105591 0
   vertex -1.4925382275110814e-16 -0.8125 0
  endloop
 endfacet
 facet normal 0 0 1
  outer loop
   vertex 0.57452428340911865 -0.57452428340911865 0
   vertex -1.4925382275110814e-16 -0.8125 0
   vertex 0.61871844530105591 -0.61871844530105591 0
  endloop
 endfacet
 facet normal 0 0 1
  outer loop
   vertex -1.7221595950888617e-16 -0.9375 0
   vertex 0.66291260719299316 -0.66291260719299316 0
   vertex -1.6073489112999716e-16 -0.875 0
  endloop
 endfacet
 facet normal 0 0 1
  outer loop
   vertex 0.61871844530105591 -0.61871844530105591 0
   vertex -1.6073489112999716e-16 -0.875 0
   vertex 0.66291260719299316 -0.66291260719299316 0
  endloop
 endfacet
 facet normal 0 0 1
  outer loop
   vertex -1.8369701465288538e-16 -1 0
   vertex 0.70710676908493042 -0.70710676908493042 0
   vertex -1.7221595950888617e-16 -0.9375 0
  endloop
 endfacet
 facet normal 0 0 1
  outer loop
   vertex 0.66291260719299316 -0.66291260719299316 0
   vertex -1.7221595950888617e-16 -0.9375 0
   vertex 0.70710676908493042 -0.70710676908493042 0
  endloop
 endfacet
 facet normal 0 0 1
  outer loop
   vertex 0.39774757623672485 -0.39774757623672485 0
   vertex 0.5625 0 0
   vertex 0.35355338454246521 -0.35355338454246521 0
  endloop
 endfacet
 facet normal 0 0 1
  outer loop
   vertex 0.5 0 0
   vertex 0.35355338454246521 -0.35355338454246521 0
   vertex 0.5625 0 0
  endloop
 endfacet
 facet normal -0 0 1
  outer loop
   vertex 0.625 0 0
   vertex 0.5625 0 0
   vertex 0.44194173812866211 -0.44194173812866211 0
  endloop
 endfacet
 facet normal 0 0 1
  outer loop
   vertex 0.44194173812866211 -0.44194173812866211 0
   vertex 0.5625 0 0
   vertex 0.39774757623672485 -0.39774757623672485 0
  endloop
 endfacet
 facet normal -0 0 1
  outer loop
   vertex 0.6875 0 0
   vertex 0.625 0 0
   vertex 0.48613590002059937 -0.48613590002059937 0
  endloop
 endfacet
 facet normal 0 -0 1
  outer loop
   vertex 0.44194173812866211 -0.44194173812866211 0
   vertex 0.48613590002059937 -0.48613590002059937 0
   vertex 0.625 0 0
  endloop
 endfacet
 facet normal -0 0 1
  outer loop
   vertex 0.75 0 0
   vertex 0.6875 0 0
   vertex 0.53033006191253662 -0.53033006191253662 0
  endloop
 endfacet
 facet normal 0 -0 1
  outer loop
   vertex 0.48613590002059937 -0.48613590002059937 0
   vertex 0.53033006191253662 -0.53033006191253662 0
   vertex 0.6875 0 0
  endloop
 endfacet
 facet normal 0 0 1
  outer loop
   vertex 0.57452428340911865 -0.57452428340911865 0
   vertex 0.8125 0 0
   vertex 0.53033006191253662 -0.53033006191253662 0
  endloop
 endfacet
 facet normal 0 0 1
  outer loop
   vertex 0.75 0 0
   vertex 0.53033006191253662 -0.53033006191253662 0
   vertex 0.8125 0 0
  endloop
 endfacet
 facet normal -0 0 1
  outer loop
   vertex 0.875 0 0
   vertex 0.8125 0 0
   vertex 0.61871844530105591 -0.61871844530105591 0
  endloop
 endfacet
 facet normal 0 -0 1
  outer loop
   vertex 0.57452428340911865 -0.57452428340911865 0
   vertex 0.61871844530105591 -0.61871844530105591 0
   vertex 0.8125 0 0
  endloop
 endfacet
 facet normal -0 0 1
  outer loop
   vertex 0.9375 0 0
   vertex 0.875 0 0
   vertex 0.66291260719299316 -0.66291260719299316 0
  endloop
 endfacet
 facet normal 0 -0 1
  outer loop
   vertex 0.61871844530105591 -0.61871844530105591 0
   vertex 0.66291260719299316 -0.66291260719299316 0
   vertex 0.875 0 0
  endloop
 endfacet
 facet normal -0 0 1
  outer loop
   vertex 1 0 0
   vertex 0.9375 0 0
   vertex 0.70710676908493042 -0.70710676908493042 0
  endloop
 endfacet
 facet normal 0 -0 1
  outer loop
   vertex 0.66291260719299316 -0.66291260719299316 0
   vertex 0.70710676908493042 -0.70710676908493042 0
   vertex 0.9375 0 0
  endloop
 endfacet
endsolid
