<?xml version="1.0" encoding="UTF-8" standalone="no"?>
<!DOCTYPE svg PUBLIC "-//W3C//DTD SVG 1.1//EN"
 "http://www.w3.org/Graphics/SVG/1.1/DTD/svg11.dtd">
<!-- Generated by graphviz version 2.34.0 (20140112.1130)
 -->
<!-- Title: bitpit::PatchKernel Pages: 1 -->
<svg width="354pt" height="196pt"
 viewBox="0.00 0.00 354.00 196.00" xmlns="http://www.w3.org/2000/svg" xmlns:xlink="http://www.w3.org/1999/xlink">
<g id="graph0" class="graph" transform="scale(1 1) rotate(0) translate(4 192)">
<title>bitpit::PatchKernel</title>
<polygon fill="white" stroke="white" points="-4,4 -4,-192 350,-192 350,4 -4,4"/>
<!-- Node1 -->
<g id="node1" class="node"><title>Node1</title>
<polygon fill="#bfbfbf" stroke="black" points="74.5,-112.5 74.5,-131.5 173.5,-131.5 173.5,-112.5 74.5,-112.5"/>
<text text-anchor="middle" x="124" y="-119.5" font-family="Helvetica,sans-Serif" font-size="10.00">bitpit::PatchKernel</text>
</g>
<!-- Node3 -->
<g id="node3" class="node"><title>Node3</title>
<g id="a_node3"><a xlink:href="classbitpit_1_1SurfaceKernel.xhtml" target="_top" xlink:title="The SurfaceKernel class provides an interface for defining surface patches. ">
<polygon fill="white" stroke="black" points="5.5,-56.5 5.5,-75.5 114.5,-75.5 114.5,-56.5 5.5,-56.5"/>
<text text-anchor="middle" x="60" y="-63.5" font-family="Helvetica,sans-Serif" font-size="10.00">bitpit::SurfaceKernel</text>
</a>
</g>
</g>
<!-- Node1&#45;&gt;Node3 -->
<g id="edge2" class="edge"><title>Node1&#45;&gt;Node3</title>
<path fill="none" stroke="midnightblue" d="M106.009,-105.82C94.5424,-96.1452 80.0867,-83.9481 70.4698,-75.8339"/>
<polygon fill="midnightblue" stroke="midnightblue" points="103.817,-108.55 113.717,-112.324 108.331,-103.2 103.817,-108.55"/>
</g>
<!-- Node5 -->
<g id="node5" class="node"><title>Node5</title>
<g id="a_node5"><a xlink:href="classbitpit_1_1VolumeKernel.xhtml" target="_top" xlink:title="The VolumeKernel class provides an interface for defining volume patches. ">
<polygon fill="white" stroke="black" points="133.5,-56.5 133.5,-75.5 242.5,-75.5 242.5,-56.5 133.5,-56.5"/>
<text text-anchor="middle" x="188" y="-63.5" font-family="Helvetica,sans-Serif" font-size="10.00">bitpit::VolumeKernel</text>
</a>
</g>
</g>
<!-- Node1&#45;&gt;Node5 -->
<g id="edge4" class="edge"><title>Node1&#45;&gt;Node5</title>
<path fill="none" stroke="midnightblue" d="M141.991,-105.82C153.458,-96.1452 167.913,-83.9481 177.53,-75.8339"/>
<polygon fill="midnightblue" stroke="midnightblue" points="139.669,-103.2 134.283,-112.324 144.183,-108.55 139.669,-103.2"/>
</g>
<!-- Node2 -->
<g id="node2" class="node"><title>Node2</title>
<g id="a_node2"><a xlink:href="classbitpit_1_1VTKBaseStreamer.xhtml" target="_top" xlink:title="The base class to be used to derive VTK streamers form. ">
<polygon fill="white" stroke="black" points="59,-168.5 59,-187.5 189,-187.5 189,-168.5 59,-168.5"/>
<text text-anchor="middle" x="124" y="-175.5" font-family="Helvetica,sans-Serif" font-size="10.00">bitpit::VTKBaseStreamer</text>
</a>
</g>
</g>
<!-- Node2&#45;&gt;Node1 -->
<g id="edge1" class="edge"><title>Node2&#45;&gt;Node1</title>
<path fill="none" stroke="midnightblue" d="M124,-157.805C124,-148.91 124,-138.78 124,-131.751"/>
<polygon fill="midnightblue" stroke="midnightblue" points="120.5,-158.083 124,-168.083 127.5,-158.083 120.5,-158.083"/>
</g>
<!-- Node4 -->
<g id="node4" class="node"><title>Node4</title>
<g id="a_node4"><a xlink:href="classbitpit_1_1SurfUnstructured.xhtml" target="_top" xlink:title="The SurfUnstructured class defines an unstructured surface triangulation. ">
<polygon fill="white" stroke="black" points="-0.5,-0.5 -0.5,-19.5 118.5,-19.5 118.5,-0.5 -0.5,-0.5"/>
<text text-anchor="middle" x="59" y="-7.5" font-family="Helvetica,sans-Serif" font-size="10.00">bitpit::SurfUnstructured</text>
</a>
</g>
</g>
<!-- Node3&#45;&gt;Node4 -->
<g id="edge3" class="edge"><title>Node3&#45;&gt;Node4</title>
<path fill="none" stroke="midnightblue" d="M59.6445,-45.8045C59.4798,-36.9102 59.2922,-26.7798 59.1621,-19.7511"/>
<polygon fill="midnightblue" stroke="midnightblue" points="56.1502,-46.1495 59.8349,-56.083 63.149,-46.0199 56.1502,-46.1495"/>
</g>
<!-- Node6 -->
<g id="node6" class="node"><title>Node6</title>
<g id="a_node6"><a xlink:href="classbitpit_1_1VolCartesian.xhtml" target="_top" xlink:title="The VolCartesian defines a Cartesian patch. ">
<polygon fill="white" stroke="black" points="136.5,-0.5 136.5,-19.5 239.5,-19.5 239.5,-0.5 136.5,-0.5"/>
<text text-anchor="middle" x="188" y="-7.5" font-family="Helvetica,sans-Serif" font-size="10.00">bitpit::VolCartesian</text>
</a>
</g>
</g>
<!-- Node5&#45;&gt;Node6 -->
<g id="edge5" class="edge"><title>Node5&#45;&gt;Node6</title>
<path fill="none" stroke="midnightblue" d="M188,-45.8045C188,-36.9102 188,-26.7798 188,-19.7511"/>
<polygon fill="midnightblue" stroke="midnightblue" points="184.5,-46.083 188,-56.083 191.5,-46.083 184.5,-46.083"/>
</g>
<!-- Node7 -->
<g id="node7" class="node"><title>Node7</title>
<g id="a_node7"><a xlink:href="classbitpit_1_1VolOctree.xhtml" target="_top" xlink:title="The VolOctree defines a Octree patch. ">
<polygon fill="white" stroke="black" points="257.5,-0.5 257.5,-19.5 346.5,-19.5 346.5,-0.5 257.5,-0.5"/>
<text text-anchor="middle" x="302" y="-7.5" font-family="Helvetica,sans-Serif" font-size="10.00">bitpit::VolOctree</text>
</a>
</g>
</g>
<!-- Node5&#45;&gt;Node7 -->
<g id="edge6" class="edge"><title>Node5&#45;&gt;Node7</title>
<path fill="none" stroke="midnightblue" d="M215.242,-52.096C236.54,-42.0073 265.542,-28.2697 284.021,-19.5164"/>
<polygon fill="midnightblue" stroke="midnightblue" points="213.603,-48.9995 206.064,-56.4435 216.599,-55.3257 213.603,-48.9995"/>
</g>
</g>
</svg>
