<?xml version="1.0" encoding="UTF-8" standalone="no"?>
<!DOCTYPE svg PUBLIC "-//W3C//DTD SVG 1.1//EN"
 "http://www.w3.org/Graphics/SVG/1.1/DTD/svg11.dtd">
<!-- Generated by graphviz version 2.34.0 (20140112.1130)
 -->
<!-- Title: bitpit::VTKRectilinearGrid Pages: 1 -->
<svg width="257pt" height="212pt"
 viewBox="0.00 0.00 257.00 212.00" xmlns="http://www.w3.org/2000/svg" xmlns:xlink="http://www.w3.org/1999/xlink">
<g id="graph0" class="graph" transform="scale(1 1) rotate(0) translate(4 208)">
<title>bitpit::VTKRectilinearGrid</title>
<polygon fill="white" stroke="white" points="-4,4 -4,-208 253,-208 253,4 -4,4"/>
<!-- Node1 -->
<g id="node1" class="node"><title>Node1</title>
<polygon fill="#bfbfbf" stroke="black" points="27,-0.5 27,-19.5 159,-19.5 159,-0.5 27,-0.5"/>
<text text-anchor="middle" x="93" y="-7.5" font-family="Helvetica,sans-Serif" font-size="10.00">bitpit::VTKRectilinearGrid</text>
</g>
<!-- Node2 -->
<g id="node2" class="node"><title>Node2</title>
<g id="a_node2"><a xlink:href="classbitpit_1_1VTK.xhtml" target="_top" xlink:title="A base class for VTK input output. ">
<polygon fill="white" stroke="black" points="60.5,-58.5 60.5,-77.5 125.5,-77.5 125.5,-58.5 60.5,-58.5"/>
<text text-anchor="middle" x="93" y="-65.5" font-family="Helvetica,sans-Serif" font-size="10.00">bitpit::VTK</text>
</a>
</g>
</g>
<!-- Node2&#45;&gt;Node1 -->
<g id="edge1" class="edge"><title>Node2&#45;&gt;Node1</title>
<path fill="none" stroke="midnightblue" d="M93,-47.953C93,-38.2875 93,-27.0312 93,-19.5052"/>
<polygon fill="midnightblue" stroke="midnightblue" points="89.5001,-48.25 93,-58.25 96.5001,-48.25 89.5001,-48.25"/>
</g>
<!-- Node3 -->
<g id="node3" class="node"><title>Node3</title>
<g id="a_node3"><a xlink:href="classbitpit_1_1FileHandler.xhtml" target="_top" xlink:title="Creates file names and checks status. ">
<polygon fill="white" stroke="black" points="0,-126.5 0,-145.5 96,-145.5 96,-126.5 0,-126.5"/>
<text text-anchor="middle" x="48" y="-133.5" font-family="Helvetica,sans-Serif" font-size="10.00">bitpit::FileHandler</text>
</a>
</g>
</g>
<!-- Node3&#45;&gt;Node2 -->
<g id="edge2" class="edge"><title>Node3&#45;&gt;Node2</title>
<path fill="none" stroke="#9a32cd" stroke-dasharray="5,2" d="M59.6334,-117.938C68.3782,-105.112 80.0051,-88.0591 86.972,-77.8411"/>
<polygon fill="#9a32cd" stroke="#9a32cd" points="56.6246,-116.138 53.883,-126.372 62.4082,-120.081 56.6246,-116.138"/>
<text text-anchor="middle" x="87.5" y="-99.5" font-family="Helvetica,sans-Serif" font-size="10.00"> m_fh</text>
</g>
<!-- Node4 -->
<g id="node4" class="node"><title>Node4</title>
<g id="a_node4"><a xlink:href="classbitpit_1_1VTKNativeStreamer.xhtml" target="_top" xlink:title="In VTKNativeStreamer all instances of classes derived from VTKBaseConatiner are stored. Right now only std::vector is supported. ">
<polygon fill="white" stroke="black" points="114.5,-126.5 114.5,-145.5 249.5,-145.5 249.5,-126.5 114.5,-126.5"/>
<text text-anchor="middle" x="182" y="-133.5" font-family="Helvetica,sans-Serif" font-size="10.00">bitpit::VTKNativeStreamer</text>
</a>
</g>
</g>
<!-- Node4&#45;&gt;Node2 -->
<g id="edge3" class="edge"><title>Node4&#45;&gt;Node2</title>
<path fill="none" stroke="#9a32cd" stroke-dasharray="5,2" d="M161.902,-120.096C144.244,-107.001 119.164,-88.4028 104.638,-77.6305"/>
<polygon fill="#9a32cd" stroke="#9a32cd" points="160.248,-123.226 170.365,-126.372 164.417,-117.604 160.248,-123.226"/>
<text text-anchor="middle" x="188" y="-99.5" font-family="Helvetica,sans-Serif" font-size="10.00"> m_nativeStreamer</text>
</g>
<!-- Node5 -->
<g id="node5" class="node"><title>Node5</title>
<g id="a_node5"><a xlink:href="classbitpit_1_1VTKBaseStreamer.xhtml" target="_top" xlink:title="The base class to be used to derive VTK streamers form. ">
<polygon fill="white" stroke="black" points="117,-184.5 117,-203.5 247,-203.5 247,-184.5 117,-184.5"/>
<text text-anchor="middle" x="182" y="-191.5" font-family="Helvetica,sans-Serif" font-size="10.00">bitpit::VTKBaseStreamer</text>
</a>
</g>
</g>
<!-- Node5&#45;&gt;Node4 -->
<g id="edge4" class="edge"><title>Node5&#45;&gt;Node4</title>
<path fill="none" stroke="midnightblue" d="M182,-173.953C182,-164.287 182,-153.031 182,-145.505"/>
<polygon fill="midnightblue" stroke="midnightblue" points="178.5,-174.25 182,-184.25 185.5,-174.25 178.5,-174.25"/>
</g>
</g>
</svg>
