<?xml version="1.0" encoding="UTF-8" standalone="no"?>
<!DOCTYPE svg PUBLIC "-//W3C//DTD SVG 1.1//EN"
 "http://www.w3.org/Graphics/SVG/1.1/DTD/svg11.dtd">
<!-- Generated by graphviz version 2.34.0 (20140112.1130)
 -->
<!-- Title: bitpit::SurfaceKernel Pages: 1 -->
<svg width="1266pt" height="264pt"
 viewBox="0.00 0.00 1266.00 264.00" xmlns="http://www.w3.org/2000/svg" xmlns:xlink="http://www.w3.org/1999/xlink">
<g id="graph0" class="graph" transform="scale(1 1) rotate(0) translate(4 260)">
<title>bitpit::SurfaceKernel</title>
<polygon fill="white" stroke="white" points="-4,4 -4,-260 1262,-260 1262,4 -4,4"/>
<!-- Node1 -->
<g id="node1" class="node"><title>Node1</title>
<polygon fill="#bfbfbf" stroke="black" points="1148.5,-116.5 1148.5,-135.5 1257.5,-135.5 1257.5,-116.5 1148.5,-116.5"/>
<text text-anchor="middle" x="1203" y="-123.5" font-family="Helvetica,sans-Serif" font-size="10.00">bitpit::SurfaceKernel</text>
</g>
<!-- Node2 -->
<g id="node2" class="node"><title>Node2</title>
<g id="a_node2"><a xlink:href="classbitpit_1_1PatchKernel.xhtml" target="_top" xlink:title="The PatchKernel class provides an interface for defining patches. ">
<polygon fill="white" stroke="black" points="1010.5,-116.5 1010.5,-135.5 1109.5,-135.5 1109.5,-116.5 1010.5,-116.5"/>
<text text-anchor="middle" x="1060" y="-123.5" font-family="Helvetica,sans-Serif" font-size="10.00">bitpit::PatchKernel</text>
</a>
</g>
</g>
<!-- Node2&#45;&gt;Node1 -->
<g id="edge1" class="edge"><title>Node2&#45;&gt;Node1</title>
<path fill="none" stroke="midnightblue" d="M1119.61,-126C1129.04,-126 1138.76,-126 1148.07,-126"/>
<polygon fill="midnightblue" stroke="midnightblue" points="1119.52,-122.5 1109.52,-126 1119.52,-129.5 1119.52,-122.5"/>
</g>
<!-- Node3 -->
<g id="node3" class="node"><title>Node3</title>
<g id="a_node3"><a xlink:href="classbitpit_1_1VTKBaseStreamer.xhtml" target="_top" xlink:title="The base class to be used to derive VTK streamers form. ">
<polygon fill="white" stroke="black" points="0,-208.5 0,-227.5 130,-227.5 130,-208.5 0,-208.5"/>
<text text-anchor="middle" x="65" y="-215.5" font-family="Helvetica,sans-Serif" font-size="10.00">bitpit::VTKBaseStreamer</text>
</a>
</g>
</g>
<!-- Node3&#45;&gt;Node2 -->
<g id="edge2" class="edge"><title>Node3&#45;&gt;Node2</title>
<path fill="none" stroke="midnightblue" d="M101.822,-230.892C135.677,-241.912 188.124,-256 235,-256 235,-256 235,-256 794,-256 885.574,-256 914.136,-247.197 992,-199 1019.21,-182.16 1042.25,-151.254 1052.81,-135.612"/>
<polygon fill="midnightblue" stroke="midnightblue" points="102.532,-227.439 91.9387,-227.589 100.314,-234.078 102.532,-227.439"/>
</g>
<!-- Node9 -->
<g id="node9" class="node"><title>Node9</title>
<g id="a_node9"><a xlink:href="classbitpit_1_1VTKNativeStreamer.xhtml" target="_top" xlink:title="In VTKNativeStreamer all instances of classes derived from VTKBaseConatiner are stored. Right now only std::vector is supported. ">
<polygon fill="white" stroke="black" points="168.5,-208.5 168.5,-227.5 303.5,-227.5 303.5,-208.5 168.5,-208.5"/>
<text text-anchor="middle" x="236" y="-215.5" font-family="Helvetica,sans-Serif" font-size="10.00">bitpit::VTKNativeStreamer</text>
</a>
</g>
</g>
<!-- Node3&#45;&gt;Node9 -->
<g id="edge9" class="edge"><title>Node3&#45;&gt;Node9</title>
<path fill="none" stroke="midnightblue" d="M140.665,-218C149.86,-218 159.213,-218 168.28,-218"/>
<polygon fill="midnightblue" stroke="midnightblue" points="140.374,-214.5 130.374,-218 140.374,-221.5 140.374,-214.5"/>
</g>
<!-- Node10 -->
<g id="node10" class="node"><title>Node10</title>
<g id="a_node10"><a xlink:href="classbitpit_1_1VTKUnstructuredGridStreamer.xhtml" target="_top" xlink:title="Streamer for VTKUnstructuredGrid if the grid is made of homogeneous types. ">
<polygon fill="white" stroke="black" points="322,-127 322,-157 464,-157 464,-127 322,-127"/>
<text text-anchor="start" x="330" y="-145" font-family="Helvetica,sans-Serif" font-size="10.00">bitpit::VTKUnstructuredGrid</text>
<text text-anchor="middle" x="393" y="-134" font-family="Helvetica,sans-Serif" font-size="10.00">Streamer</text>
</a>
</g>
</g>
<!-- Node3&#45;&gt;Node10 -->
<g id="edge11" class="edge"><title>Node3&#45;&gt;Node10</title>
<path fill="none" stroke="midnightblue" d="M87.3095,-202.514C107.141,-189.003 138.059,-170.167 168,-161 218.007,-145.689 277.036,-141.201 321.941,-140.401"/>
<polygon fill="midnightblue" stroke="midnightblue" points="85.2219,-199.703 79.0213,-208.294 89.2259,-205.445 85.2219,-199.703"/>
</g>
<!-- Node4 -->
<g id="node4" class="node"><title>Node4</title>
<g id="a_node4"><a xlink:href="classbitpit_1_1PiercedVector.xhtml" target="_top" xlink:title="bitpit::PiercedVector\l\&lt; bitpit::Vertex \&gt;">
<polygon fill="white" stroke="black" points="739,-137 739,-167 847,-167 847,-137 739,-137"/>
<text text-anchor="start" x="747" y="-155" font-family="Helvetica,sans-Serif" font-size="10.00">bitpit::PiercedVector</text>
<text text-anchor="middle" x="793" y="-144" font-family="Helvetica,sans-Serif" font-size="10.00">&lt; bitpit::Vertex &gt;</text>
</a>
</g>
</g>
<!-- Node4&#45;&gt;Node2 -->
<g id="edge3" class="edge"><title>Node4&#45;&gt;Node2</title>
<path fill="none" stroke="#9a32cd" stroke-dasharray="5,2" d="M857.359,-145.784C904.265,-141.182 967.229,-135.004 1010.24,-130.784"/>
<polygon fill="#9a32cd" stroke="#9a32cd" points="856.918,-142.31 847.308,-146.77 857.602,-149.277 856.918,-142.31"/>
<text text-anchor="middle" x="937" y="-146" font-family="Helvetica,sans-Serif" font-size="10.00"> m_vertices</text>
</g>
<!-- Node5 -->
<g id="node5" class="node"><title>Node5</title>
<g id="a_node5"><a xlink:href="classbitpit_1_1PiercedVector.xhtml" target="_top" xlink:title="Metafunction for generating a pierced vector. ">
<polygon fill="white" stroke="black" points="486,-86 486,-116 594,-116 594,-86 486,-86"/>
<text text-anchor="start" x="494" y="-104" font-family="Helvetica,sans-Serif" font-size="10.00">bitpit::PiercedVector</text>
<text text-anchor="middle" x="540" y="-93" font-family="Helvetica,sans-Serif" font-size="10.00">&lt; value_t, id_t &gt;</text>
</a>
</g>
</g>
<!-- Node5&#45;&gt;Node4 -->
<g id="edge4" class="edge"><title>Node5&#45;&gt;Node4</title>
<path fill="none" stroke="orange" stroke-dasharray="5,2" d="M604.243,-113.85C645.784,-122.291 699.514,-133.208 738.846,-141.2"/>
<polygon fill="orange" stroke="orange" points="604.727,-110.377 594.231,-111.816 603.333,-117.237 604.727,-110.377"/>
<text text-anchor="middle" x="660" y="-138" font-family="Helvetica,sans-Serif" font-size="10.00"> &lt; bitpit::Vertex &gt;</text>
</g>
<!-- Node11 -->
<g id="node11" class="node"><title>Node11</title>
<g id="a_node11"><a xlink:href="classbitpit_1_1PiercedVector.xhtml" target="_top" xlink:title="bitpit::PiercedVector\l\&lt; bitpit::Interface \&gt;">
<polygon fill="white" stroke="black" points="739,-88 739,-118 847,-118 847,-88 739,-88"/>
<text text-anchor="start" x="747" y="-106" font-family="Helvetica,sans-Serif" font-size="10.00">bitpit::PiercedVector</text>
<text text-anchor="middle" x="793" y="-95" font-family="Helvetica,sans-Serif" font-size="10.00">&lt; bitpit::Interface &gt;</text>
</a>
</g>
</g>
<!-- Node5&#45;&gt;Node11 -->
<g id="edge13" class="edge"><title>Node5&#45;&gt;Node11</title>
<path fill="none" stroke="orange" stroke-dasharray="5,2" d="M604.599,-101.313C634.729,-101.481 671.219,-101.713 704,-102 715.306,-102.099 727.429,-102.224 738.951,-102.352"/>
<polygon fill="orange" stroke="orange" points="604.242,-97.8112 594.223,-101.256 604.204,-104.811 604.242,-97.8112"/>
<text text-anchor="middle" x="660" y="-105" font-family="Helvetica,sans-Serif" font-size="10.00"> &lt; bitpit::Interface &gt;</text>
</g>
<!-- Node13 -->
<g id="node13" class="node"><title>Node13</title>
<g id="a_node13"><a xlink:href="classbitpit_1_1PiercedVector.xhtml" target="_top" xlink:title="bitpit::PiercedVector\l\&lt; bitpit::Cell \&gt;">
<polygon fill="white" stroke="black" points="739,-39 739,-69 847,-69 847,-39 739,-39"/>
<text text-anchor="start" x="747" y="-57" font-family="Helvetica,sans-Serif" font-size="10.00">bitpit::PiercedVector</text>
<text text-anchor="middle" x="793" y="-46" font-family="Helvetica,sans-Serif" font-size="10.00">&lt; bitpit::Cell &gt;</text>
</a>
</g>
</g>
<!-- Node5&#45;&gt;Node13 -->
<g id="edge16" class="edge"><title>Node5&#45;&gt;Node13</title>
<path fill="none" stroke="orange" stroke-dasharray="5,2" d="M604.243,-89.1577C645.784,-81.379 699.514,-71.3181 738.846,-63.9531"/>
<polygon fill="orange" stroke="orange" points="603.416,-85.7517 594.231,-91.0325 604.704,-92.6321 603.416,-85.7517"/>
<text text-anchor="middle" x="660" y="-89" font-family="Helvetica,sans-Serif" font-size="10.00"> &lt; bitpit::Cell &gt;</text>
</g>
<!-- Node6 -->
<g id="node6" class="node"><title>Node6</title>
<g id="a_node6"><a xlink:href="classbitpit_1_1VTKUnstructuredGrid.xhtml" target="_top" xlink:title="VTK input output for Unstructured Meshes. ">
<polygon fill="white" stroke="black" points="722,-186.5 722,-205.5 864,-205.5 864,-186.5 722,-186.5"/>
<text text-anchor="middle" x="793" y="-193.5" font-family="Helvetica,sans-Serif" font-size="10.00">bitpit::VTKUnstructuredGrid</text>
</a>
</g>
</g>
<!-- Node6&#45;&gt;Node2 -->
<g id="edge5" class="edge"><title>Node6&#45;&gt;Node2</title>
<path fill="none" stroke="#9a32cd" stroke-dasharray="5,2" d="M874.379,-185.365C910.834,-179.328 954.159,-170.439 992,-158 1009.76,-152.163 1028.89,-142.672 1042.15,-135.539"/>
<polygon fill="#9a32cd" stroke="#9a32cd" points="873.604,-181.945 864.289,-186.993 874.719,-188.856 873.604,-181.945"/>
<text text-anchor="middle" x="937" y="-187" font-family="Helvetica,sans-Serif" font-size="10.00"> m_vtk</text>
</g>
<!-- Node7 -->
<g id="node7" class="node"><title>Node7</title>
<g id="a_node7"><a xlink:href="classbitpit_1_1VTK.xhtml" target="_top" xlink:title="A base class for VTK input output. ">
<polygon fill="white" stroke="black" points="507.5,-190.5 507.5,-209.5 572.5,-209.5 572.5,-190.5 507.5,-190.5"/>
<text text-anchor="middle" x="540" y="-197.5" font-family="Helvetica,sans-Serif" font-size="10.00">bitpit::VTK</text>
</a>
</g>
</g>
<!-- Node7&#45;&gt;Node6 -->
<g id="edge6" class="edge"><title>Node7&#45;&gt;Node6</title>
<path fill="none" stroke="midnightblue" d="M582.689,-199.336C620.541,-198.732 677.128,-197.831 721.925,-197.117"/>
<polygon fill="midnightblue" stroke="midnightblue" points="582.478,-195.838 572.535,-199.497 582.59,-202.838 582.478,-195.838"/>
</g>
<!-- Node8 -->
<g id="node8" class="node"><title>Node8</title>
<g id="a_node8"><a xlink:href="classbitpit_1_1FileHandler.xhtml" target="_top" xlink:title="Creates file names and checks status. ">
<polygon fill="white" stroke="black" points="188,-170.5 188,-189.5 284,-189.5 284,-170.5 188,-170.5"/>
<text text-anchor="middle" x="236" y="-177.5" font-family="Helvetica,sans-Serif" font-size="10.00">bitpit::FileHandler</text>
</a>
</g>
</g>
<!-- Node8&#45;&gt;Node7 -->
<g id="edge7" class="edge"><title>Node8&#45;&gt;Node7</title>
<path fill="none" stroke="#9a32cd" stroke-dasharray="5,2" d="M294.12,-180.591C340.09,-181.469 406.314,-183.641 464,-189 478.283,-190.327 494,-192.518 507.34,-194.597"/>
<polygon fill="#9a32cd" stroke="#9a32cd" points="294.11,-177.09 284.049,-180.413 293.986,-184.089 294.11,-177.09"/>
<text text-anchor="middle" x="393" y="-192" font-family="Helvetica,sans-Serif" font-size="10.00"> m_fh</text>
</g>
<!-- Node9&#45;&gt;Node7 -->
<g id="edge8" class="edge"><title>Node9&#45;&gt;Node7</title>
<path fill="none" stroke="#9a32cd" stroke-dasharray="5,2" d="M313.884,-213.418C376.486,-209.686 461.691,-204.608 507.223,-201.894"/>
<polygon fill="#9a32cd" stroke="#9a32cd" points="313.423,-209.939 303.649,-214.028 313.84,-216.926 313.423,-209.939"/>
<text text-anchor="middle" x="393" y="-215" font-family="Helvetica,sans-Serif" font-size="10.00"> m_nativeStreamer</text>
</g>
<!-- Node10&#45;&gt;Node6 -->
<g id="edge10" class="edge"><title>Node10&#45;&gt;Node6</title>
<path fill="none" stroke="#9a32cd" stroke-dasharray="5,2" d="M474.247,-152.888C546.793,-162.731 652.539,-177.078 721.796,-186.475"/>
<polygon fill="#9a32cd" stroke="#9a32cd" points="474.618,-149.406 464.238,-151.53 473.677,-156.343 474.618,-149.406"/>
<text text-anchor="middle" x="540" y="-172" font-family="Helvetica,sans-Serif" font-size="10.00"> m_unstructuredStreamer</text>
</g>
<!-- Node11&#45;&gt;Node2 -->
<g id="edge12" class="edge"><title>Node11&#45;&gt;Node2</title>
<path fill="none" stroke="#9a32cd" stroke-dasharray="5,2" d="M857.292,-103.294C896.27,-104.115 947.186,-106.337 992,-112 1000.61,-113.088 1009.75,-114.693 1018.43,-116.433"/>
<polygon fill="#9a32cd" stroke="#9a32cd" points="857.205,-99.7922 847.142,-103.106 857.075,-106.791 857.205,-99.7922"/>
<text text-anchor="middle" x="937" y="-115" font-family="Helvetica,sans-Serif" font-size="10.00"> m_interfaces</text>
</g>
<!-- Node12 -->
<g id="node12" class="node"><title>Node12</title>
<g id="a_node12"><a xlink:href="classbitpit_1_1IndexGenerator.xhtml" target="_top" xlink:title="The IndexGenerator class allows to generate unique ids. ">
<polygon fill="white" stroke="black" points="735,-0.5 735,-19.5 851,-19.5 851,-0.5 735,-0.5"/>
<text text-anchor="middle" x="793" y="-7.5" font-family="Helvetica,sans-Serif" font-size="10.00">bitpit::IndexGenerator</text>
</a>
</g>
</g>
<!-- Node12&#45;&gt;Node2 -->
<g id="edge14" class="edge"><title>Node12&#45;&gt;Node2</title>
<path fill="none" stroke="#9a32cd" stroke-dasharray="5,2" d="M861.29,-2.32087C901.788,-0.906653 952.897,-5.0426 992,-28 1027.19,-48.6609 1048.03,-95.9861 1055.66,-116.37"/>
<polygon fill="#9a32cd" stroke="#9a32cd" points="861.062,1.17237 851.237,-2.79192 861.39,-5.81996 861.062,1.17237"/>
<text text-anchor="middle" x="937" y="-53" font-family="Helvetica,sans-Serif" font-size="10.00"> m_vertexIdGenerator</text>
<text text-anchor="middle" x="937" y="-42" font-family="Helvetica,sans-Serif" font-size="10.00">m_cellIdGenerator</text>
<text text-anchor="middle" x="937" y="-31" font-family="Helvetica,sans-Serif" font-size="10.00">m_interfaceIdGenerator</text>
</g>
<!-- Node13&#45;&gt;Node2 -->
<g id="edge15" class="edge"><title>Node13&#45;&gt;Node2</title>
<path fill="none" stroke="#9a32cd" stroke-dasharray="5,2" d="M857.3,-60.3841C896.821,-65.6143 948.312,-74.7202 992,-90 1011.07,-96.6699 1031.28,-108.226 1044.45,-116.446"/>
<polygon fill="#9a32cd" stroke="#9a32cd" points="857.626,-56.8975 847.264,-59.1049 856.741,-63.8413 857.626,-56.8975"/>
<text text-anchor="middle" x="937" y="-93" font-family="Helvetica,sans-Serif" font-size="10.00"> m_cells</text>
</g>
</g>
</svg>
