<?xml version="1.0" encoding="UTF-8" standalone="no"?>
<!DOCTYPE svg PUBLIC "-//W3C//DTD SVG 1.1//EN"
 "http://www.w3.org/Graphics/SVG/1.1/DTD/svg11.dtd">
<!-- Generated by graphviz version 2.34.0 (20140112.1130)
 -->
<!-- Title: bitpit::ElementInfo Pages: 1 -->
<svg width="196pt" height="129pt"
 viewBox="0.00 0.00 196.00 129.00" xmlns="http://www.w3.org/2000/svg" xmlns:xlink="http://www.w3.org/1999/xlink">
<g id="graph0" class="graph" transform="scale(1 1) rotate(0) translate(4 125)">
<title>bitpit::ElementInfo</title>
<polygon fill="white" stroke="white" points="-4,4 -4,-125 192,-125 192,4 -4,4"/>
<!-- Node1 -->
<g id="node1" class="node"><title>Node1</title>
<polygon fill="#bfbfbf" stroke="black" points="-1,-51 -1,-70 97,-70 97,-51 -1,-51"/>
<text text-anchor="middle" x="48" y="-58" font-family="Helvetica,sans-Serif" font-size="10.00">bitpit::ElementInfo</text>
</g>
<!-- Node1&#45;&gt;Node1 -->
<g id="edge1" class="edge"><title>Node1&#45;&gt;Node1</title>
<path fill="none" stroke="#9a32cd" stroke-dasharray="5,2" d="M107.486,-63.2091C111.537,-62.5859 114,-61.6829 114,-60.5 114,-58.5078 107.015,-57.3094 97.2194,-56.9047"/>
<polygon fill="#9a32cd" stroke="#9a32cd" points="106.881,-59.7482 97.2194,-64.0953 107.483,-66.7223 106.881,-59.7482"/>
<text text-anchor="middle" x="150.5" y="-113" font-family="Helvetica,sans-Serif" font-size="10.00"> pyramidInfo</text>
<text text-anchor="middle" x="150.5" y="-102" font-family="Helvetica,sans-Serif" font-size="10.00">triangleInfo</text>
<text text-anchor="middle" x="150.5" y="-91" font-family="Helvetica,sans-Serif" font-size="10.00">vertexInfo</text>
<text text-anchor="middle" x="150.5" y="-80" font-family="Helvetica,sans-Serif" font-size="10.00">voxelInfo</text>
<text text-anchor="middle" x="150.5" y="-69" font-family="Helvetica,sans-Serif" font-size="10.00">undefinedInfo</text>
<text text-anchor="middle" x="150.5" y="-58" font-family="Helvetica,sans-Serif" font-size="10.00">lineInfo</text>
<text text-anchor="middle" x="150.5" y="-47" font-family="Helvetica,sans-Serif" font-size="10.00">quadInfo</text>
<text text-anchor="middle" x="150.5" y="-36" font-family="Helvetica,sans-Serif" font-size="10.00">hexahedronInfo</text>
<text text-anchor="middle" x="150.5" y="-25" font-family="Helvetica,sans-Serif" font-size="10.00">tetraInfo</text>
<text text-anchor="middle" x="150.5" y="-14" font-family="Helvetica,sans-Serif" font-size="10.00">wedgeInfo</text>
<text text-anchor="middle" x="150.5" y="-3" font-family="Helvetica,sans-Serif" font-size="10.00">...</text>
</g>
</g>
</svg>
