<?xml version="1.0" encoding="UTF-8" standalone="no"?>
<!DOCTYPE svg PUBLIC "-//W3C//DTD SVG 1.1//EN"
 "http://www.w3.org/Graphics/SVG/1.1/DTD/svg11.dtd">
<!-- Generated by graphviz version 2.34.0 (20140112.1130)
 -->
<!-- Title: bitpit::VTK Pages: 1 -->
<svg width="257pt" height="154pt"
 viewBox="0.00 0.00 257.00 154.00" xmlns="http://www.w3.org/2000/svg" xmlns:xlink="http://www.w3.org/1999/xlink">
<g id="graph0" class="graph" transform="scale(1 1) rotate(0) translate(4 150)">
<title>bitpit::VTK</title>
<polygon fill="white" stroke="white" points="-4,4 -4,-150 253,-150 253,4 -4,4"/>
<!-- Node1 -->
<g id="node1" class="node"><title>Node1</title>
<polygon fill="#bfbfbf" stroke="black" points="60.5,-0.5 60.5,-19.5 125.5,-19.5 125.5,-0.5 60.5,-0.5"/>
<text text-anchor="middle" x="93" y="-7.5" font-family="Helvetica,sans-Serif" font-size="10.00">bitpit::VTK</text>
</g>
<!-- Node2 -->
<g id="node2" class="node"><title>Node2</title>
<g id="a_node2"><a xlink:href="classbitpit_1_1FileHandler.xhtml" target="_top" xlink:title="Creates file names and checks status. ">
<polygon fill="white" stroke="black" points="0,-68.5 0,-87.5 96,-87.5 96,-68.5 0,-68.5"/>
<text text-anchor="middle" x="48" y="-75.5" font-family="Helvetica,sans-Serif" font-size="10.00">bitpit::FileHandler</text>
</a>
</g>
</g>
<!-- Node2&#45;&gt;Node1 -->
<g id="edge1" class="edge"><title>Node2&#45;&gt;Node1</title>
<path fill="none" stroke="#9a32cd" stroke-dasharray="5,2" d="M59.6334,-59.9377C68.3782,-47.112 80.0051,-30.0591 86.972,-19.8411"/>
<polygon fill="#9a32cd" stroke="#9a32cd" points="56.6246,-58.1377 53.883,-68.3717 62.4082,-62.0811 56.6246,-58.1377"/>
<text text-anchor="middle" x="87.5" y="-41.5" font-family="Helvetica,sans-Serif" font-size="10.00"> m_fh</text>
</g>
<!-- Node3 -->
<g id="node3" class="node"><title>Node3</title>
<g id="a_node3"><a xlink:href="classbitpit_1_1VTKNativeStreamer.xhtml" target="_top" xlink:title="In VTKNativeStreamer all instances of classes derived from VTKBaseConatiner are stored. Right now only std::vector is supported. ">
<polygon fill="white" stroke="black" points="114.5,-68.5 114.5,-87.5 249.5,-87.5 249.5,-68.5 114.5,-68.5"/>
<text text-anchor="middle" x="182" y="-75.5" font-family="Helvetica,sans-Serif" font-size="10.00">bitpit::VTKNativeStreamer</text>
</a>
</g>
</g>
<!-- Node3&#45;&gt;Node1 -->
<g id="edge2" class="edge"><title>Node3&#45;&gt;Node1</title>
<path fill="none" stroke="#9a32cd" stroke-dasharray="5,2" d="M161.902,-62.0961C144.244,-49.0012 119.164,-30.4028 104.638,-19.6305"/>
<polygon fill="#9a32cd" stroke="#9a32cd" points="160.248,-65.2264 170.365,-68.3717 164.417,-59.6037 160.248,-65.2264"/>
<text text-anchor="middle" x="188" y="-41.5" font-family="Helvetica,sans-Serif" font-size="10.00"> m_nativeStreamer</text>
</g>
<!-- Node4 -->
<g id="node4" class="node"><title>Node4</title>
<g id="a_node4"><a xlink:href="classbitpit_1_1VTKBaseStreamer.xhtml" target="_top" xlink:title="The base class to be used to derive VTK streamers form. ">
<polygon fill="white" stroke="black" points="117,-126.5 117,-145.5 247,-145.5 247,-126.5 117,-126.5"/>
<text text-anchor="middle" x="182" y="-133.5" font-family="Helvetica,sans-Serif" font-size="10.00">bitpit::VTKBaseStreamer</text>
</a>
</g>
</g>
<!-- Node4&#45;&gt;Node3 -->
<g id="edge3" class="edge"><title>Node4&#45;&gt;Node3</title>
<path fill="none" stroke="midnightblue" d="M182,-115.953C182,-106.287 182,-95.0312 182,-87.5052"/>
<polygon fill="midnightblue" stroke="midnightblue" points="178.5,-116.25 182,-126.25 185.5,-116.25 178.5,-116.25"/>
</g>
</g>
</svg>
