<?xml version="1.0" encoding="UTF-8" standalone="no"?>
<!DOCTYPE svg PUBLIC "-//W3C//DTD SVG 1.1//EN"
 "http://www.w3.org/Graphics/SVG/1.1/DTD/svg11.dtd">
<!-- Generated by graphviz version 2.34.0 (20140112.1130)
 -->
<!-- Title: bitpit::LevelSetOctree Pages: 1 -->
<!--zoomable 368 -->
<svg id="main" version="1.1" xmlns="http://www.w3.org/2000/svg" xmlns:xlink="http://www.w3.org/1999/xlink" xml:space="preserve" onload="init(evt)">
<style type="text/css"><![CDATA[
.edge:hover path { stroke: red; }
.edge:hover polygon { stroke: red; fill: red; }
]]></style>
<script type="text/javascript"><![CDATA[
var edges = document.getElementsByTagName('g');
if (edges && edges.length) {
  for (var i=0;i<edges.length;i++) {
    if (edges[i].id.substr(0,4)=='edge') {
      edges[i].setAttribute('class','edge');
    }
  }
}
]]></script>
        <defs>
                <circle id="rim" cx="0" cy="0" r="7"/>
                <circle id="rim2" cx="0" cy="0" r="3.5"/>
                <g id="zoomPlus">
                        <use xlink:href="#rim" fill="#404040">
                                <set attributeName="fill" to="#808080" begin="zoomplus.mouseover" end="zoomplus.mouseout"/>
                        </use>
                        <path d="M-4,0h8M0,-4v8" fill="none" stroke="white" stroke-width="1.5" pointer-events="none"/>
                </g>
                <g id="zoomMin">
                        <use xlink:href="#rim" fill="#404040">
                                <set attributeName="fill" to="#808080" begin="zoomminus.mouseover" end="zoomminus.mouseout"/>
                        </use>
                        <path d="M-4,0h8" fill="none" stroke="white" stroke-width="1.5" pointer-events="none"/>
                </g>
                <g id="dirArrow">
                        <path fill="none" stroke="white" stroke-width="1.5" d="M0,-3.0v7 M-2.5,-0.5L0,-3.0L2.5,-0.5"/>
                </g>
               <g id="resetDef">
                       <use xlink:href="#rim2" fill="#404040">
                               <set attributeName="fill" to="#808080" begin="reset.mouseover" end="reset.mouseout"/>
                       </use>
               </g>
        </defs>

<script type="text/javascript">
var viewWidth = 1668;
var viewHeight = 368;
var sectionId = 'dynsection-1';
</script>
<script xlink:href="svgpan.js"/>
<svg id="graph" class="graph">
<g id="viewport">
<title>bitpit::LevelSetOctree</title>
<polygon fill="white" stroke="white" points="-4,4 -4,-364 1664,-364 1664,4 -4,4"/>
<!-- Node1 -->
<g id="node1" class="node"><title>Node1</title>
<polygon fill="#bfbfbf" stroke="black" points="1546,-269.5 1546,-288.5 1660,-288.5 1660,-269.5 1546,-269.5"/>
<text text-anchor="middle" x="1603" y="-276.5" font-family="Helvetica,sans-Serif" font-size="10.00">bitpit::LevelSetOctree</text>
</g>
<!-- Node2 -->
<g id="node2" class="node"><title>Node2</title>
<g id="a_node2"><a xlink:href="classbitpit_1_1LevelSetKernel.xhtml" target="_top" xlink:title="Mesh specific implementation to calculate the levelset function. ">
<polygon fill="white" stroke="black" points="1394.5,-269.5 1394.5,-288.5 1507.5,-288.5 1507.5,-269.5 1394.5,-269.5"/>
<text text-anchor="middle" x="1451" y="-276.5" font-family="Helvetica,sans-Serif" font-size="10.00">bitpit::LevelSetKernel</text>
</a>
</g>
</g>
<!-- Node2&#45;&gt;Node1 -->
<g id="edge1" class="edge"><title>Node2&#45;&gt;Node1</title>
<path fill="none" stroke="midnightblue" d="M1517.88,-279C1527.2,-279 1536.73,-279 1545.85,-279"/>
<polygon fill="midnightblue" stroke="midnightblue" points="1517.85,-275.5 1507.85,-279 1517.85,-282.5 1517.85,-275.5"/>
</g>
<!-- Node3 -->
<g id="node3" class="node"><title>Node3</title>
<g id="a_node3"><a xlink:href="classbitpit_1_1PiercedVector.xhtml" target="_top" xlink:title="bitpit::PiercedVector\l\&lt; bitpit::LevelSetKernel\l::LSInfo \&gt;">
<polygon fill="white" stroke="black" points="904,-319.5 904,-360.5 1026,-360.5 1026,-319.5 904,-319.5"/>
<text text-anchor="start" x="912" y="-348.5" font-family="Helvetica,sans-Serif" font-size="10.00">bitpit::PiercedVector</text>
<text text-anchor="start" x="912" y="-337.5" font-family="Helvetica,sans-Serif" font-size="10.00">&lt; bitpit::LevelSetKernel</text>
<text text-anchor="middle" x="965" y="-326.5" font-family="Helvetica,sans-Serif" font-size="10.00">::LSInfo &gt;</text>
</a>
</g>
</g>
<!-- Node3&#45;&gt;Node2 -->
<g id="edge2" class="edge"><title>Node3&#45;&gt;Node2</title>
<path fill="none" stroke="#9a32cd" stroke-dasharray="5,2" d="M1036.31,-331.139C1133.15,-318.933 1305.64,-297.194 1394.17,-286.036"/>
<polygon fill="#9a32cd" stroke="#9a32cd" points="1035.8,-327.675 1026.32,-332.398 1036.68,-334.62 1035.8,-327.675"/>
<text text-anchor="middle" x="1175" y="-319" font-family="Helvetica,sans-Serif" font-size="10.00"> m_ls</text>
</g>
<!-- Node4 -->
<g id="node4" class="node"><title>Node4</title>
<g id="a_node4"><a xlink:href="classbitpit_1_1PiercedVector.xhtml" target="_top" xlink:title="Metafunction for generating a pierced vector. ">
<polygon fill="white" stroke="black" points="486,-263 486,-293 594,-293 594,-263 486,-263"/>
<text text-anchor="start" x="494" y="-281" font-family="Helvetica,sans-Serif" font-size="10.00">bitpit::PiercedVector</text>
<text text-anchor="middle" x="540" y="-270" font-family="Helvetica,sans-Serif" font-size="10.00">&lt; value_t, id_t &gt;</text>
</a>
</g>
</g>
<!-- Node4&#45;&gt;Node3 -->
<g id="edge3" class="edge"><title>Node4&#45;&gt;Node3</title>
<path fill="none" stroke="orange" stroke-dasharray="5,2" d="M579.521,-297.435C591.012,-302.546 603.801,-307.581 616,-311 714.218,-338.529 833.651,-342.399 903.987,-341.817"/>
<polygon fill="orange" stroke="orange" points="580.762,-294.153 570.214,-293.156 577.838,-300.513 580.762,-294.153"/>
<text text-anchor="start" x="616.5" y="-346" font-family="Helvetica,sans-Serif" font-size="10.00"> &lt; bitpit::LevelSetKernel</text>
<text text-anchor="middle" x="671" y="-335" font-family="Helvetica,sans-Serif" font-size="10.00">::LSInfo &gt;</text>
</g>
<!-- Node8 -->
<g id="node8" class="node"><title>Node8</title>
<g id="a_node8"><a xlink:href="classbitpit_1_1PiercedVector.xhtml" target="_top" xlink:title="bitpit::PiercedVector\l\&lt; bitpit::Vertex \&gt;">
<polygon fill="white" stroke="black" points="761,-289 761,-319 869,-319 869,-289 761,-289"/>
<text text-anchor="start" x="769" y="-307" font-family="Helvetica,sans-Serif" font-size="10.00">bitpit::PiercedVector</text>
<text text-anchor="middle" x="815" y="-296" font-family="Helvetica,sans-Serif" font-size="10.00">&lt; bitpit::Vertex &gt;</text>
</a>
</g>
</g>
<!-- Node4&#45;&gt;Node8 -->
<g id="edge8" class="edge"><title>Node4&#45;&gt;Node8</title>
<path fill="none" stroke="orange" stroke-dasharray="5,2" d="M604.448,-284.043C651.909,-288.563 716.073,-294.674 760.849,-298.938"/>
<polygon fill="orange" stroke="orange" points="604.572,-280.539 594.285,-283.075 603.908,-287.507 604.572,-280.539"/>
<text text-anchor="middle" x="671" y="-299" font-family="Helvetica,sans-Serif" font-size="10.00"> &lt; bitpit::Vertex &gt;</text>
</g>
<!-- Node14 -->
<g id="node14" class="node"><title>Node14</title>
<g id="a_node14"><a xlink:href="classbitpit_1_1PiercedVector.xhtml" target="_top" xlink:title="bitpit::PiercedVector\l\&lt; bitpit::Interface \&gt;">
<polygon fill="white" stroke="black" points="761,-240 761,-270 869,-270 869,-240 761,-240"/>
<text text-anchor="start" x="769" y="-258" font-family="Helvetica,sans-Serif" font-size="10.00">bitpit::PiercedVector</text>
<text text-anchor="middle" x="815" y="-247" font-family="Helvetica,sans-Serif" font-size="10.00">&lt; bitpit::Interface &gt;</text>
</a>
</g>
</g>
<!-- Node4&#45;&gt;Node14 -->
<g id="edge17" class="edge"><title>Node4&#45;&gt;Node14</title>
<path fill="none" stroke="orange" stroke-dasharray="5,2" d="M604.113,-265.57C608.127,-264.98 612.114,-264.449 616,-264 664.882,-258.354 720.935,-256.208 760.895,-255.413"/>
<polygon fill="orange" stroke="orange" points="603.46,-262.129 594.125,-267.139 604.547,-269.044 603.46,-262.129"/>
<text text-anchor="middle" x="671" y="-267" font-family="Helvetica,sans-Serif" font-size="10.00"> &lt; bitpit::Interface &gt;</text>
</g>
<!-- Node16 -->
<g id="node16" class="node"><title>Node16</title>
<g id="a_node16"><a xlink:href="classbitpit_1_1PiercedVector.xhtml" target="_top" xlink:title="bitpit::PiercedVector\l\&lt; bitpit::Cell \&gt;">
<polygon fill="white" stroke="black" points="761,-191 761,-221 869,-221 869,-191 761,-191"/>
<text text-anchor="start" x="769" y="-209" font-family="Helvetica,sans-Serif" font-size="10.00">bitpit::PiercedVector</text>
<text text-anchor="middle" x="815" y="-198" font-family="Helvetica,sans-Serif" font-size="10.00">&lt; bitpit::Cell &gt;</text>
</a>
</g>
</g>
<!-- Node4&#45;&gt;Node16 -->
<g id="edge20" class="edge"><title>Node4&#45;&gt;Node16</title>
<path fill="none" stroke="orange" stroke-dasharray="5,2" d="M577.313,-258.158C589.346,-252.243 602.991,-246.22 616,-242 663.856,-226.475 720.523,-217.025 760.946,-211.728"/>
<polygon fill="orange" stroke="orange" points="575.396,-255.206 568.053,-262.843 578.556,-261.452 575.396,-255.206"/>
<text text-anchor="middle" x="671" y="-245" font-family="Helvetica,sans-Serif" font-size="10.00"> &lt; bitpit::Cell &gt;</text>
</g>
<!-- Node5 -->
<g id="node5" class="node"><title>Node5</title>
<g id="a_node5"><a xlink:href="classbitpit_1_1VolumeKernel.xhtml" target="_top" xlink:title="The VolumeKernel class provides an interface for defining volume patches. ">
<polygon fill="white" stroke="black" points="1206.5,-240.5 1206.5,-259.5 1315.5,-259.5 1315.5,-240.5 1206.5,-240.5"/>
<text text-anchor="middle" x="1261" y="-247.5" font-family="Helvetica,sans-Serif" font-size="10.00">bitpit::VolumeKernel</text>
</a>
</g>
</g>
<!-- Node5&#45;&gt;Node2 -->
<g id="edge4" class="edge"><title>Node5&#45;&gt;Node2</title>
<path fill="none" stroke="#9a32cd" stroke-dasharray="5,2" d="M1325.66,-259.82C1347.94,-263.257 1372.77,-267.087 1394.34,-270.415"/>
<polygon fill="#9a32cd" stroke="#9a32cd" points="1326.04,-256.337 1315.62,-258.271 1324.97,-263.255 1326.04,-256.337"/>
<text text-anchor="middle" x="1355" y="-271" font-family="Helvetica,sans-Serif" font-size="10.00"> m_mesh</text>
</g>
<!-- Node6 -->
<g id="node6" class="node"><title>Node6</title>
<g id="a_node6"><a xlink:href="classbitpit_1_1PatchKernel.xhtml" target="_top" xlink:title="The PatchKernel class provides an interface for defining patches. ">
<polygon fill="white" stroke="black" points="1044.5,-208.5 1044.5,-227.5 1143.5,-227.5 1143.5,-208.5 1044.5,-208.5"/>
<text text-anchor="middle" x="1094" y="-215.5" font-family="Helvetica,sans-Serif" font-size="10.00">bitpit::PatchKernel</text>
</a>
</g>
</g>
<!-- Node6&#45;&gt;Node5 -->
<g id="edge5" class="edge"><title>Node6&#45;&gt;Node5</title>
<path fill="none" stroke="midnightblue" d="M1153.53,-229.351C1172.29,-232.989 1192.86,-236.979 1210.88,-240.473"/>
<polygon fill="midnightblue" stroke="midnightblue" points="1154.1,-225.896 1143.61,-227.428 1152.76,-232.768 1154.1,-225.896"/>
</g>
<!-- Node7 -->
<g id="node7" class="node"><title>Node7</title>
<g id="a_node7"><a xlink:href="classbitpit_1_1VTKBaseStreamer.xhtml" target="_top" xlink:title="The base class to be used to derive VTK streamers form. ">
<polygon fill="white" stroke="black" points="0,-76.5 0,-95.5 130,-95.5 130,-76.5 0,-76.5"/>
<text text-anchor="middle" x="65" y="-83.5" font-family="Helvetica,sans-Serif" font-size="10.00">bitpit::VTKBaseStreamer</text>
</a>
</g>
</g>
<!-- Node7&#45;&gt;Node6 -->
<g id="edge6" class="edge"><title>Node7&#45;&gt;Node6</title>
<path fill="none" stroke="midnightblue" d="M101.822,-98.8916C135.677,-109.912 188.124,-124 235,-124 235,-124 235,-124 816,-124 910.219,-124 941.314,-111.701 1026,-153 1052.51,-165.929 1075.19,-193.328 1086.09,-208.087"/>
<polygon fill="midnightblue" stroke="midnightblue" points="102.532,-95.4389 91.9387,-95.589 100.314,-102.078 102.532,-95.4389"/>
</g>
<!-- Node12 -->
<g id="node12" class="node"><title>Node12</title>
<g id="a_node12"><a xlink:href="classbitpit_1_1VTKNativeStreamer.xhtml" target="_top" xlink:title="In VTKNativeStreamer all instances of classes derived from VTKBaseConatiner are stored. Right now only std::vector is supported. ">
<polygon fill="white" stroke="black" points="168.5,-0.5 168.5,-19.5 303.5,-19.5 303.5,-0.5 168.5,-0.5"/>
<text text-anchor="middle" x="236" y="-7.5" font-family="Helvetica,sans-Serif" font-size="10.00">bitpit::VTKNativeStreamer</text>
</a>
</g>
</g>
<!-- Node7&#45;&gt;Node12 -->
<g id="edge13" class="edge"><title>Node7&#45;&gt;Node12</title>
<path fill="none" stroke="midnightblue" d="M89.1648,-70.9914C109.344,-58.4274 139.724,-40.7211 168,-29 176.712,-25.3888 186.335,-22.2143 195.505,-19.5456"/>
<polygon fill="midnightblue" stroke="midnightblue" points="87.2435,-68.0651 80.6549,-76.3622 90.9796,-73.9847 87.2435,-68.0651"/>
</g>
<!-- Node13 -->
<g id="node13" class="node"><title>Node13</title>
<g id="a_node13"><a xlink:href="classbitpit_1_1VTKUnstructuredGridStreamer.xhtml" target="_top" xlink:title="Streamer for VTKUnstructuredGrid if the grid is made of homogeneous types. ">
<polygon fill="white" stroke="black" points="322,-71 322,-101 464,-101 464,-71 322,-71"/>
<text text-anchor="start" x="330" y="-89" font-family="Helvetica,sans-Serif" font-size="10.00">bitpit::VTKUnstructuredGrid</text>
<text text-anchor="middle" x="393" y="-78" font-family="Helvetica,sans-Serif" font-size="10.00">Streamer</text>
</a>
</g>
</g>
<!-- Node7&#45;&gt;Node13 -->
<g id="edge15" class="edge"><title>Node7&#45;&gt;Node13</title>
<path fill="none" stroke="midnightblue" d="M140.313,-86C194.842,-86 268.408,-86 321.916,-86"/>
<polygon fill="midnightblue" stroke="midnightblue" points="140.018,-82.5001 130.018,-86 140.018,-89.5001 140.018,-82.5001"/>
</g>
<!-- Node8&#45;&gt;Node6 -->
<g id="edge7" class="edge"><title>Node8&#45;&gt;Node6</title>
<path fill="none" stroke="#9a32cd" stroke-dasharray="5,2" d="M879.315,-297.217C921.938,-291.175 978.767,-280.21 1026,-261 1046.74,-252.564 1068.06,-237.586 1080.92,-227.723"/>
<polygon fill="#9a32cd" stroke="#9a32cd" points="878.784,-293.757 869.35,-298.577 879.731,-300.693 878.784,-293.757"/>
<text text-anchor="middle" x="965" y="-296" font-family="Helvetica,sans-Serif" font-size="10.00"> m_vertices</text>
</g>
<!-- Node9 -->
<g id="node9" class="node"><title>Node9</title>
<g id="a_node9"><a xlink:href="classbitpit_1_1VTKUnstructuredGrid.xhtml" target="_top" xlink:title="VTK input output for Unstructured Meshes. ">
<polygon fill="white" stroke="black" points="744,-75.5 744,-94.5 886,-94.5 886,-75.5 744,-75.5"/>
<text text-anchor="middle" x="815" y="-82.5" font-family="Helvetica,sans-Serif" font-size="10.00">bitpit::VTKUnstructuredGrid</text>
</a>
</g>
</g>
<!-- Node9&#45;&gt;Node6 -->
<g id="edge9" class="edge"><title>Node9&#45;&gt;Node6</title>
<path fill="none" stroke="#9a32cd" stroke-dasharray="5,2" d="M878.218,-74.3525C922.73,-70.0662 982.264,-71.4399 1026,-99 1066.92,-124.785 1085.17,-185.042 1090.89,-208.457"/>
<polygon fill="#9a32cd" stroke="#9a32cd" points="877.669,-70.8914 868.104,-75.4475 878.423,-77.8507 877.669,-70.8914"/>
<text text-anchor="middle" x="965" y="-102" font-family="Helvetica,sans-Serif" font-size="10.00"> m_vtk</text>
</g>
<!-- Node10 -->
<g id="node10" class="node"><title>Node10</title>
<g id="a_node10"><a xlink:href="classbitpit_1_1VTK.xhtml" target="_top" xlink:title="A base class for VTK input output. ">
<polygon fill="white" stroke="black" points="507.5,-29.5 507.5,-48.5 572.5,-48.5 572.5,-29.5 507.5,-29.5"/>
<text text-anchor="middle" x="540" y="-36.5" font-family="Helvetica,sans-Serif" font-size="10.00">bitpit::VTK</text>
</a>
</g>
</g>
<!-- Node10&#45;&gt;Node9 -->
<g id="edge10" class="edge"><title>Node10&#45;&gt;Node9</title>
<path fill="none" stroke="midnightblue" d="M582.666,-46.0207C629.429,-53.9002 705.549,-66.7262 757.609,-75.4982"/>
<polygon fill="midnightblue" stroke="midnightblue" points="583.026,-42.532 572.583,-44.3217 581.863,-49.4347 583.026,-42.532"/>
</g>
<!-- Node11 -->
<g id="node11" class="node"><title>Node11</title>
<g id="a_node11"><a xlink:href="classbitpit_1_1FileHandler.xhtml" target="_top" xlink:title="Creates file names and checks status. ">
<polygon fill="white" stroke="black" points="188,-38.5 188,-57.5 284,-57.5 284,-38.5 188,-38.5"/>
<text text-anchor="middle" x="236" y="-45.5" font-family="Helvetica,sans-Serif" font-size="10.00">bitpit::FileHandler</text>
</a>
</g>
</g>
<!-- Node11&#45;&gt;Node10 -->
<g id="edge11" class="edge"><title>Node11&#45;&gt;Node10</title>
<path fill="none" stroke="#9a32cd" stroke-dasharray="5,2" d="M294.395,-46.2896C357.613,-44.4056 456.978,-41.4444 507.394,-39.9419"/>
<polygon fill="#9a32cd" stroke="#9a32cd" points="294.079,-42.7973 284.188,-46.5938 294.287,-49.7942 294.079,-42.7973"/>
<text text-anchor="middle" x="393" y="-49" font-family="Helvetica,sans-Serif" font-size="10.00"> m_fh</text>
</g>
<!-- Node12&#45;&gt;Node10 -->
<g id="edge12" class="edge"><title>Node12&#45;&gt;Node10</title>
<path fill="none" stroke="#9a32cd" stroke-dasharray="5,2" d="M313.753,-14.1413C357.806,-16.9198 414.112,-21.1513 464,-27 478.275,-28.6736 493.991,-31.0975 507.333,-33.3294"/>
<polygon fill="#9a32cd" stroke="#9a32cd" points="313.888,-10.643 303.69,-13.5183 313.455,-17.6296 313.888,-10.643"/>
<text text-anchor="middle" x="393" y="-30" font-family="Helvetica,sans-Serif" font-size="10.00"> m_nativeStreamer</text>
</g>
<!-- Node13&#45;&gt;Node9 -->
<g id="edge14" class="edge"><title>Node13&#45;&gt;Node9</title>
<path fill="none" stroke="#9a32cd" stroke-dasharray="5,2" d="M474.559,-85.8082C552.539,-85.6225 669.559,-85.3439 743.822,-85.1671"/>
<polygon fill="#9a32cd" stroke="#9a32cd" points="474.29,-82.3087 464.299,-85.8326 474.307,-89.3087 474.29,-82.3087"/>
<text text-anchor="middle" x="540" y="-89" font-family="Helvetica,sans-Serif" font-size="10.00"> m_unstructuredStreamer</text>
</g>
<!-- Node14&#45;&gt;Node6 -->
<g id="edge16" class="edge"><title>Node14&#45;&gt;Node6</title>
<path fill="none" stroke="#9a32cd" stroke-dasharray="5,2" d="M879.222,-248.453C920.975,-243.888 976.851,-237.321 1026,-230 1031.96,-229.112 1038.21,-228.102 1044.39,-227.053"/>
<polygon fill="#9a32cd" stroke="#9a32cd" points="878.758,-244.983 869.194,-249.54 879.513,-251.942 878.758,-244.983"/>
<text text-anchor="middle" x="965" y="-249" font-family="Helvetica,sans-Serif" font-size="10.00"> m_interfaces</text>
</g>
<!-- Node15 -->
<g id="node15" class="node"><title>Node15</title>
<g id="a_node15"><a xlink:href="classbitpit_1_1IndexGenerator.xhtml" target="_top" xlink:title="The IndexGenerator class allows to generate unique ids. ">
<polygon fill="white" stroke="black" points="757,-152.5 757,-171.5 873,-171.5 873,-152.5 757,-152.5"/>
<text text-anchor="middle" x="815" y="-159.5" font-family="Helvetica,sans-Serif" font-size="10.00">bitpit::IndexGenerator</text>
</a>
</g>
</g>
<!-- Node15&#45;&gt;Node6 -->
<g id="edge18" class="edge"><title>Node15&#45;&gt;Node6</title>
<path fill="none" stroke="#9a32cd" stroke-dasharray="5,2" d="M883.36,-156.527C925.411,-155.285 980.087,-157.689 1026,-173 1048.33,-180.447 1070.21,-197.5 1082.61,-208.343"/>
<polygon fill="#9a32cd" stroke="#9a32cd" points="883.091,-153.035 873.228,-156.904 883.351,-160.03 883.091,-153.035"/>
<text text-anchor="middle" x="965" y="-198" font-family="Helvetica,sans-Serif" font-size="10.00"> m_vertexIdGenerator</text>
<text text-anchor="middle" x="965" y="-187" font-family="Helvetica,sans-Serif" font-size="10.00">m_cellIdGenerator</text>
<text text-anchor="middle" x="965" y="-176" font-family="Helvetica,sans-Serif" font-size="10.00">m_interfaceIdGenerator</text>
</g>
<!-- Node16&#45;&gt;Node6 -->
<g id="edge19" class="edge"><title>Node16&#45;&gt;Node6</title>
<path fill="none" stroke="#9a32cd" stroke-dasharray="5,2" d="M879.159,-208.736C929.29,-210.908 998.352,-213.9 1044.28,-215.889"/>
<polygon fill="#9a32cd" stroke="#9a32cd" points="879.223,-205.236 869.081,-208.3 878.92,-212.229 879.223,-205.236"/>
<text text-anchor="middle" x="965" y="-218" font-family="Helvetica,sans-Serif" font-size="10.00"> m_cells</text>
</g>
</g>
</svg>
        <g id="navigator" transform="translate(0 0)" fill="#404254">
                <rect fill="#f2f5e9" fill-opacity="0.5" stroke="#606060" stroke-width=".5" x="0" y="0" width="60" height="60"/>
                <use id="zoomplus" xlink:href="#zoomPlus" x="17" y="9" onmousedown="handleZoom(evt,'in')"/>
                <use id="zoomminus" xlink:href="#zoomMin" x="42" y="9" onmousedown="handleZoom(evt,'out')"/>
                <use id="reset" xlink:href="#resetDef" x="30" y="36" onmousedown="handleReset()"/>
                <g id="arrowUp" xlink:href="#dirArrow" transform="translate(30 24)" onmousedown="handlePan(0,-1)">
                  <use xlink:href="#rim" fill="#404040">
                        <set attributeName="fill" to="#808080" begin="arrowUp.mouseover" end="arrowUp.mouseout"/>
                  </use>
                  <path fill="none" stroke="white" stroke-width="1.5" d="M0,-3.0v7 M-2.5,-0.5L0,-3.0L2.5,-0.5"/>
                </g>
                <g id="arrowRight" xlink:href="#dirArrow" transform="rotate(90) translate(36 -43)" onmousedown="handlePan(1,0)">
                  <use xlink:href="#rim" fill="#404040">
                        <set attributeName="fill" to="#808080" begin="arrowRight.mouseover" end="arrowRight.mouseout"/>
                  </use>
                  <path fill="none" stroke="white" stroke-width="1.5" d="M0,-3.0v7 M-2.5,-0.5L0,-3.0L2.5,-0.5"/>
                </g>
                <g id="arrowDown" xlink:href="#dirArrow" transform="rotate(180) translate(-30 -48)" onmousedown="handlePan(0,1)">
                  <use xlink:href="#rim" fill="#404040">
                        <set attributeName="fill" to="#808080" begin="arrowDown.mouseover" end="arrowDown.mouseout"/>
                  </use>
                  <path fill="none" stroke="white" stroke-width="1.5" d="M0,-3.0v7 M-2.5,-0.5L0,-3.0L2.5,-0.5"/>
                </g>
                <g id="arrowLeft" xlink:href="#dirArrow" transform="rotate(270) translate(-36 17)" onmousedown="handlePan(-1,0)">
                  <use xlink:href="#rim" fill="#404040">
                        <set attributeName="fill" to="#808080" begin="arrowLeft.mouseover" end="arrowLeft.mouseout"/>
                  </use>
                  <path fill="none" stroke="white" stroke-width="1.5" d="M0,-3.0v7 M-2.5,-0.5L0,-3.0L2.5,-0.5"/>
                </g>
        </g>
        <svg viewBox="0 0 15 15" width="100%" height="30px" preserveAspectRatio="xMaxYMin meet">
         <g id="arrow_out" transform="scale(0.3 0.3)">
          <a xlink:href="classbitpit_1_1LevelSetOctree__coll__graph_org.svg" target="_base">
           <rect id="button" ry="5" rx="5" y="6" x="6" height="38" width="38"
                fill="#f2f5e9" fill-opacity="0.5" stroke="#606060" stroke-width="1.0"/>
           <path id="arrow"
             d="M 11.500037,31.436501 C 11.940474,20.09759 22.043105,11.32322 32.158766,21.979434 L 37.068811,17.246167 C 37.068811,17.246167 37.088388,32 37.088388,32 L 22.160133,31.978069 C 22.160133,31.978069 26.997745,27.140456 26.997745,27.140456 C 18.528582,18.264221 13.291696,25.230495 11.500037,31.436501 z"
             style="fill:#404040;"/>
          </a>
         </g>
        </svg>
</svg>
