<?xml version="1.0" encoding="UTF-8" standalone="no"?>
<!DOCTYPE svg PUBLIC "-//W3C//DTD SVG 1.1//EN"
 "http://www.w3.org/Graphics/SVG/1.1/DTD/svg11.dtd">
<!-- Generated by graphviz version 2.34.0 (20140112.1130)
 -->
<!-- Title: bitpit::LevelSetKernel Pages: 1 -->
<svg width="268pt" height="84pt"
 viewBox="0.00 0.00 268.00 84.00" xmlns="http://www.w3.org/2000/svg" xmlns:xlink="http://www.w3.org/1999/xlink">
<g id="graph0" class="graph" transform="scale(1 1) rotate(0) translate(4 80)">
<title>bitpit::LevelSetKernel</title>
<polygon fill="white" stroke="white" points="-4,4 -4,-80 264,-80 264,4 -4,4"/>
<!-- Node1 -->
<g id="node1" class="node"><title>Node1</title>
<polygon fill="#bfbfbf" stroke="black" points="76.5,-56.5 76.5,-75.5 189.5,-75.5 189.5,-56.5 76.5,-56.5"/>
<text text-anchor="middle" x="133" y="-63.5" font-family="Helvetica,sans-Serif" font-size="10.00">bitpit::LevelSetKernel</text>
</g>
<!-- Node2 -->
<g id="node2" class="node"><title>Node2</title>
<g id="a_node2"><a xlink:href="classbitpit_1_1LevelSetCartesian.xhtml" target="_top" xlink:title="Implements LevelSetKernel for cartesian meshes. ">
<polygon fill="white" stroke="black" points="0,-0.5 0,-19.5 128,-19.5 128,-0.5 0,-0.5"/>
<text text-anchor="middle" x="64" y="-7.5" font-family="Helvetica,sans-Serif" font-size="10.00">bitpit::LevelSetCartesian</text>
</a>
</g>
</g>
<!-- Node1&#45;&gt;Node2 -->
<g id="edge1" class="edge"><title>Node1&#45;&gt;Node2</title>
<path fill="none" stroke="midnightblue" d="M113.962,-50.1008C101.544,-40.3824 85.7566,-28.0269 75.2878,-19.8339"/>
<polygon fill="midnightblue" stroke="midnightblue" points="111.882,-52.9171 121.914,-56.324 116.196,-47.4046 111.882,-52.9171"/>
</g>
<!-- Node3 -->
<g id="node3" class="node"><title>Node3</title>
<g id="a_node3"><a xlink:href="classbitpit_1_1LevelSetOctree.xhtml" target="_top" xlink:title="Implements LevelSetKernel for octree meshes. ">
<polygon fill="white" stroke="black" points="146,-0.5 146,-19.5 260,-19.5 260,-0.5 146,-0.5"/>
<text text-anchor="middle" x="203" y="-7.5" font-family="Helvetica,sans-Serif" font-size="10.00">bitpit::LevelSetOctree</text>
</a>
</g>
</g>
<!-- Node1&#45;&gt;Node3 -->
<g id="edge2" class="edge"><title>Node1&#45;&gt;Node3</title>
<path fill="none" stroke="midnightblue" d="M152.314,-50.1008C164.912,-40.3824 180.928,-28.0269 191.549,-19.8339"/>
<polygon fill="midnightblue" stroke="midnightblue" points="150.027,-47.4446 144.247,-56.324 154.302,-52.9871 150.027,-47.4446"/>
</g>
</g>
</svg>
