<?xml version="1.0" encoding="UTF-8" standalone="no"?>
<!DOCTYPE svg PUBLIC "-//W3C//DTD SVG 1.1//EN"
 "http://www.w3.org/Graphics/SVG/1.1/DTD/svg11.dtd">
<!-- Generated by graphviz version 2.34.0 (20140112.1130)
 -->
<!-- Title: bitpit::VTK Pages: 1 -->
<svg width="300pt" height="84pt"
 viewBox="0.00 0.00 300.00 84.00" xmlns="http://www.w3.org/2000/svg" xmlns:xlink="http://www.w3.org/1999/xlink">
<g id="graph0" class="graph" transform="scale(1 1) rotate(0) translate(4 80)">
<title>bitpit::VTK</title>
<polygon fill="white" stroke="white" points="-4,4 -4,-80 296,-80 296,4 -4,4"/>
<!-- Node1 -->
<g id="node1" class="node"><title>Node1</title>
<polygon fill="#bfbfbf" stroke="black" points="110.5,-56.5 110.5,-75.5 175.5,-75.5 175.5,-56.5 110.5,-56.5"/>
<text text-anchor="middle" x="143" y="-63.5" font-family="Helvetica,sans-Serif" font-size="10.00">bitpit::VTK</text>
</g>
<!-- Node2 -->
<g id="node2" class="node"><title>Node2</title>
<g id="a_node2"><a xlink:href="classbitpit_1_1VTKRectilinearGrid.xhtml" target="_top" xlink:title="VTK input output for Rectilinear Meshes. ">
<polygon fill="white" stroke="black" points="0,-0.5 0,-19.5 132,-19.5 132,-0.5 0,-0.5"/>
<text text-anchor="middle" x="66" y="-7.5" font-family="Helvetica,sans-Serif" font-size="10.00">bitpit::VTKRectilinearGrid</text>
</a>
</g>
</g>
<!-- Node1&#45;&gt;Node2 -->
<g id="edge1" class="edge"><title>Node1&#45;&gt;Node2</title>
<path fill="none" stroke="midnightblue" d="M122.099,-50.3422C108.089,-40.5169 90.117,-27.9132 78.3407,-19.6545"/>
<polygon fill="midnightblue" stroke="midnightblue" points="120.432,-53.4477 130.629,-56.324 124.451,-47.7166 120.432,-53.4477"/>
</g>
<!-- Node3 -->
<g id="node3" class="node"><title>Node3</title>
<g id="a_node3"><a xlink:href="classbitpit_1_1VTKUnstructuredGrid.xhtml" target="_top" xlink:title="VTK input output for Unstructured Meshes. ">
<polygon fill="white" stroke="black" points="150,-0.5 150,-19.5 292,-19.5 292,-0.5 150,-0.5"/>
<text text-anchor="middle" x="221" y="-7.5" font-family="Helvetica,sans-Serif" font-size="10.00">bitpit::VTKUnstructuredGrid</text>
</a>
</g>
</g>
<!-- Node1&#45;&gt;Node3 -->
<g id="edge2" class="edge"><title>Node1&#45;&gt;Node3</title>
<path fill="none" stroke="midnightblue" d="M163.768,-50.6221C178.017,-40.7574 196.456,-27.9919 208.499,-19.6545"/>
<polygon fill="midnightblue" stroke="midnightblue" points="161.762,-47.7541 155.532,-56.324 165.746,-53.5095 161.762,-47.7541"/>
</g>
</g>
</svg>
