<?xml version="1.0" encoding="UTF-8" standalone="no"?>
<!DOCTYPE svg PUBLIC "-//W3C//DTD SVG 1.1//EN"
 "http://www.w3.org/Graphics/SVG/1.1/DTD/svg11.dtd">
<!-- Generated by graphviz version 2.34.0 (20140112.1130)
 -->
<!-- Title: bitpit::VTKUnstructuredGrid Pages: 1 -->
<svg width="365pt" height="232pt"
 viewBox="0.00 0.00 365.00 232.00" xmlns="http://www.w3.org/2000/svg" xmlns:xlink="http://www.w3.org/1999/xlink">
<g id="graph0" class="graph" transform="scale(1 1) rotate(0) translate(4 228)">
<title>bitpit::VTKUnstructuredGrid</title>
<polygon fill="white" stroke="white" points="-4,4 -4,-228 361,-228 361,4 -4,4"/>
<!-- Node1 -->
<g id="node1" class="node"><title>Node1</title>
<polygon fill="#bfbfbf" stroke="black" points="96,-0.5 96,-19.5 238,-19.5 238,-0.5 96,-0.5"/>
<text text-anchor="middle" x="167" y="-7.5" font-family="Helvetica,sans-Serif" font-size="10.00">bitpit::VTKUnstructuredGrid</text>
</g>
<!-- Node2 -->
<g id="node2" class="node"><title>Node2</title>
<g id="a_node2"><a xlink:href="classbitpit_1_1VTK.xhtml" target="_top" xlink:title="A base class for VTK input output. ">
<polygon fill="white" stroke="black" points="83.5,-58.5 83.5,-77.5 148.5,-77.5 148.5,-58.5 83.5,-58.5"/>
<text text-anchor="middle" x="116" y="-65.5" font-family="Helvetica,sans-Serif" font-size="10.00">bitpit::VTK</text>
</a>
</g>
</g>
<!-- Node2&#45;&gt;Node1 -->
<g id="edge1" class="edge"><title>Node2&#45;&gt;Node1</title>
<path fill="none" stroke="midnightblue" d="M130.809,-50.739C140.111,-40.5255 151.73,-27.7674 159.254,-19.5052"/>
<polygon fill="midnightblue" stroke="midnightblue" points="128.114,-48.4999 123.969,-58.25 133.29,-53.2132 128.114,-48.4999"/>
</g>
<!-- Node3 -->
<g id="node3" class="node"><title>Node3</title>
<g id="a_node3"><a xlink:href="classbitpit_1_1FileHandler.xhtml" target="_top" xlink:title="Creates file names and checks status. ">
<polygon fill="white" stroke="black" points="0,-146.5 0,-165.5 96,-165.5 96,-146.5 0,-146.5"/>
<text text-anchor="middle" x="48" y="-153.5" font-family="Helvetica,sans-Serif" font-size="10.00">bitpit::FileHandler</text>
</a>
</g>
</g>
<!-- Node3&#45;&gt;Node2 -->
<g id="edge2" class="edge"><title>Node3&#45;&gt;Node2</title>
<path fill="none" stroke="#9a32cd" stroke-dasharray="5,2" d="M54.6804,-136.515C59.7718,-124.138 67.6673,-107.98 78,-96 84.343,-88.646 93.089,-82.2538 100.592,-77.5375"/>
<polygon fill="#9a32cd" stroke="#9a32cd" points="51.2707,-135.63 50.9373,-146.22 57.8017,-138.149 51.2707,-135.63"/>
<text text-anchor="middle" x="90.5" y="-109.5" font-family="Helvetica,sans-Serif" font-size="10.00"> m_fh</text>
</g>
<!-- Node4 -->
<g id="node4" class="node"><title>Node4</title>
<g id="a_node4"><a xlink:href="classbitpit_1_1VTKNativeStreamer.xhtml" target="_top" xlink:title="In VTKNativeStreamer all instances of classes derived from VTKBaseConatiner are stored. Right now only std::vector is supported. ">
<polygon fill="white" stroke="black" points="114.5,-146.5 114.5,-165.5 249.5,-165.5 249.5,-146.5 114.5,-146.5"/>
<text text-anchor="middle" x="182" y="-153.5" font-family="Helvetica,sans-Serif" font-size="10.00">bitpit::VTKNativeStreamer</text>
</a>
</g>
</g>
<!-- Node4&#45;&gt;Node2 -->
<g id="edge3" class="edge"><title>Node4&#45;&gt;Node2</title>
<path fill="none" stroke="#9a32cd" stroke-dasharray="5,2" d="M127.378,-141.881C121.344,-138.312 115.961,-133.773 112,-128 101.661,-112.931 107.634,-90.2933 112.233,-77.8973"/>
<polygon fill="#9a32cd" stroke="#9a32cd" points="126.08,-145.144 136.595,-146.446 129.187,-138.871 126.08,-145.144"/>
<text text-anchor="middle" x="155" y="-109.5" font-family="Helvetica,sans-Serif" font-size="10.00"> m_nativeStreamer</text>
</g>
<!-- Node5 -->
<g id="node5" class="node"><title>Node5</title>
<g id="a_node5"><a xlink:href="classbitpit_1_1VTKBaseStreamer.xhtml" target="_top" xlink:title="The base class to be used to derive VTK streamers form. ">
<polygon fill="white" stroke="black" points="183,-204.5 183,-223.5 313,-223.5 313,-204.5 183,-204.5"/>
<text text-anchor="middle" x="248" y="-211.5" font-family="Helvetica,sans-Serif" font-size="10.00">bitpit::VTKBaseStreamer</text>
</a>
</g>
</g>
<!-- Node5&#45;&gt;Node4 -->
<g id="edge4" class="edge"><title>Node5&#45;&gt;Node4</title>
<path fill="none" stroke="midnightblue" d="M230.204,-197.901C217.995,-187.541 202.233,-174.167 192.118,-165.585"/>
<polygon fill="midnightblue" stroke="midnightblue" points="228.086,-200.694 237.976,-204.495 232.615,-195.356 228.086,-200.694"/>
</g>
<!-- Node6 -->
<g id="node6" class="node"><title>Node6</title>
<g id="a_node6"><a xlink:href="classbitpit_1_1VTKUnstructuredGridStreamer.xhtml" target="_top" xlink:title="Streamer for VTKUnstructuredGrid if the grid is made of homogeneous types. ">
<polygon fill="white" stroke="black" points="207,-97 207,-127 349,-127 349,-97 207,-97"/>
<text text-anchor="start" x="215" y="-115" font-family="Helvetica,sans-Serif" font-size="10.00">bitpit::VTKUnstructuredGrid</text>
<text text-anchor="middle" x="278" y="-104" font-family="Helvetica,sans-Serif" font-size="10.00">Streamer</text>
</a>
</g>
</g>
<!-- Node5&#45;&gt;Node6 -->
<g id="edge6" class="edge"><title>Node5&#45;&gt;Node6</title>
<path fill="none" stroke="midnightblue" d="M253.49,-194.7C259.324,-175.254 268.424,-144.922 273.74,-127.201"/>
<polygon fill="midnightblue" stroke="midnightblue" points="250.079,-193.89 250.558,-204.474 256.784,-195.902 250.079,-193.89"/>
</g>
<!-- Node6&#45;&gt;Node1 -->
<g id="edge5" class="edge"><title>Node6&#45;&gt;Node1</title>
<path fill="none" stroke="#9a32cd" stroke-dasharray="5,2" d="M254.413,-89.7507C230.241,-67.9738 193.835,-35.1756 176.643,-19.6872"/>
<polygon fill="#9a32cd" stroke="#9a32cd" points="252.324,-92.5794 262.096,-96.6724 257.009,-87.3787 252.324,-92.5794"/>
<text text-anchor="middle" x="299.5" y="-65.5" font-family="Helvetica,sans-Serif" font-size="10.00"> m_unstructuredStreamer</text>
</g>
</g>
</svg>
