<?xml version="1.0" encoding="UTF-8" standalone="no"?>
<!DOCTYPE svg PUBLIC "-//W3C//DTD SVG 1.1//EN"
 "http://www.w3.org/Graphics/SVG/1.1/DTD/svg11.dtd">
<!-- Generated by graphviz version 2.34.0 (20140112.1130)
 -->
<!-- Title: bitpit::PiercedIterator&lt; value_t, id_t, value_no_cv_t &gt; Pages: 1 -->
<svg width="300pt" height="60pt"
 viewBox="0.00 0.00 300.00 60.00" xmlns="http://www.w3.org/2000/svg" xmlns:xlink="http://www.w3.org/1999/xlink">
<g id="graph0" class="graph" transform="scale(1 1) rotate(0) translate(4 56)">
<title>bitpit::PiercedIterator&lt; value_t, id_t, value_no_cv_t &gt;</title>
<polygon fill="white" stroke="white" points="-4,4 -4,-56 296,-56 296,4 -4,4"/>
<!-- Node1 -->
<g id="node1" class="node"><title>Node1</title>
<polygon fill="#bfbfbf" stroke="black" points="180,-5.5 180,-46.5 292,-46.5 292,-5.5 180,-5.5"/>
<text text-anchor="start" x="188" y="-34.5" font-family="Helvetica,sans-Serif" font-size="10.00">bitpit::PiercedIterator</text>
<text text-anchor="start" x="188" y="-23.5" font-family="Helvetica,sans-Serif" font-size="10.00">&lt; value_t, id_t, value</text>
<text text-anchor="middle" x="236" y="-12.5" font-family="Helvetica,sans-Serif" font-size="10.00">_no_cv_t &gt;</text>
</g>
<!-- Node2 -->
<g id="node2" class="node"><title>Node2</title>
<polygon fill="white" stroke="#bfbfbf" points="0.5,-0 0.5,-52 143.5,-52 143.5,-0 0.5,-0"/>
<text text-anchor="start" x="8.5" y="-40" font-family="Helvetica,sans-Serif" font-size="10.00">std::iterator&lt;std::</text>
<text text-anchor="start" x="8.5" y="-29" font-family="Helvetica,sans-Serif" font-size="10.00">forward_iterator_tag,</text>
<text text-anchor="start" x="8.5" y="-18" font-family="Helvetica,sans-Serif" font-size="10.00"> value_no_cv_t, std::</text>
<text text-anchor="middle" x="72" y="-7" font-family="Helvetica,sans-Serif" font-size="10.00">ptrdiff_t, value_t*, value_t&amp;&gt;</text>
</g>
<!-- Node2&#45;&gt;Node1 -->
<g id="edge1" class="edge"><title>Node2&#45;&gt;Node1</title>
<path fill="none" stroke="midnightblue" d="M153.85,-26C162.617,-26 171.387,-26 179.748,-26"/>
<polygon fill="midnightblue" stroke="midnightblue" points="153.584,-22.5001 143.584,-26 153.584,-29.5001 153.584,-22.5001"/>
</g>
</g>
</svg>
