<?xml version="1.0" encoding="UTF-8" standalone="no"?>
<!DOCTYPE svg PUBLIC "-//W3C//DTD SVG 1.1//EN"
 "http://www.w3.org/Graphics/SVG/1.1/DTD/svg11.dtd">
<!-- Generated by graphviz version 2.34.0 (20140112.1130)
 -->
<!-- Title: bitpit::SendBuffer Pages: 1 -->
<svg width="172pt" height="178pt"
 viewBox="0.00 0.00 172.00 178.00" xmlns="http://www.w3.org/2000/svg" xmlns:xlink="http://www.w3.org/1999/xlink">
<g id="graph0" class="graph" transform="scale(1 1) rotate(0) translate(4 174)">
<title>bitpit::SendBuffer</title>
<polygon fill="white" stroke="white" points="-4,4 -4,-174 168,-174 168,4 -4,4"/>
<!-- Node1 -->
<g id="node1" class="node"><title>Node1</title>
<polygon fill="#bfbfbf" stroke="black" points="23.5,-0.5 23.5,-19.5 118.5,-19.5 118.5,-0.5 23.5,-0.5"/>
<text text-anchor="middle" x="71" y="-7.5" font-family="Helvetica,sans-Serif" font-size="10.00">bitpit::SendBuffer</text>
</g>
<!-- Node2 -->
<g id="node2" class="node"><title>Node2</title>
<g id="a_node2"><a xlink:href="classbitpit_1_1CommunicationBuffer.xhtml" target="_top" xlink:title="bitpit::CommunicationBuffer\l\&lt; RawSendBuffer \&gt;">
<polygon fill="white" stroke="black" points="0,-59 0,-89 142,-89 142,-59 0,-59"/>
<text text-anchor="start" x="8" y="-77" font-family="Helvetica,sans-Serif" font-size="10.00">bitpit::CommunicationBuffer</text>
<text text-anchor="middle" x="71" y="-66" font-family="Helvetica,sans-Serif" font-size="10.00">&lt; RawSendBuffer &gt;</text>
</a>
</g>
</g>
<!-- Node2&#45;&gt;Node1 -->
<g id="edge1" class="edge"><title>Node2&#45;&gt;Node1</title>
<path fill="none" stroke="midnightblue" d="M71,-48.8706C71,-38.6625 71,-27.4077 71,-19.8419"/>
<polygon fill="midnightblue" stroke="midnightblue" points="67.5001,-48.9312 71,-58.9312 74.5001,-48.9313 67.5001,-48.9312"/>
</g>
<!-- Node3 -->
<g id="node3" class="node"><title>Node3</title>
<g id="a_node3"><a xlink:href="classbitpit_1_1CommunicationBuffer.xhtml" target="_top" xlink:title="Buffer to be used for data communications. ">
<polygon fill="white" stroke="black" points="0,-139 0,-169 142,-169 142,-139 0,-139"/>
<text text-anchor="start" x="8" y="-157" font-family="Helvetica,sans-Serif" font-size="10.00">bitpit::CommunicationBuffer</text>
<text text-anchor="middle" x="71" y="-146" font-family="Helvetica,sans-Serif" font-size="10.00">&lt; RawBufferType &gt;</text>
</a>
</g>
</g>
<!-- Node3&#45;&gt;Node2 -->
<g id="edge2" class="edge"><title>Node3&#45;&gt;Node2</title>
<path fill="none" stroke="orange" stroke-dasharray="5,2" d="M71,-128.564C71,-115.624 71,-100.186 71,-89.2157"/>
<polygon fill="orange" stroke="orange" points="67.5001,-128.694 71,-138.694 74.5001,-128.694 67.5001,-128.694"/>
<text text-anchor="middle" x="117.5" y="-111.5" font-family="Helvetica,sans-Serif" font-size="10.00"> &lt; RawSendBuffer &gt;</text>
</g>
</g>
</svg>
