<?xml version="1.0" encoding="UTF-8" standalone="no"?>
<!DOCTYPE svg PUBLIC "-//W3C//DTD SVG 1.1//EN"
 "http://www.w3.org/Graphics/SVG/1.1/DTD/svg11.dtd">
<!-- Generated by graphviz version 2.34.0 (20140112.1130)
 -->
<!-- Title: bitpit::CommunicationBuffer&lt; RawBufferType &gt; Pages: 1 -->
<svg width="556pt" height="87pt"
 viewBox="0.00 0.00 556.00 87.00" xmlns="http://www.w3.org/2000/svg" xmlns:xlink="http://www.w3.org/1999/xlink">
<g id="graph0" class="graph" transform="scale(1 1) rotate(0) translate(4 83)">
<title>bitpit::CommunicationBuffer&lt; RawBufferType &gt;</title>
<polygon fill="white" stroke="white" points="-4,4 -4,-83 552,-83 552,4 -4,4"/>
<!-- Node1 -->
<g id="node1" class="node"><title>Node1</title>
<polygon fill="#bfbfbf" stroke="black" points="0,-26 0,-56 142,-56 142,-26 0,-26"/>
<text text-anchor="start" x="8" y="-44" font-family="Helvetica,sans-Serif" font-size="10.00">bitpit::CommunicationBuffer</text>
<text text-anchor="middle" x="71" y="-33" font-family="Helvetica,sans-Serif" font-size="10.00">&lt; RawBufferType &gt;</text>
</g>
<!-- Node2 -->
<g id="node2" class="node"><title>Node2</title>
<g id="a_node2"><a xlink:href="classbitpit_1_1CommunicationBuffer.xhtml" target="_top" xlink:title="bitpit::CommunicationBuffer\l\&lt; RawRecvBuffer \&gt;">
<polygon fill="white" stroke="black" points="272,-49 272,-79 414,-79 414,-49 272,-49"/>
<text text-anchor="start" x="280" y="-67" font-family="Helvetica,sans-Serif" font-size="10.00">bitpit::CommunicationBuffer</text>
<text text-anchor="middle" x="343" y="-56" font-family="Helvetica,sans-Serif" font-size="10.00">&lt; RawRecvBuffer &gt;</text>
</a>
</g>
</g>
<!-- Node1&#45;&gt;Node2 -->
<g id="edge1" class="edge"><title>Node1&#45;&gt;Node2</title>
<path fill="none" stroke="orange" stroke-dasharray="5,2" d="M152.228,-47.8342C190.167,-51.0661 235.056,-54.8899 271.649,-58.0071"/>
<polygon fill="orange" stroke="orange" points="152.496,-44.3444 142.234,-46.9829 151.901,-51.3192 152.496,-44.3444"/>
<text text-anchor="middle" x="207" y="-58" font-family="Helvetica,sans-Serif" font-size="10.00"> &lt; RawRecvBuffer &gt;</text>
</g>
<!-- Node4 -->
<g id="node4" class="node"><title>Node4</title>
<g id="a_node4"><a xlink:href="classbitpit_1_1CommunicationBuffer.xhtml" target="_top" xlink:title="bitpit::CommunicationBuffer\l\&lt; RawSendBuffer \&gt;">
<polygon fill="white" stroke="black" points="272,-0 272,-30 414,-30 414,-0 272,-0"/>
<text text-anchor="start" x="280" y="-18" font-family="Helvetica,sans-Serif" font-size="10.00">bitpit::CommunicationBuffer</text>
<text text-anchor="middle" x="343" y="-7" font-family="Helvetica,sans-Serif" font-size="10.00">&lt; RawSendBuffer &gt;</text>
</a>
</g>
</g>
<!-- Node1&#45;&gt;Node4 -->
<g id="edge3" class="edge"><title>Node1&#45;&gt;Node4</title>
<path fill="none" stroke="orange" stroke-dasharray="5,2" d="M152.228,-33.2743C190.167,-29.621 235.056,-25.2983 271.649,-21.7746"/>
<polygon fill="orange" stroke="orange" points="151.853,-29.7942 142.234,-34.2367 152.524,-36.7619 151.853,-29.7942"/>
<text text-anchor="middle" x="207" y="-34" font-family="Helvetica,sans-Serif" font-size="10.00"> &lt; RawSendBuffer &gt;</text>
</g>
<!-- Node3 -->
<g id="node3" class="node"><title>Node3</title>
<g id="a_node3"><a xlink:href="classbitpit_1_1RecvBuffer.xhtml" target="_top" xlink:title="Buffer to be used for receive communications. ">
<polygon fill="white" stroke="black" points="453.5,-54.5 453.5,-73.5 546.5,-73.5 546.5,-54.5 453.5,-54.5"/>
<text text-anchor="middle" x="500" y="-61.5" font-family="Helvetica,sans-Serif" font-size="10.00">bitpit::RecvBuffer</text>
</a>
</g>
</g>
<!-- Node2&#45;&gt;Node3 -->
<g id="edge2" class="edge"><title>Node2&#45;&gt;Node3</title>
<path fill="none" stroke="midnightblue" d="M424.245,-64C434.251,-64 444.196,-64 453.412,-64"/>
<polygon fill="midnightblue" stroke="midnightblue" points="424.244,-60.5001 414.244,-64 424.244,-67.5001 424.244,-60.5001"/>
</g>
<!-- Node5 -->
<g id="node5" class="node"><title>Node5</title>
<g id="a_node5"><a xlink:href="classbitpit_1_1SendBuffer.xhtml" target="_top" xlink:title="Buffer to be used for send communications. ">
<polygon fill="white" stroke="black" points="452.5,-5.5 452.5,-24.5 547.5,-24.5 547.5,-5.5 452.5,-5.5"/>
<text text-anchor="middle" x="500" y="-12.5" font-family="Helvetica,sans-Serif" font-size="10.00">bitpit::SendBuffer</text>
</a>
</g>
</g>
<!-- Node4&#45;&gt;Node5 -->
<g id="edge4" class="edge"><title>Node4&#45;&gt;Node5</title>
<path fill="none" stroke="midnightblue" d="M424.486,-15C433.929,-15 443.312,-15 452.074,-15"/>
<polygon fill="midnightblue" stroke="midnightblue" points="424.244,-11.5001 414.244,-15 424.244,-18.5001 424.244,-11.5001"/>
</g>
</g>
</svg>
