<?xml version="1.0" encoding="UTF-8" standalone="no"?>
<!DOCTYPE svg PUBLIC "-//W3C//DTD SVG 1.1//EN"
 "http://www.w3.org/Graphics/SVG/1.1/DTD/svg11.dtd">
<!-- Generated by graphviz version 2.34.0 (20140112.1130)
 -->
<!-- Title: bitpit::VolumeKernel Pages: 1 -->
<svg width="217pt" height="196pt"
 viewBox="0.00 0.00 217.00 196.00" xmlns="http://www.w3.org/2000/svg" xmlns:xlink="http://www.w3.org/1999/xlink">
<g id="graph0" class="graph" transform="scale(1 1) rotate(0) translate(4 192)">
<title>bitpit::VolumeKernel</title>
<polygon fill="white" stroke="white" points="-4,4 -4,-192 213,-192 213,4 -4,4"/>
<!-- Node1 -->
<g id="node1" class="node"><title>Node1</title>
<polygon fill="#bfbfbf" stroke="black" points="53.5,-56.5 53.5,-75.5 162.5,-75.5 162.5,-56.5 53.5,-56.5"/>
<text text-anchor="middle" x="108" y="-63.5" font-family="Helvetica,sans-Serif" font-size="10.00">bitpit::VolumeKernel</text>
</g>
<!-- Node4 -->
<g id="node4" class="node"><title>Node4</title>
<g id="a_node4"><a xlink:href="classbitpit_1_1VolCartesian.xhtml" target="_top" xlink:title="The VolCartesian defines a Cartesian patch. ">
<polygon fill="white" stroke="black" points="-0.5,-0.5 -0.5,-19.5 102.5,-19.5 102.5,-0.5 -0.5,-0.5"/>
<text text-anchor="middle" x="51" y="-7.5" font-family="Helvetica,sans-Serif" font-size="10.00">bitpit::VolCartesian</text>
</a>
</g>
</g>
<!-- Node1&#45;&gt;Node4 -->
<g id="edge3" class="edge"><title>Node1&#45;&gt;Node4</title>
<path fill="none" stroke="midnightblue" d="M91.3785,-49.2533C81.266,-39.6731 68.7234,-27.7906 60.3247,-19.8339"/>
<polygon fill="midnightblue" stroke="midnightblue" points="89.1753,-51.9873 98.842,-56.324 93.9895,-46.9056 89.1753,-51.9873"/>
</g>
<!-- Node5 -->
<g id="node5" class="node"><title>Node5</title>
<g id="a_node5"><a xlink:href="classbitpit_1_1VolOctree.xhtml" target="_top" xlink:title="The VolOctree defines a Octree patch. ">
<polygon fill="white" stroke="black" points="120.5,-0.5 120.5,-19.5 209.5,-19.5 209.5,-0.5 120.5,-0.5"/>
<text text-anchor="middle" x="165" y="-7.5" font-family="Helvetica,sans-Serif" font-size="10.00">bitpit::VolOctree</text>
</a>
</g>
</g>
<!-- Node1&#45;&gt;Node5 -->
<g id="edge4" class="edge"><title>Node1&#45;&gt;Node5</title>
<path fill="none" stroke="midnightblue" d="M124.621,-49.2533C134.734,-39.6731 147.277,-27.7906 155.675,-19.8339"/>
<polygon fill="midnightblue" stroke="midnightblue" points="122.01,-46.9056 117.158,-56.324 126.825,-51.9873 122.01,-46.9056"/>
</g>
<!-- Node2 -->
<g id="node2" class="node"><title>Node2</title>
<g id="a_node2"><a xlink:href="classbitpit_1_1PatchKernel.xhtml" target="_top" xlink:title="The PatchKernel class provides an interface for defining patches. ">
<polygon fill="white" stroke="black" points="58.5,-112.5 58.5,-131.5 157.5,-131.5 157.5,-112.5 58.5,-112.5"/>
<text text-anchor="middle" x="108" y="-119.5" font-family="Helvetica,sans-Serif" font-size="10.00">bitpit::PatchKernel</text>
</a>
</g>
</g>
<!-- Node2&#45;&gt;Node1 -->
<g id="edge1" class="edge"><title>Node2&#45;&gt;Node1</title>
<path fill="none" stroke="midnightblue" d="M108,-101.805C108,-92.9102 108,-82.7798 108,-75.7511"/>
<polygon fill="midnightblue" stroke="midnightblue" points="104.5,-102.083 108,-112.083 111.5,-102.083 104.5,-102.083"/>
</g>
<!-- Node3 -->
<g id="node3" class="node"><title>Node3</title>
<g id="a_node3"><a xlink:href="classbitpit_1_1VTKBaseStreamer.xhtml" target="_top" xlink:title="The base class to be used to derive VTK streamers form. ">
<polygon fill="white" stroke="black" points="43,-168.5 43,-187.5 173,-187.5 173,-168.5 43,-168.5"/>
<text text-anchor="middle" x="108" y="-175.5" font-family="Helvetica,sans-Serif" font-size="10.00">bitpit::VTKBaseStreamer</text>
</a>
</g>
</g>
<!-- Node3&#45;&gt;Node2 -->
<g id="edge2" class="edge"><title>Node3&#45;&gt;Node2</title>
<path fill="none" stroke="midnightblue" d="M108,-157.805C108,-148.91 108,-138.78 108,-131.751"/>
<polygon fill="midnightblue" stroke="midnightblue" points="104.5,-158.083 108,-168.083 111.5,-158.083 104.5,-158.083"/>
</g>
</g>
</svg>
