<?xml version="1.0" encoding="UTF-8" standalone="no"?>
<!DOCTYPE svg PUBLIC "-//W3C//DTD SVG 1.1//EN"
 "http://www.w3.org/Graphics/SVG/1.1/DTD/svg11.dtd">
<!-- Generated by graphviz version 2.34.0 (20140112.1130)
 -->
<!-- Title: bitpit::Element Pages: 1 -->
<svg width="170pt" height="84pt"
 viewBox="0.00 0.00 170.00 84.00" xmlns="http://www.w3.org/2000/svg" xmlns:xlink="http://www.w3.org/1999/xlink">
<g id="graph0" class="graph" transform="scale(1 1) rotate(0) translate(4 80)">
<title>bitpit::Element</title>
<polygon fill="white" stroke="white" points="-4,4 -4,-80 166,-80 166,4 -4,4"/>
<!-- Node1 -->
<g id="node1" class="node"><title>Node1</title>
<polygon fill="#bfbfbf" stroke="black" points="35,-56.5 35,-75.5 115,-75.5 115,-56.5 35,-56.5"/>
<text text-anchor="middle" x="75" y="-63.5" font-family="Helvetica,sans-Serif" font-size="10.00">bitpit::Element</text>
</g>
<!-- Node2 -->
<g id="node2" class="node"><title>Node2</title>
<g id="a_node2"><a xlink:href="classbitpit_1_1Cell.xhtml" target="_top" xlink:title="The Cell class defines the cells. ">
<polygon fill="white" stroke="black" points="-1,-0.5 -1,-19.5 61,-19.5 61,-0.5 -1,-0.5"/>
<text text-anchor="middle" x="30" y="-7.5" font-family="Helvetica,sans-Serif" font-size="10.00">bitpit::Cell</text>
</a>
</g>
</g>
<!-- Node1&#45;&gt;Node2 -->
<g id="edge1" class="edge"><title>Node1&#45;&gt;Node2</title>
<path fill="none" stroke="midnightblue" d="M60.9533,-48.144C53.1131,-38.7357 43.6705,-27.4046 37.2926,-19.7511"/>
<polygon fill="midnightblue" stroke="midnightblue" points="58.4785,-50.6414 67.5692,-56.083 63.8561,-46.1601 58.4785,-50.6414"/>
</g>
<!-- Node3 -->
<g id="node3" class="node"><title>Node3</title>
<g id="a_node3"><a xlink:href="classbitpit_1_1Interface.xhtml" target="_top" xlink:title="The Interface class defines the interfaces among cells. ">
<polygon fill="white" stroke="black" points="79.5,-0.5 79.5,-19.5 162.5,-19.5 162.5,-0.5 79.5,-0.5"/>
<text text-anchor="middle" x="121" y="-7.5" font-family="Helvetica,sans-Serif" font-size="10.00">bitpit::Interface</text>
</a>
</g>
</g>
<!-- Node1&#45;&gt;Node3 -->
<g id="edge2" class="edge"><title>Node1&#45;&gt;Node3</title>
<path fill="none" stroke="midnightblue" d="M89.114,-48.4314C97.176,-38.9673 106.959,-27.4827 113.545,-19.7511"/>
<polygon fill="midnightblue" stroke="midnightblue" points="86.4163,-46.2009 82.596,-56.083 91.745,-50.7402 86.4163,-46.2009"/>
</g>
</g>
</svg>
