<?xml version="1.0" encoding="UTF-8" standalone="no"?>
<!DOCTYPE svg PUBLIC "-//W3C//DTD SVG 1.1//EN"
 "http://www.w3.org/Graphics/SVG/1.1/DTD/svg11.dtd">
<!-- Generated by graphviz version 2.34.0 (20140112.1130)
 -->
<!-- Title: bitpit::VTKBaseStreamer Pages: 1 -->
<svg width="495pt" height="208pt"
 viewBox="0.00 0.00 495.00 208.00" xmlns="http://www.w3.org/2000/svg" xmlns:xlink="http://www.w3.org/1999/xlink">
<g id="graph0" class="graph" transform="scale(1 1) rotate(0) translate(4 204)">
<title>bitpit::VTKBaseStreamer</title>
<polygon fill="white" stroke="white" points="-4,4 -4,-204 491,-204 491,4 -4,4"/>
<!-- Node1 -->
<g id="node1" class="node"><title>Node1</title>
<polygon fill="#bfbfbf" stroke="black" points="194,-180.5 194,-199.5 324,-199.5 324,-180.5 194,-180.5"/>
<text text-anchor="middle" x="259" y="-187.5" font-family="Helvetica,sans-Serif" font-size="10.00">bitpit::VTKBaseStreamer</text>
</g>
<!-- Node2 -->
<g id="node2" class="node"><title>Node2</title>
<g id="a_node2"><a xlink:href="classbitpit_1_1PatchKernel.xhtml" target="_top" xlink:title="The PatchKernel class provides an interface for defining patches. ">
<polygon fill="white" stroke="black" points="74.5,-118.5 74.5,-137.5 173.5,-137.5 173.5,-118.5 74.5,-118.5"/>
<text text-anchor="middle" x="124" y="-125.5" font-family="Helvetica,sans-Serif" font-size="10.00">bitpit::PatchKernel</text>
</a>
</g>
</g>
<!-- Node1&#45;&gt;Node2 -->
<g id="edge1" class="edge"><title>Node1&#45;&gt;Node2</title>
<path fill="none" stroke="midnightblue" d="M230.247,-176.221C204.038,-164.573 166.047,-147.687 143.306,-137.581"/>
<polygon fill="midnightblue" stroke="midnightblue" points="229.098,-179.54 239.658,-180.403 231.941,-173.144 229.098,-179.54"/>
</g>
<!-- Node8 -->
<g id="node8" class="node"><title>Node8</title>
<g id="a_node8"><a xlink:href="classbitpit_1_1VTKNativeStreamer.xhtml" target="_top" xlink:title="In VTKNativeStreamer all instances of classes derived from VTKBaseConatiner are stored. Right now only std::vector is supported. ">
<polygon fill="white" stroke="black" points="191.5,-118.5 191.5,-137.5 326.5,-137.5 326.5,-118.5 191.5,-118.5"/>
<text text-anchor="middle" x="259" y="-125.5" font-family="Helvetica,sans-Serif" font-size="10.00">bitpit::VTKNativeStreamer</text>
</a>
</g>
</g>
<!-- Node1&#45;&gt;Node8 -->
<g id="edge7" class="edge"><title>Node1&#45;&gt;Node8</title>
<path fill="none" stroke="midnightblue" d="M259,-170.16C259,-159.248 259,-146.04 259,-137.581"/>
<polygon fill="midnightblue" stroke="midnightblue" points="255.5,-170.403 259,-180.403 262.5,-170.403 255.5,-170.403"/>
</g>
<!-- Node9 -->
<g id="node9" class="node"><title>Node9</title>
<g id="a_node9"><a xlink:href="classbitpit_1_1VTKUnstructuredGridStreamer.xhtml" target="_top" xlink:title="Streamer for VTKUnstructuredGrid if the grid is made of homogeneous types. ">
<polygon fill="white" stroke="black" points="345,-113 345,-143 487,-143 487,-113 345,-113"/>
<text text-anchor="start" x="353" y="-131" font-family="Helvetica,sans-Serif" font-size="10.00">bitpit::VTKUnstructuredGrid</text>
<text text-anchor="middle" x="416" y="-120" font-family="Helvetica,sans-Serif" font-size="10.00">Streamer</text>
</a>
</g>
</g>
<!-- Node1&#45;&gt;Node9 -->
<g id="edge8" class="edge"><title>Node1&#45;&gt;Node9</title>
<path fill="none" stroke="midnightblue" d="M291.1,-176.732C316.699,-166.95 352.566,-153.242 379.3,-143.025"/>
<polygon fill="midnightblue" stroke="midnightblue" points="289.586,-173.564 281.494,-180.403 292.085,-180.103 289.586,-173.564"/>
</g>
<!-- Node3 -->
<g id="node3" class="node"><title>Node3</title>
<g id="a_node3"><a xlink:href="classbitpit_1_1SurfaceKernel.xhtml" target="_top" xlink:title="The SurfaceKernel class provides an interface for defining surface patches. ">
<polygon fill="white" stroke="black" points="5.5,-56.5 5.5,-75.5 114.5,-75.5 114.5,-56.5 5.5,-56.5"/>
<text text-anchor="middle" x="60" y="-63.5" font-family="Helvetica,sans-Serif" font-size="10.00">bitpit::SurfaceKernel</text>
</a>
</g>
</g>
<!-- Node2&#45;&gt;Node3 -->
<g id="edge2" class="edge"><title>Node2&#45;&gt;Node3</title>
<path fill="none" stroke="midnightblue" d="M107.489,-111.521C95.287,-100.082 79.1258,-84.9305 69.1526,-75.5806"/>
<polygon fill="midnightblue" stroke="midnightblue" points="105.141,-114.117 114.83,-118.403 109.929,-109.011 105.141,-114.117"/>
</g>
<!-- Node5 -->
<g id="node5" class="node"><title>Node5</title>
<g id="a_node5"><a xlink:href="classbitpit_1_1VolumeKernel.xhtml" target="_top" xlink:title="The VolumeKernel class provides an interface for defining volume patches. ">
<polygon fill="white" stroke="black" points="133.5,-56.5 133.5,-75.5 242.5,-75.5 242.5,-56.5 133.5,-56.5"/>
<text text-anchor="middle" x="188" y="-63.5" font-family="Helvetica,sans-Serif" font-size="10.00">bitpit::VolumeKernel</text>
</a>
</g>
</g>
<!-- Node2&#45;&gt;Node5 -->
<g id="edge4" class="edge"><title>Node2&#45;&gt;Node5</title>
<path fill="none" stroke="midnightblue" d="M140.511,-111.521C152.713,-100.082 168.874,-84.9305 178.847,-75.5806"/>
<polygon fill="midnightblue" stroke="midnightblue" points="138.071,-109.011 133.17,-118.403 142.859,-114.117 138.071,-109.011"/>
</g>
<!-- Node4 -->
<g id="node4" class="node"><title>Node4</title>
<g id="a_node4"><a xlink:href="classbitpit_1_1SurfUnstructured.xhtml" target="_top" xlink:title="The SurfUnstructured class defines an unstructured surface triangulation. ">
<polygon fill="white" stroke="black" points="-0.5,-0.5 -0.5,-19.5 118.5,-19.5 118.5,-0.5 -0.5,-0.5"/>
<text text-anchor="middle" x="59" y="-7.5" font-family="Helvetica,sans-Serif" font-size="10.00">bitpit::SurfUnstructured</text>
</a>
</g>
</g>
<!-- Node3&#45;&gt;Node4 -->
<g id="edge3" class="edge"><title>Node3&#45;&gt;Node4</title>
<path fill="none" stroke="midnightblue" d="M59.6445,-45.8045C59.4798,-36.9102 59.2922,-26.7798 59.1621,-19.7511"/>
<polygon fill="midnightblue" stroke="midnightblue" points="56.1502,-46.1495 59.8349,-56.083 63.149,-46.0199 56.1502,-46.1495"/>
</g>
<!-- Node6 -->
<g id="node6" class="node"><title>Node6</title>
<g id="a_node6"><a xlink:href="classbitpit_1_1VolCartesian.xhtml" target="_top" xlink:title="The VolCartesian defines a Cartesian patch. ">
<polygon fill="white" stroke="black" points="136.5,-0.5 136.5,-19.5 239.5,-19.5 239.5,-0.5 136.5,-0.5"/>
<text text-anchor="middle" x="188" y="-7.5" font-family="Helvetica,sans-Serif" font-size="10.00">bitpit::VolCartesian</text>
</a>
</g>
</g>
<!-- Node5&#45;&gt;Node6 -->
<g id="edge5" class="edge"><title>Node5&#45;&gt;Node6</title>
<path fill="none" stroke="midnightblue" d="M188,-45.8045C188,-36.9102 188,-26.7798 188,-19.7511"/>
<polygon fill="midnightblue" stroke="midnightblue" points="184.5,-46.083 188,-56.083 191.5,-46.083 184.5,-46.083"/>
</g>
<!-- Node7 -->
<g id="node7" class="node"><title>Node7</title>
<g id="a_node7"><a xlink:href="classbitpit_1_1VolOctree.xhtml" target="_top" xlink:title="The VolOctree defines a Octree patch. ">
<polygon fill="white" stroke="black" points="257.5,-0.5 257.5,-19.5 346.5,-19.5 346.5,-0.5 257.5,-0.5"/>
<text text-anchor="middle" x="302" y="-7.5" font-family="Helvetica,sans-Serif" font-size="10.00">bitpit::VolOctree</text>
</a>
</g>
</g>
<!-- Node5&#45;&gt;Node7 -->
<g id="edge6" class="edge"><title>Node5&#45;&gt;Node7</title>
<path fill="none" stroke="midnightblue" d="M215.242,-52.096C236.54,-42.0073 265.542,-28.2697 284.021,-19.5164"/>
<polygon fill="midnightblue" stroke="midnightblue" points="213.603,-48.9995 206.064,-56.4435 216.599,-55.3257 213.603,-48.9995"/>
</g>
</g>
</svg>
