<?xml version="1.0" encoding="UTF-8" standalone="no"?>
<!DOCTYPE svg PUBLIC "-//W3C//DTD SVG 1.1//EN"
 "http://www.w3.org/Graphics/SVG/1.1/DTD/svg11.dtd">
<!-- Generated by graphviz version 2.34.0 (20140112.1130)
 -->
<!-- Title: bitpit::PiercedVector&lt; value_t, id_t &gt; Pages: 1 -->
<svg width="384pt" height="293pt"
 viewBox="0.00 0.00 384.00 293.00" xmlns="http://www.w3.org/2000/svg" xmlns:xlink="http://www.w3.org/1999/xlink">
<g id="graph0" class="graph" transform="scale(1 1) rotate(0) translate(4 289)">
<title>bitpit::PiercedVector&lt; value_t, id_t &gt;</title>
<polygon fill="white" stroke="white" points="-4,4 -4,-289 380,-289 380,4 -4,4"/>
<!-- Node1 -->
<g id="node1" class="node"><title>Node1</title>
<polygon fill="#bfbfbf" stroke="black" points="0,-122 0,-152 108,-152 108,-122 0,-122"/>
<text text-anchor="start" x="8" y="-140" font-family="Helvetica,sans-Serif" font-size="10.00">bitpit::PiercedVector</text>
<text text-anchor="middle" x="54" y="-129" font-family="Helvetica,sans-Serif" font-size="10.00">&lt; value_t, id_t &gt;</text>
</g>
<!-- Node2 -->
<g id="node2" class="node"><title>Node2</title>
<g id="a_node2"><a xlink:href="classbitpit_1_1PiercedVector.xhtml" target="_top" xlink:title="bitpit::PiercedVector\l\&lt; bitpit::Cell \&gt;">
<polygon fill="white" stroke="black" points="261,-255 261,-285 369,-285 369,-255 261,-255"/>
<text text-anchor="start" x="269" y="-273" font-family="Helvetica,sans-Serif" font-size="10.00">bitpit::PiercedVector</text>
<text text-anchor="middle" x="315" y="-262" font-family="Helvetica,sans-Serif" font-size="10.00">&lt; bitpit::Cell &gt;</text>
</a>
</g>
</g>
<!-- Node1&#45;&gt;Node2 -->
<g id="edge1" class="edge"><title>Node1&#45;&gt;Node2</title>
<path fill="none" stroke="orange" stroke-dasharray="5,2" d="M68.4535,-160.941C80.8585,-180.813 101.095,-208.277 126,-224 166.773,-249.741 220.907,-261.078 260.613,-266.071"/>
<polygon fill="orange" stroke="orange" points="71.3168,-158.911 63.1616,-152.148 65.3192,-162.52 71.3168,-158.911"/>
<text text-anchor="middle" x="181" y="-264" font-family="Helvetica,sans-Serif" font-size="10.00"> &lt; bitpit::Cell &gt;</text>
</g>
<!-- Node3 -->
<g id="node3" class="node"><title>Node3</title>
<g id="a_node3"><a xlink:href="classbitpit_1_1PiercedVector.xhtml" target="_top" xlink:title="bitpit::PiercedVector\l\&lt; bitpit::LevelSetKernel\l::LSInfo \&gt;">
<polygon fill="white" stroke="black" points="254,-195.5 254,-236.5 376,-236.5 376,-195.5 254,-195.5"/>
<text text-anchor="start" x="262" y="-224.5" font-family="Helvetica,sans-Serif" font-size="10.00">bitpit::PiercedVector</text>
<text text-anchor="start" x="262" y="-213.5" font-family="Helvetica,sans-Serif" font-size="10.00">&lt; bitpit::LevelSetKernel</text>
<text text-anchor="middle" x="315" y="-202.5" font-family="Helvetica,sans-Serif" font-size="10.00">::LSInfo &gt;</text>
</a>
</g>
</g>
<!-- Node1&#45;&gt;Node3 -->
<g id="edge2" class="edge"><title>Node1&#45;&gt;Node3</title>
<path fill="none" stroke="orange" stroke-dasharray="5,2" d="M95.5471,-156.046C105.393,-160.295 115.974,-164.557 126,-168 167.895,-182.389 216.355,-194.66 253.581,-203.194"/>
<polygon fill="orange" stroke="orange" points="96.9377,-152.834 86.3755,-152.003 94.1139,-159.239 96.9377,-152.834"/>
<text text-anchor="start" x="126.5" y="-212" font-family="Helvetica,sans-Serif" font-size="10.00"> &lt; bitpit::LevelSetKernel</text>
<text text-anchor="middle" x="181" y="-201" font-family="Helvetica,sans-Serif" font-size="10.00">::LSInfo &gt;</text>
</g>
<!-- Node4 -->
<g id="node4" class="node"><title>Node4</title>
<g id="a_node4"><a xlink:href="classbitpit_1_1PiercedVector.xhtml" target="_top" xlink:title="bitpit::PiercedVector\l\&lt; bitpit::Vertex \&gt;">
<polygon fill="white" stroke="black" points="261,-147 261,-177 369,-177 369,-147 261,-147"/>
<text text-anchor="start" x="269" y="-165" font-family="Helvetica,sans-Serif" font-size="10.00">bitpit::PiercedVector</text>
<text text-anchor="middle" x="315" y="-154" font-family="Helvetica,sans-Serif" font-size="10.00">&lt; bitpit::Vertex &gt;</text>
</a>
</g>
</g>
<!-- Node1&#45;&gt;Node4 -->
<g id="edge3" class="edge"><title>Node1&#45;&gt;Node4</title>
<path fill="none" stroke="orange" stroke-dasharray="5,2" d="M118.252,-143.105C161.885,-147.317 219.252,-152.854 260.589,-156.844"/>
<polygon fill="orange" stroke="orange" points="118.328,-139.597 108.038,-142.119 117.655,-146.564 118.328,-139.597"/>
<text text-anchor="middle" x="181" y="-156" font-family="Helvetica,sans-Serif" font-size="10.00"> &lt; bitpit::Vertex &gt;</text>
</g>
<!-- Node5 -->
<g id="node5" class="node"><title>Node5</title>
<g id="a_node5"><a xlink:href="classbitpit_1_1PiercedVector.xhtml" target="_top" xlink:title="bitpit::PiercedVector\l\&lt; bitpit::Interface \&gt;">
<polygon fill="white" stroke="black" points="261,-98 261,-128 369,-128 369,-98 261,-98"/>
<text text-anchor="start" x="269" y="-116" font-family="Helvetica,sans-Serif" font-size="10.00">bitpit::PiercedVector</text>
<text text-anchor="middle" x="315" y="-105" font-family="Helvetica,sans-Serif" font-size="10.00">&lt; bitpit::Interface &gt;</text>
</a>
</g>
</g>
<!-- Node1&#45;&gt;Node5 -->
<g id="edge4" class="edge"><title>Node1&#45;&gt;Node5</title>
<path fill="none" stroke="orange" stroke-dasharray="5,2" d="M118.259,-129.783C120.873,-129.513 123.462,-129.251 126,-129 171.474,-124.504 223.213,-120.157 260.886,-117.131"/>
<polygon fill="orange" stroke="orange" points="117.675,-126.325 108.098,-130.857 118.411,-133.287 117.675,-126.325"/>
<text text-anchor="middle" x="181" y="-132" font-family="Helvetica,sans-Serif" font-size="10.00"> &lt; bitpit::Interface &gt;</text>
</g>
<!-- Node6 -->
<g id="node6" class="node"><title>Node6</title>
<g id="a_node6"><a xlink:href="classbitpit_1_1PiercedVector.xhtml" target="_top" xlink:title="bitpit::PiercedVector\l\&lt; value_t \&gt;">
<polygon fill="white" stroke="black" points="261,-49 261,-79 369,-79 369,-49 261,-49"/>
<text text-anchor="start" x="269" y="-67" font-family="Helvetica,sans-Serif" font-size="10.00">bitpit::PiercedVector</text>
<text text-anchor="middle" x="315" y="-56" font-family="Helvetica,sans-Serif" font-size="10.00">&lt; value_t &gt;</text>
</a>
</g>
</g>
<!-- Node1&#45;&gt;Node6 -->
<g id="edge5" class="edge"><title>Node1&#45;&gt;Node6</title>
<path fill="none" stroke="orange" stroke-dasharray="5,2" d="M93.0528,-117.395C103.537,-112.526 115.043,-107.66 126,-104 170.469,-89.1467 222.754,-78.5488 260.882,-72.0092"/>
<polygon fill="orange" stroke="orange" points="91.2739,-114.366 83.7573,-121.833 94.2896,-120.683 91.2739,-114.366"/>
<text text-anchor="middle" x="181" y="-107" font-family="Helvetica,sans-Serif" font-size="10.00"> &lt; value_t &gt;</text>
</g>
<!-- Node7 -->
<g id="node7" class="node"><title>Node7</title>
<g id="a_node7"><a xlink:href="classbitpit_1_1PiercedVector.xhtml" target="_top" xlink:title="bitpit::PiercedVector\l\&lt; SegInfo \&gt;">
<polygon fill="white" stroke="black" points="261,-0 261,-30 369,-30 369,-0 261,-0"/>
<text text-anchor="start" x="269" y="-18" font-family="Helvetica,sans-Serif" font-size="10.00">bitpit::PiercedVector</text>
<text text-anchor="middle" x="315" y="-7" font-family="Helvetica,sans-Serif" font-size="10.00">&lt; SegInfo &gt;</text>
</a>
</g>
</g>
<!-- Node1&#45;&gt;Node7 -->
<g id="edge6" class="edge"><title>Node1&#45;&gt;Node7</title>
<path fill="none" stroke="orange" stroke-dasharray="5,2" d="M71.3321,-113.646C84.2865,-96.8422 103.854,-74.9427 126,-62 167.537,-37.7251 221.33,-25.9046 260.727,-20.1989"/>
<polygon fill="orange" stroke="orange" points="68.3537,-111.785 65.1819,-121.894 73.9654,-115.969 68.3537,-111.785"/>
<text text-anchor="middle" x="181" y="-65" font-family="Helvetica,sans-Serif" font-size="10.00"> &lt; SegInfo &gt;</text>
</g>
</g>
</svg>
