<?xml version="1.0" encoding="UTF-8" standalone="no"?>
<!DOCTYPE svg PUBLIC "-//W3C//DTD SVG 1.1//EN"
 "http://www.w3.org/Graphics/SVG/1.1/DTD/svg11.dtd">
<!-- Generated by graphviz version 2.34.0 (20140112.1130)
 -->
<!-- Title: bitpit::CollapsedVector2D&lt; T &gt; Pages: 1 -->
<svg width="132pt" height="120pt"
 viewBox="0.00 0.00 132.00 120.00" xmlns="http://www.w3.org/2000/svg" xmlns:xlink="http://www.w3.org/1999/xlink">
<g id="graph0" class="graph" transform="scale(1 1) rotate(0) translate(4 116)">
<title>bitpit::CollapsedVector2D&lt; T &gt;</title>
<polygon fill="white" stroke="white" points="-4,4 -4,-116 128,-116 128,4 -4,4"/>
<!-- Node1 -->
<g id="node1" class="node"><title>Node1</title>
<polygon fill="#bfbfbf" stroke="black" points="-0.5,-81 -0.5,-111 124.5,-111 124.5,-81 -0.5,-81"/>
<text text-anchor="start" x="7.5" y="-99" font-family="Helvetica,sans-Serif" font-size="10.00">bitpit::CollapsedVector2</text>
<text text-anchor="middle" x="62" y="-88" font-family="Helvetica,sans-Serif" font-size="10.00">D&lt; T &gt;</text>
</g>
<!-- Node2 -->
<g id="node2" class="node"><title>Node2</title>
<g id="a_node2"><a xlink:href="classbitpit_1_1CollapsedVector2D.xhtml" target="_top" xlink:title="bitpit::CollapsedVector2\lD\&lt; long \&gt;">
<polygon fill="white" stroke="black" points="-0.5,-1 -0.5,-31 124.5,-31 124.5,-1 -0.5,-1"/>
<text text-anchor="start" x="7.5" y="-19" font-family="Helvetica,sans-Serif" font-size="10.00">bitpit::CollapsedVector2</text>
<text text-anchor="middle" x="62" y="-8" font-family="Helvetica,sans-Serif" font-size="10.00">D&lt; long &gt;</text>
</a>
</g>
</g>
<!-- Node1&#45;&gt;Node2 -->
<g id="edge1" class="edge"><title>Node1&#45;&gt;Node2</title>
<path fill="none" stroke="orange" stroke-dasharray="5,2" d="M62,-70.5644C62,-57.6243 62,-42.1862 62,-31.2157"/>
<polygon fill="orange" stroke="orange" points="58.5001,-70.6936 62,-80.6936 65.5001,-70.6936 58.5001,-70.6936"/>
<text text-anchor="middle" x="83" y="-53.5" font-family="Helvetica,sans-Serif" font-size="10.00"> &lt; long &gt;</text>
</g>
</g>
</svg>
