<?xml version="1.0" encoding="UTF-8" standalone="no"?>
<!DOCTYPE svg PUBLIC "-//W3C//DTD SVG 1.1//EN"
 "http://www.w3.org/Graphics/SVG/1.1/DTD/svg11.dtd">
<!-- Generated by graphviz version 2.34.0 (20140112.1130)
 -->
<!-- Title: bitpit::SurfaceKernel Pages: 1 -->
<svg width="138pt" height="196pt"
 viewBox="0.00 0.00 138.00 196.00" xmlns="http://www.w3.org/2000/svg" xmlns:xlink="http://www.w3.org/1999/xlink">
<g id="graph0" class="graph" transform="scale(1 1) rotate(0) translate(4 192)">
<title>bitpit::SurfaceKernel</title>
<polygon fill="white" stroke="white" points="-4,4 -4,-192 134,-192 134,4 -4,4"/>
<!-- Node1 -->
<g id="node1" class="node"><title>Node1</title>
<polygon fill="#bfbfbf" stroke="black" points="10.5,-56.5 10.5,-75.5 119.5,-75.5 119.5,-56.5 10.5,-56.5"/>
<text text-anchor="middle" x="65" y="-63.5" font-family="Helvetica,sans-Serif" font-size="10.00">bitpit::SurfaceKernel</text>
</g>
<!-- Node4 -->
<g id="node4" class="node"><title>Node4</title>
<g id="a_node4"><a xlink:href="classbitpit_1_1SurfUnstructured.xhtml" target="_top" xlink:title="The SurfUnstructured class defines an unstructured surface triangulation. ">
<polygon fill="white" stroke="black" points="5.5,-0.5 5.5,-19.5 124.5,-19.5 124.5,-0.5 5.5,-0.5"/>
<text text-anchor="middle" x="65" y="-7.5" font-family="Helvetica,sans-Serif" font-size="10.00">bitpit::SurfUnstructured</text>
</a>
</g>
</g>
<!-- Node1&#45;&gt;Node4 -->
<g id="edge3" class="edge"><title>Node1&#45;&gt;Node4</title>
<path fill="none" stroke="midnightblue" d="M65,-45.8045C65,-36.9102 65,-26.7798 65,-19.7511"/>
<polygon fill="midnightblue" stroke="midnightblue" points="61.5001,-46.083 65,-56.083 68.5001,-46.083 61.5001,-46.083"/>
</g>
<!-- Node2 -->
<g id="node2" class="node"><title>Node2</title>
<g id="a_node2"><a xlink:href="classbitpit_1_1PatchKernel.xhtml" target="_top" xlink:title="The PatchKernel class provides an interface for defining patches. ">
<polygon fill="white" stroke="black" points="15.5,-112.5 15.5,-131.5 114.5,-131.5 114.5,-112.5 15.5,-112.5"/>
<text text-anchor="middle" x="65" y="-119.5" font-family="Helvetica,sans-Serif" font-size="10.00">bitpit::PatchKernel</text>
</a>
</g>
</g>
<!-- Node2&#45;&gt;Node1 -->
<g id="edge1" class="edge"><title>Node2&#45;&gt;Node1</title>
<path fill="none" stroke="midnightblue" d="M65,-101.805C65,-92.9102 65,-82.7798 65,-75.7511"/>
<polygon fill="midnightblue" stroke="midnightblue" points="61.5001,-102.083 65,-112.083 68.5001,-102.083 61.5001,-102.083"/>
</g>
<!-- Node3 -->
<g id="node3" class="node"><title>Node3</title>
<g id="a_node3"><a xlink:href="classbitpit_1_1VTKBaseStreamer.xhtml" target="_top" xlink:title="The base class to be used to derive VTK streamers form. ">
<polygon fill="white" stroke="black" points="0,-168.5 0,-187.5 130,-187.5 130,-168.5 0,-168.5"/>
<text text-anchor="middle" x="65" y="-175.5" font-family="Helvetica,sans-Serif" font-size="10.00">bitpit::VTKBaseStreamer</text>
</a>
</g>
</g>
<!-- Node3&#45;&gt;Node2 -->
<g id="edge2" class="edge"><title>Node3&#45;&gt;Node2</title>
<path fill="none" stroke="midnightblue" d="M65,-157.805C65,-148.91 65,-138.78 65,-131.751"/>
<polygon fill="midnightblue" stroke="midnightblue" points="61.5001,-158.083 65,-168.083 68.5001,-158.083 61.5001,-158.083"/>
</g>
</g>
</svg>
