<?xml version="1.0" encoding="UTF-8" standalone="no"?>
<!DOCTYPE svg PUBLIC "-//W3C//DTD SVG 1.1//EN"
 "http://www.w3.org/Graphics/SVG/1.1/DTD/svg11.dtd">
<!-- Generated by graphviz version 2.34.0 (20140112.1130)
 -->
<!-- Title: src/patchkernel Pages: 1 -->
<svg width="110pt" height="151pt"
 viewBox="0.00 0.00 110.00 151.00" xmlns="http://www.w3.org/2000/svg" xmlns:xlink="http://www.w3.org/1999/xlink">
<g id="graph0" class="graph" transform="scale(1 1) rotate(0) translate(4 147)">
<title>src/patchkernel</title>
<polygon fill="white" stroke="white" points="-4,4 -4,-147 106,-147 106,4 -4,4"/>
<g id="clust1" class="cluster"><title>clusterdir_68267d1309a1af8e8297ef4c3efbcdba</title>
<g id="a_clust1"><a xlink:href="dir_68267d1309a1af8e8297ef4c3efbcdba.xhtml" target="_top" xlink:title="src">
<polygon fill="#ddddee" stroke="black" points="8,-64 8,-135 94,-135 94,-64 8,-64"/>
<text text-anchor="middle" x="51" y="-123" font-family="Helvetica,sans-Serif" font-size="10.00">src</text>
</a>
</g>
</g>
<!-- dir_9dc7aa6b5c138a40bfa86c6dff2965ac -->
<g id="node1" class="node"><title>dir_9dc7aa6b5c138a40bfa86c6dff2965ac</title>
<g id="a_node1"><a xlink:href="dir_9dc7aa6b5c138a40bfa86c6dff2965ac.xhtml" target="_top" xlink:title="patchkernel">
<polygon fill="#eeeeff" stroke="black" points="86,-108 16,-108 16,-72 86,-72 86,-108"/>
<text text-anchor="middle" x="51" y="-87.5" font-family="Helvetica,sans-Serif" font-size="10.00">patchkernel</text>
</a>
</g>
</g>
<!-- dir_fdedb0aba14d44ce9d99bc100e026e6a -->
<g id="node2" class="node"><title>dir_fdedb0aba14d44ce9d99bc100e026e6a</title>
<g id="a_node2"><a xlink:href="dir_fdedb0aba14d44ce9d99bc100e026e6a.xhtml" target="_top" xlink:title="common">
<polygon fill="none" stroke="black" points="78.5,-36 23.5,-36 23.5,-0 78.5,-0 78.5,-36"/>
<text text-anchor="middle" x="51" y="-15.5" font-family="Helvetica,sans-Serif" font-size="10.00">common</text>
</a>
</g>
</g>
<!-- dir_9dc7aa6b5c138a40bfa86c6dff2965ac&#45;&gt;dir_fdedb0aba14d44ce9d99bc100e026e6a -->
<g id="edge1" class="edge"><title>dir_9dc7aa6b5c138a40bfa86c6dff2965ac&#45;&gt;dir_fdedb0aba14d44ce9d99bc100e026e6a</title>
<path fill="none" stroke="black" d="M51,-71.6966C51,-63.9827 51,-54.7125 51,-46.1124"/>
<polygon fill="black" stroke="black" points="54.5001,-46.1043 51,-36.1043 47.5001,-46.1044 54.5001,-46.1043"/>
<g id="a_edge1&#45;headlabel"><a xlink:href="dir_000013_000005.xhtml" target="_top" xlink:title="2">
<text text-anchor="middle" x="57.3393" y="-47.199" font-family="Helvetica,sans-Serif" font-size="10.00">2</text>
</a>
</g>
</g>
</g>
</svg>
