<?xml version="1.0" encoding="UTF-8" standalone="no"?>
<!DOCTYPE svg PUBLIC "-//W3C//DTD SVG 1.1//EN"
 "http://www.w3.org/Graphics/SVG/1.1/DTD/svg11.dtd">
<!-- Generated by graphviz version 2.34.0 (20140112.1130)
 -->
<!-- Title: src Pages: 1 -->
<!--zoomable 148 -->
<svg id="main" version="1.1" xmlns="http://www.w3.org/2000/svg" xmlns:xlink="http://www.w3.org/1999/xlink" xml:space="preserve" onload="init(evt)">
<style type="text/css"><![CDATA[
.edge:hover path { stroke: red; }
.edge:hover polygon { stroke: red; fill: red; }
]]></style>
<script type="text/javascript"><![CDATA[
var edges = document.getElementsByTagName('g');
if (edges && edges.length) {
  for (var i=0;i<edges.length;i++) {
    if (edges[i].id.substr(0,4)=='edge') {
      edges[i].setAttribute('class','edge');
    }
  }
}
]]></script>
        <defs>
                <circle id="rim" cx="0" cy="0" r="7"/>
                <circle id="rim2" cx="0" cy="0" r="3.5"/>
                <g id="zoomPlus">
                        <use xlink:href="#rim" fill="#404040">
                                <set attributeName="fill" to="#808080" begin="zoomplus.mouseover" end="zoomplus.mouseout"/>
                        </use>
                        <path d="M-4,0h8M0,-4v8" fill="none" stroke="white" stroke-width="1.5" pointer-events="none"/>
                </g>
                <g id="zoomMin">
                        <use xlink:href="#rim" fill="#404040">
                                <set attributeName="fill" to="#808080" begin="zoomminus.mouseover" end="zoomminus.mouseout"/>
                        </use>
                        <path d="M-4,0h8" fill="none" stroke="white" stroke-width="1.5" pointer-events="none"/>
                </g>
                <g id="dirArrow">
                        <path fill="none" stroke="white" stroke-width="1.5" d="M0,-3.0v7 M-2.5,-0.5L0,-3.0L2.5,-0.5"/>
                </g>
               <g id="resetDef">
                       <use xlink:href="#rim2" fill="#404040">
                               <set attributeName="fill" to="#808080" begin="reset.mouseover" end="reset.mouseout"/>
                       </use>
               </g>
        </defs>

<script type="text/javascript">
var viewWidth = 1234;
var viewHeight = 148;
var sectionId = 'dynsection-0';
</script>
<script xlink:href="svgpan.js"/>
<svg id="graph" class="graph">
<g id="viewport">
<title>src</title>
<polygon fill="white" stroke="white" points="-4,4 -4,-144 1230,-144 1230,4 -4,4"/>
<g id="clust1" class="cluster"><title>clusterdir_68267d1309a1af8e8297ef4c3efbcdba</title>
<g id="a_clust1"><a xlink:href="dir_68267d1309a1af8e8297ef4c3efbcdba.xhtml" target="_top">
<polygon fill="#eeeeff" stroke="black" points="8,-8 8,-132 1218,-132 1218,-8 8,-8"/>
</a>
</g>
</g>
<!-- dir_68267d1309a1af8e8297ef4c3efbcdba -->
<g id="node1" class="node"><title>dir_68267d1309a1af8e8297ef4c3efbcdba</title>
<text text-anchor="middle" x="1183" y="-103.5" font-family="Helvetica,sans-Serif" font-size="10.00">src</text>
</g>
<!-- dir_65444a4cf2ea1e0e670f935743e3f119 -->
<g id="node2" class="node"><title>dir_65444a4cf2ea1e0e670f935743e3f119</title>
<g id="a_node2"><a xlink:href="dir_65444a4cf2ea1e0e670f935743e3f119.xhtml" target="_top" xlink:title="CG">
<polygon fill="white" stroke="black" points="1138,-124 1084,-124 1084,-88 1138,-88 1138,-124"/>
<text text-anchor="middle" x="1111" y="-103.5" font-family="Helvetica,sans-Serif" font-size="10.00">CG</text>
</a>
</g>
</g>
<!-- dir_fdedb0aba14d44ce9d99bc100e026e6a -->
<g id="node3" class="node"><title>dir_fdedb0aba14d44ce9d99bc100e026e6a</title>
<g id="a_node3"><a xlink:href="dir_fdedb0aba14d44ce9d99bc100e026e6a.xhtml" target="_top" xlink:title="common">
<polygon fill="white" stroke="black" points="685.5,-52 630.5,-52 630.5,-16 685.5,-16 685.5,-52"/>
<text text-anchor="middle" x="658" y="-31.5" font-family="Helvetica,sans-Serif" font-size="10.00">common</text>
</a>
</g>
</g>
<!-- dir_a481372c9e8d9b6cd5802f6200f853d5 -->
<g id="node4" class="node"><title>dir_a481372c9e8d9b6cd5802f6200f853d5</title>
<g id="a_node4"><a xlink:href="dir_a481372c9e8d9b6cd5802f6200f853d5.xhtml" target="_top" xlink:title="communications">
<polygon fill="white" stroke="black" points="1066,-124 974,-124 974,-88 1066,-88 1066,-124"/>
<text text-anchor="middle" x="1020" y="-103.5" font-family="Helvetica,sans-Serif" font-size="10.00">communications</text>
</a>
</g>
</g>
<!-- dir_0b61c55142250c0cc363383afd8075a4 -->
<g id="node5" class="node"><title>dir_0b61c55142250c0cc363383afd8075a4</title>
<g id="a_node5"><a xlink:href="dir_0b61c55142250c0cc363383afd8075a4.xhtml" target="_top" xlink:title="containers">
<polygon fill="white" stroke="black" points="955.25,-124 890.75,-124 890.75,-88 955.25,-88 955.25,-124"/>
<text text-anchor="middle" x="923" y="-103.5" font-family="Helvetica,sans-Serif" font-size="10.00">containers</text>
</a>
</g>
</g>
<!-- dir_fae119eb913a40fe8ed97cde8b98911e -->
<g id="node6" class="node"><title>dir_fae119eb913a40fe8ed97cde8b98911e</title>
<g id="a_node6"><a xlink:href="dir_fae119eb913a40fe8ed97cde8b98911e.xhtml" target="_top" xlink:title="IO">
<polygon fill="white" stroke="black" points="872,-124 818,-124 818,-88 872,-88 872,-124"/>
<text text-anchor="middle" x="845" y="-103.5" font-family="Helvetica,sans-Serif" font-size="10.00">IO</text>
</a>
</g>
</g>
<!-- dir_fae119eb913a40fe8ed97cde8b98911e&#45;&gt;dir_fdedb0aba14d44ce9d99bc100e026e6a -->
<g id="edge1" class="edge"><title>dir_fae119eb913a40fe8ed97cde8b98911e&#45;&gt;dir_fdedb0aba14d44ce9d99bc100e026e6a</title>
<path fill="none" stroke="black" d="M817.613,-91.7091C814.723,-90.4143 811.814,-89.1545 809,-88 770.896,-72.3654 726.288,-57.0658 695.486,-46.9558"/>
<polygon fill="black" stroke="black" points="696.191,-43.5044 685.599,-43.7332 694.022,-50.1598 696.191,-43.5044"/>
<g id="a_edge1&#45;headlabel"><a xlink:href="dir_000008_000005.xhtml" target="_top" xlink:title="1">
<text text-anchor="middle" x="700.488" y="-39.4188" font-family="Helvetica,sans-Serif" font-size="10.00">1</text>
</a>
</g>
</g>
<!-- dir_d4e5f944addbeaedf7e9026f68a1d3fc -->
<g id="node7" class="node"><title>dir_d4e5f944addbeaedf7e9026f68a1d3fc</title>
<g id="a_node7"><a xlink:href="dir_d4e5f944addbeaedf7e9026f68a1d3fc.xhtml" target="_top" xlink:title="LA">
<polygon fill="white" stroke="black" points="800,-124 746,-124 746,-88 800,-88 800,-124"/>
<text text-anchor="middle" x="773" y="-103.5" font-family="Helvetica,sans-Serif" font-size="10.00">LA</text>
</a>
</g>
</g>
<!-- dir_9d03ec41247481073d82a41947e2c425 -->
<g id="node8" class="node"><title>dir_9d03ec41247481073d82a41947e2c425</title>
<g id="a_node8"><a xlink:href="dir_9d03ec41247481073d82a41947e2c425.xhtml" target="_top" xlink:title="levelset">
<polygon fill="white" stroke="black" points="728,-124 674,-124 674,-88 728,-88 728,-124"/>
<text text-anchor="middle" x="701" y="-103.5" font-family="Helvetica,sans-Serif" font-size="10.00">levelset</text>
</a>
</g>
</g>
<!-- dir_82efe83b87803b3f04ecf90d1f66df00 -->
<g id="node9" class="node"><title>dir_82efe83b87803b3f04ecf90d1f66df00</title>
<g id="a_node9"><a xlink:href="dir_82efe83b87803b3f04ecf90d1f66df00.xhtml" target="_top" xlink:title="operators">
<polygon fill="white" stroke="black" points="655.5,-124 596.5,-124 596.5,-88 655.5,-88 655.5,-124"/>
<text text-anchor="middle" x="626" y="-103.5" font-family="Helvetica,sans-Serif" font-size="10.00">operators</text>
</a>
</g>
</g>
<!-- dir_8f4a7db415b2362c102e34a058f0a80b -->
<g id="node10" class="node"><title>dir_8f4a7db415b2362c102e34a058f0a80b</title>
<g id="a_node10"><a xlink:href="dir_8f4a7db415b2362c102e34a058f0a80b.xhtml" target="_top" xlink:title="PABLO">
<polygon fill="white" stroke="black" points="578,-124 524,-124 524,-88 578,-88 578,-124"/>
<text text-anchor="middle" x="551" y="-103.5" font-family="Helvetica,sans-Serif" font-size="10.00">PABLO</text>
</a>
</g>
</g>
<!-- dir_9dc7aa6b5c138a40bfa86c6dff2965ac -->
<g id="node11" class="node"><title>dir_9dc7aa6b5c138a40bfa86c6dff2965ac</title>
<g id="a_node11"><a xlink:href="dir_9dc7aa6b5c138a40bfa86c6dff2965ac.xhtml" target="_top" xlink:title="patchkernel">
<polygon fill="white" stroke="black" points="506,-124 436,-124 436,-88 506,-88 506,-124"/>
<text text-anchor="middle" x="471" y="-103.5" font-family="Helvetica,sans-Serif" font-size="10.00">patchkernel</text>
</a>
</g>
</g>
<!-- dir_9dc7aa6b5c138a40bfa86c6dff2965ac&#45;&gt;dir_fdedb0aba14d44ce9d99bc100e026e6a -->
<g id="edge2" class="edge"><title>dir_9dc7aa6b5c138a40bfa86c6dff2965ac&#45;&gt;dir_fdedb0aba14d44ce9d99bc100e026e6a</title>
<path fill="none" stroke="black" d="M506.048,-91.4089C509.074,-90.2506 512.09,-89.1015 515,-88 550.774,-74.4606 591.711,-59.3239 620.592,-48.7046"/>
<polygon fill="black" stroke="black" points="622.097,-51.8805 630.277,-45.1468 619.683,-45.3099 622.097,-51.8805"/>
<g id="a_edge2&#45;headlabel"><a xlink:href="dir_000013_000005.xhtml" target="_top" xlink:title="2">
<text text-anchor="middle" x="619.702" y="-53.2851" font-family="Helvetica,sans-Serif" font-size="10.00">2</text>
</a>
</g>
</g>
<!-- dir_fabbdee3de76b6113005b66e11bcc6bf -->
<g id="node12" class="node"><title>dir_fabbdee3de76b6113005b66e11bcc6bf</title>
<g id="a_node12"><a xlink:href="dir_fabbdee3de76b6113005b66e11bcc6bf.xhtml" target="_top" xlink:title="RBF">
<polygon fill="white" stroke="black" points="418,-124 364,-124 364,-88 418,-88 418,-124"/>
<text text-anchor="middle" x="391" y="-103.5" font-family="Helvetica,sans-Serif" font-size="10.00">RBF</text>
</a>
</g>
</g>
<!-- dir_8850d8908253daaf25ac833e0c148714 -->
<g id="node13" class="node"><title>dir_8850d8908253daaf25ac833e0c148714</title>
<g id="a_node13"><a xlink:href="dir_8850d8908253daaf25ac833e0c148714.xhtml" target="_top" xlink:title="SA">
<polygon fill="white" stroke="black" points="346,-124 292,-124 292,-88 346,-88 346,-124"/>
<text text-anchor="middle" x="319" y="-103.5" font-family="Helvetica,sans-Serif" font-size="10.00">SA</text>
</a>
</g>
</g>
<!-- dir_1c10781a3acedb0d50b4e657ba9953fb -->
<g id="node14" class="node"><title>dir_1c10781a3acedb0d50b4e657ba9953fb</title>
<g id="a_node14"><a xlink:href="dir_1c10781a3acedb0d50b4e657ba9953fb.xhtml" target="_top" xlink:title="surfunstructured">
<polygon fill="white" stroke="black" points="274,-124 184,-124 184,-88 274,-88 274,-124"/>
<text text-anchor="middle" x="229" y="-103.5" font-family="Helvetica,sans-Serif" font-size="10.00">surfunstructured</text>
</a>
</g>
</g>
<!-- dir_dbd5555f837292e8a065e21c68c7ebb2 -->
<g id="node15" class="node"><title>dir_dbd5555f837292e8a065e21c68c7ebb2</title>
<g id="a_node15"><a xlink:href="dir_dbd5555f837292e8a065e21c68c7ebb2.xhtml" target="_top" xlink:title="volcartesian">
<polygon fill="white" stroke="black" points="166,-124 94,-124 94,-88 166,-88 166,-124"/>
<text text-anchor="middle" x="130" y="-103.5" font-family="Helvetica,sans-Serif" font-size="10.00">volcartesian</text>
</a>
</g>
</g>
<!-- dir_0eef72754324b964e7b10b5133407dd0 -->
<g id="node16" class="node"><title>dir_0eef72754324b964e7b10b5133407dd0</title>
<g id="a_node16"><a xlink:href="dir_0eef72754324b964e7b10b5133407dd0.xhtml" target="_top" xlink:title="voloctree">
<polygon fill="white" stroke="black" points="75.25,-124 16.75,-124 16.75,-88 75.25,-88 75.25,-124"/>
<text text-anchor="middle" x="46" y="-103.5" font-family="Helvetica,sans-Serif" font-size="10.00">voloctree</text>
</a>
</g>
</g>
</g>
</svg>
        <g id="navigator" transform="translate(0 0)" fill="#404254">
                <rect fill="#f2f5e9" fill-opacity="0.5" stroke="#606060" stroke-width=".5" x="0" y="0" width="60" height="60"/>
                <use id="zoomplus" xlink:href="#zoomPlus" x="17" y="9" onmousedown="handleZoom(evt,'in')"/>
                <use id="zoomminus" xlink:href="#zoomMin" x="42" y="9" onmousedown="handleZoom(evt,'out')"/>
                <use id="reset" xlink:href="#resetDef" x="30" y="36" onmousedown="handleReset()"/>
                <g id="arrowUp" xlink:href="#dirArrow" transform="translate(30 24)" onmousedown="handlePan(0,-1)">
                  <use xlink:href="#rim" fill="#404040">
                        <set attributeName="fill" to="#808080" begin="arrowUp.mouseover" end="arrowUp.mouseout"/>
                  </use>
                  <path fill="none" stroke="white" stroke-width="1.5" d="M0,-3.0v7 M-2.5,-0.5L0,-3.0L2.5,-0.5"/>
                </g>
                <g id="arrowRight" xlink:href="#dirArrow" transform="rotate(90) translate(36 -43)" onmousedown="handlePan(1,0)">
                  <use xlink:href="#rim" fill="#404040">
                        <set attributeName="fill" to="#808080" begin="arrowRight.mouseover" end="arrowRight.mouseout"/>
                  </use>
                  <path fill="none" stroke="white" stroke-width="1.5" d="M0,-3.0v7 M-2.5,-0.5L0,-3.0L2.5,-0.5"/>
                </g>
                <g id="arrowDown" xlink:href="#dirArrow" transform="rotate(180) translate(-30 -48)" onmousedown="handlePan(0,1)">
                  <use xlink:href="#rim" fill="#404040">
                        <set attributeName="fill" to="#808080" begin="arrowDown.mouseover" end="arrowDown.mouseout"/>
                  </use>
                  <path fill="none" stroke="white" stroke-width="1.5" d="M0,-3.0v7 M-2.5,-0.5L0,-3.0L2.5,-0.5"/>
                </g>
                <g id="arrowLeft" xlink:href="#dirArrow" transform="rotate(270) translate(-36 17)" onmousedown="handlePan(-1,0)">
                  <use xlink:href="#rim" fill="#404040">
                        <set attributeName="fill" to="#808080" begin="arrowLeft.mouseover" end="arrowLeft.mouseout"/>
                  </use>
                  <path fill="none" stroke="white" stroke-width="1.5" d="M0,-3.0v7 M-2.5,-0.5L0,-3.0L2.5,-0.5"/>
                </g>
        </g>
        <svg viewBox="0 0 15 15" width="100%" height="30px" preserveAspectRatio="xMaxYMin meet">
         <g id="arrow_out" transform="scale(0.3 0.3)">
          <a xlink:href="dir_68267d1309a1af8e8297ef4c3efbcdba_dep_org.svg" target="_base">
           <rect id="button" ry="5" rx="5" y="6" x="6" height="38" width="38"
                fill="#f2f5e9" fill-opacity="0.5" stroke="#606060" stroke-width="1.0"/>
           <path id="arrow"
             d="M 11.500037,31.436501 C 11.940474,20.09759 22.043105,11.32322 32.158766,21.979434 L 37.068811,17.246167 C 37.068811,17.246167 37.088388,32 37.088388,32 L 22.160133,31.978069 C 22.160133,31.978069 26.997745,27.140456 26.997745,27.140456 C 18.528582,18.264221 13.291696,25.230495 11.500037,31.436501 z"
             style="fill:#404040;"/>
          </a>
         </g>
        </svg>
</svg>
