<?xml version="1.0" encoding="UTF-8" standalone="no"?>
<!DOCTYPE svg PUBLIC "-//W3C//DTD SVG 1.1//EN"
 "http://www.w3.org/Graphics/SVG/1.1/DTD/svg11.dtd">
<!-- Generated by graphviz version 2.34.0 (20140112.1130)
 -->
<!-- Title: Graph Legend Pages: 1 -->
<svg width="526pt" height="164pt"
 viewBox="0.00 0.00 526.00 164.00" xmlns="http://www.w3.org/2000/svg" xmlns:xlink="http://www.w3.org/1999/xlink">
<g id="graph0" class="graph" transform="scale(1 1) rotate(0) translate(4 160)">
<title>Graph Legend</title>
<polygon fill="white" stroke="white" points="-4,4 -4,-160 522,-160 522,4 -4,4"/>
<!-- Node9 -->
<g id="node1" class="node"><title>Node9</title>
<polygon fill="#bfbfbf" stroke="black" points="301.5,-19.5 246.5,-19.5 246.5,-0.5 301.5,-0.5 301.5,-19.5"/>
<text text-anchor="middle" x="274" y="-7.5" font-family="Helvetica,sans-Serif" font-size="10.00">Inherited</text>
</g>
<!-- Node10 -->
<g id="node2" class="node"><title>Node10</title>
<g id="a_node2"><a xlink:href="$classPublicBase.xhtml" xlink:title="PublicBase">
<polygon fill="none" stroke="black" points="68.25,-87.5 -0.25,-87.5 -0.25,-68.5 68.25,-68.5 68.25,-87.5"/>
<text text-anchor="middle" x="34" y="-75.5" font-family="Helvetica,sans-Serif" font-size="10.00">PublicBase</text>
</a>
</g>
</g>
<!-- Node10&#45;&gt;Node9 -->
<g id="edge1" class="edge"><title>Node10&#45;&gt;Node9</title>
<path fill="none" stroke="midnightblue" d="M75.3155,-65.6382C124.232,-52.1863 204.343,-30.1557 246.337,-18.6073"/>
<polygon fill="midnightblue" stroke="midnightblue" points="74.0898,-62.3453 65.3758,-68.3717 75.9459,-69.0947 74.0898,-62.3453"/>
</g>
<!-- Node11 -->
<g id="node3" class="node"><title>Node11</title>
<g id="a_node3"><a xlink:href="$classTruncated.xhtml" xlink:title="Truncated">
<polygon fill="none" stroke="red" points="66.25,-155.5 1.75,-155.5 1.75,-136.5 66.25,-136.5 66.25,-155.5"/>
<text text-anchor="middle" x="34" y="-143.5" font-family="Helvetica,sans-Serif" font-size="10.00">Truncated</text>
</a>
</g>
</g>
<!-- Node11&#45;&gt;Node10 -->
<g id="edge2" class="edge"><title>Node11&#45;&gt;Node10</title>
<path fill="none" stroke="midnightblue" d="M34,-126.041C34,-113.472 34,-97.5631 34,-87.8411"/>
<polygon fill="midnightblue" stroke="midnightblue" points="30.5001,-126.372 34,-136.372 37.5001,-126.372 30.5001,-126.372"/>
</g>
<!-- Node13 -->
<g id="node4" class="node"><title>Node13</title>
<g id="a_node4"><a xlink:href="$classProtectedBase.xhtml" xlink:title="ProtectedBase">
<polygon fill="none" stroke="black" points="170.5,-87.5 87.5,-87.5 87.5,-68.5 170.5,-68.5 170.5,-87.5"/>
<text text-anchor="middle" x="129" y="-75.5" font-family="Helvetica,sans-Serif" font-size="10.00">ProtectedBase</text>
</a>
</g>
</g>
<!-- Node13&#45;&gt;Node9 -->
<g id="edge3" class="edge"><title>Node13&#45;&gt;Node9</title>
<path fill="none" stroke="darkgreen" d="M157.107,-64.2063C185.962,-51.0724 230.07,-30.9957 255.039,-19.6305"/>
<polygon fill="darkgreen" stroke="darkgreen" points="155.608,-61.0433 147.956,-68.3717 158.508,-67.4144 155.608,-61.0433"/>
</g>
<!-- Node14 -->
<g id="node5" class="node"><title>Node14</title>
<g id="a_node5"><a xlink:href="$classPrivateBase.xhtml" xlink:title="PrivateBase">
<polygon fill="none" stroke="black" points="261,-87.5 189,-87.5 189,-68.5 261,-68.5 261,-87.5"/>
<text text-anchor="middle" x="225" y="-75.5" font-family="Helvetica,sans-Serif" font-size="10.00">PrivateBase</text>
</a>
</g>
</g>
<!-- Node14&#45;&gt;Node9 -->
<g id="edge4" class="edge"><title>Node14&#45;&gt;Node9</title>
<path fill="none" stroke="#8b1a1a" d="M237.391,-60.3101C246.943,-47.4437 259.776,-30.1583 267.436,-19.8411"/>
<polygon fill="#8b1a1a" stroke="#8b1a1a" points="234.557,-58.2562 231.406,-68.3717 240.177,-62.4289 234.557,-58.2562"/>
</g>
<!-- Node15 -->
<g id="node6" class="node"><title>Node15</title>
<polygon fill="none" stroke="#bfbfbf" points="366.25,-87.5 279.75,-87.5 279.75,-68.5 366.25,-68.5 366.25,-87.5"/>
<text text-anchor="middle" x="323" y="-75.5" font-family="Helvetica,sans-Serif" font-size="10.00">Undocumented</text>
</g>
<!-- Node15&#45;&gt;Node9 -->
<g id="edge5" class="edge"><title>Node15&#45;&gt;Node9</title>
<path fill="none" stroke="midnightblue" d="M310.609,-60.3101C301.057,-47.4437 288.224,-30.1583 280.564,-19.8411"/>
<polygon fill="midnightblue" stroke="midnightblue" points="307.823,-62.4289 316.594,-68.3717 313.443,-58.2562 307.823,-62.4289"/>
</g>
<!-- Node16 -->
<g id="node7" class="node"><title>Node16</title>
<g id="a_node7"><a xlink:href="$classTempl.xhtml" xlink:title="Templ&lt; int &gt;">
<polygon fill="none" stroke="black" points="459.25,-87.5 384.75,-87.5 384.75,-68.5 459.25,-68.5 459.25,-87.5"/>
<text text-anchor="middle" x="422" y="-75.5" font-family="Helvetica,sans-Serif" font-size="10.00">Templ&lt; int &gt;</text>
</a>
</g>
</g>
<!-- Node16&#45;&gt;Node9 -->
<g id="edge6" class="edge"><title>Node16&#45;&gt;Node9</title>
<path fill="none" stroke="midnightblue" d="M393.311,-64.2063C363.859,-51.0724 318.839,-30.9957 293.353,-19.6305"/>
<polygon fill="midnightblue" stroke="midnightblue" points="392.093,-67.4953 402.652,-68.3717 394.944,-61.1022 392.093,-67.4953"/>
</g>
<!-- Node17 -->
<g id="node8" class="node"><title>Node17</title>
<g id="a_node8"><a xlink:href="$classTempl.xhtml" xlink:title="Templ&lt; T &gt;">
<polygon fill="none" stroke="black" points="458,-155.5 386,-155.5 386,-136.5 458,-136.5 458,-155.5"/>
<text text-anchor="middle" x="422" y="-143.5" font-family="Helvetica,sans-Serif" font-size="10.00">Templ&lt; T &gt;</text>
</a>
</g>
</g>
<!-- Node17&#45;&gt;Node16 -->
<g id="edge7" class="edge"><title>Node17&#45;&gt;Node16</title>
<path fill="none" stroke="orange" stroke-dasharray="5,2" d="M422,-126.041C422,-113.472 422,-97.5631 422,-87.8411"/>
<polygon fill="orange" stroke="orange" points="418.5,-126.372 422,-136.372 425.5,-126.372 418.5,-126.372"/>
<text text-anchor="middle" x="436.5" y="-109.5" font-family="Helvetica,sans-Serif" font-size="10.00">&lt; int &gt;</text>
</g>
<!-- Node18 -->
<g id="node9" class="node"><title>Node18</title>
<g id="a_node9"><a xlink:href="$classUsed.xhtml" xlink:title="Used">
<polygon fill="none" stroke="black" points="518.25,-87.5 477.75,-87.5 477.75,-68.5 518.25,-68.5 518.25,-87.5"/>
<text text-anchor="middle" x="498" y="-75.5" font-family="Helvetica,sans-Serif" font-size="10.00">Used</text>
</a>
</g>
</g>
<!-- Node18&#45;&gt;Node9 -->
<g id="edge8" class="edge"><title>Node18&#45;&gt;Node9</title>
<path fill="none" stroke="#9a32cd" stroke-dasharray="5,2" d="M468.294,-68.0872C468.196,-68.0581 468.098,-68.029 468,-68 408.772,-50.4149 339.287,-30.0679 301.643,-19.0683"/>
<polygon fill="#9a32cd" stroke="#9a32cd" points="467.088,-71.38 477.671,-70.8844 469.089,-64.672 467.088,-71.38"/>
<text text-anchor="middle" x="437" y="-41.5" font-family="Helvetica,sans-Serif" font-size="10.00">m_usedClass</text>
</g>
</g>
</svg>
