<?xml version="1.0" encoding="UTF-8" standalone="no"?>
<!DOCTYPE svg PUBLIC "-//W3C//DTD SVG 1.1//EN"
 "http://www.w3.org/Graphics/SVG/1.1/DTD/svg11.dtd">
<!-- Generated by graphviz version 2.34.0 (20140112.1130)
 -->
<!-- Title: Operators Pages: 1 -->
<svg width="228pt" height="66pt"
 viewBox="0.00 0.00 228.00 66.00" xmlns="http://www.w3.org/2000/svg" xmlns:xlink="http://www.w3.org/1999/xlink">
<g id="graph0" class="graph" transform="scale(1 1) rotate(0) translate(4 62)">
<title>Operators</title>
<polygon fill="white" stroke="white" points="-4,4 -4,-62 224,-62 224,4 -4,4"/>
<!-- Node1 -->
<g id="node1" class="node"><title>Node1</title>
<g id="a_node1"><a xlink:href="group__MathFunctions.xhtml" target="_top" xlink:title="Mathematical functions">
<polygon fill="white" stroke="black" points="98.5,-38.5 98.5,-57.5 219.5,-57.5 219.5,-38.5 98.5,-38.5"/>
<text text-anchor="middle" x="159" y="-45.5" font-family="Helvetica,sans-Serif" font-size="10.00">Mathematical functions</text>
</a>
</g>
</g>
<!-- Node0 -->
<g id="node2" class="node"><title>Node0</title>
<polygon fill="#bfbfbf" stroke="black" points="0,-19.5 0,-38.5 62,-38.5 62,-19.5 0,-19.5"/>
<text text-anchor="middle" x="31" y="-26.5" font-family="Helvetica,sans-Serif" font-size="10.00">Operators</text>
</g>
<!-- Node0&#45;&gt;Node1 -->
<g id="edge1" class="edge"><title>Node0&#45;&gt;Node1</title>
<path fill="none" stroke="midnightblue" d="M72.3365,-35.0825C80.6529,-36.3365 89.5771,-37.6823 98.4116,-39.0145"/>
<polygon fill="midnightblue" stroke="midnightblue" points="72.5903,-31.5813 62.1801,-33.551 71.5464,-38.503 72.5903,-31.5813"/>
</g>
<!-- Node2 -->
<g id="node3" class="node"><title>Node2</title>
<g id="a_node3"><a xlink:href="group__Operators.xhtml" target="_top" xlink:title="Operators">
<polygon fill="white" stroke="black" points="128,-0.5 128,-19.5 190,-19.5 190,-0.5 128,-0.5"/>
<text text-anchor="middle" x="159" y="-7.5" font-family="Helvetica,sans-Serif" font-size="10.00">Operators</text>
</a>
</g>
</g>
<!-- Node0&#45;&gt;Node2 -->
<g id="edge2" class="edge"><title>Node0&#45;&gt;Node2</title>
<path fill="none" stroke="midnightblue" d="M72.1075,-22.952C90.0958,-20.2395 110.966,-17.0924 127.629,-14.5797"/>
<polygon fill="midnightblue" stroke="midnightblue" points="71.5464,-19.497 62.1801,-24.449 72.5903,-26.4187 71.5464,-19.497"/>
</g>
</g>
</svg>
