<?xml version="1.0" encoding="UTF-8" standalone="no"?>
<!DOCTYPE svg PUBLIC "-//W3C//DTD SVG 1.1//EN"
 "http://www.w3.org/Graphics/SVG/1.1/DTD/svg11.dtd">
<!-- Generated by graphviz version 2.34.0 (20140112.1130)
 -->
<!-- Title: Input/Output (IO) Pages: 1 -->
<svg width="272pt" height="192pt"
 viewBox="0.00 0.00 272.00 192.00" xmlns="http://www.w3.org/2000/svg" xmlns:xlink="http://www.w3.org/1999/xlink">
<g id="graph0" class="graph" transform="scale(1 1) rotate(0) translate(4 188)">
<title>Input/Output (IO)</title>
<polygon fill="white" stroke="white" points="-4,4 -4,-188 268,-188 268,4 -4,4"/>
<!-- Node3 -->
<g id="node1" class="node"><title>Node3</title>
<g id="a_node1"><a xlink:href="group__STereoLithography.xhtml" target="_top" xlink:title="STereoLithography (STL)">
<polygon fill="white" stroke="black" points="130.5,-164.5 130.5,-183.5 263.5,-183.5 263.5,-164.5 130.5,-164.5"/>
<text text-anchor="middle" x="197" y="-171.5" font-family="Helvetica,sans-Serif" font-size="10.00">STereoLithography (STL)</text>
</a>
</g>
</g>
<!-- Node0 -->
<g id="node2" class="node"><title>Node0</title>
<polygon fill="#bfbfbf" stroke="black" points="0,-82.5 0,-101.5 94,-101.5 94,-82.5 0,-82.5"/>
<text text-anchor="middle" x="47" y="-89.5" font-family="Helvetica,sans-Serif" font-size="10.00">Input/Output (IO)</text>
</g>
<!-- Node0&#45;&gt;Node3 -->
<g id="edge3" class="edge"><title>Node0&#45;&gt;Node3</title>
<path fill="none" stroke="midnightblue" d="M65.1475,-108.297C80.8911,-122.458 105.437,-142.594 130,-155 137.45,-158.763 145.761,-161.889 153.904,-164.444"/>
<polygon fill="midnightblue" stroke="midnightblue" points="67.4941,-105.7 57.7635,-101.509 62.7566,-110.853 67.4941,-105.7"/>
</g>
<!-- Node5 -->
<g id="node3" class="node"><title>Node5</title>
<g id="a_node3"><a xlink:href="group__Logger.xhtml" target="_top" xlink:title="Logger">
<polygon fill="white" stroke="black" points="172.5,-126.5 172.5,-145.5 221.5,-145.5 221.5,-126.5 172.5,-126.5"/>
<text text-anchor="middle" x="197" y="-133.5" font-family="Helvetica,sans-Serif" font-size="10.00">Logger</text>
</a>
</g>
</g>
<!-- Node0&#45;&gt;Node5 -->
<g id="edge5" class="edge"><title>Node0&#45;&gt;Node5</title>
<path fill="none" stroke="midnightblue" d="M89.9446,-104.47C116.571,-112.386 150.061,-122.342 172.203,-128.925"/>
<polygon fill="midnightblue" stroke="midnightblue" points="90.6966,-101.042 80.1138,-101.547 88.7017,-107.752 90.6966,-101.042"/>
</g>
<!-- Node4 -->
<g id="node4" class="node"><title>Node4</title>
<g id="a_node4"><a xlink:href="group__VisualizationToolKit.xhtml" target="_top" xlink:title="VisualizationToolKit\l (VTK)">
<polygon fill="white" stroke="black" points="143,-77 143,-107 251,-107 251,-77 143,-77"/>
<text text-anchor="start" x="151" y="-95" font-family="Helvetica,sans-Serif" font-size="10.00">VisualizationToolKit</text>
<text text-anchor="middle" x="197" y="-84" font-family="Helvetica,sans-Serif" font-size="10.00"> (VTK)</text>
</a>
</g>
</g>
<!-- Node0&#45;&gt;Node4 -->
<g id="edge4" class="edge"><title>Node0&#45;&gt;Node4</title>
<path fill="none" stroke="midnightblue" d="M104.391,-92C116.984,-92 130.3,-92 142.761,-92"/>
<polygon fill="midnightblue" stroke="midnightblue" points="104.017,-88.5001 94.0168,-92 104.017,-95.5001 104.017,-88.5001"/>
</g>
<!-- Node1 -->
<g id="node5" class="node"><title>Node1</title>
<g id="a_node5"><a xlink:href="group__GenericIO.xhtml" target="_top" xlink:title="Generic">
<polygon fill="white" stroke="black" points="170.5,-38.5 170.5,-57.5 223.5,-57.5 223.5,-38.5 170.5,-38.5"/>
<text text-anchor="middle" x="197" y="-45.5" font-family="Helvetica,sans-Serif" font-size="10.00">Generic</text>
</a>
</g>
</g>
<!-- Node0&#45;&gt;Node1 -->
<g id="edge1" class="edge"><title>Node0&#45;&gt;Node1</title>
<path fill="none" stroke="midnightblue" d="M90.0374,-79.5024C115.911,-71.8101 148.239,-62.1993 170.339,-55.6289"/>
<polygon fill="midnightblue" stroke="midnightblue" points="88.7017,-76.248 80.1138,-82.4527 90.6966,-82.9578 88.7017,-76.248"/>
</g>
<!-- Node2 -->
<g id="node6" class="node"><title>Node2</title>
<g id="a_node6"><a xlink:href="group__DuneGridFormat.xhtml" target="_top" xlink:title="DuneGridFormat (DGF)">
<polygon fill="white" stroke="black" points="135,-0.5 135,-19.5 259,-19.5 259,-0.5 135,-0.5"/>
<text text-anchor="middle" x="197" y="-7.5" font-family="Helvetica,sans-Serif" font-size="10.00">DuneGridFormat (DGF)</text>
</a>
</g>
</g>
<!-- Node0&#45;&gt;Node2 -->
<g id="edge2" class="edge"><title>Node0&#45;&gt;Node2</title>
<path fill="none" stroke="midnightblue" d="M65.1475,-75.7031C80.8911,-61.5418 105.437,-41.4061 130,-29 137.45,-25.2371 145.761,-22.1114 153.904,-19.5558"/>
<polygon fill="midnightblue" stroke="midnightblue" points="62.7566,-73.1468 57.7635,-82.4913 67.4941,-78.3 62.7566,-73.1468"/>
</g>
</g>
</svg>
