<?xml version="1.0" encoding="UTF-8" standalone="no"?>
<!DOCTYPE svg PUBLIC "-//W3C//DTD SVG 1.1//EN"
 "http://www.w3.org/Graphics/SVG/1.1/DTD/svg11.dtd">
<!-- Generated by graphviz version 2.34.0 (20140112.1130)
 -->
<!-- Title: Linear algebra (LA) Pages: 1 -->
<svg width="226pt" height="218pt"
 viewBox="0.00 0.00 226.00 218.00" xmlns="http://www.w3.org/2000/svg" xmlns:xlink="http://www.w3.org/1999/xlink">
<g id="graph0" class="graph" transform="scale(1 1) rotate(0) translate(4 214)">
<title>Linear algebra (LA)</title>
<polygon fill="white" stroke="white" points="-4,4 -4,-214 222,-214 222,4 -4,4"/>
<!-- Node2 -->
<g id="node1" class="node"><title>Node2</title>
<g id="a_node1"><a xlink:href="group__ladisplay.xhtml" target="_top" xlink:title="Display">
<polygon fill="white" stroke="black" points="153.5,-190.5 153.5,-209.5 204.5,-209.5 204.5,-190.5 153.5,-190.5"/>
<text text-anchor="middle" x="179" y="-197.5" font-family="Helvetica,sans-Serif" font-size="10.00">Display</text>
</a>
</g>
</g>
<!-- Node1 -->
<g id="node2" class="node"><title>Node1</title>
<g id="a_node2"><a xlink:href="group__laspecialmatrix.xhtml" target="_top" xlink:title="SpecialMatrix">
<polygon fill="white" stroke="black" points="140,-152.5 140,-171.5 218,-171.5 218,-152.5 140,-152.5"/>
<text text-anchor="middle" x="179" y="-159.5" font-family="Helvetica,sans-Serif" font-size="10.00">SpecialMatrix</text>
</a>
</g>
</g>
<!-- Node5 -->
<g id="node3" class="node"><title>Node5</title>
<g id="a_node3"><a xlink:href="group__lainfo.xhtml" target="_top" xlink:title="Info">
<polygon fill="white" stroke="black" points="162,-114.5 162,-133.5 196,-133.5 196,-114.5 162,-114.5"/>
<text text-anchor="middle" x="179" y="-121.5" font-family="Helvetica,sans-Serif" font-size="10.00">Info</text>
</a>
</g>
</g>
<!-- Node0 -->
<g id="node4" class="node"><title>Node0</title>
<polygon fill="#bfbfbf" stroke="black" points="0,-95.5 0,-114.5 104,-114.5 104,-95.5 0,-95.5"/>
<text text-anchor="middle" x="52" y="-102.5" font-family="Helvetica,sans-Serif" font-size="10.00">Linear algebra (LA)</text>
</g>
<!-- Node0&#45;&gt;Node2 -->
<g id="edge2" class="edge"><title>Node0&#45;&gt;Node2</title>
<path fill="none" stroke="midnightblue" d="M69.8777,-122.086C86.669,-138.496 113.663,-163.334 140,-181 145.145,-184.451 151.006,-187.683 156.557,-190.469"/>
<polygon fill="midnightblue" stroke="midnightblue" points="72.0682,-119.329 62.5019,-114.775 67.1405,-124.301 72.0682,-119.329"/>
</g>
<!-- Node0&#45;&gt;Node1 -->
<g id="edge1" class="edge"><title>Node0&#45;&gt;Node1</title>
<path fill="none" stroke="midnightblue" d="M83.1697,-118.757C106.009,-129.172 136.796,-143.211 157.01,-152.428"/>
<polygon fill="midnightblue" stroke="midnightblue" points="84.473,-115.505 73.9222,-114.541 81.5687,-121.874 84.473,-115.505"/>
</g>
<!-- Node0&#45;&gt;Node5 -->
<g id="edge5" class="edge"><title>Node0&#45;&gt;Node5</title>
<path fill="none" stroke="midnightblue" d="M114.453,-114.341C131.954,-117.001 149.565,-119.678 161.794,-121.537"/>
<polygon fill="midnightblue" stroke="midnightblue" points="114.615,-110.825 104.203,-112.783 113.563,-117.746 114.615,-110.825"/>
</g>
<!-- Node4 -->
<g id="node5" class="node"><title>Node4</title>
<g id="a_node5"><a xlink:href="group__lamultiplication.xhtml" target="_top" xlink:title="Multiplication">
<polygon fill="white" stroke="black" points="141,-76.5 141,-95.5 217,-95.5 217,-76.5 141,-76.5"/>
<text text-anchor="middle" x="179" y="-83.5" font-family="Helvetica,sans-Serif" font-size="10.00">Multiplication</text>
</a>
</g>
</g>
<!-- Node0&#45;&gt;Node4 -->
<g id="edge4" class="edge"><title>Node0&#45;&gt;Node4</title>
<path fill="none" stroke="midnightblue" d="M114.363,-95.6728C123.41,-94.2976 132.489,-92.9177 140.841,-91.6482"/>
<polygon fill="midnightblue" stroke="midnightblue" points="113.563,-92.2541 104.203,-97.2172 114.615,-99.1746 113.563,-92.2541"/>
</g>
<!-- Node3 -->
<g id="node6" class="node"><title>Node3</title>
<g id="a_node6"><a xlink:href="group__lamanipulation.xhtml" target="_top" xlink:title="Manipulation">
<polygon fill="white" stroke="black" points="141,-38.5 141,-57.5 217,-57.5 217,-38.5 141,-38.5"/>
<text text-anchor="middle" x="179" y="-45.5" font-family="Helvetica,sans-Serif" font-size="10.00">Manipulation</text>
</a>
</g>
</g>
<!-- Node0&#45;&gt;Node3 -->
<g id="edge3" class="edge"><title>Node0&#45;&gt;Node3</title>
<path fill="none" stroke="midnightblue" d="M83.1697,-91.2426C106.009,-80.8281 136.796,-66.7892 157.01,-57.5716"/>
<polygon fill="midnightblue" stroke="midnightblue" points="81.5687,-88.1259 73.9222,-95.4595 84.473,-94.495 81.5687,-88.1259"/>
</g>
<!-- Node6 -->
<g id="node7" class="node"><title>Node6</title>
<g id="a_node7"><a xlink:href="group__lasolve.xhtml" target="_top" xlink:title="Solve">
<polygon fill="white" stroke="black" points="157.5,-0.5 157.5,-19.5 200.5,-19.5 200.5,-0.5 157.5,-0.5"/>
<text text-anchor="middle" x="179" y="-7.5" font-family="Helvetica,sans-Serif" font-size="10.00">Solve</text>
</a>
</g>
</g>
<!-- Node0&#45;&gt;Node6 -->
<g id="edge6" class="edge"><title>Node0&#45;&gt;Node6</title>
<path fill="none" stroke="midnightblue" d="M69.8777,-87.9141C86.669,-71.5039 113.663,-46.6658 140,-29 145.39,-25.3843 151.565,-22.0093 157.348,-19.1367"/>
<polygon fill="midnightblue" stroke="midnightblue" points="67.1405,-85.6991 62.5019,-95.2246 72.0682,-90.6709 67.1405,-85.6991"/>
</g>
</g>
</svg>
