<?xml version="1.0" encoding="UTF-8" standalone="no"?>
<!DOCTYPE svg PUBLIC "-//W3C//DTD SVG 1.1//EN"
 "http://www.w3.org/Graphics/SVG/1.1/DTD/svg11.dtd">
<!-- Generated by graphviz version 2.34.0 (20140112.1130)
 -->
<!-- Title: VisualizationToolKit (VTK) Pages: 1 -->
<svg width="386pt" height="38pt"
 viewBox="0.00 0.00 386.00 38.00" xmlns="http://www.w3.org/2000/svg" xmlns:xlink="http://www.w3.org/1999/xlink">
<g id="graph0" class="graph" transform="scale(1 1) rotate(0) translate(4 34)">
<title>VisualizationToolKit (VTK)</title>
<polygon fill="white" stroke="white" points="-4,4 -4,-34 382,-34 382,4 -4,4"/>
<!-- Node1 -->
<g id="node1" class="node"><title>Node1</title>
<g id="a_node1"><a xlink:href="group__IO.xhtml" target="_top" xlink:title="Input/Output (IO)">
<polygon fill="white" stroke="black" points="0,-5.5 0,-24.5 94,-24.5 94,-5.5 0,-5.5"/>
<text text-anchor="middle" x="47" y="-12.5" font-family="Helvetica,sans-Serif" font-size="10.00">Input/Output (IO)</text>
</a>
</g>
</g>
<!-- Node0 -->
<g id="node2" class="node"><title>Node0</title>
<polygon fill="#bfbfbf" stroke="black" points="130,-0 130,-30 238,-30 238,-0 130,-0"/>
<text text-anchor="start" x="138" y="-18" font-family="Helvetica,sans-Serif" font-size="10.00">VisualizationToolKit</text>
<text text-anchor="middle" x="184" y="-7" font-family="Helvetica,sans-Serif" font-size="10.00"> (VTK)</text>
</g>
<!-- Node1&#45;&gt;Node0 -->
<g id="edge1" class="edge"><title>Node1&#45;&gt;Node0</title>
<path fill="none" stroke="midnightblue" d="M104.211,-15C112.644,-15 121.318,-15 129.688,-15"/>
<polygon fill="midnightblue" stroke="midnightblue" points="104.082,-11.5001 94.0818,-15 104.082,-18.5001 104.082,-11.5001"/>
</g>
<!-- Node2 -->
<g id="node3" class="node"><title>Node2</title>
<g id="a_node3"><a xlink:href="group__VTKEnums.xhtml" target="_top" xlink:title="VTK Enumerations">
<polygon fill="white" stroke="black" points="274,-5.5 274,-24.5 378,-24.5 378,-5.5 274,-5.5"/>
<text text-anchor="middle" x="326" y="-12.5" font-family="Helvetica,sans-Serif" font-size="10.00">VTK Enumerations</text>
</a>
</g>
</g>
<!-- Node0&#45;&gt;Node2 -->
<g id="edge2" class="edge"><title>Node0&#45;&gt;Node2</title>
<path fill="none" stroke="midnightblue" d="M248.508,-15C256.933,-15 265.485,-15 273.669,-15"/>
<polygon fill="midnightblue" stroke="midnightblue" points="248.327,-11.5001 238.327,-15 248.327,-18.5001 248.327,-11.5001"/>
</g>
</g>
</svg>
