<?xml version="1.0" encoding="UTF-8" standalone="no"?>
<!DOCTYPE svg PUBLIC "-//W3C//DTD SVG 1.1//EN"
 "http://www.w3.org/Graphics/SVG/1.1/DTD/svg11.dtd">
<!-- Generated by graphviz version 2.34.0 (20140112.1130)
 -->
<!-- Title: Containers Pages: 1 -->
<svg width="192pt" height="66pt"
 viewBox="0.00 0.00 192.00 66.00" xmlns="http://www.w3.org/2000/svg" xmlns:xlink="http://www.w3.org/1999/xlink">
<g id="graph0" class="graph" transform="scale(1 1) rotate(0) translate(4 62)">
<title>Containers</title>
<polygon fill="white" stroke="white" points="-4,4 -4,-62 188,-62 188,4 -4,4"/>
<!-- Node0 -->
<g id="node1" class="node"><title>Node0</title>
<polygon fill="#bfbfbf" stroke="black" points="0.5,-19.5 0.5,-38.5 67.5,-38.5 67.5,-19.5 0.5,-19.5"/>
<text text-anchor="middle" x="34" y="-26.5" font-family="Helvetica,sans-Serif" font-size="10.00">Containers</text>
</g>
<!-- Node2 -->
<g id="node2" class="node"><title>Node2</title>
<g id="a_node2"><a xlink:href="group__containerUtils.xhtml" target="_top" xlink:title="Utils">
<polygon fill="white" stroke="black" points="126.5,-38.5 126.5,-57.5 161.5,-57.5 161.5,-38.5 126.5,-38.5"/>
<text text-anchor="middle" x="144" y="-45.5" font-family="Helvetica,sans-Serif" font-size="10.00">Utils</text>
</a>
</g>
</g>
<!-- Node0&#45;&gt;Node2 -->
<g id="edge2" class="edge"><title>Node0&#45;&gt;Node2</title>
<path fill="none" stroke="midnightblue" d="M78.007,-36.566C94.9821,-39.5524 113.471,-42.805 126.373,-45.0748"/>
<polygon fill="midnightblue" stroke="midnightblue" points="78.1519,-33.0379 67.6966,-34.7522 76.9389,-39.932 78.1519,-33.0379"/>
</g>
<!-- Node1 -->
<g id="node3" class="node"><title>Node1</title>
<g id="a_node3"><a xlink:href="group__BinaryStream.xhtml" target="_top" xlink:title="Binary stream">
<polygon fill="white" stroke="black" points="104,-0.5 104,-19.5 184,-19.5 184,-0.5 104,-0.5"/>
<text text-anchor="middle" x="144" y="-7.5" font-family="Helvetica,sans-Serif" font-size="10.00">Binary stream</text>
</a>
</g>
</g>
<!-- Node0&#45;&gt;Node1 -->
<g id="edge1" class="edge"><title>Node0&#45;&gt;Node1</title>
<path fill="none" stroke="midnightblue" d="M77.6377,-21.4989C86.315,-19.9724 95.4023,-18.3737 103.948,-16.8703"/>
<polygon fill="midnightblue" stroke="midnightblue" points="76.9389,-18.068 67.6966,-23.2478 78.1519,-24.9621 76.9389,-18.068"/>
</g>
</g>
</svg>
