<?xml version="1.0" encoding="UTF-8" standalone="no"?>
<!DOCTYPE svg PUBLIC "-//W3C//DTD SVG 1.1//EN"
 "http://www.w3.org/Graphics/SVG/1.1/DTD/svg11.dtd">
<!-- Generated by graphviz version 2.34.0 (20140112.1130)
 -->
<!-- Title: Graphical Class Hierarchy Pages: 1 -->
<svg width="204pt" height="48pt"
 viewBox="0.00 0.00 204.00 48.00" xmlns="http://www.w3.org/2000/svg" xmlns:xlink="http://www.w3.org/1999/xlink">
<g id="graph0" class="graph" transform="scale(1 1) rotate(0) translate(4 44)">
<title>Graphical Class Hierarchy</title>
<polygon fill="white" stroke="white" points="-4,4 -4,-44 200,-44 200,4 -4,4"/>
<!-- Node1 -->
<g id="node1" class="node"><title>Node1</title>
<polygon fill="white" stroke="#bfbfbf" points="0.5,-10.5 0.5,-29.5 47.5,-29.5 47.5,-10.5 0.5,-10.5"/>
<text text-anchor="middle" x="24" y="-17.5" font-family="Helvetica,sans-Serif" font-size="10.00">iterator</text>
</g>
<!-- Node2 -->
<g id="node2" class="node"><title>Node2</title>
<g id="a_node2"><a xlink:href="classbitpit_1_1PiercedIterator.xhtml" target="_top" xlink:title="Iterator for the class PiercedVector. ">
<polygon fill="white" stroke="black" points="84,0.5 84,-40.5 196,-40.5 196,0.5 84,0.5"/>
<text text-anchor="start" x="92" y="-28.5" font-family="Helvetica,sans-Serif" font-size="10.00">bitpit::PiercedIterator</text>
<text text-anchor="start" x="92" y="-17.5" font-family="Helvetica,sans-Serif" font-size="10.00">&lt; value_t, id_t, value</text>
<text text-anchor="middle" x="140" y="-6.5" font-family="Helvetica,sans-Serif" font-size="10.00">_no_cv_t &gt;</text>
</a>
</g>
</g>
<!-- Node1&#45;&gt;Node2 -->
<g id="edge1" class="edge"><title>Node1&#45;&gt;Node2</title>
<path fill="none" stroke="midnightblue" d="M57.7546,-20C65.9552,-20 74.9788,-20 83.9383,-20"/>
<polygon fill="midnightblue" stroke="midnightblue" points="57.5228,-16.5001 47.5227,-20 57.5227,-23.5001 57.5228,-16.5001"/>
</g>
</g>
</svg>
