<?xml version="1.0" encoding="UTF-8" standalone="no"?>
<!DOCTYPE svg PUBLIC "-//W3C//DTD SVG 1.1//EN"
 "http://www.w3.org/Graphics/SVG/1.1/DTD/svg11.dtd">
<!-- Generated by graphviz version 2.34.0 (20140112.1130)
 -->
<!-- Title: Graphical Class Hierarchy Pages: 1 -->
<svg width="208pt" height="66pt"
 viewBox="0.00 0.00 208.00 66.00" xmlns="http://www.w3.org/2000/svg" xmlns:xlink="http://www.w3.org/1999/xlink">
<g id="graph0" class="graph" transform="scale(1 1) rotate(0) translate(4 62)">
<title>Graphical Class Hierarchy</title>
<polygon fill="white" stroke="white" points="-4,4 -4,-62 204,-62 204,4 -4,4"/>
<!-- Node1 -->
<g id="node1" class="node"><title>Node1</title>
<g id="a_node1"><a xlink:href="classbitpit_1_1Element.xhtml" target="_top" xlink:title="The Element class provides an interface for defining elements. ">
<polygon fill="white" stroke="black" points="0,-19.5 0,-38.5 80,-38.5 80,-19.5 0,-19.5"/>
<text text-anchor="middle" x="40" y="-26.5" font-family="Helvetica,sans-Serif" font-size="10.00">bitpit::Element</text>
</a>
</g>
</g>
<!-- Node2 -->
<g id="node2" class="node"><title>Node2</title>
<g id="a_node2"><a xlink:href="classbitpit_1_1Cell.xhtml" target="_top" xlink:title="The Cell class defines the cells. ">
<polygon fill="white" stroke="black" points="127,-38.5 127,-57.5 189,-57.5 189,-38.5 127,-38.5"/>
<text text-anchor="middle" x="158" y="-45.5" font-family="Helvetica,sans-Serif" font-size="10.00">bitpit::Cell</text>
</a>
</g>
</g>
<!-- Node1&#45;&gt;Node2 -->
<g id="edge1" class="edge"><title>Node1&#45;&gt;Node2</title>
<path fill="none" stroke="midnightblue" d="M90.5059,-37.1087C102.898,-39.1384 115.818,-41.2547 126.939,-43.0761"/>
<polygon fill="midnightblue" stroke="midnightblue" points="90.7066,-33.595 80.2723,-35.4325 89.575,-40.503 90.7066,-33.595"/>
</g>
<!-- Node3 -->
<g id="node3" class="node"><title>Node3</title>
<g id="a_node3"><a xlink:href="classbitpit_1_1Interface.xhtml" target="_top" xlink:title="The Interface class defines the interfaces among cells. ">
<polygon fill="white" stroke="black" points="116.5,-0.5 116.5,-19.5 199.5,-19.5 199.5,-0.5 116.5,-0.5"/>
<text text-anchor="middle" x="158" y="-7.5" font-family="Helvetica,sans-Serif" font-size="10.00">bitpit::Interface</text>
</a>
</g>
</g>
<!-- Node1&#45;&gt;Node3 -->
<g id="edge2" class="edge"><title>Node1&#45;&gt;Node3</title>
<path fill="none" stroke="midnightblue" d="M90.2496,-20.9333C98.8931,-19.5175 107.802,-18.0583 116.184,-16.6853"/>
<polygon fill="midnightblue" stroke="midnightblue" points="89.575,-17.497 80.2723,-22.5675 90.7066,-24.405 89.575,-17.497"/>
</g>
</g>
</svg>
