<?xml version="1.0" encoding="UTF-8" standalone="no"?>
<!DOCTYPE svg PUBLIC "-//W3C//DTD SVG 1.1//EN"
 "http://www.w3.org/Graphics/SVG/1.1/DTD/svg11.dtd">
<!-- Generated by graphviz version 2.34.0 (20140112.1130)
 -->
<!-- Title: Graphical Class Hierarchy Pages: 1 -->
<svg width="618pt" height="135pt"
 viewBox="0.00 0.00 618.00 135.00" xmlns="http://www.w3.org/2000/svg" xmlns:xlink="http://www.w3.org/1999/xlink">
<g id="graph0" class="graph" transform="scale(1 1) rotate(0) translate(4 131)">
<title>Graphical Class Hierarchy</title>
<polygon fill="white" stroke="white" points="-4,4 -4,-131 614,-131 614,4 -4,4"/>
<!-- Node1 -->
<g id="node1" class="node"><title>Node1</title>
<g id="a_node1"><a xlink:href="classbitpit_1_1VTKBaseStreamer.xhtml" target="_top" xlink:title="The base class to be used to derive VTK streamers form. ">
<polygon fill="white" stroke="black" points="0,-50.5 0,-69.5 130,-69.5 130,-50.5 0,-50.5"/>
<text text-anchor="middle" x="65" y="-57.5" font-family="Helvetica,sans-Serif" font-size="10.00">bitpit::VTKBaseStreamer</text>
</a>
</g>
</g>
<!-- Node2 -->
<g id="node2" class="node"><title>Node2</title>
<g id="a_node2"><a xlink:href="classbitpit_1_1PatchKernel.xhtml" target="_top" xlink:title="The PatchKernel class provides an interface for defining patches. ">
<polygon fill="white" stroke="black" points="187.5,-88.5 187.5,-107.5 286.5,-107.5 286.5,-88.5 187.5,-88.5"/>
<text text-anchor="middle" x="237" y="-95.5" font-family="Helvetica,sans-Serif" font-size="10.00">bitpit::PatchKernel</text>
</a>
</g>
</g>
<!-- Node1&#45;&gt;Node2 -->
<g id="edge1" class="edge"><title>Node1&#45;&gt;Node2</title>
<path fill="none" stroke="midnightblue" d="M118.898,-71.8243C142.865,-77.1816 170.824,-83.4311 193.41,-88.4799"/>
<polygon fill="midnightblue" stroke="midnightblue" points="119.421,-68.3548 108.898,-69.589 117.894,-75.1862 119.421,-68.3548"/>
</g>
<!-- Node8 -->
<g id="node8" class="node"><title>Node8</title>
<g id="a_node8"><a xlink:href="classbitpit_1_1VTKNativeStreamer.xhtml" target="_top" xlink:title="In VTKNativeStreamer all instances of classes derived from VTKBaseConatiner are stored. Right now only std::vector is supported. ">
<polygon fill="white" stroke="black" points="169.5,-50.5 169.5,-69.5 304.5,-69.5 304.5,-50.5 169.5,-50.5"/>
<text text-anchor="middle" x="237" y="-57.5" font-family="Helvetica,sans-Serif" font-size="10.00">bitpit::VTKNativeStreamer</text>
</a>
</g>
</g>
<!-- Node1&#45;&gt;Node8 -->
<g id="edge7" class="edge"><title>Node1&#45;&gt;Node8</title>
<path fill="none" stroke="midnightblue" d="M140.271,-60C149.955,-60 159.828,-60 169.376,-60"/>
<polygon fill="midnightblue" stroke="midnightblue" points="140.27,-56.5001 130.27,-60 140.27,-63.5001 140.27,-56.5001"/>
</g>
<!-- Node9 -->
<g id="node9" class="node"><title>Node9</title>
<g id="a_node9"><a xlink:href="classbitpit_1_1VTKUnstructuredGridStreamer.xhtml" target="_top" xlink:title="Streamer for VTKUnstructuredGrid if the grid is made of homogeneous types. ">
<polygon fill="white" stroke="black" points="166,-1 166,-31 308,-31 308,-1 166,-1"/>
<text text-anchor="start" x="174" y="-19" font-family="Helvetica,sans-Serif" font-size="10.00">bitpit::VTKUnstructuredGrid</text>
<text text-anchor="middle" x="237" y="-8" font-family="Helvetica,sans-Serif" font-size="10.00">Streamer</text>
</a>
</g>
</g>
<!-- Node1&#45;&gt;Node9 -->
<g id="edge8" class="edge"><title>Node1&#45;&gt;Node9</title>
<path fill="none" stroke="midnightblue" d="M112.74,-47.9026C132.846,-42.6987 156.562,-36.5605 177.793,-31.0654"/>
<polygon fill="midnightblue" stroke="midnightblue" points="111.691,-44.5586 102.887,-50.4527 113.445,-51.3353 111.691,-44.5586"/>
</g>
<!-- Node3 -->
<g id="node3" class="node"><title>Node3</title>
<g id="a_node3"><a xlink:href="classbitpit_1_1SurfaceKernel.xhtml" target="_top" xlink:title="The SurfaceKernel class provides an interface for defining surface patches. ">
<polygon fill="white" stroke="black" points="344.5,-107.5 344.5,-126.5 453.5,-126.5 453.5,-107.5 344.5,-107.5"/>
<text text-anchor="middle" x="399" y="-114.5" font-family="Helvetica,sans-Serif" font-size="10.00">bitpit::SurfaceKernel</text>
</a>
</g>
</g>
<!-- Node2&#45;&gt;Node3 -->
<g id="edge2" class="edge"><title>Node2&#45;&gt;Node3</title>
<path fill="none" stroke="midnightblue" d="M296.903,-104.995C312.456,-106.842 329.154,-108.825 344.409,-110.636"/>
<polygon fill="midnightblue" stroke="midnightblue" points="297.218,-101.508 286.875,-103.804 296.392,-108.459 297.218,-101.508"/>
</g>
<!-- Node5 -->
<g id="node5" class="node"><title>Node5</title>
<g id="a_node5"><a xlink:href="classbitpit_1_1VolumeKernel.xhtml" target="_top" xlink:title="The VolumeKernel class provides an interface for defining volume patches. ">
<polygon fill="white" stroke="black" points="344.5,-69.5 344.5,-88.5 453.5,-88.5 453.5,-69.5 344.5,-69.5"/>
<text text-anchor="middle" x="399" y="-76.5" font-family="Helvetica,sans-Serif" font-size="10.00">bitpit::VolumeKernel</text>
</a>
</g>
</g>
<!-- Node2&#45;&gt;Node5 -->
<g id="edge4" class="edge"><title>Node2&#45;&gt;Node5</title>
<path fill="none" stroke="midnightblue" d="M296.903,-91.0053C312.456,-89.1584 329.154,-87.1754 344.409,-85.3639"/>
<polygon fill="midnightblue" stroke="midnightblue" points="296.392,-87.5413 286.875,-92.1961 297.218,-94.4924 296.392,-87.5413"/>
</g>
<!-- Node4 -->
<g id="node4" class="node"><title>Node4</title>
<g id="a_node4"><a xlink:href="classbitpit_1_1SurfUnstructured.xhtml" target="_top" xlink:title="The SurfUnstructured class defines an unstructured surface triangulation. ">
<polygon fill="white" stroke="black" points="490.5,-107.5 490.5,-126.5 609.5,-126.5 609.5,-107.5 490.5,-107.5"/>
<text text-anchor="middle" x="550" y="-114.5" font-family="Helvetica,sans-Serif" font-size="10.00">bitpit::SurfUnstructured</text>
</a>
</g>
</g>
<!-- Node3&#45;&gt;Node4 -->
<g id="edge3" class="edge"><title>Node3&#45;&gt;Node4</title>
<path fill="none" stroke="midnightblue" d="M464.002,-117C472.803,-117 481.804,-117 490.499,-117"/>
<polygon fill="midnightblue" stroke="midnightblue" points="463.792,-113.5 453.792,-117 463.792,-120.5 463.792,-113.5"/>
</g>
<!-- Node6 -->
<g id="node6" class="node"><title>Node6</title>
<g id="a_node6"><a xlink:href="classbitpit_1_1VolCartesian.xhtml" target="_top" xlink:title="The VolCartesian defines a Cartesian patch. ">
<polygon fill="white" stroke="black" points="498.5,-69.5 498.5,-88.5 601.5,-88.5 601.5,-69.5 498.5,-69.5"/>
<text text-anchor="middle" x="550" y="-76.5" font-family="Helvetica,sans-Serif" font-size="10.00">bitpit::VolCartesian</text>
</a>
</g>
</g>
<!-- Node5&#45;&gt;Node6 -->
<g id="edge5" class="edge"><title>Node5&#45;&gt;Node6</title>
<path fill="none" stroke="midnightblue" d="M463.797,-79C475.317,-79 487.185,-79 498.269,-79"/>
<polygon fill="midnightblue" stroke="midnightblue" points="463.792,-75.5001 453.792,-79 463.792,-82.5001 463.792,-75.5001"/>
</g>
<!-- Node7 -->
<g id="node7" class="node"><title>Node7</title>
<g id="a_node7"><a xlink:href="classbitpit_1_1VolOctree.xhtml" target="_top" xlink:title="The VolOctree defines a Octree patch. ">
<polygon fill="white" stroke="black" points="505.5,-31.5 505.5,-50.5 594.5,-50.5 594.5,-31.5 505.5,-31.5"/>
<text text-anchor="middle" x="550" y="-38.5" font-family="Helvetica,sans-Serif" font-size="10.00">bitpit::VolOctree</text>
</a>
</g>
</g>
<!-- Node5&#45;&gt;Node7 -->
<g id="edge6" class="edge"><title>Node5&#45;&gt;Node7</title>
<path fill="none" stroke="midnightblue" d="M447.492,-66.8879C468.244,-61.5956 492.228,-55.4787 511.671,-50.5201"/>
<polygon fill="midnightblue" stroke="midnightblue" points="446.424,-63.5482 437.599,-69.411 448.154,-70.3311 446.424,-63.5482"/>
</g>
</g>
</svg>
