<?xml version="1.0" encoding="UTF-8" standalone="no"?>
<!DOCTYPE svg PUBLIC "-//W3C//DTD SVG 1.1//EN"
 "http://www.w3.org/Graphics/SVG/1.1/DTD/svg11.dtd">
<!-- Generated by graphviz version 2.34.0 (20140112.1130)
 -->
<!-- Title: Graphical Class Hierarchy Pages: 1 -->
<svg width="252pt" height="66pt"
 viewBox="0.00 0.00 252.00 66.00" xmlns="http://www.w3.org/2000/svg" xmlns:xlink="http://www.w3.org/1999/xlink">
<g id="graph0" class="graph" transform="scale(1 1) rotate(0) translate(4 62)">
<title>Graphical Class Hierarchy</title>
<polygon fill="white" stroke="white" points="-4,4 -4,-62 248,-62 248,4 -4,4"/>
<!-- Node1 -->
<g id="node1" class="node"><title>Node1</title>
<g id="a_node1"><a xlink:href="classbitpit_1_1VTK.xhtml" target="_top" xlink:title="A base class for VTK input output. ">
<polygon fill="white" stroke="black" points="0.5,-19.5 0.5,-38.5 65.5,-38.5 65.5,-19.5 0.5,-19.5"/>
<text text-anchor="middle" x="33" y="-26.5" font-family="Helvetica,sans-Serif" font-size="10.00">bitpit::VTK</text>
</a>
</g>
</g>
<!-- Node2 -->
<g id="node2" class="node"><title>Node2</title>
<g id="a_node2"><a xlink:href="classbitpit_1_1VTKRectilinearGrid.xhtml" target="_top" xlink:title="VTK input output for Rectilinear Meshes. ">
<polygon fill="white" stroke="black" points="107,-38.5 107,-57.5 239,-57.5 239,-38.5 107,-38.5"/>
<text text-anchor="middle" x="173" y="-45.5" font-family="Helvetica,sans-Serif" font-size="10.00">bitpit::VTKRectilinearGrid</text>
</a>
</g>
</g>
<!-- Node1&#45;&gt;Node2 -->
<g id="edge1" class="edge"><title>Node1&#45;&gt;Node2</title>
<path fill="none" stroke="midnightblue" d="M75.6109,-34.729C85.513,-36.0924 96.3136,-37.5794 106.987,-39.0489"/>
<polygon fill="midnightblue" stroke="midnightblue" points="76.0439,-31.2557 65.66,-33.359 75.0891,-38.1903 76.0439,-31.2557"/>
</g>
<!-- Node3 -->
<g id="node3" class="node"><title>Node3</title>
<g id="a_node3"><a xlink:href="classbitpit_1_1VTKUnstructuredGrid.xhtml" target="_top" xlink:title="VTK input output for Unstructured Meshes. ">
<polygon fill="white" stroke="black" points="102,-0.5 102,-19.5 244,-19.5 244,-0.5 102,-0.5"/>
<text text-anchor="middle" x="173" y="-7.5" font-family="Helvetica,sans-Serif" font-size="10.00">bitpit::VTKUnstructuredGrid</text>
</a>
</g>
</g>
<!-- Node1&#45;&gt;Node3 -->
<g id="edge2" class="edge"><title>Node1&#45;&gt;Node3</title>
<path fill="none" stroke="midnightblue" d="M75.742,-23.2529C84.3162,-22.0724 93.5595,-20.7998 102.807,-19.5265"/>
<polygon fill="midnightblue" stroke="midnightblue" points="75.0891,-19.8097 65.66,-24.641 76.0439,-26.7443 75.0891,-19.8097"/>
</g>
</g>
</svg>
