<?xml version="1.0" encoding="UTF-8" standalone="no"?>
<!DOCTYPE svg PUBLIC "-//W3C//DTD SVG 1.1//EN"
 "http://www.w3.org/Graphics/SVG/1.1/DTD/svg11.dtd">
<!-- Generated by graphviz version 2.34.0 (20140112.1130)
 -->
<!-- Title: Graphical Class Hierarchy Pages: 1 -->
<svg width="286pt" height="66pt"
 viewBox="0.00 0.00 286.00 66.00" xmlns="http://www.w3.org/2000/svg" xmlns:xlink="http://www.w3.org/1999/xlink">
<g id="graph0" class="graph" transform="scale(1 1) rotate(0) translate(4 62)">
<title>Graphical Class Hierarchy</title>
<polygon fill="white" stroke="white" points="-4,4 -4,-62 282,-62 282,4 -4,4"/>
<!-- Node1 -->
<g id="node1" class="node"><title>Node1</title>
<g id="a_node1"><a xlink:href="classbitpit_1_1LevelSetKernel.xhtml" target="_top" xlink:title="Mesh specific implementation to calculate the levelset function. ">
<polygon fill="white" stroke="black" points="0.5,-19.5 0.5,-38.5 113.5,-38.5 113.5,-19.5 0.5,-19.5"/>
<text text-anchor="middle" x="57" y="-26.5" font-family="Helvetica,sans-Serif" font-size="10.00">bitpit::LevelSetKernel</text>
</a>
</g>
</g>
<!-- Node2 -->
<g id="node2" class="node"><title>Node2</title>
<g id="a_node2"><a xlink:href="classbitpit_1_1LevelSetCartesian.xhtml" target="_top" xlink:title="Implements LevelSetKernel for cartesian meshes. ">
<polygon fill="white" stroke="black" points="150,-38.5 150,-57.5 278,-57.5 278,-38.5 150,-38.5"/>
<text text-anchor="middle" x="214" y="-45.5" font-family="Helvetica,sans-Serif" font-size="10.00">bitpit::LevelSetCartesian</text>
</a>
</g>
</g>
<!-- Node1&#45;&gt;Node2 -->
<g id="edge1" class="edge"><title>Node1&#45;&gt;Node2</title>
<path fill="none" stroke="midnightblue" d="M123.638,-37.0459C132.359,-38.115 141.286,-39.2093 149.963,-40.2728"/>
<polygon fill="midnightblue" stroke="midnightblue" points="123.872,-33.5486 113.521,-35.8058 123.021,-40.4966 123.872,-33.5486"/>
</g>
<!-- Node3 -->
<g id="node3" class="node"><title>Node3</title>
<g id="a_node3"><a xlink:href="classbitpit_1_1LevelSetOctree.xhtml" target="_top" xlink:title="Implements LevelSetKernel for octree meshes. ">
<polygon fill="white" stroke="black" points="157,-0.5 157,-19.5 271,-19.5 271,-0.5 157,-0.5"/>
<text text-anchor="middle" x="214" y="-7.5" font-family="Helvetica,sans-Serif" font-size="10.00">bitpit::LevelSetOctree</text>
</a>
</g>
</g>
<!-- Node1&#45;&gt;Node3 -->
<g id="edge2" class="edge"><title>Node1&#45;&gt;Node3</title>
<path fill="none" stroke="midnightblue" d="M123.562,-20.9633C134.627,-19.607 146.025,-18.2098 156.824,-16.8861"/>
<polygon fill="midnightblue" stroke="midnightblue" points="123.021,-17.5034 113.521,-22.1942 123.872,-24.4514 123.021,-17.5034"/>
</g>
</g>
</svg>
