<?xml version="1.0" encoding="UTF-8" standalone="no"?>
<!DOCTYPE svg PUBLIC "-//W3C//DTD SVG 1.1//EN"
 "http://www.w3.org/Graphics/SVG/1.1/DTD/svg11.dtd">
<!-- Generated by graphviz version 2.34.0 (20140112.1130)
 -->
<!-- Title: examples/operators_example.cpp Pages: 1 -->
<!--zoomable 264 -->
<svg id="main" version="1.1" xmlns="http://www.w3.org/2000/svg" xmlns:xlink="http://www.w3.org/1999/xlink" xml:space="preserve" onload="init(evt)">
<style type="text/css"><![CDATA[
.edge:hover path { stroke: red; }
.edge:hover polygon { stroke: red; fill: red; }
]]></style>
<script type="text/javascript"><![CDATA[
var edges = document.getElementsByTagName('g');
if (edges && edges.length) {
  for (var i=0;i<edges.length;i++) {
    if (edges[i].id.substr(0,4)=='edge') {
      edges[i].setAttribute('class','edge');
    }
  }
}
]]></script>
        <defs>
                <circle id="rim" cx="0" cy="0" r="7"/>
                <circle id="rim2" cx="0" cy="0" r="3.5"/>
                <g id="zoomPlus">
                        <use xlink:href="#rim" fill="#404040">
                                <set attributeName="fill" to="#808080" begin="zoomplus.mouseover" end="zoomplus.mouseout"/>
                        </use>
                        <path d="M-4,0h8M0,-4v8" fill="none" stroke="white" stroke-width="1.5" pointer-events="none"/>
                </g>
                <g id="zoomMin">
                        <use xlink:href="#rim" fill="#404040">
                                <set attributeName="fill" to="#808080" begin="zoomminus.mouseover" end="zoomminus.mouseout"/>
                        </use>
                        <path d="M-4,0h8" fill="none" stroke="white" stroke-width="1.5" pointer-events="none"/>
                </g>
                <g id="dirArrow">
                        <path fill="none" stroke="white" stroke-width="1.5" d="M0,-3.0v7 M-2.5,-0.5L0,-3.0L2.5,-0.5"/>
                </g>
               <g id="resetDef">
                       <use xlink:href="#rim2" fill="#404040">
                               <set attributeName="fill" to="#808080" begin="reset.mouseover" end="reset.mouseout"/>
                       </use>
               </g>
        </defs>

<script type="text/javascript">
var viewWidth = 1263;
var viewHeight = 264;
var sectionId = 'dynsection-0';
</script>
<script xlink:href="svgpan.js"/>
<svg id="graph" class="graph">
<g id="viewport">
<title>examples/operators_example.cpp</title>
<polygon fill="white" stroke="white" points="-4,4 -4,-260 1259,-260 1259,4 -4,4"/>
<!-- Node1 -->
<g id="node1" class="node"><title>Node1</title>
<polygon fill="#bfbfbf" stroke="black" points="87,-225 87,-255 195,-255 195,-225 87,-225"/>
<text text-anchor="start" x="95" y="-243" font-family="Helvetica,sans-Serif" font-size="10.00">examples/operators</text>
<text text-anchor="middle" x="141" y="-232" font-family="Helvetica,sans-Serif" font-size="10.00">_example.cpp</text>
</g>
<!-- Node2 -->
<g id="node2" class="node"><title>Node2</title>
<g id="a_node2"><a xlink:href="operators__example_8hpp_source.xhtml" target="_top" xlink:title="operators_example.hpp">
<polygon fill="white" stroke="black" points="78.5,-168.5 78.5,-187.5 203.5,-187.5 203.5,-168.5 78.5,-168.5"/>
<text text-anchor="middle" x="141" y="-175.5" font-family="Helvetica,sans-Serif" font-size="10.00">operators_example.hpp</text>
</a>
</g>
</g>
<!-- Node1&#45;&gt;Node2 -->
<g id="edge1" class="edge"><title>Node1&#45;&gt;Node2</title>
<path fill="none" stroke="midnightblue" d="M141,-224.781C141,-216.781 141,-206.689 141,-198.017"/>
<polygon fill="midnightblue" stroke="midnightblue" points="144.5,-197.73 141,-187.731 137.5,-197.731 144.5,-197.73"/>
</g>
<!-- Node3 -->
<g id="node3" class="node"><title>Node3</title>
<polygon fill="white" stroke="#bfbfbf" points="-1,-0.5 -1,-19.5 43,-19.5 43,-0.5 -1,-0.5"/>
<text text-anchor="middle" x="21" y="-7.5" font-family="Helvetica,sans-Serif" font-size="10.00">cmath</text>
</g>
<!-- Node2&#45;&gt;Node3 -->
<g id="edge2" class="edge"><title>Node2&#45;&gt;Node3</title>
<path fill="none" stroke="midnightblue" d="M134.548,-168.075C115.332,-141.493 58.2563,-62.5379 33.1181,-27.7633"/>
<polygon fill="midnightblue" stroke="midnightblue" points="35.8888,-25.6219 27.1938,-19.5681 30.2158,-29.7228 35.8888,-25.6219"/>
</g>
<!-- Node4 -->
<g id="node4" class="node"><title>Node4</title>
<polygon fill="white" stroke="#bfbfbf" points="61,-0.5 61,-19.5 101,-19.5 101,-0.5 61,-0.5"/>
<text text-anchor="middle" x="81" y="-7.5" font-family="Helvetica,sans-Serif" font-size="10.00">array</text>
</g>
<!-- Node2&#45;&gt;Node4 -->
<g id="edge3" class="edge"><title>Node2&#45;&gt;Node4</title>
<path fill="none" stroke="midnightblue" d="M137.774,-168.075C128.289,-141.832 100.354,-64.5453 87.5481,-29.1165"/>
<polygon fill="midnightblue" stroke="midnightblue" points="90.7878,-27.7829 84.0969,-19.5681 84.2046,-30.1624 90.7878,-27.7829"/>
</g>
<!-- Node5 -->
<g id="node5" class="node"><title>Node5</title>
<polygon fill="white" stroke="#bfbfbf" points="119,-0.5 119,-19.5 163,-19.5 163,-0.5 119,-0.5"/>
<text text-anchor="middle" x="141" y="-7.5" font-family="Helvetica,sans-Serif" font-size="10.00">vector</text>
</g>
<!-- Node2&#45;&gt;Node5 -->
<g id="edge4" class="edge"><title>Node2&#45;&gt;Node5</title>
<path fill="none" stroke="midnightblue" d="M141,-168.075C141,-141.945 141,-65.2106 141,-29.577"/>
<polygon fill="midnightblue" stroke="midnightblue" points="144.5,-29.5681 141,-19.5681 137.5,-29.5681 144.5,-29.5681"/>
</g>
<!-- Node6 -->
<g id="node6" class="node"><title>Node6</title>
<polygon fill="white" stroke="#bfbfbf" points="181,-0.5 181,-19.5 237,-19.5 237,-0.5 181,-0.5"/>
<text text-anchor="middle" x="209" y="-7.5" font-family="Helvetica,sans-Serif" font-size="10.00">iostream</text>
</g>
<!-- Node2&#45;&gt;Node6 -->
<g id="edge5" class="edge"><title>Node2&#45;&gt;Node6</title>
<path fill="none" stroke="midnightblue" d="M144.656,-168.075C155.406,-141.832 187.066,-64.5453 201.579,-29.1165"/>
<polygon fill="midnightblue" stroke="midnightblue" points="204.938,-30.1486 205.49,-19.5681 198.461,-27.4951 204.938,-30.1486"/>
</g>
<!-- Node7 -->
<g id="node7" class="node"><title>Node7</title>
<g id="a_node7"><a xlink:href="bitpit__operators_8hpp_source.xhtml" target="_top" xlink:title="bitpit_operators.hpp">
<polygon fill="white" stroke="black" points="381,-112.5 381,-131.5 487,-131.5 487,-112.5 381,-112.5"/>
<text text-anchor="middle" x="434" y="-119.5" font-family="Helvetica,sans-Serif" font-size="10.00">bitpit_operators.hpp</text>
</a>
</g>
</g>
<!-- Node2&#45;&gt;Node7 -->
<g id="edge6" class="edge"><title>Node2&#45;&gt;Node7</title>
<path fill="none" stroke="midnightblue" d="M187.427,-168.444C239.076,-158.925 322.512,-143.547 377.807,-133.356"/>
<polygon fill="midnightblue" stroke="midnightblue" points="378.591,-136.771 387.79,-131.516 377.322,-129.887 378.591,-136.771"/>
</g>
<!-- Node8 -->
<g id="node8" class="node"><title>Node8</title>
<g id="a_node8"><a xlink:href="bitpit__version_8hpp_source.xhtml" target="_top" xlink:title="bitpit_version.hpp">
<polygon fill="white" stroke="black" points="493,-56.5 493,-75.5 589,-75.5 589,-56.5 493,-56.5"/>
<text text-anchor="middle" x="541" y="-63.5" font-family="Helvetica,sans-Serif" font-size="10.00">bitpit_version.hpp</text>
</a>
</g>
</g>
<!-- Node7&#45;&gt;Node8 -->
<g id="edge7" class="edge"><title>Node7&#45;&gt;Node8</title>
<path fill="none" stroke="midnightblue" d="M451.191,-112.324C468.351,-103.664 494.946,-90.2424 514.747,-80.249"/>
<polygon fill="midnightblue" stroke="midnightblue" points="516.501,-83.2847 523.851,-75.6545 513.347,-77.0354 516.501,-83.2847"/>
</g>
<!-- Node9 -->
<g id="node9" class="node"><title>Node9</title>
<g id="a_node9"><a xlink:href="Operators_8hpp_source.xhtml" target="_top" xlink:title="Operators.hpp">
<polygon fill="white" stroke="black" points="393,-56.5 393,-75.5 475,-75.5 475,-56.5 393,-56.5"/>
<text text-anchor="middle" x="434" y="-63.5" font-family="Helvetica,sans-Serif" font-size="10.00">Operators.hpp</text>
</a>
</g>
</g>
<!-- Node7&#45;&gt;Node9 -->
<g id="edge8" class="edge"><title>Node7&#45;&gt;Node9</title>
<path fill="none" stroke="midnightblue" d="M434,-112.083C434,-105.006 434,-94.8611 434,-85.9865"/>
<polygon fill="midnightblue" stroke="midnightblue" points="437.5,-85.751 434,-75.7511 430.5,-85.7511 437.5,-85.751"/>
</g>
<!-- Node9&#45;&gt;Node3 -->
<g id="edge9" class="edge"><title>Node9&#45;&gt;Node3</title>
<path fill="none" stroke="midnightblue" d="M392.944,-62.3991C324.379,-57.5717 182.175,-45.4978 53.2862,-19.958"/>
<polygon fill="midnightblue" stroke="midnightblue" points="53.7357,-16.4784 43.2414,-17.9344 52.3532,-23.3405 53.7357,-16.4784"/>
</g>
<!-- Node9&#45;&gt;Node4 -->
<g id="edge10" class="edge"><title>Node9&#45;&gt;Node4</title>
<path fill="none" stroke="midnightblue" d="M392.956,-61.4622C332.955,-55.8199 217.712,-43.2034 111.124,-19.9305"/>
<polygon fill="midnightblue" stroke="midnightblue" points="111.689,-16.4709 101.168,-17.7196 110.172,-23.3045 111.689,-16.4709"/>
</g>
<!-- Node9&#45;&gt;Node5 -->
<g id="edge11" class="edge"><title>Node9&#45;&gt;Node5</title>
<path fill="none" stroke="midnightblue" d="M392.873,-59.3982C343.011,-52.2852 256.283,-38.8842 173.13,-20.0533"/>
<polygon fill="midnightblue" stroke="midnightblue" points="173.802,-16.6166 163.272,-17.7911 172.236,-23.4392 173.802,-16.6166"/>
</g>
<!-- Node9&#45;&gt;Node6 -->
<g id="edge15" class="edge"><title>Node9&#45;&gt;Node6</title>
<path fill="none" stroke="midnightblue" d="M398.348,-56.4435C357.023,-46.5254 289.196,-30.2471 246.926,-20.1023"/>
<polygon fill="midnightblue" stroke="midnightblue" points="247.562,-16.6555 237.021,-17.7251 245.928,-23.4622 247.562,-16.6555"/>
</g>
<!-- Node10 -->
<g id="node10" class="node"><title>Node10</title>
<polygon fill="white" stroke="#bfbfbf" points="1133.5,-0.5 1133.5,-19.5 1186.5,-19.5 1186.5,-0.5 1133.5,-0.5"/>
<text text-anchor="middle" x="1160" y="-7.5" font-family="Helvetica,sans-Serif" font-size="10.00">sstream</text>
</g>
<!-- Node9&#45;&gt;Node10 -->
<g id="edge12" class="edge"><title>Node9&#45;&gt;Node10</title>
<path fill="none" stroke="midnightblue" d="M475.141,-57.1845C478.133,-56.7422 481.109,-56.3402 484,-56 763.626,-23.0934 840.534,-61.8105 1123.23,-19.7802"/>
<polygon fill="midnightblue" stroke="midnightblue" points="1124.01,-23.2026 1133.38,-18.2507 1122.97,-16.2808 1124.01,-23.2026"/>
</g>
<!-- Node11 -->
<g id="node11" class="node"><title>Node11</title>
<polygon fill="white" stroke="#bfbfbf" points="1205,-0.5 1205,-19.5 1255,-19.5 1255,-0.5 1205,-0.5"/>
<text text-anchor="middle" x="1230" y="-7.5" font-family="Helvetica,sans-Serif" font-size="10.00">fstream</text>
</g>
<!-- Node9&#45;&gt;Node11 -->
<g id="edge13" class="edge"><title>Node9&#45;&gt;Node11</title>
<path fill="none" stroke="midnightblue" d="M475.139,-57.166C478.131,-56.7281 481.108,-56.3321 484,-56 798.339,-19.9006 882.202,-67.6395 1195,-20 1195.1,-19.9846 1195.2,-19.9691 1195.3,-19.9534"/>
<polygon fill="midnightblue" stroke="midnightblue" points="1195.74,-23.4346 1204.89,-18.1011 1194.41,-16.5618 1195.74,-23.4346"/>
</g>
<!-- Node12 -->
<g id="node12" class="node"><title>Node12</title>
<polygon fill="white" stroke="#bfbfbf" points="255.5,-0.5 255.5,-19.5 308.5,-19.5 308.5,-0.5 255.5,-0.5"/>
<text text-anchor="middle" x="282" y="-7.5" font-family="Helvetica,sans-Serif" font-size="10.00">iomanip</text>
</g>
<!-- Node9&#45;&gt;Node12 -->
<g id="edge14" class="edge"><title>Node9&#45;&gt;Node12</title>
<path fill="none" stroke="midnightblue" d="M409.915,-56.4435C384.455,-47.3986 344.106,-33.064 315.541,-22.9158"/>
<polygon fill="midnightblue" stroke="midnightblue" points="316.567,-19.5661 305.972,-19.5164 314.223,-26.1622 316.567,-19.5661"/>
</g>
<!-- Node13 -->
<g id="node13" class="node"><title>Node13</title>
<polygon fill="white" stroke="#bfbfbf" points="327,-0.5 327,-19.5 385,-19.5 385,-0.5 327,-0.5"/>
<text text-anchor="middle" x="356" y="-7.5" font-family="Helvetica,sans-Serif" font-size="10.00">algorithm</text>
</g>
<!-- Node9&#45;&gt;Node13 -->
<g id="edge16" class="edge"><title>Node9&#45;&gt;Node13</title>
<path fill="none" stroke="midnightblue" d="M421.468,-56.324C409.414,-47.979 390.973,-35.2122 376.731,-25.3524"/>
<polygon fill="midnightblue" stroke="midnightblue" points="378.715,-22.469 368.501,-19.6545 374.731,-28.2243 378.715,-22.469"/>
</g>
<!-- Node14 -->
<g id="node14" class="node"><title>Node14</title>
<polygon fill="white" stroke="#bfbfbf" points="403.5,-0.5 403.5,-19.5 464.5,-19.5 464.5,-0.5 403.5,-0.5"/>
<text text-anchor="middle" x="434" y="-7.5" font-family="Helvetica,sans-Serif" font-size="10.00">functional</text>
</g>
<!-- Node9&#45;&gt;Node14 -->
<g id="edge17" class="edge"><title>Node9&#45;&gt;Node14</title>
<path fill="none" stroke="midnightblue" d="M434,-56.083C434,-49.0059 434,-38.8611 434,-29.9865"/>
<polygon fill="midnightblue" stroke="midnightblue" points="437.5,-29.751 434,-19.7511 430.5,-29.7511 437.5,-29.751"/>
</g>
<!-- Node15 -->
<g id="node15" class="node"><title>Node15</title>
<g id="a_node15"><a xlink:href="Operators_8tpp_source.xhtml" target="_top" xlink:title="Operators.tpp">
<polygon fill="white" stroke="black" points="482.5,-0.5 482.5,-19.5 561.5,-19.5 561.5,-0.5 482.5,-0.5"/>
<text text-anchor="middle" x="522" y="-7.5" font-family="Helvetica,sans-Serif" font-size="10.00">Operators.tpp</text>
</a>
</g>
</g>
<!-- Node9&#45;&gt;Node15 -->
<g id="edge18" class="edge"><title>Node9&#45;&gt;Node15</title>
<path fill="none" stroke="midnightblue" d="M448.139,-56.324C461.866,-47.9002 482.936,-34.9709 499.064,-25.0741"/>
<polygon fill="midnightblue" stroke="midnightblue" points="501.204,-27.8678 507.896,-19.6545 497.543,-21.9016 501.204,-27.8678"/>
</g>
<!-- Node16 -->
<g id="node16" class="node"><title>Node16</title>
<g id="a_node16"><a xlink:href="Operators__vector_8tpp_source.xhtml" target="_top" xlink:title="Operators_vector.tpp">
<polygon fill="white" stroke="black" points="579,-0.5 579,-19.5 691,-19.5 691,-0.5 579,-0.5"/>
<text text-anchor="middle" x="635" y="-7.5" font-family="Helvetica,sans-Serif" font-size="10.00">Operators_vector.tpp</text>
</a>
</g>
</g>
<!-- Node9&#45;&gt;Node16 -->
<g id="edge19" class="edge"><title>Node9&#45;&gt;Node16</title>
<path fill="none" stroke="midnightblue" d="M465.849,-56.4435C500.398,-47.1616 555.682,-32.3093 593.583,-22.127"/>
<polygon fill="midnightblue" stroke="midnightblue" points="594.551,-25.4912 603.3,-19.5164 592.734,-18.7309 594.551,-25.4912"/>
</g>
<!-- Node17 -->
<g id="node17" class="node"><title>Node17</title>
<g id="a_node17"><a xlink:href="MathOperators__vector_8tpp_source.xhtml" target="_top" xlink:title="MathOperators_vector.tpp">
<polygon fill="white" stroke="black" points="709,-0.5 709,-19.5 843,-19.5 843,-0.5 709,-0.5"/>
<text text-anchor="middle" x="776" y="-7.5" font-family="Helvetica,sans-Serif" font-size="10.00">MathOperators_vector.tpp</text>
</a>
</g>
</g>
<!-- Node9&#45;&gt;Node17 -->
<g id="edge20" class="edge"><title>Node9&#45;&gt;Node17</title>
<path fill="none" stroke="midnightblue" d="M475.186,-57.5017C478.168,-56.9849 481.129,-56.4795 484,-56 560.52,-43.219 648.549,-29.8324 707.777,-21.0173"/>
<polygon fill="midnightblue" stroke="midnightblue" points="708.382,-24.466 717.759,-19.5344 707.353,-17.5419 708.382,-24.466"/>
</g>
<!-- Node18 -->
<g id="node18" class="node"><title>Node18</title>
<g id="a_node18"><a xlink:href="Operators__array_8tpp.xhtml" target="_top" xlink:title=": Basic operator for (C++11) std::array ">
<polygon fill="white" stroke="black" points="861.5,-0.5 861.5,-19.5 968.5,-19.5 968.5,-0.5 861.5,-0.5"/>
<text text-anchor="middle" x="915" y="-7.5" font-family="Helvetica,sans-Serif" font-size="10.00">Operators_array.tpp</text>
</a>
</g>
</g>
<!-- Node9&#45;&gt;Node18 -->
<g id="edge21" class="edge"><title>Node9&#45;&gt;Node18</title>
<path fill="none" stroke="midnightblue" d="M475.159,-57.3203C478.146,-56.8461 481.117,-56.3998 484,-56 643.599,-33.8663 687.151,-39.394 851.441,-20.0099"/>
<polygon fill="midnightblue" stroke="midnightblue" points="851.89,-23.4813 861.405,-18.8214 851.061,-16.5306 851.89,-23.4813"/>
</g>
<!-- Node19 -->
<g id="node19" class="node"><title>Node19</title>
<g id="a_node19"><a xlink:href="MathOperators__array_8tpp_source.xhtml" target="_top" xlink:title="MathOperators_array.tpp">
<polygon fill="white" stroke="black" points="986.5,-0.5 986.5,-19.5 1115.5,-19.5 1115.5,-0.5 986.5,-0.5"/>
<text text-anchor="middle" x="1051" y="-7.5" font-family="Helvetica,sans-Serif" font-size="10.00">MathOperators_array.tpp</text>
</a>
</g>
</g>
<!-- Node9&#45;&gt;Node19 -->
<g id="edge22" class="edge"><title>Node9&#45;&gt;Node19</title>
<path fill="none" stroke="midnightblue" d="M475.148,-57.2394C478.138,-56.7842 481.112,-56.3643 484,-56 698.668,-28.9184 756.594,-40.891 976.205,-20.0224"/>
<polygon fill="midnightblue" stroke="midnightblue" points="976.828,-23.4787 986.446,-19.0367 976.157,-16.5109 976.828,-23.4787"/>
</g>
</g>
</svg>
        <g id="navigator" transform="translate(0 0)" fill="#404254">
                <rect fill="#f2f5e9" fill-opacity="0.5" stroke="#606060" stroke-width=".5" x="0" y="0" width="60" height="60"/>
                <use id="zoomplus" xlink:href="#zoomPlus" x="17" y="9" onmousedown="handleZoom(evt,'in')"/>
                <use id="zoomminus" xlink:href="#zoomMin" x="42" y="9" onmousedown="handleZoom(evt,'out')"/>
                <use id="reset" xlink:href="#resetDef" x="30" y="36" onmousedown="handleReset()"/>
                <g id="arrowUp" xlink:href="#dirArrow" transform="translate(30 24)" onmousedown="handlePan(0,-1)">
                  <use xlink:href="#rim" fill="#404040">
                        <set attributeName="fill" to="#808080" begin="arrowUp.mouseover" end="arrowUp.mouseout"/>
                  </use>
                  <path fill="none" stroke="white" stroke-width="1.5" d="M0,-3.0v7 M-2.5,-0.5L0,-3.0L2.5,-0.5"/>
                </g>
                <g id="arrowRight" xlink:href="#dirArrow" transform="rotate(90) translate(36 -43)" onmousedown="handlePan(1,0)">
                  <use xlink:href="#rim" fill="#404040">
                        <set attributeName="fill" to="#808080" begin="arrowRight.mouseover" end="arrowRight.mouseout"/>
                  </use>
                  <path fill="none" stroke="white" stroke-width="1.5" d="M0,-3.0v7 M-2.5,-0.5L0,-3.0L2.5,-0.5"/>
                </g>
                <g id="arrowDown" xlink:href="#dirArrow" transform="rotate(180) translate(-30 -48)" onmousedown="handlePan(0,1)">
                  <use xlink:href="#rim" fill="#404040">
                        <set attributeName="fill" to="#808080" begin="arrowDown.mouseover" end="arrowDown.mouseout"/>
                  </use>
                  <path fill="none" stroke="white" stroke-width="1.5" d="M0,-3.0v7 M-2.5,-0.5L0,-3.0L2.5,-0.5"/>
                </g>
                <g id="arrowLeft" xlink:href="#dirArrow" transform="rotate(270) translate(-36 17)" onmousedown="handlePan(-1,0)">
                  <use xlink:href="#rim" fill="#404040">
                        <set attributeName="fill" to="#808080" begin="arrowLeft.mouseover" end="arrowLeft.mouseout"/>
                  </use>
                  <path fill="none" stroke="white" stroke-width="1.5" d="M0,-3.0v7 M-2.5,-0.5L0,-3.0L2.5,-0.5"/>
                </g>
        </g>
        <svg viewBox="0 0 15 15" width="100%" height="30px" preserveAspectRatio="xMaxYMin meet">
         <g id="arrow_out" transform="scale(0.3 0.3)">
          <a xlink:href="operators__example_8cpp__incl_org.svg" target="_base">
           <rect id="button" ry="5" rx="5" y="6" x="6" height="38" width="38"
                fill="#f2f5e9" fill-opacity="0.5" stroke="#606060" stroke-width="1.0"/>
           <path id="arrow"
             d="M 11.500037,31.436501 C 11.940474,20.09759 22.043105,11.32322 32.158766,21.979434 L 37.068811,17.246167 C 37.068811,17.246167 37.088388,32 37.088388,32 L 22.160133,31.978069 C 22.160133,31.978069 26.997745,27.140456 26.997745,27.140456 C 18.528582,18.264221 13.291696,25.230495 11.500037,31.436501 z"
             style="fill:#404040;"/>
          </a>
         </g>
        </svg>
</svg>
