<?xml version="1.0" encoding="UTF-8" standalone="no"?>
<!DOCTYPE svg PUBLIC "-//W3C//DTD SVG 1.1//EN"
 "http://www.w3.org/Graphics/SVG/1.1/DTD/svg11.dtd">
<!-- Generated by graphviz version 2.34.0 (20140112.1130)
 -->
<!-- Title: src/operators/Operators_array.tpp Pages: 1 -->
<svg width="2501pt" height="560pt"
 viewBox="0.00 0.00 2501.00 560.00" xmlns="http://www.w3.org/2000/svg" xmlns:xlink="http://www.w3.org/1999/xlink">
<g id="graph0" class="graph" transform="scale(1 1) rotate(0) translate(4 556)">
<title>src/operators/Operators_array.tpp</title>
<polygon fill="white" stroke="white" points="-4,4 -4,-556 2497,-556 2497,4 -4,4"/>
<!-- Node1 -->
<g id="node1" class="node"><title>Node1</title>
<polygon fill="#bfbfbf" stroke="black" points="1187.5,-521 1187.5,-551 1312.5,-551 1312.5,-521 1187.5,-521"/>
<text text-anchor="start" x="1195.5" y="-539" font-family="Helvetica,sans-Serif" font-size="10.00">src/operators/Operators</text>
<text text-anchor="middle" x="1250" y="-528" font-family="Helvetica,sans-Serif" font-size="10.00">_array.tpp</text>
</g>
<!-- Node2 -->
<g id="node2" class="node"><title>Node2</title>
<g id="a_node2"><a xlink:href="Operators_8hpp_source.xhtml" target="_top" xlink:title="src/operators/Operators.hpp">
<polygon fill="white" stroke="black" points="1177.5,-464.5 1177.5,-483.5 1322.5,-483.5 1322.5,-464.5 1177.5,-464.5"/>
<text text-anchor="middle" x="1250" y="-471.5" font-family="Helvetica,sans-Serif" font-size="10.00">src/operators/Operators.hpp</text>
</a>
</g>
</g>
<!-- Node1&#45;&gt;Node2 -->
<g id="edge1" class="edge"><title>Node1&#45;&gt;Node2</title>
<path fill="none" stroke="midnightblue" d="M1250,-510.586C1250,-501.074 1250,-490.786 1250,-483.731"/>
<polygon fill="midnightblue" stroke="midnightblue" points="1246.5,-510.781 1250,-520.781 1253.5,-510.781 1246.5,-510.781"/>
</g>
<!-- Node3 -->
<g id="node3" class="node"><title>Node3</title>
<g id="a_node3"><a xlink:href="bitpit__operators_8hpp_source.xhtml" target="_top" xlink:title="src/operators/bitpit\l_operators.hpp">
<polygon fill="white" stroke="black" points="396.5,-341 396.5,-371 497.5,-371 497.5,-341 396.5,-341"/>
<text text-anchor="start" x="404.5" y="-359" font-family="Helvetica,sans-Serif" font-size="10.00">src/operators/bitpit</text>
<text text-anchor="middle" x="447" y="-348" font-family="Helvetica,sans-Serif" font-size="10.00">_operators.hpp</text>
</a>
</g>
</g>
<!-- Node2&#45;&gt;Node3 -->
<g id="edge2" class="edge"><title>Node2&#45;&gt;Node3</title>
<path fill="none" stroke="midnightblue" d="M1180.86,-463.012C1022.49,-440.134 636.457,-384.369 497.712,-364.326"/>
<polygon fill="midnightblue" stroke="midnightblue" points="1180.56,-466.504 1190.95,-464.47 1181.56,-459.576 1180.56,-466.504"/>
</g>
<!-- Node17 -->
<g id="node17" class="node"><title>Node17</title>
<g id="a_node17"><a xlink:href="GenericIO_8tpp_source.xhtml" target="_top" xlink:title="src/IO/GenericIO.tpp">
<polygon fill="white" stroke="black" points="1487,-408.5 1487,-427.5 1599,-427.5 1599,-408.5 1487,-408.5"/>
<text text-anchor="middle" x="1543" y="-415.5" font-family="Helvetica,sans-Serif" font-size="10.00">src/IO/GenericIO.tpp</text>
</a>
</g>
</g>
<!-- Node2&#45;&gt;Node17 -->
<g id="edge19" class="edge"><title>Node2&#45;&gt;Node17</title>
<path fill="none" stroke="midnightblue" d="M1306.43,-462.601C1361.8,-452.395 1445.23,-437.019 1496.79,-427.516"/>
<polygon fill="midnightblue" stroke="midnightblue" points="1305.63,-459.189 1296.43,-464.444 1306.9,-466.073 1305.63,-459.189"/>
</g>
<!-- Node40 -->
<g id="node40" class="node"><title>Node40</title>
<g id="a_node40"><a xlink:href="DGF_8hpp_source.xhtml" target="_top" xlink:title="src/IO/DGF.hpp">
<polygon fill="white" stroke="black" points="1270.5,-408.5 1270.5,-427.5 1359.5,-427.5 1359.5,-408.5 1270.5,-408.5"/>
<text text-anchor="middle" x="1315" y="-415.5" font-family="Helvetica,sans-Serif" font-size="10.00">src/IO/DGF.hpp</text>
</a>
</g>
</g>
<!-- Node2&#45;&gt;Node40 -->
<g id="edge44" class="edge"><title>Node2&#45;&gt;Node40</title>
<path fill="none" stroke="midnightblue" d="M1268.27,-457.82C1279.92,-448.145 1294.6,-435.948 1304.37,-427.834"/>
<polygon fill="midnightblue" stroke="midnightblue" points="1265.9,-455.242 1260.44,-464.324 1270.37,-460.626 1265.9,-455.242"/>
</g>
<!-- Node42 -->
<g id="node42" class="node"><title>Node42</title>
<g id="a_node42"><a xlink:href="STL_8hpp_source.xhtml" target="_top" xlink:title="src/IO/STL.hpp">
<polygon fill="white" stroke="black" points="1383,-408.5 1383,-427.5 1469,-427.5 1469,-408.5 1383,-408.5"/>
<text text-anchor="middle" x="1426" y="-415.5" font-family="Helvetica,sans-Serif" font-size="10.00">src/IO/STL.hpp</text>
</a>
</g>
</g>
<!-- Node2&#45;&gt;Node42 -->
<g id="edge47" class="edge"><title>Node2&#45;&gt;Node42</title>
<path fill="none" stroke="midnightblue" d="M1287.69,-461.436C1320.87,-451.255 1368.43,-436.664 1398.24,-427.516"/>
<polygon fill="midnightblue" stroke="midnightblue" points="1286.42,-458.164 1277.89,-464.444 1288.47,-464.856 1286.42,-458.164"/>
</g>
<!-- Node44 -->
<g id="node44" class="node"><title>Node44</title>
<g id="a_node44"><a xlink:href="FileHandler_8cpp_source.xhtml" target="_top" xlink:title="src/IO/FileHandler.cpp">
<polygon fill="white" stroke="black" points="1617.5,-408.5 1617.5,-427.5 1736.5,-427.5 1736.5,-408.5 1617.5,-408.5"/>
<text text-anchor="middle" x="1677" y="-415.5" font-family="Helvetica,sans-Serif" font-size="10.00">src/IO/FileHandler.cpp</text>
</a>
</g>
</g>
<!-- Node2&#45;&gt;Node44 -->
<g id="edge50" class="edge"><title>Node2&#45;&gt;Node44</title>
<path fill="none" stroke="midnightblue" d="M1328.06,-463.217C1400.39,-454.139 1510.97,-440.225 1607,-428 1610.4,-427.567 1613.9,-427.121 1617.43,-426.67"/>
<polygon fill="midnightblue" stroke="midnightblue" points="1327.6,-459.747 1318.11,-464.465 1328.47,-466.693 1327.6,-459.747"/>
</g>
<!-- Node45 -->
<g id="node45" class="node"><title>Node45</title>
<g id="a_node45"><a xlink:href="LinearAlgebra_8hpp_source.xhtml" target="_top" xlink:title="src/LA/LinearAlgebra.hpp">
<polygon fill="white" stroke="black" points="1120,-408.5 1120,-427.5 1252,-427.5 1252,-408.5 1120,-408.5"/>
<text text-anchor="middle" x="1186" y="-415.5" font-family="Helvetica,sans-Serif" font-size="10.00">src/LA/LinearAlgebra.hpp</text>
</a>
</g>
</g>
<!-- Node2&#45;&gt;Node45 -->
<g id="edge51" class="edge"><title>Node2&#45;&gt;Node45</title>
<path fill="none" stroke="midnightblue" d="M1232.01,-457.82C1220.54,-448.145 1206.09,-435.948 1196.47,-427.834"/>
<polygon fill="midnightblue" stroke="midnightblue" points="1229.82,-460.55 1239.72,-464.324 1234.33,-455.2 1229.82,-460.55"/>
</g>
<!-- Node48 -->
<g id="node48" class="node"><title>Node48</title>
<g id="a_node48"><a xlink:href="SortAlgorithms_8hpp_source.xhtml" target="_top" xlink:title="src/SA/SortAlgorithms.hpp">
<polygon fill="white" stroke="black" points="966,-408.5 966,-427.5 1100,-427.5 1100,-408.5 966,-408.5"/>
<text text-anchor="middle" x="1033" y="-415.5" font-family="Helvetica,sans-Serif" font-size="10.00">src/SA/SortAlgorithms.hpp</text>
</a>
</g>
</g>
<!-- Node2&#45;&gt;Node48 -->
<g id="edge55" class="edge"><title>Node2&#45;&gt;Node48</title>
<path fill="none" stroke="midnightblue" d="M1205.89,-462.024C1164.9,-451.823 1104.7,-436.841 1067.22,-427.516"/>
<polygon fill="midnightblue" stroke="midnightblue" points="1205.07,-465.425 1215.62,-464.444 1206.76,-458.632 1205.07,-465.425"/>
</g>
<!-- Node50 -->
<g id="node50" class="node"><title>Node50</title>
<g id="a_node50"><a xlink:href="rbf_8cpp_source.xhtml" target="_top" xlink:title="src/RBF/rbf.cpp">
<polygon fill="white" stroke="black" points="895,-346.5 895,-365.5 981,-365.5 981,-346.5 895,-346.5"/>
<text text-anchor="middle" x="938" y="-353.5" font-family="Helvetica,sans-Serif" font-size="10.00">src/RBF/rbf.cpp</text>
</a>
</g>
</g>
<!-- Node2&#45;&gt;Node50 -->
<g id="edge65" class="edge"><title>Node2&#45;&gt;Node50</title>
<path fill="none" stroke="midnightblue" d="M1167.24,-470.189C1091.67,-465.907 987.256,-455.123 957,-428 939.138,-411.987 937.264,-381.202 937.529,-365.978"/>
<polygon fill="midnightblue" stroke="midnightblue" points="1167.06,-473.685 1177.24,-470.728 1167.44,-466.695 1167.06,-473.685"/>
</g>
<!-- Node4 -->
<g id="node4" class="node"><title>Node4</title>
<g id="a_node4"><a xlink:href="operators__example_8hpp_source.xhtml" target="_top" xlink:title="examples/operators\l_example.hpp">
<polygon fill="white" stroke="black" points="393,-273 393,-303 501,-303 501,-273 393,-273"/>
<text text-anchor="start" x="401" y="-291" font-family="Helvetica,sans-Serif" font-size="10.00">examples/operators</text>
<text text-anchor="middle" x="447" y="-280" font-family="Helvetica,sans-Serif" font-size="10.00">_example.hpp</text>
</a>
</g>
</g>
<!-- Node3&#45;&gt;Node4 -->
<g id="edge3" class="edge"><title>Node3&#45;&gt;Node4</title>
<path fill="none" stroke="midnightblue" d="M447,-330.532C447,-321.361 447,-311.245 447,-303.293"/>
<polygon fill="midnightblue" stroke="midnightblue" points="443.5,-330.679 447,-340.679 450.5,-330.679 443.5,-330.679"/>
</g>
<!-- Node6 -->
<g id="node6" class="node"><title>Node6</title>
<g id="a_node6"><a xlink:href="CG_8hpp_source.xhtml" target="_top" xlink:title="src/CG/CG.hpp">
<polygon fill="white" stroke="black" points="280.5,-278.5 280.5,-297.5 367.5,-297.5 367.5,-278.5 280.5,-278.5"/>
<text text-anchor="middle" x="324" y="-285.5" font-family="Helvetica,sans-Serif" font-size="10.00">src/CG/CG.hpp</text>
</a>
</g>
</g>
<!-- Node3&#45;&gt;Node6 -->
<g id="edge5" class="edge"><title>Node3&#45;&gt;Node6</title>
<path fill="none" stroke="midnightblue" d="M411.611,-336.011C388.068,-323.378 358.255,-307.381 340.18,-297.682"/>
<polygon fill="midnightblue" stroke="midnightblue" points="410.147,-339.197 420.613,-340.841 413.457,-333.029 410.147,-339.197"/>
</g>
<!-- Node9 -->
<g id="node9" class="node"><title>Node9</title>
<g id="a_node9"><a xlink:href="levelSetObject_8cpp_source.xhtml" target="_top" xlink:title="src/levelset/levelSetObject.cpp">
<polygon fill="white" stroke="black" points="-1,-142.5 -1,-161.5 157,-161.5 157,-142.5 -1,-142.5"/>
<text text-anchor="middle" x="78" y="-149.5" font-family="Helvetica,sans-Serif" font-size="10.00">src/levelset/levelSetObject.cpp</text>
</a>
</g>
</g>
<!-- Node3&#45;&gt;Node9 -->
<g id="edge17" class="edge"><title>Node3&#45;&gt;Node9</title>
<path fill="none" stroke="midnightblue" d="M386.278,-351.308C309.083,-345.524 181.337,-331.966 144,-304 95.4544,-267.639 82.0502,-187.946 78.8766,-161.626"/>
<polygon fill="midnightblue" stroke="midnightblue" points="386.129,-354.806 396.357,-352.04 386.637,-347.824 386.129,-354.806"/>
</g>
<!-- Node11 -->
<g id="node11" class="node"><title>Node11</title>
<g id="a_node11"><a xlink:href="levelSetSegmentation_8cpp_source.xhtml" target="_top" xlink:title="src/levelset/levelSetSegmentation.cpp">
<polygon fill="white" stroke="black" points="191.5,-142.5 191.5,-161.5 382.5,-161.5 382.5,-142.5 191.5,-142.5"/>
<text text-anchor="middle" x="287" y="-149.5" font-family="Helvetica,sans-Serif" font-size="10.00">src/levelset/levelSetSegmentation.cpp</text>
</a>
</g>
</g>
<!-- Node3&#45;&gt;Node11 -->
<g id="edge18" class="edge"><title>Node3&#45;&gt;Node11</title>
<path fill="none" stroke="midnightblue" d="M385.958,-354.692C306.331,-350.456 171.151,-329.115 120,-236 96.2276,-192.726 160.04,-171.555 215.524,-161.51"/>
<polygon fill="midnightblue" stroke="midnightblue" points="386.186,-358.206 396.335,-355.164 386.505,-351.213 386.186,-358.206"/>
</g>
<!-- Node13 -->
<g id="node13" class="node"><title>Node13</title>
<g id="a_node13"><a xlink:href="CG__elem_8cpp_source.xhtml" target="_top" xlink:title="src/CG/CG_elem.cpp">
<polygon fill="white" stroke="black" points="128.5,-210.5 128.5,-229.5 243.5,-229.5 243.5,-210.5 128.5,-210.5"/>
<text text-anchor="middle" x="186" y="-217.5" font-family="Helvetica,sans-Serif" font-size="10.00">src/CG/CG_elem.cpp</text>
</a>
</g>
</g>
<!-- Node3&#45;&gt;Node13 -->
<g id="edge13" class="edge"><title>Node3&#45;&gt;Node13</title>
<path fill="none" stroke="midnightblue" d="M386.033,-345.02C350.721,-337.413 306.396,-324.633 271,-304 236.431,-283.849 205.442,-246.574 192.459,-229.701"/>
<polygon fill="midnightblue" stroke="midnightblue" points="385.708,-348.527 396.209,-347.124 387.125,-341.672 385.708,-348.527"/>
</g>
<!-- Node14 -->
<g id="node14" class="node"><title>Node14</title>
<g id="a_node14"><a xlink:href="interface_8cpp_source.xhtml" target="_top" xlink:title="src/patchkernel/interface.cpp">
<polygon fill="white" stroke="black" points="740,-278.5 740,-297.5 888,-297.5 888,-278.5 740,-278.5"/>
<text text-anchor="middle" x="814" y="-285.5" font-family="Helvetica,sans-Serif" font-size="10.00">src/patchkernel/interface.cpp</text>
</a>
</g>
</g>
<!-- Node3&#45;&gt;Node14 -->
<g id="edge14" class="edge"><title>Node3&#45;&gt;Node14</title>
<path fill="none" stroke="midnightblue" d="M507.561,-344.109C580.146,-331.055 700.257,-309.455 766.492,-297.544"/>
<polygon fill="midnightblue" stroke="midnightblue" points="506.867,-340.677 497.644,-345.892 508.106,-347.567 506.867,-340.677"/>
</g>
<!-- Node15 -->
<g id="node15" class="node"><title>Node15</title>
<g id="a_node15"><a xlink:href="levelSet_8cpp_source.xhtml" target="_top" xlink:title="src/levelset/levelSet.cpp">
<polygon fill="white" stroke="black" points="677,-210.5 677,-229.5 805,-229.5 805,-210.5 677,-210.5"/>
<text text-anchor="middle" x="741" y="-217.5" font-family="Helvetica,sans-Serif" font-size="10.00">src/levelset/levelSet.cpp</text>
</a>
</g>
</g>
<!-- Node3&#45;&gt;Node15 -->
<g id="edge15" class="edge"><title>Node3&#45;&gt;Node15</title>
<path fill="none" stroke="midnightblue" d="M479.661,-335.778C510.576,-318.004 558.586,-291.473 602,-272 640.23,-254.852 686.128,-238.865 714.431,-229.513"/>
<polygon fill="midnightblue" stroke="midnightblue" points="477.544,-332.96 470.64,-340.996 481.049,-339.019 477.544,-332.96"/>
</g>
<!-- Node16 -->
<g id="node16" class="node"><title>Node16</title>
<g id="a_node16"><a xlink:href="levelSetKernel_8cpp_source.xhtml" target="_top" xlink:title="src/levelset/levelSetKernel.cpp">
<polygon fill="white" stroke="black" points="823,-210.5 823,-229.5 981,-229.5 981,-210.5 823,-210.5"/>
<text text-anchor="middle" x="902" y="-217.5" font-family="Helvetica,sans-Serif" font-size="10.00">src/levelset/levelSetKernel.cpp</text>
</a>
</g>
</g>
<!-- Node3&#45;&gt;Node16 -->
<g id="edge16" class="edge"><title>Node3&#45;&gt;Node16</title>
<path fill="none" stroke="midnightblue" d="M504.596,-338.038C602.815,-309.112 799.242,-251.263 873.065,-229.522"/>
<polygon fill="midnightblue" stroke="midnightblue" points="503.437,-334.73 494.833,-340.913 505.414,-341.445 503.437,-334.73"/>
</g>
<!-- Node5 -->
<g id="node5" class="node"><title>Node5</title>
<g id="a_node5"><a xlink:href="operators__example_8cpp.xhtml" target="_top" xlink:title="examples/operators\l_example.cpp">
<polygon fill="white" stroke="black" points="393,-205 393,-235 501,-235 501,-205 393,-205"/>
<text text-anchor="start" x="401" y="-223" font-family="Helvetica,sans-Serif" font-size="10.00">examples/operators</text>
<text text-anchor="middle" x="447" y="-212" font-family="Helvetica,sans-Serif" font-size="10.00">_example.cpp</text>
</a>
</g>
</g>
<!-- Node4&#45;&gt;Node5 -->
<g id="edge4" class="edge"><title>Node4&#45;&gt;Node5</title>
<path fill="none" stroke="midnightblue" d="M447,-262.532C447,-253.361 447,-243.245 447,-235.293"/>
<polygon fill="midnightblue" stroke="midnightblue" points="443.5,-262.679 447,-272.679 450.5,-262.679 443.5,-262.679"/>
</g>
<!-- Node7 -->
<g id="node7" class="node"><title>Node7</title>
<g id="a_node7"><a xlink:href="bitpit__CG_8hpp_source.xhtml" target="_top" xlink:title="src/CG/bitpit_CG.hpp">
<polygon fill="white" stroke="black" points="261.5,-210.5 261.5,-229.5 374.5,-229.5 374.5,-210.5 261.5,-210.5"/>
<text text-anchor="middle" x="318" y="-217.5" font-family="Helvetica,sans-Serif" font-size="10.00">src/CG/bitpit_CG.hpp</text>
</a>
</g>
</g>
<!-- Node6&#45;&gt;Node7 -->
<g id="edge6" class="edge"><title>Node6&#45;&gt;Node7</title>
<path fill="none" stroke="midnightblue" d="M322.276,-268.041C321.134,-255.472 319.688,-239.563 318.804,-229.841"/>
<polygon fill="midnightblue" stroke="midnightblue" points="318.825,-268.73 323.216,-278.372 325.796,-268.096 318.825,-268.73"/>
</g>
<!-- Node12 -->
<g id="node12" class="node"><title>Node12</title>
<g id="a_node12"><a xlink:href="CG__algorithms_8cpp_source.xhtml" target="_top" xlink:title="src/CG/CG_algorithms.cpp">
<polygon fill="white" stroke="black" points="519.5,-210.5 519.5,-229.5 658.5,-229.5 658.5,-210.5 519.5,-210.5"/>
<text text-anchor="middle" x="589" y="-217.5" font-family="Helvetica,sans-Serif" font-size="10.00">src/CG/CG_algorithms.cpp</text>
</a>
</g>
</g>
<!-- Node6&#45;&gt;Node12 -->
<g id="edge11" class="edge"><title>Node6&#45;&gt;Node12</title>
<path fill="none" stroke="midnightblue" d="M368.315,-275.915C373.601,-274.595 378.921,-273.267 384,-272 443.961,-257.046 513.801,-239.683 554.539,-229.56"/>
<polygon fill="midnightblue" stroke="midnightblue" points="367.119,-272.606 358.266,-278.426 368.816,-279.397 367.119,-272.606"/>
</g>
<!-- Node6&#45;&gt;Node13 -->
<g id="edge12" class="edge"><title>Node6&#45;&gt;Node13</title>
<path fill="none" stroke="midnightblue" d="M296.891,-274.035C269.423,-260.898 227.706,-240.946 204.046,-229.63"/>
<polygon fill="midnightblue" stroke="midnightblue" points="295.427,-277.215 305.959,-278.372 298.448,-270.9 295.427,-277.215"/>
</g>
<!-- Node8 -->
<g id="node8" class="node"><title>Node8</title>
<g id="a_node8"><a xlink:href="levelSetCartesian_8cpp_source.xhtml" target="_top" xlink:title="src/levelset/levelSetCartesian.cpp">
<polygon fill="white" stroke="black" points="808,-142.5 808,-161.5 980,-161.5 980,-142.5 808,-142.5"/>
<text text-anchor="middle" x="894" y="-149.5" font-family="Helvetica,sans-Serif" font-size="10.00">src/levelset/levelSetCartesian.cpp</text>
</a>
</g>
</g>
<!-- Node7&#45;&gt;Node8 -->
<g id="edge7" class="edge"><title>Node7&#45;&gt;Node8</title>
<path fill="none" stroke="midnightblue" d="M361.673,-208.275C369.093,-206.683 376.744,-205.183 384,-204 531.984,-179.88 706.109,-165.417 807.851,-158.348"/>
<polygon fill="midnightblue" stroke="midnightblue" points="360.758,-204.893 351.757,-210.482 362.279,-211.726 360.758,-204.893"/>
</g>
<!-- Node7&#45;&gt;Node9 -->
<g id="edge8" class="edge"><title>Node7&#45;&gt;Node9</title>
<path fill="none" stroke="midnightblue" d="M276.937,-207.708C229.309,-194.61 151.864,-173.313 109.003,-161.526"/>
<polygon fill="midnightblue" stroke="midnightblue" points="276.054,-211.095 286.624,-210.372 277.91,-204.345 276.054,-211.095"/>
</g>
<!-- Node10 -->
<g id="node10" class="node"><title>Node10</title>
<g id="a_node10"><a xlink:href="levelSetOctree_8cpp_source.xhtml" target="_top" xlink:title="src/levelset/levelSetOctree.cpp">
<polygon fill="white" stroke="black" points="478,-142.5 478,-161.5 636,-161.5 636,-142.5 478,-142.5"/>
<text text-anchor="middle" x="557" y="-149.5" font-family="Helvetica,sans-Serif" font-size="10.00">src/levelset/levelSetOctree.cpp</text>
</a>
</g>
</g>
<!-- Node7&#45;&gt;Node10 -->
<g id="edge9" class="edge"><title>Node7&#45;&gt;Node10</title>
<path fill="none" stroke="midnightblue" d="M358.892,-207.708C406.321,-194.61 483.444,-173.313 526.126,-161.526"/>
<polygon fill="midnightblue" stroke="midnightblue" points="357.953,-204.336 349.245,-210.372 359.816,-211.083 357.953,-204.336"/>
</g>
<!-- Node7&#45;&gt;Node11 -->
<g id="edge10" class="edge"><title>Node7&#45;&gt;Node11</title>
<path fill="none" stroke="midnightblue" d="M309.633,-201.186C303.652,-188.452 295.859,-171.861 291.153,-161.841"/>
<polygon fill="midnightblue" stroke="midnightblue" points="306.528,-202.808 313.947,-210.372 312.864,-199.832 306.528,-202.808"/>
</g>
<!-- Node18 -->
<g id="node18" class="node"><title>Node18</title>
<g id="a_node18"><a xlink:href="GenericIO_8hpp_source.xhtml" target="_top" xlink:title="src/IO/GenericIO.hpp">
<polygon fill="white" stroke="black" points="1561.5,-346.5 1561.5,-365.5 1676.5,-365.5 1676.5,-346.5 1561.5,-346.5"/>
<text text-anchor="middle" x="1619" y="-353.5" font-family="Helvetica,sans-Serif" font-size="10.00">src/IO/GenericIO.hpp</text>
</a>
</g>
</g>
<!-- Node17&#45;&gt;Node18 -->
<g id="edge20" class="edge"><title>Node17&#45;&gt;Node18</title>
<path fill="none" stroke="midnightblue" d="M1561.78,-402.17C1576.36,-390.661 1596.06,-375.109 1608.13,-365.581"/>
<polygon fill="midnightblue" stroke="midnightblue" points="1559.57,-399.46 1553.89,-408.403 1563.91,-404.954 1559.57,-399.46"/>
</g>
<!-- Node19 -->
<g id="node19" class="node"><title>Node19</title>
<g id="a_node19"><a xlink:href="VTK_8hpp_source.xhtml" target="_top" xlink:title="src/IO/VTK.hpp">
<polygon fill="white" stroke="black" points="1854,-278.5 1854,-297.5 1942,-297.5 1942,-278.5 1854,-278.5"/>
<text text-anchor="middle" x="1898" y="-285.5" font-family="Helvetica,sans-Serif" font-size="10.00">src/IO/VTK.hpp</text>
</a>
</g>
</g>
<!-- Node18&#45;&gt;Node19 -->
<g id="edge21" class="edge"><title>Node18&#45;&gt;Node19</title>
<path fill="none" stroke="midnightblue" d="M1665.05,-344.106C1720.23,-331.052 1811.52,-309.456 1861.88,-297.546"/>
<polygon fill="midnightblue" stroke="midnightblue" points="1664.11,-340.731 1655.19,-346.439 1665.73,-347.543 1664.11,-340.731"/>
</g>
<!-- Node20 -->
<g id="node20" class="node"><title>Node20</title>
<g id="a_node20"><a xlink:href="bitpit__IO_8hpp_source.xhtml" target="_top" xlink:title="src/IO/bitpit_IO.hpp">
<polygon fill="white" stroke="black" points="1429,-210.5 1429,-229.5 1533,-229.5 1533,-210.5 1429,-210.5"/>
<text text-anchor="middle" x="1481" y="-217.5" font-family="Helvetica,sans-Serif" font-size="10.00">src/IO/bitpit_IO.hpp</text>
</a>
</g>
</g>
<!-- Node18&#45;&gt;Node20 -->
<g id="edge42" class="edge"><title>Node18&#45;&gt;Node20</title>
<path fill="none" stroke="midnightblue" d="M1619.1,-336.047C1618.22,-317.682 1614.18,-290.031 1599,-272 1586.82,-257.529 1539.04,-239.863 1508.14,-229.577"/>
<polygon fill="midnightblue" stroke="midnightblue" points="1615.6,-336.19 1619.31,-346.114 1622.6,-336.042 1615.6,-336.19"/>
</g>
<!-- Node39 -->
<g id="node39" class="node"><title>Node39</title>
<g id="a_node39"><a xlink:href="GenericIO_8cpp_source.xhtml" target="_top" xlink:title="src/IO/GenericIO.cpp">
<polygon fill="white" stroke="black" points="1475.5,-278.5 1475.5,-297.5 1590.5,-297.5 1590.5,-278.5 1475.5,-278.5"/>
<text text-anchor="middle" x="1533" y="-285.5" font-family="Helvetica,sans-Serif" font-size="10.00">src/IO/GenericIO.cpp</text>
</a>
</g>
</g>
<!-- Node18&#45;&gt;Node39 -->
<g id="edge43" class="edge"><title>Node18&#45;&gt;Node39</title>
<path fill="none" stroke="midnightblue" d="M1599.58,-340.096C1582.52,-327.001 1558.28,-308.403 1544.25,-297.63"/>
<polygon fill="midnightblue" stroke="midnightblue" points="1597.69,-343.06 1607.76,-346.372 1601.95,-337.507 1597.69,-343.06"/>
</g>
<!-- Node19&#45;&gt;Node20 -->
<g id="edge22" class="edge"><title>Node19&#45;&gt;Node20</title>
<path fill="none" stroke="midnightblue" d="M1843.58,-280.9C1773.5,-272.657 1648.11,-256.594 1542,-236 1532.58,-234.171 1522.43,-231.828 1513.16,-229.539"/>
<polygon fill="midnightblue" stroke="midnightblue" points="1843.58,-284.424 1853.92,-282.107 1844.39,-277.471 1843.58,-284.424"/>
</g>
<!-- Node32 -->
<g id="node32" class="node"><title>Node32</title>
<g id="a_node32"><a xlink:href="VTK_8cpp_source.xhtml" target="_top" xlink:title="src/IO/VTK.cpp">
<polygon fill="white" stroke="black" points="2406,-210.5 2406,-229.5 2494,-229.5 2494,-210.5 2406,-210.5"/>
<text text-anchor="middle" x="2450" y="-217.5" font-family="Helvetica,sans-Serif" font-size="10.00">src/IO/VTK.cpp</text>
</a>
</g>
</g>
<!-- Node19&#45;&gt;Node32 -->
<g id="edge35" class="edge"><title>Node19&#45;&gt;Node32</title>
<path fill="none" stroke="midnightblue" d="M1952.29,-284.547C2044.43,-279.696 2237.01,-266.574 2397,-236 2405.64,-234.349 2414.92,-231.947 2423.25,-229.547"/>
<polygon fill="midnightblue" stroke="midnightblue" points="1951.9,-281.063 1942.09,-285.072 1952.26,-288.054 1951.9,-281.063"/>
</g>
<!-- Node33 -->
<g id="node33" class="node"><title>Node33</title>
<g id="a_node33"><a xlink:href="VTKField_8cpp_source.xhtml" target="_top" xlink:title="src/IO/VTKField.cpp">
<polygon fill="white" stroke="black" points="1551,-210.5 1551,-229.5 1661,-229.5 1661,-210.5 1551,-210.5"/>
<text text-anchor="middle" x="1606" y="-217.5" font-family="Helvetica,sans-Serif" font-size="10.00">src/IO/VTKField.cpp</text>
</a>
</g>
</g>
<!-- Node19&#45;&gt;Node33 -->
<g id="edge36" class="edge"><title>Node19&#45;&gt;Node33</title>
<path fill="none" stroke="midnightblue" d="M1849.21,-276.237C1803.02,-266.012 1731.75,-250.143 1670,-236 1660.99,-233.936 1651.27,-231.677 1642.2,-229.552"/>
<polygon fill="midnightblue" stroke="midnightblue" points="1848.72,-279.714 1859.24,-278.457 1850.24,-272.879 1848.72,-279.714"/>
</g>
<!-- Node34 -->
<g id="node34" class="node"><title>Node34</title>
<g id="a_node34"><a xlink:href="VTKRectilinear_8cpp_source.xhtml" target="_top" xlink:title="src/IO/VTKRectilinear.cpp">
<polygon fill="white" stroke="black" points="1679,-210.5 1679,-229.5 1815,-229.5 1815,-210.5 1679,-210.5"/>
<text text-anchor="middle" x="1747" y="-217.5" font-family="Helvetica,sans-Serif" font-size="10.00">src/IO/VTKRectilinear.cpp</text>
</a>
</g>
</g>
<!-- Node19&#45;&gt;Node34 -->
<g id="edge37" class="edge"><title>Node19&#45;&gt;Node34</title>
<path fill="none" stroke="midnightblue" d="M1868.73,-274.206C1838.68,-261.072 1792.75,-240.996 1766.75,-229.63"/>
<polygon fill="midnightblue" stroke="midnightblue" points="1867.69,-277.574 1878.26,-278.372 1870.5,-271.16 1867.69,-277.574"/>
</g>
<!-- Node35 -->
<g id="node35" class="node"><title>Node35</title>
<g id="a_node35"><a xlink:href="VTKStreamer_8cpp_source.xhtml" target="_top" xlink:title="src/IO/VTKStreamer.cpp">
<polygon fill="white" stroke="black" points="1833.5,-210.5 1833.5,-229.5 1962.5,-229.5 1962.5,-210.5 1833.5,-210.5"/>
<text text-anchor="middle" x="1898" y="-217.5" font-family="Helvetica,sans-Serif" font-size="10.00">src/IO/VTKStreamer.cpp</text>
</a>
</g>
</g>
<!-- Node19&#45;&gt;Node35 -->
<g id="edge38" class="edge"><title>Node19&#45;&gt;Node35</title>
<path fill="none" stroke="midnightblue" d="M1898,-268.041C1898,-255.472 1898,-239.563 1898,-229.841"/>
<polygon fill="midnightblue" stroke="midnightblue" points="1894.5,-268.372 1898,-278.372 1901.5,-268.372 1894.5,-268.372"/>
</g>
<!-- Node36 -->
<g id="node36" class="node"><title>Node36</title>
<g id="a_node36"><a xlink:href="VTKTypes_8cpp_source.xhtml" target="_top" xlink:title="src/IO/VTKTypes.cpp">
<polygon fill="white" stroke="black" points="1981,-210.5 1981,-229.5 2099,-229.5 2099,-210.5 1981,-210.5"/>
<text text-anchor="middle" x="2040" y="-217.5" font-family="Helvetica,sans-Serif" font-size="10.00">src/IO/VTKTypes.cpp</text>
</a>
</g>
</g>
<!-- Node19&#45;&gt;Node36 -->
<g id="edge39" class="edge"><title>Node19&#45;&gt;Node36</title>
<path fill="none" stroke="midnightblue" d="M1925.9,-274.035C1954.16,-260.898 1997.09,-240.946 2021.43,-229.63"/>
<polygon fill="midnightblue" stroke="midnightblue" points="1924.16,-270.983 1916.56,-278.372 1927.11,-277.331 1924.16,-270.983"/>
</g>
<!-- Node37 -->
<g id="node37" class="node"><title>Node37</title>
<g id="a_node37"><a xlink:href="VTKUnstructured_8cpp_source.xhtml" target="_top" xlink:title="src/IO/VTKUnstructured.cpp">
<polygon fill="white" stroke="black" points="2117,-210.5 2117,-229.5 2263,-229.5 2263,-210.5 2117,-210.5"/>
<text text-anchor="middle" x="2190" y="-217.5" font-family="Helvetica,sans-Serif" font-size="10.00">src/IO/VTKUnstructured.cpp</text>
</a>
</g>
</g>
<!-- Node19&#45;&gt;Node37 -->
<g id="edge40" class="edge"><title>Node19&#45;&gt;Node37</title>
<path fill="none" stroke="midnightblue" d="M1945.84,-276.187C2003.55,-263.142 2099.39,-241.481 2152.19,-229.546"/>
<polygon fill="midnightblue" stroke="midnightblue" points="1944.86,-272.821 1935.87,-278.439 1946.4,-279.648 1944.86,-272.821"/>
</g>
<!-- Node38 -->
<g id="node38" class="node"><title>Node38</title>
<g id="a_node38"><a xlink:href="VTKUtils_8cpp_source.xhtml" target="_top" xlink:title="src/IO/VTKUtils.cpp">
<polygon fill="white" stroke="black" points="2281.5,-210.5 2281.5,-229.5 2388.5,-229.5 2388.5,-210.5 2281.5,-210.5"/>
<text text-anchor="middle" x="2335" y="-217.5" font-family="Helvetica,sans-Serif" font-size="10.00">src/IO/VTKUtils.cpp</text>
</a>
</g>
</g>
<!-- Node19&#45;&gt;Node38 -->
<g id="edge41" class="edge"><title>Node19&#45;&gt;Node38</title>
<path fill="none" stroke="midnightblue" d="M1952.6,-281.256C2025.68,-273.181 2159.18,-257.07 2272,-236 2281.73,-234.184 2292.21,-231.843 2301.78,-229.554"/>
<polygon fill="midnightblue" stroke="midnightblue" points="1951.83,-277.82 1942.27,-282.389 1952.59,-284.778 1951.83,-277.82"/>
</g>
<!-- Node21 -->
<g id="node21" class="node"><title>Node21</title>
<g id="a_node21"><a xlink:href="communications_8cpp_source.xhtml" target="_top" xlink:title="src/communications\l/communications.cpp">
<polygon fill="white" stroke="black" points="1661,-137 1661,-167 1775,-167 1775,-137 1661,-137"/>
<text text-anchor="start" x="1669" y="-155" font-family="Helvetica,sans-Serif" font-size="10.00">src/communications</text>
<text text-anchor="middle" x="1718" y="-144" font-family="Helvetica,sans-Serif" font-size="10.00">/communications.cpp</text>
</a>
</g>
</g>
<!-- Node20&#45;&gt;Node21 -->
<g id="edge23" class="edge"><title>Node20&#45;&gt;Node21</title>
<path fill="none" stroke="midnightblue" d="M1521.76,-207.649C1562.14,-196.405 1624.06,-179.16 1667.53,-167.056"/>
<polygon fill="midnightblue" stroke="midnightblue" points="1520.68,-204.317 1511.98,-210.372 1522.56,-211.061 1520.68,-204.317"/>
</g>
<!-- Node22 -->
<g id="node22" class="node"><title>Node22</title>
<g id="a_node22"><a xlink:href="ParaTree_8hpp_source.xhtml" target="_top" xlink:title="src/PABLO/ParaTree.hpp">
<polygon fill="white" stroke="black" points="1509,-142.5 1509,-161.5 1643,-161.5 1643,-142.5 1509,-142.5"/>
<text text-anchor="middle" x="1576" y="-149.5" font-family="Helvetica,sans-Serif" font-size="10.00">src/PABLO/ParaTree.hpp</text>
</a>
</g>
</g>
<!-- Node20&#45;&gt;Node22 -->
<g id="edge24" class="edge"><title>Node20&#45;&gt;Node22</title>
<path fill="none" stroke="midnightblue" d="M1501.68,-204.634C1520.56,-191.515 1547.86,-172.551 1563.58,-161.63"/>
<polygon fill="midnightblue" stroke="midnightblue" points="1499.64,-201.792 1493.42,-210.372 1503.63,-207.54 1499.64,-201.792"/>
</g>
<!-- Node25 -->
<g id="node25" class="node"><title>Node25</title>
<g id="a_node25"><a xlink:href="patch__kernel_8hpp_source.xhtml" target="_top" xlink:title="src/patchkernel/patch\l_kernel.hpp">
<polygon fill="white" stroke="red" points="1174,-137 1174,-167 1288,-167 1288,-137 1174,-137"/>
<text text-anchor="start" x="1182" y="-155" font-family="Helvetica,sans-Serif" font-size="10.00">src/patchkernel/patch</text>
<text text-anchor="middle" x="1231" y="-144" font-family="Helvetica,sans-Serif" font-size="10.00">_kernel.hpp</text>
</a>
</g>
</g>
<!-- Node20&#45;&gt;Node25 -->
<g id="edge27" class="edge"><title>Node20&#45;&gt;Node25</title>
<path fill="none" stroke="midnightblue" d="M1438.81,-207.863C1396.28,-196.634 1330.49,-179.267 1284.36,-167.087"/>
<polygon fill="midnightblue" stroke="midnightblue" points="1438.01,-211.271 1448.57,-210.439 1439.8,-204.503 1438.01,-211.271"/>
</g>
<!-- Node28 -->
<g id="node28" class="node"><title>Node28</title>
<g id="a_node28"><a xlink:href="surfunstructured_8hpp_source.xhtml" target="_top" xlink:title="src/surfunstructured\l/surfunstructured.hpp">
<polygon fill="white" stroke="red" points="1299.5,-1 1299.5,-31 1412.5,-31 1412.5,-1 1299.5,-1"/>
<text text-anchor="start" x="1307.5" y="-19" font-family="Helvetica,sans-Serif" font-size="10.00">src/surfunstructured</text>
<text text-anchor="middle" x="1356" y="-8" font-family="Helvetica,sans-Serif" font-size="10.00">/surfunstructured.hpp</text>
</a>
</g>
</g>
<!-- Node20&#45;&gt;Node28 -->
<g id="edge33" class="edge"><title>Node20&#45;&gt;Node28</title>
<path fill="none" stroke="midnightblue" d="M1483.94,-200.356C1487.72,-169.667 1490.74,-107.935 1462,-68 1449.42,-50.512 1429.2,-38.7764 1409.78,-31.0221"/>
<polygon fill="midnightblue" stroke="midnightblue" points="1480.44,-200.099 1482.52,-210.488 1487.37,-201.072 1480.44,-200.099"/>
</g>
<!-- Node31 -->
<g id="node31" class="node"><title>Node31</title>
<g id="a_node31"><a xlink:href="voloctree_8cpp_source.xhtml" target="_top" xlink:title="src/voloctree/voloctree.cpp">
<polygon fill="white" stroke="black" points="1793,-142.5 1793,-161.5 1933,-161.5 1933,-142.5 1793,-142.5"/>
<text text-anchor="middle" x="1863" y="-149.5" font-family="Helvetica,sans-Serif" font-size="10.00">src/voloctree/voloctree.cpp</text>
</a>
</g>
</g>
<!-- Node20&#45;&gt;Node31 -->
<g id="edge34" class="edge"><title>Node20&#45;&gt;Node31</title>
<path fill="none" stroke="midnightblue" d="M1522.97,-208.135C1529.32,-206.648 1535.82,-205.217 1542,-204 1648.69,-182.994 1676.79,-186.146 1784,-168 1795.56,-166.043 1808.04,-163.755 1819.59,-161.565"/>
<polygon fill="midnightblue" stroke="midnightblue" points="1522.07,-204.751 1513.17,-210.494 1523.71,-211.557 1522.07,-204.751"/>
</g>
<!-- Node23 -->
<g id="node23" class="node"><title>Node23</title>
<g id="a_node23"><a xlink:href="PabloUniform_8hpp_source.xhtml" target="_top" xlink:title="src/PABLO/PabloUniform.hpp">
<polygon fill="white" stroke="red" points="1509.5,-74.5 1509.5,-93.5 1660.5,-93.5 1660.5,-74.5 1509.5,-74.5"/>
<text text-anchor="middle" x="1585" y="-81.5" font-family="Helvetica,sans-Serif" font-size="10.00">src/PABLO/PabloUniform.hpp</text>
</a>
</g>
</g>
<!-- Node22&#45;&gt;Node23 -->
<g id="edge25" class="edge"><title>Node22&#45;&gt;Node23</title>
<path fill="none" stroke="midnightblue" d="M1578.53,-132.425C1580.25,-119.798 1582.46,-103.662 1583.79,-93.8411"/>
<polygon fill="midnightblue" stroke="midnightblue" points="1575.06,-131.99 1577.18,-142.372 1582,-132.936 1575.06,-131.99"/>
</g>
<!-- Node24 -->
<g id="node24" class="node"><title>Node24</title>
<g id="a_node24"><a xlink:href="ParaTree_8cpp_source.xhtml" target="_top" xlink:title="src/PABLO/ParaTree.cpp">
<polygon fill="white" stroke="black" points="1679,-74.5 1679,-93.5 1813,-93.5 1813,-74.5 1679,-74.5"/>
<text text-anchor="middle" x="1746" y="-81.5" font-family="Helvetica,sans-Serif" font-size="10.00">src/PABLO/ParaTree.cpp</text>
</a>
</g>
</g>
<!-- Node22&#45;&gt;Node24 -->
<g id="edge26" class="edge"><title>Node22&#45;&gt;Node24</title>
<path fill="none" stroke="midnightblue" d="M1607.67,-138.706C1641.56,-125.547 1694.44,-105.017 1724.04,-93.5259"/>
<polygon fill="midnightblue" stroke="midnightblue" points="1606.28,-135.49 1598.22,-142.372 1608.81,-142.015 1606.28,-135.49"/>
</g>
<!-- Node26 -->
<g id="node26" class="node"><title>Node26</title>
<g id="a_node26"><a xlink:href="adaption_8cpp_source.xhtml" target="_top" xlink:title="src/patchkernel/adaption.cpp">
<polygon fill="white" stroke="black" points="1304.5,-74.5 1304.5,-93.5 1453.5,-93.5 1453.5,-74.5 1304.5,-74.5"/>
<text text-anchor="middle" x="1379" y="-81.5" font-family="Helvetica,sans-Serif" font-size="10.00">src/patchkernel/adaption.cpp</text>
</a>
</g>
</g>
<!-- Node25&#45;&gt;Node26 -->
<g id="edge28" class="edge"><title>Node25&#45;&gt;Node26</title>
<path fill="none" stroke="midnightblue" d="M1272.08,-132.679C1300.64,-119.946 1337.4,-103.553 1359.53,-93.6819"/>
<polygon fill="midnightblue" stroke="midnightblue" points="1270.46,-129.572 1262.75,-136.841 1273.31,-135.965 1270.46,-129.572"/>
</g>
<!-- Node27 -->
<g id="node27" class="node"><title>Node27</title>
<g id="a_node27"><a xlink:href="bitpit__patchkernel_8hpp_source.xhtml" target="_top" xlink:title="src/patchkernel/bitpit\l_patchkernel.hpp">
<polygon fill="white" stroke="red" points="1176,-69 1176,-99 1286,-99 1286,-69 1176,-69"/>
<text text-anchor="start" x="1184" y="-87" font-family="Helvetica,sans-Serif" font-size="10.00">src/patchkernel/bitpit</text>
<text text-anchor="middle" x="1231" y="-76" font-family="Helvetica,sans-Serif" font-size="10.00">_patchkernel.hpp</text>
</a>
</g>
</g>
<!-- Node25&#45;&gt;Node27 -->
<g id="edge29" class="edge"><title>Node25&#45;&gt;Node27</title>
<path fill="none" stroke="midnightblue" d="M1231,-126.532C1231,-117.361 1231,-107.245 1231,-99.2931"/>
<polygon fill="midnightblue" stroke="midnightblue" points="1227.5,-126.679 1231,-136.679 1234.5,-126.679 1227.5,-126.679"/>
</g>
<!-- Node29 -->
<g id="node29" class="node"><title>Node29</title>
<g id="a_node29"><a xlink:href="patch__kernel_8cpp_source.xhtml" target="_top" xlink:title="src/patchkernel/patch\l_kernel.cpp">
<polygon fill="white" stroke="black" points="1044,-69 1044,-99 1158,-99 1158,-69 1044,-69"/>
<text text-anchor="start" x="1052" y="-87" font-family="Helvetica,sans-Serif" font-size="10.00">src/patchkernel/patch</text>
<text text-anchor="middle" x="1101" y="-76" font-family="Helvetica,sans-Serif" font-size="10.00">_kernel.cpp</text>
</a>
</g>
</g>
<!-- Node25&#45;&gt;Node29 -->
<g id="edge31" class="edge"><title>Node25&#45;&gt;Node29</title>
<path fill="none" stroke="midnightblue" d="M1193.96,-132.197C1173.25,-121.68 1147.85,-108.787 1128.84,-99.1352"/>
<polygon fill="midnightblue" stroke="midnightblue" points="1192.61,-135.435 1203.11,-136.841 1195.78,-129.194 1192.61,-135.435"/>
</g>
<!-- Node30 -->
<g id="node30" class="node"><title>Node30</title>
<g id="a_node30"><a xlink:href="patch__kernel__parallel_8cpp_source.xhtml" target="_top" xlink:title="src/patchkernel/patch\l_kernel_parallel.cpp">
<polygon fill="white" stroke="black" points="912,-69 912,-99 1026,-99 1026,-69 912,-69"/>
<text text-anchor="start" x="920" y="-87" font-family="Helvetica,sans-Serif" font-size="10.00">src/patchkernel/patch</text>
<text text-anchor="middle" x="969" y="-76" font-family="Helvetica,sans-Serif" font-size="10.00">_kernel_parallel.cpp</text>
</a>
</g>
</g>
<!-- Node25&#45;&gt;Node30 -->
<g id="edge32" class="edge"><title>Node25&#45;&gt;Node30</title>
<path fill="none" stroke="midnightblue" d="M1165.25,-134.436C1121.96,-123.532 1065.91,-109.412 1024.8,-99.0561"/>
<polygon fill="midnightblue" stroke="midnightblue" points="1164.56,-137.873 1175.12,-136.922 1166.27,-131.085 1164.56,-137.873"/>
</g>
<!-- Node27&#45;&gt;Node28 -->
<g id="edge30" class="edge"><title>Node27&#45;&gt;Node28</title>
<path fill="none" stroke="midnightblue" d="M1266.88,-64.0545C1286.75,-53.5641 1311.03,-40.7434 1329.23,-31.1352"/>
<polygon fill="midnightblue" stroke="midnightblue" points="1265.02,-61.0771 1257.82,-68.8413 1268.29,-67.2672 1265.02,-61.0771"/>
</g>
<!-- Node40&#45;&gt;Node20 -->
<g id="edge45" class="edge"><title>Node40&#45;&gt;Node20</title>
<path fill="none" stroke="midnightblue" d="M1306.15,-398.89C1299.54,-382.577 1293.17,-358.402 1303,-340 1335.32,-279.511 1413.51,-244.401 1454.66,-229.507"/>
<polygon fill="midnightblue" stroke="midnightblue" points="1303.1,-400.632 1310.37,-408.336 1309.49,-397.778 1303.1,-400.632"/>
</g>
<!-- Node41 -->
<g id="node41" class="node"><title>Node41</title>
<g id="a_node41"><a xlink:href="DGF_8cpp_source.xhtml" target="_top" xlink:title="src/IO/DGF.cpp">
<polygon fill="white" stroke="black" points="1311.5,-346.5 1311.5,-365.5 1400.5,-365.5 1400.5,-346.5 1311.5,-346.5"/>
<text text-anchor="middle" x="1356" y="-353.5" font-family="Helvetica,sans-Serif" font-size="10.00">src/IO/DGF.cpp</text>
</a>
</g>
</g>
<!-- Node40&#45;&gt;Node41 -->
<g id="edge46" class="edge"><title>Node40&#45;&gt;Node41</title>
<path fill="none" stroke="midnightblue" d="M1326.71,-399.862C1334.37,-388.652 1344.05,-374.485 1350.14,-365.581"/>
<polygon fill="midnightblue" stroke="midnightblue" points="1323.63,-398.172 1320.87,-408.403 1329.41,-402.122 1323.63,-398.172"/>
</g>
<!-- Node42&#45;&gt;Node20 -->
<g id="edge48" class="edge"><title>Node42&#45;&gt;Node20</title>
<path fill="none" stroke="midnightblue" d="M1431.19,-398.52C1442.75,-357.3 1470.3,-259.145 1478.59,-229.575"/>
<polygon fill="midnightblue" stroke="midnightblue" points="1427.77,-397.751 1428.43,-408.325 1434.51,-399.643 1427.77,-397.751"/>
</g>
<!-- Node43 -->
<g id="node43" class="node"><title>Node43</title>
<g id="a_node43"><a xlink:href="STL_8cpp_source.xhtml" target="_top" xlink:title="src/IO/STL.cpp">
<polygon fill="white" stroke="black" points="1457,-346.5 1457,-365.5 1543,-365.5 1543,-346.5 1457,-346.5"/>
<text text-anchor="middle" x="1500" y="-353.5" font-family="Helvetica,sans-Serif" font-size="10.00">src/IO/STL.cpp</text>
</a>
</g>
</g>
<!-- Node42&#45;&gt;Node43 -->
<g id="edge49" class="edge"><title>Node42&#45;&gt;Node43</title>
<path fill="none" stroke="midnightblue" d="M1444.69,-401.846C1458.84,-390.371 1477.78,-375.02 1489.42,-365.581"/>
<polygon fill="midnightblue" stroke="midnightblue" points="1442.17,-399.387 1436.6,-408.403 1446.57,-404.824 1442.17,-399.387"/>
</g>
<!-- Node46 -->
<g id="node46" class="node"><title>Node46</title>
<g id="a_node46"><a xlink:href="bitpit__LA_8hpp_source.xhtml" target="_top" xlink:title="src/LA/bitpit_LA.hpp">
<polygon fill="white" stroke="black" points="1037,-346.5 1037,-365.5 1143,-365.5 1143,-346.5 1037,-346.5"/>
<text text-anchor="middle" x="1090" y="-353.5" font-family="Helvetica,sans-Serif" font-size="10.00">src/LA/bitpit_LA.hpp</text>
</a>
</g>
</g>
<!-- Node45&#45;&gt;Node46 -->
<g id="edge52" class="edge"><title>Node45&#45;&gt;Node46</title>
<path fill="none" stroke="midnightblue" d="M1163.55,-402.97C1145.03,-391.391 1119.33,-375.331 1103.73,-365.581"/>
<polygon fill="midnightblue" stroke="midnightblue" points="1161.91,-406.071 1172.25,-408.403 1165.62,-400.135 1161.91,-406.071"/>
</g>
<!-- Node47 -->
<g id="node47" class="node"><title>Node47</title>
<g id="a_node47"><a xlink:href="Solve_8cpp_source.xhtml" target="_top" xlink:title="src/LA/Solve.cpp">
<polygon fill="white" stroke="black" points="1161,-346.5 1161,-365.5 1255,-365.5 1255,-346.5 1161,-346.5"/>
<text text-anchor="middle" x="1208" y="-353.5" font-family="Helvetica,sans-Serif" font-size="10.00">src/LA/Solve.cpp</text>
</a>
</g>
</g>
<!-- Node45&#45;&gt;Node47 -->
<g id="edge54" class="edge"><title>Node45&#45;&gt;Node47</title>
<path fill="none" stroke="midnightblue" d="M1192.66,-398.846C1196.7,-387.806 1201.69,-374.218 1204.85,-365.581"/>
<polygon fill="midnightblue" stroke="midnightblue" points="1189.31,-397.81 1189.15,-408.403 1195.88,-400.22 1189.31,-397.81"/>
</g>
<!-- Node46&#45;&gt;Node14 -->
<g id="edge53" class="edge"><title>Node46&#45;&gt;Node14</title>
<path fill="none" stroke="midnightblue" d="M1044.44,-344.106C989.856,-331.052 899.545,-309.456 849.736,-297.546"/>
<polygon fill="midnightblue" stroke="midnightblue" points="1043.66,-347.518 1054.2,-346.439 1045.29,-340.709 1043.66,-347.518"/>
</g>
<!-- Node49 -->
<g id="node49" class="node"><title>Node49</title>
<g id="a_node49"><a xlink:href="bitpit__SA_8hpp_source.xhtml" target="_top" xlink:title="src/SA/bitpit_SA.hpp">
<polygon fill="white" stroke="black" points="954.5,-278.5 954.5,-297.5 1063.5,-297.5 1063.5,-278.5 954.5,-278.5"/>
<text text-anchor="middle" x="1009" y="-285.5" font-family="Helvetica,sans-Serif" font-size="10.00">src/SA/bitpit_SA.hpp</text>
</a>
</g>
</g>
<!-- Node48&#45;&gt;Node49 -->
<g id="edge56" class="edge"><title>Node48&#45;&gt;Node49</title>
<path fill="none" stroke="midnightblue" d="M1029.44,-398.029C1024.15,-369.803 1014.42,-317.892 1010.6,-297.522"/>
<polygon fill="midnightblue" stroke="midnightblue" points="1026.07,-399.018 1031.35,-408.202 1032.95,-397.728 1026.07,-399.018"/>
</g>
<!-- Node48&#45;&gt;Node50 -->
<g id="edge64" class="edge"><title>Node48&#45;&gt;Node50</title>
<path fill="none" stroke="midnightblue" d="M1010.79,-402.97C992.452,-391.391 967.024,-375.331 951.586,-365.581"/>
<polygon fill="midnightblue" stroke="midnightblue" points="1009.06,-406.023 1019.39,-408.403 1012.8,-400.104 1009.06,-406.023"/>
</g>
<!-- Node49&#45;&gt;Node8 -->
<g id="edge61" class="edge"><title>Node49&#45;&gt;Node8</title>
<path fill="none" stroke="midnightblue" d="M1018.78,-269.315C1027.25,-251.355 1036.25,-223.486 1023,-204 1007.43,-181.098 979.814,-168.48 954.12,-161.529"/>
<polygon fill="midnightblue" stroke="midnightblue" points="1015.58,-267.884 1014.15,-278.382 1021.81,-271.07 1015.58,-267.884"/>
</g>
<!-- Node49&#45;&gt;Node10 -->
<g id="edge63" class="edge"><title>Node49&#45;&gt;Node10</title>
<path fill="none" stroke="midnightblue" d="M1010.15,-268.181C1010.21,-249.031 1006.99,-219.964 989,-204 963.16,-181.064 753.51,-164.858 636.046,-157.481"/>
<polygon fill="midnightblue" stroke="midnightblue" points="1006.65,-268.266 1009.82,-278.376 1013.65,-268.498 1006.65,-268.266"/>
</g>
<!-- Node49&#45;&gt;Node12 -->
<g id="edge57" class="edge"><title>Node49&#45;&gt;Node12</title>
<path fill="none" stroke="midnightblue" d="M944.031,-278.055C875.332,-268.416 763.85,-252.261 668,-236 656.439,-234.039 643.959,-231.749 632.408,-229.559"/>
<polygon fill="midnightblue" stroke="midnightblue" points="943.877,-281.568 954.265,-279.487 944.847,-274.635 943.877,-281.568"/>
</g>
<!-- Node49&#45;&gt;Node15 -->
<g id="edge60" class="edge"><title>Node49&#45;&gt;Node15</title>
<path fill="none" stroke="midnightblue" d="M964.432,-276.024C911.395,-262.963 823.965,-241.432 775.7,-229.546"/>
<polygon fill="midnightblue" stroke="midnightblue" points="963.692,-279.446 974.238,-278.439 965.365,-272.65 963.692,-279.446"/>
</g>
<!-- Node49&#45;&gt;Node16 -->
<g id="edge62" class="edge"><title>Node49&#45;&gt;Node16</title>
<path fill="none" stroke="midnightblue" d="M986.284,-272.988C964.998,-259.858 933.857,-240.65 915.992,-229.63"/>
<polygon fill="midnightblue" stroke="midnightblue" points="984.663,-276.101 995.012,-278.372 988.338,-270.143 984.663,-276.101"/>
</g>
<!-- Node49&#45;&gt;Node29 -->
<g id="edge58" class="edge"><title>Node49&#45;&gt;Node29</title>
<path fill="none" stroke="midnightblue" d="M1027.25,-271.596C1037.31,-262.227 1049.29,-249.493 1057,-236 1083.29,-190.011 1095,-127.008 1099.13,-99.1882"/>
<polygon fill="midnightblue" stroke="midnightblue" points="1024.83,-269.063 1019.71,-278.338 1029.5,-274.281 1024.83,-269.063"/>
</g>
<!-- Node49&#45;&gt;Node30 -->
<g id="edge59" class="edge"><title>Node49&#45;&gt;Node30</title>
<path fill="none" stroke="midnightblue" d="M1022.84,-270.304C1029.76,-260.867 1037.41,-248.484 1041,-236 1044.93,-222.332 1044.82,-217.699 1041,-204 1029.32,-162.134 998.47,-120.31 981.181,-99.1673"/>
<polygon fill="midnightblue" stroke="midnightblue" points="1019.96,-268.312 1016.59,-278.357 1025.49,-272.605 1019.96,-268.312"/>
</g>
</g>
</svg>
