<?xml version="1.0" encoding="UTF-8" standalone="no"?>
<!DOCTYPE svg PUBLIC "-//W3C//DTD SVG 1.1//EN"
 "http://www.w3.org/Graphics/SVG/1.1/DTD/svg11.dtd">
<!-- Generated by graphviz version 2.34.0 (20140112.1130)
 -->
<!-- Title: bitpit::PiercedVector&lt; value_t, id_t &gt;::positionLess Pages: 1 -->
<svg width="160pt" height="200pt"
 viewBox="0.00 0.00 160.00 200.00" xmlns="http://www.w3.org/2000/svg" xmlns:xlink="http://www.w3.org/1999/xlink">
<g id="graph0" class="graph" transform="scale(1 1) rotate(0) translate(4 196)">
<title>bitpit::PiercedVector&lt; value_t, id_t &gt;::positionLess</title>
<polygon fill="white" stroke="white" points="-4,4 -4,-196 156,-196 156,4 -4,4"/>
<!-- Node1 -->
<g id="node1" class="node"><title>Node1</title>
<polygon fill="#bfbfbf" stroke="black" points="-0.5,-1 -0.5,-31 152.5,-31 152.5,-1 -0.5,-1"/>
<text text-anchor="start" x="7.5" y="-19" font-family="Helvetica,sans-Serif" font-size="10.00">bitpit::PiercedVector</text>
<text text-anchor="middle" x="76" y="-8" font-family="Helvetica,sans-Serif" font-size="10.00">&lt; value_t, id_t &gt;::positionLess</text>
</g>
<!-- Node2 -->
<g id="node2" class="node"><title>Node2</title>
<g id="a_node2"><a xlink:href="classbitpit_1_1PiercedVector.xhtml" target="_top" xlink:title="bitpit::PiercedVector\l\&lt; value_t \&gt;">
<polygon fill="white" stroke="black" points="22,-81 22,-111 130,-111 130,-81 22,-81"/>
<text text-anchor="start" x="30" y="-99" font-family="Helvetica,sans-Serif" font-size="10.00">bitpit::PiercedVector</text>
<text text-anchor="middle" x="76" y="-88" font-family="Helvetica,sans-Serif" font-size="10.00">&lt; value_t &gt;</text>
</a>
</g>
</g>
<!-- Node2&#45;&gt;Node1 -->
<g id="edge1" class="edge"><title>Node2&#45;&gt;Node1</title>
<path fill="none" stroke="#9a32cd" stroke-dasharray="5,2" d="M76,-70.5644C76,-57.6243 76,-42.1862 76,-31.2157"/>
<polygon fill="#9a32cd" stroke="#9a32cd" points="72.5001,-70.6936 76,-80.6936 79.5001,-70.6936 72.5001,-70.6936"/>
<text text-anchor="middle" x="98.5" y="-53.5" font-family="Helvetica,sans-Serif" font-size="10.00"> m_vector</text>
</g>
<!-- Node3 -->
<g id="node3" class="node"><title>Node3</title>
<g id="a_node3"><a xlink:href="classbitpit_1_1PiercedVector.xhtml" target="_top" xlink:title="Metafunction for generating a pierced vector. ">
<polygon fill="white" stroke="black" points="22,-161 22,-191 130,-191 130,-161 22,-161"/>
<text text-anchor="start" x="30" y="-179" font-family="Helvetica,sans-Serif" font-size="10.00">bitpit::PiercedVector</text>
<text text-anchor="middle" x="76" y="-168" font-family="Helvetica,sans-Serif" font-size="10.00">&lt; value_t, id_t &gt;</text>
</a>
</g>
</g>
<!-- Node3&#45;&gt;Node2 -->
<g id="edge2" class="edge"><title>Node3&#45;&gt;Node2</title>
<path fill="none" stroke="orange" stroke-dasharray="5,2" d="M76,-150.564C76,-137.624 76,-122.186 76,-111.216"/>
<polygon fill="orange" stroke="orange" points="72.5001,-150.694 76,-160.694 79.5001,-150.694 72.5001,-150.694"/>
<text text-anchor="middle" x="103.5" y="-133.5" font-family="Helvetica,sans-Serif" font-size="10.00"> &lt; value_t &gt;</text>
</g>
</g>
</svg>
