<?xml version="1.0" encoding="UTF-8" standalone="no"?>
<!DOCTYPE svg PUBLIC "-//W3C//DTD SVG 1.1//EN"
 "http://www.w3.org/Graphics/SVG/1.1/DTD/svg11.dtd">
<!-- Generated by graphviz version 2.34.0 (20140112.1130)
 -->
<!-- Title: bitpit::log::LoggerManipulator&lt; T &gt; Pages: 1 -->
<svg width="182pt" height="154pt"
 viewBox="0.00 0.00 182.00 154.00" xmlns="http://www.w3.org/2000/svg" xmlns:xlink="http://www.w3.org/1999/xlink">
<g id="graph0" class="graph" transform="scale(1 1) rotate(0) translate(4 150)">
<title>bitpit::log::LoggerManipulator&lt; T &gt;</title>
<polygon fill="white" stroke="white" points="-4,4 -4,-150 178,-150 178,4 -4,4"/>
<!-- Node1 -->
<g id="node1" class="node"><title>Node1</title>
<polygon fill="#bfbfbf" stroke="black" points="-1,-0.5 -1,-19.5 175,-19.5 175,-0.5 -1,-0.5"/>
<text text-anchor="middle" x="87" y="-7.5" font-family="Helvetica,sans-Serif" font-size="10.00">bitpit::log::LoggerManipulator&lt; T &gt;</text>
</g>
<!-- Node2 -->
<g id="node2" class="node"><title>Node2</title>
<g id="a_node2"><a xlink:href="classbitpit_1_1Logger.xhtml" target="_top" xlink:title="Message logger. ">
<polygon fill="white" stroke="black" points="49,-68.5 49,-87.5 125,-87.5 125,-68.5 49,-68.5"/>
<text text-anchor="middle" x="87" y="-75.5" font-family="Helvetica,sans-Serif" font-size="10.00">bitpit::Logger</text>
</a>
</g>
</g>
<!-- Node2&#45;&gt;Node1 -->
<g id="edge1" class="edge"><title>Node2&#45;&gt;Node1</title>
<path fill="none" stroke="#9a32cd" stroke-dasharray="5,2" d="M87,-58.0413C87,-45.4724 87,-29.5631 87,-19.8411"/>
<polygon fill="#9a32cd" stroke="#9a32cd" points="83.5001,-58.3716 87,-68.3717 90.5001,-58.3717 83.5001,-58.3716"/>
<text text-anchor="middle" x="90" y="-41.5" font-family="Helvetica,sans-Serif" font-size="10.00"> f</text>
</g>
<!-- Node3 -->
<g id="node3" class="node"><title>Node3</title>
<polygon fill="white" stroke="#bfbfbf" points="50.5,-126.5 50.5,-145.5 123.5,-145.5 123.5,-126.5 50.5,-126.5"/>
<text text-anchor="middle" x="87" y="-133.5" font-family="Helvetica,sans-Serif" font-size="10.00">std::ostream</text>
</g>
<!-- Node3&#45;&gt;Node2 -->
<g id="edge2" class="edge"><title>Node3&#45;&gt;Node2</title>
<path fill="none" stroke="midnightblue" d="M87,-115.953C87,-106.287 87,-95.0312 87,-87.5052"/>
<polygon fill="midnightblue" stroke="midnightblue" points="83.5001,-116.25 87,-126.25 90.5001,-116.25 83.5001,-116.25"/>
</g>
</g>
</svg>
