<?xml version="1.0" encoding="UTF-8" standalone="no"?>
<!DOCTYPE svg PUBLIC "-//W3C//DTD SVG 1.1//EN"
 "http://www.w3.org/Graphics/SVG/1.1/DTD/svg11.dtd">
<!-- Generated by graphviz version 2.34.0 (20140112.1130)
 -->
<!-- Title: bitpit::PiercedVector&lt; value_t, id_t &gt;::positionGreater Pages: 1 -->
<svg width="138pt" height="210pt"
 viewBox="0.00 0.00 138.00 210.00" xmlns="http://www.w3.org/2000/svg" xmlns:xlink="http://www.w3.org/1999/xlink">
<g id="graph0" class="graph" transform="scale(1 1) rotate(0) translate(4 206)">
<title>bitpit::PiercedVector&lt; value_t, id_t &gt;::positionGreater</title>
<polygon fill="white" stroke="white" points="-4,4 -4,-206 134,-206 134,4 -4,4"/>
<!-- Node1 -->
<g id="node1" class="node"><title>Node1</title>
<polygon fill="#bfbfbf" stroke="black" points="-0.5,-0.5 -0.5,-41.5 130.5,-41.5 130.5,-0.5 -0.5,-0.5"/>
<text text-anchor="start" x="7.5" y="-29.5" font-family="Helvetica,sans-Serif" font-size="10.00">bitpit::PiercedVector</text>
<text text-anchor="start" x="7.5" y="-18.5" font-family="Helvetica,sans-Serif" font-size="10.00">&lt; value_t, id_t &gt;::position</text>
<text text-anchor="middle" x="65" y="-7.5" font-family="Helvetica,sans-Serif" font-size="10.00">Greater</text>
</g>
<!-- Node2 -->
<g id="node2" class="node"><title>Node2</title>
<g id="a_node2"><a xlink:href="classbitpit_1_1PiercedVector.xhtml" target="_top" xlink:title="bitpit::PiercedVector\l\&lt; value_t \&gt;">
<polygon fill="white" stroke="black" points="11,-91 11,-121 119,-121 119,-91 11,-91"/>
<text text-anchor="start" x="19" y="-109" font-family="Helvetica,sans-Serif" font-size="10.00">bitpit::PiercedVector</text>
<text text-anchor="middle" x="65" y="-98" font-family="Helvetica,sans-Serif" font-size="10.00">&lt; value_t &gt;</text>
</a>
</g>
</g>
<!-- Node2&#45;&gt;Node1 -->
<g id="edge1" class="edge"><title>Node2&#45;&gt;Node1</title>
<path fill="none" stroke="#9a32cd" stroke-dasharray="5,2" d="M65,-80.8051C65,-68.3941 65,-53.4676 65,-41.7587"/>
<polygon fill="#9a32cd" stroke="#9a32cd" points="61.5001,-80.9201 65,-90.9202 68.5001,-80.9202 61.5001,-80.9201"/>
<text text-anchor="middle" x="87.5" y="-63.5" font-family="Helvetica,sans-Serif" font-size="10.00"> m_vector</text>
</g>
<!-- Node3 -->
<g id="node3" class="node"><title>Node3</title>
<g id="a_node3"><a xlink:href="classbitpit_1_1PiercedVector.xhtml" target="_top" xlink:title="Metafunction for generating a pierced vector. ">
<polygon fill="white" stroke="black" points="11,-171 11,-201 119,-201 119,-171 11,-171"/>
<text text-anchor="start" x="19" y="-189" font-family="Helvetica,sans-Serif" font-size="10.00">bitpit::PiercedVector</text>
<text text-anchor="middle" x="65" y="-178" font-family="Helvetica,sans-Serif" font-size="10.00">&lt; value_t, id_t &gt;</text>
</a>
</g>
</g>
<!-- Node3&#45;&gt;Node2 -->
<g id="edge2" class="edge"><title>Node3&#45;&gt;Node2</title>
<path fill="none" stroke="orange" stroke-dasharray="5,2" d="M65,-160.564C65,-147.624 65,-132.186 65,-121.216"/>
<polygon fill="orange" stroke="orange" points="61.5001,-160.694 65,-170.694 68.5001,-160.694 61.5001,-160.694"/>
<text text-anchor="middle" x="92.5" y="-143.5" font-family="Helvetica,sans-Serif" font-size="10.00"> &lt; value_t &gt;</text>
</g>
</g>
</svg>
