<?xml version="1.0" encoding="UTF-8" standalone="no"?>
<!DOCTYPE svg PUBLIC "-//W3C//DTD SVG 1.1//EN"
 "http://www.w3.org/Graphics/SVG/1.1/DTD/svg11.dtd">
<!-- Generated by graphviz version 2.34.0 (20140112.1130)
 -->
<!-- Title: src/common/utils.hpp Pages: 1 -->
<svg width="2124pt" height="648pt"
 viewBox="0.00 0.00 2124.00 648.00" xmlns="http://www.w3.org/2000/svg" xmlns:xlink="http://www.w3.org/1999/xlink">
<g id="graph0" class="graph" transform="scale(1 1) rotate(0) translate(4 644)">
<title>src/common/utils.hpp</title>
<polygon fill="white" stroke="white" points="-4,4 -4,-644 2120,-644 2120,4 -4,4"/>
<!-- Node1 -->
<g id="node1" class="node"><title>Node1</title>
<polygon fill="#bfbfbf" stroke="black" points="1174.5,-620.5 1174.5,-639.5 1287.5,-639.5 1287.5,-620.5 1174.5,-620.5"/>
<text text-anchor="middle" x="1231" y="-627.5" font-family="Helvetica,sans-Serif" font-size="10.00">src/common/utils.hpp</text>
</g>
<!-- Node2 -->
<g id="node2" class="node"><title>Node2</title>
<g id="a_node2"><a xlink:href="bitpit__common_8hpp_source.xhtml" target="_top" xlink:title="src/common/bitpit_common.hpp">
<polygon fill="white" stroke="black" points="1078.5,-508.5 1078.5,-527.5 1239.5,-527.5 1239.5,-508.5 1078.5,-508.5"/>
<text text-anchor="middle" x="1159" y="-515.5" font-family="Helvetica,sans-Serif" font-size="10.00">src/common/bitpit_common.hpp</text>
</a>
</g>
</g>
<!-- Node1&#45;&gt;Node2 -->
<g id="edge1" class="edge"><title>Node1&#45;&gt;Node2</title>
<path fill="none" stroke="midnightblue" d="M1219.84,-611.957C1204.24,-588.118 1176.48,-545.709 1164.62,-527.591"/>
<polygon fill="midnightblue" stroke="midnightblue" points="1216.95,-613.918 1225.35,-620.368 1222.8,-610.085 1216.95,-613.918"/>
</g>
<!-- Node22 -->
<g id="node22" class="node"><title>Node22</title>
<g id="a_node22"><a xlink:href="patch__kernel_8cpp_source.xhtml" target="_top" xlink:title="src/patchkernel/patch\l_kernel.cpp">
<polygon fill="white" stroke="black" points="0,-205 0,-235 114,-235 114,-205 0,-205"/>
<text text-anchor="start" x="8" y="-223" font-family="Helvetica,sans-Serif" font-size="10.00">src/patchkernel/patch</text>
<text text-anchor="middle" x="57" y="-212" font-family="Helvetica,sans-Serif" font-size="10.00">_kernel.cpp</text>
</a>
</g>
</g>
<!-- Node1&#45;&gt;Node22 -->
<g id="edge62" class="edge"><title>Node1&#45;&gt;Node22</title>
<path fill="none" stroke="midnightblue" d="M1164.18,-628.63C972.439,-627.144 422.969,-619.793 247,-584 165.695,-567.462 72,-601.97 72,-519 72,-519 72,-519 72,-349 72,-307.384 64.0816,-258.671 59.7512,-235.142"/>
<polygon fill="midnightblue" stroke="midnightblue" points="1164.37,-632.132 1174.39,-628.707 1164.42,-625.132 1164.37,-632.132"/>
</g>
<!-- Node43 -->
<g id="node43" class="node"><title>Node43</title>
<g id="a_node43"><a xlink:href="interface_8cpp_source.xhtml" target="_top" xlink:title="src/patchkernel/interface.cpp">
<polygon fill="white" stroke="black" points="1968,-452.5 1968,-471.5 2116,-471.5 2116,-452.5 1968,-452.5"/>
<text text-anchor="middle" x="2042" y="-459.5" font-family="Helvetica,sans-Serif" font-size="10.00">src/patchkernel/interface.cpp</text>
</a>
</g>
</g>
<!-- Node1&#45;&gt;Node43 -->
<g id="edge61" class="edge"><title>Node1&#45;&gt;Node43</title>
<path fill="none" stroke="midnightblue" d="M1241.25,-611.045C1250.96,-595.834 1267.02,-574.822 1287,-564 1316.82,-547.853 1783.59,-492.737 1967.93,-471.468"/>
<polygon fill="midnightblue" stroke="midnightblue" points="1237.99,-609.67 1235.81,-620.037 1243.98,-613.294 1237.99,-609.67"/>
</g>
<!-- Node46 -->
<g id="node46" class="node"><title>Node46</title>
<g id="a_node46"><a xlink:href="utils_8cpp_source.xhtml" target="_top" xlink:title="src/common/utils.cpp">
<polygon fill="white" stroke="black" points="1296.5,-564.5 1296.5,-583.5 1409.5,-583.5 1409.5,-564.5 1296.5,-564.5"/>
<text text-anchor="middle" x="1353" y="-571.5" font-family="Helvetica,sans-Serif" font-size="10.00">src/common/utils.cpp</text>
</a>
</g>
</g>
<!-- Node1&#45;&gt;Node46 -->
<g id="edge54" class="edge"><title>Node1&#45;&gt;Node46</title>
<path fill="none" stroke="midnightblue" d="M1259.54,-616.368C1282.39,-606.255 1313.81,-592.349 1333.76,-583.516"/>
<polygon fill="midnightblue" stroke="midnightblue" points="1258.06,-613.196 1250.33,-620.444 1260.89,-619.597 1258.06,-613.196"/>
</g>
<!-- Node47 -->
<g id="node47" class="node"><title>Node47</title>
<g id="a_node47"><a xlink:href="utilsString_8cpp_source.xhtml" target="_top" xlink:title="src/common/utilsString.cpp">
<polygon fill="white" stroke="black" points="1428,-564.5 1428,-583.5 1568,-583.5 1568,-564.5 1428,-564.5"/>
<text text-anchor="middle" x="1498" y="-571.5" font-family="Helvetica,sans-Serif" font-size="10.00">src/common/utilsString.cpp</text>
</a>
</g>
</g>
<!-- Node1&#45;&gt;Node47 -->
<g id="edge55" class="edge"><title>Node1&#45;&gt;Node47</title>
<path fill="none" stroke="midnightblue" d="M1283.36,-618.41C1333.82,-608.204 1409.2,-592.96 1455.89,-583.516"/>
<polygon fill="midnightblue" stroke="midnightblue" points="1282.41,-615.031 1273.31,-620.444 1283.8,-621.892 1282.41,-615.031"/>
</g>
<!-- Node48 -->
<g id="node48" class="node"><title>Node48</title>
<g id="a_node48"><a xlink:href="logger_8hpp_source.xhtml" target="_top" xlink:title="src/IO/logger.hpp">
<polygon fill="white" stroke="black" points="256,-564.5 256,-583.5 352,-583.5 352,-564.5 256,-564.5"/>
<text text-anchor="middle" x="304" y="-571.5" font-family="Helvetica,sans-Serif" font-size="10.00">src/IO/logger.hpp</text>
</a>
</g>
</g>
<!-- Node1&#45;&gt;Node48 -->
<g id="edge56" class="edge"><title>Node1&#45;&gt;Node48</title>
<path fill="none" stroke="midnightblue" d="M1164.16,-625.106C986.597,-614.763 506.165,-586.777 352.185,-577.807"/>
<polygon fill="midnightblue" stroke="midnightblue" points="1164.22,-628.616 1174.41,-625.703 1164.63,-621.628 1164.22,-628.616"/>
</g>
<!-- Node3 -->
<g id="node3" class="node"><title>Node3</title>
<g id="a_node3"><a xlink:href="VTK_8hpp_source.xhtml" target="_top" xlink:title="src/IO/VTK.hpp">
<polygon fill="white" stroke="black" points="656,-396.5 656,-415.5 744,-415.5 744,-396.5 656,-396.5"/>
<text text-anchor="middle" x="700" y="-403.5" font-family="Helvetica,sans-Serif" font-size="10.00">src/IO/VTK.hpp</text>
</a>
</g>
</g>
<!-- Node2&#45;&gt;Node3 -->
<g id="edge2" class="edge"><title>Node2&#45;&gt;Node3</title>
<path fill="none" stroke="midnightblue" d="M1230.72,-506.979C1291.53,-497.746 1370.41,-483.741 1380,-472 1385.62,-465.116 1386.07,-458.49 1380,-452 1336.62,-405.653 888.019,-405.389 744.146,-406.514"/>
<polygon fill="midnightblue" stroke="midnightblue" points="1230.11,-503.53 1220.74,-508.475 1231.15,-510.453 1230.11,-503.53"/>
</g>
<!-- Node10 -->
<g id="node10" class="node"><title>Node10</title>
<g id="a_node10"><a xlink:href="ParaTree_8cpp_source.xhtml" target="_top" xlink:title="src/PABLO/ParaTree.cpp">
<polygon fill="white" stroke="black" points="1060,-210.5 1060,-229.5 1194,-229.5 1194,-210.5 1060,-210.5"/>
<text text-anchor="middle" x="1127" y="-217.5" font-family="Helvetica,sans-Serif" font-size="10.00">src/PABLO/ParaTree.cpp</text>
</a>
</g>
</g>
<!-- Node2&#45;&gt;Node10 -->
<g id="edge46" class="edge"><title>Node2&#45;&gt;Node10</title>
<path fill="none" stroke="midnightblue" d="M1128.91,-503.903C1106.92,-492.247 1082.62,-473.71 1093,-452 1123.63,-387.917 1227.71,-407.94 1207,-340 1192.7,-293.09 1153.03,-247.908 1135.51,-229.574"/>
<polygon fill="midnightblue" stroke="midnightblue" points="1127.57,-507.146 1138.08,-508.467 1130.69,-500.879 1127.57,-507.146"/>
</g>
<!-- Node17 -->
<g id="node17" class="node"><title>Node17</title>
<g id="a_node17"><a xlink:href="surfunstructured_8cpp_source.xhtml" target="_top" xlink:title="src/surfunstructured\l/surfunstructured.cpp">
<polygon fill="white" stroke="black" points="1165.5,-1 1165.5,-31 1278.5,-31 1278.5,-1 1165.5,-1"/>
<text text-anchor="start" x="1173.5" y="-19" font-family="Helvetica,sans-Serif" font-size="10.00">src/surfunstructured</text>
<text text-anchor="middle" x="1222" y="-8" font-family="Helvetica,sans-Serif" font-size="10.00">/surfunstructured.cpp</text>
</a>
</g>
</g>
<!-- Node2&#45;&gt;Node17 -->
<g id="edge51" class="edge"><title>Node2&#45;&gt;Node17</title>
<path fill="none" stroke="midnightblue" d="M1249.99,-512.988C1324.27,-507.943 1421.73,-496.715 1452,-472 1475.85,-452.523 1476,-437.795 1476,-407 1476,-407 1476,-407 1476,-151 1476,-112.6 1480,-94.2805 1452,-68 1427.32,-44.8368 1338.43,-30.3079 1278.66,-22.9302"/>
<polygon fill="midnightblue" stroke="midnightblue" points="1249.42,-509.517 1239.67,-513.66 1249.88,-516.503 1249.42,-509.517"/>
</g>
<!-- Node19 -->
<g id="node19" class="node"><title>Node19</title>
<g id="a_node19"><a xlink:href="volcartesian_8cpp_source.xhtml" target="_top" xlink:title="src/volcartesian/volcartesian.cpp">
<polygon fill="white" stroke="black" points="507.5,-6.5 507.5,-25.5 674.5,-25.5 674.5,-6.5 507.5,-6.5"/>
<text text-anchor="middle" x="591" y="-13.5" font-family="Helvetica,sans-Serif" font-size="10.00">src/volcartesian/volcartesian.cpp</text>
</a>
</g>
</g>
<!-- Node2&#45;&gt;Node19 -->
<g id="edge52" class="edge"><title>Node2&#45;&gt;Node19</title>
<path fill="none" stroke="midnightblue" d="M1249.71,-507.415C1306.45,-499.997 1373.14,-488.235 1397,-472 1425.24,-452.786 1438,-441.156 1438,-407 1438,-407 1438,-407 1438,-151 1438,-112.431 882.873,-48.4867 671.447,-25.5313"/>
<polygon fill="midnightblue" stroke="midnightblue" points="1249.09,-503.967 1239.61,-508.705 1249.97,-510.91 1249.09,-503.967"/>
</g>
<!-- Node32 -->
<g id="node32" class="node"><title>Node32</title>
<g id="a_node32"><a xlink:href="GenericIO_8hpp_source.xhtml" target="_top" xlink:title="src/IO/GenericIO.hpp">
<polygon fill="white" stroke="black" points="214.5,-452.5 214.5,-471.5 329.5,-471.5 329.5,-452.5 214.5,-452.5"/>
<text text-anchor="middle" x="272" y="-459.5" font-family="Helvetica,sans-Serif" font-size="10.00">src/IO/GenericIO.hpp</text>
</a>
</g>
</g>
<!-- Node2&#45;&gt;Node32 -->
<g id="edge34" class="edge"><title>Node2&#45;&gt;Node32</title>
<path fill="none" stroke="midnightblue" d="M1068.24,-514.421C916.692,-509.578 602.626,-497.253 338,-472 335.237,-471.736 332.412,-471.443 329.561,-471.128"/>
<polygon fill="midnightblue" stroke="midnightblue" points="1068.32,-517.926 1078.43,-514.743 1068.55,-510.929 1068.32,-517.926"/>
</g>
<!-- Node34 -->
<g id="node34" class="node"><title>Node34</title>
<g id="a_node34"><a xlink:href="DGF_8hpp_source.xhtml" target="_top" xlink:title="src/IO/DGF.hpp">
<polygon fill="white" stroke="black" points="556.5,-452.5 556.5,-471.5 645.5,-471.5 645.5,-452.5 556.5,-452.5"/>
<text text-anchor="middle" x="601" y="-459.5" font-family="Helvetica,sans-Serif" font-size="10.00">src/IO/DGF.hpp</text>
</a>
</g>
</g>
<!-- Node2&#45;&gt;Node34 -->
<g id="edge38" class="edge"><title>Node2&#45;&gt;Node34</title>
<path fill="none" stroke="midnightblue" d="M1068.13,-511.083C966.845,-503.982 798.318,-490.654 654,-472 651.316,-471.653 648.559,-471.269 645.782,-470.861"/>
<polygon fill="midnightblue" stroke="midnightblue" points="1068.1,-514.59 1078.32,-511.793 1068.59,-507.607 1068.1,-514.59"/>
</g>
<!-- Node36 -->
<g id="node36" class="node"><title>Node36</title>
<g id="a_node36"><a xlink:href="FileHandler_8cpp_source.xhtml" target="_top" xlink:title="src/IO/FileHandler.cpp">
<polygon fill="white" stroke="black" points="663.5,-452.5 663.5,-471.5 782.5,-471.5 782.5,-452.5 663.5,-452.5"/>
<text text-anchor="middle" x="723" y="-459.5" font-family="Helvetica,sans-Serif" font-size="10.00">src/IO/FileHandler.cpp</text>
</a>
</g>
</g>
<!-- Node2&#45;&gt;Node36 -->
<g id="edge41" class="edge"><title>Node2&#45;&gt;Node36</title>
<path fill="none" stroke="midnightblue" d="M1078.05,-507.256C1003.67,-498.259 890.383,-484.448 792,-472 789.004,-471.621 785.935,-471.23 782.836,-470.833"/>
<polygon fill="midnightblue" stroke="midnightblue" points="1077.93,-510.767 1088.28,-508.492 1078.77,-503.818 1077.93,-510.767"/>
</g>
<!-- Node37 -->
<g id="node37" class="node"><title>Node37</title>
<g id="a_node37"><a xlink:href="STL_8cpp_source.xhtml" target="_top" xlink:title="src/IO/STL.cpp">
<polygon fill="white" stroke="black" points="801,-452.5 801,-471.5 887,-471.5 887,-452.5 801,-452.5"/>
<text text-anchor="middle" x="844" y="-459.5" font-family="Helvetica,sans-Serif" font-size="10.00">src/IO/STL.cpp</text>
</a>
</g>
</g>
<!-- Node2&#45;&gt;Node37 -->
<g id="edge42" class="edge"><title>Node2&#45;&gt;Node37</title>
<path fill="none" stroke="midnightblue" d="M1099.1,-506.785C1045.79,-497.685 965.693,-483.993 896,-472 893.111,-471.503 890.131,-470.989 887.129,-470.471"/>
<polygon fill="midnightblue" stroke="midnightblue" points="1098.62,-510.253 1109.07,-508.485 1099.8,-503.353 1098.62,-510.253"/>
</g>
<!-- Node38 -->
<g id="node38" class="node"><title>Node38</title>
<g id="a_node38"><a xlink:href="CG__algorithms_8cpp_source.xhtml" target="_top" xlink:title="src/CG/CG_algorithms.cpp">
<polygon fill="white" stroke="black" points="905.5,-452.5 905.5,-471.5 1044.5,-471.5 1044.5,-452.5 905.5,-452.5"/>
<text text-anchor="middle" x="975" y="-459.5" font-family="Helvetica,sans-Serif" font-size="10.00">src/CG/CG_algorithms.cpp</text>
</a>
</g>
</g>
<!-- Node2&#45;&gt;Node38 -->
<g id="edge43" class="edge"><title>Node2&#45;&gt;Node38</title>
<path fill="none" stroke="midnightblue" d="M1120.05,-505.568C1085.34,-495.381 1035.32,-480.703 1004.02,-471.516"/>
<polygon fill="midnightblue" stroke="midnightblue" points="1119.26,-508.986 1129.84,-508.444 1121.23,-502.269 1119.26,-508.986"/>
</g>
<!-- Node39 -->
<g id="node39" class="node"><title>Node39</title>
<g id="a_node39"><a xlink:href="CG__elem_8cpp_source.xhtml" target="_top" xlink:title="src/CG/CG_elem.cpp">
<polygon fill="white" stroke="black" points="1101.5,-452.5 1101.5,-471.5 1216.5,-471.5 1216.5,-452.5 1101.5,-452.5"/>
<text text-anchor="middle" x="1159" y="-459.5" font-family="Helvetica,sans-Serif" font-size="10.00">src/CG/CG_elem.cpp</text>
</a>
</g>
</g>
<!-- Node2&#45;&gt;Node39 -->
<g id="edge44" class="edge"><title>Node2&#45;&gt;Node39</title>
<path fill="none" stroke="midnightblue" d="M1159,-497.805C1159,-488.91 1159,-478.78 1159,-471.751"/>
<polygon fill="midnightblue" stroke="midnightblue" points="1155.5,-498.083 1159,-508.083 1162.5,-498.083 1155.5,-498.083"/>
</g>
<!-- Node40 -->
<g id="node40" class="node"><title>Node40</title>
<g id="a_node40"><a xlink:href="LocalTree_8cpp_source.xhtml" target="_top" xlink:title="src/PABLO/LocalTree.cpp">
<polygon fill="white" stroke="black" points="1234.5,-452.5 1234.5,-471.5 1371.5,-471.5 1371.5,-452.5 1234.5,-452.5"/>
<text text-anchor="middle" x="1303" y="-459.5" font-family="Helvetica,sans-Serif" font-size="10.00">src/PABLO/LocalTree.cpp</text>
</a>
</g>
</g>
<!-- Node2&#45;&gt;Node40 -->
<g id="edge45" class="edge"><title>Node2&#45;&gt;Node40</title>
<path fill="none" stroke="midnightblue" d="M1191.25,-504.906C1218.32,-494.754 1256.32,-480.506 1280.29,-471.516"/>
<polygon fill="midnightblue" stroke="midnightblue" points="1189.95,-501.655 1181.82,-508.444 1192.41,-508.209 1189.95,-501.655"/>
</g>
<!-- Node41 -->
<g id="node41" class="node"><title>Node41</title>
<g id="a_node41"><a xlink:href="cell_8cpp_source.xhtml" target="_top" xlink:title="src/patchkernel/cell.cpp">
<polygon fill="white" stroke="black" points="1504.5,-452.5 1504.5,-471.5 1629.5,-471.5 1629.5,-452.5 1504.5,-452.5"/>
<text text-anchor="middle" x="1567" y="-459.5" font-family="Helvetica,sans-Serif" font-size="10.00">src/patchkernel/cell.cpp</text>
</a>
</g>
</g>
<!-- Node2&#45;&gt;Node41 -->
<g id="edge47" class="edge"><title>Node2&#45;&gt;Node41</title>
<path fill="none" stroke="midnightblue" d="M1233.84,-507.094C1311.48,-496.819 1431.52,-480.931 1504.33,-471.295"/>
<polygon fill="midnightblue" stroke="midnightblue" points="1233.1,-503.662 1223.65,-508.444 1234.02,-510.601 1233.1,-503.662"/>
</g>
<!-- Node42 -->
<g id="node42" class="node"><title>Node42</title>
<g id="a_node42"><a xlink:href="element_8cpp_source.xhtml" target="_top" xlink:title="src/patchkernel/element.cpp">
<polygon fill="white" stroke="black" points="1648,-452.5 1648,-471.5 1794,-471.5 1794,-452.5 1648,-452.5"/>
<text text-anchor="middle" x="1721" y="-459.5" font-family="Helvetica,sans-Serif" font-size="10.00">src/patchkernel/element.cpp</text>
</a>
</g>
</g>
<!-- Node2&#45;&gt;Node42 -->
<g id="edge48" class="edge"><title>Node2&#45;&gt;Node42</title>
<path fill="none" stroke="midnightblue" d="M1249.56,-508.419C1251.05,-508.278 1252.53,-508.138 1254,-508 1424.66,-491.917 1467.45,-489.24 1638,-472 1641.17,-471.679 1644.41,-471.347 1647.69,-471.008"/>
<polygon fill="midnightblue" stroke="midnightblue" points="1249.22,-504.935 1239.59,-509.359 1249.88,-511.904 1249.22,-504.935"/>
</g>
<!-- Node2&#45;&gt;Node43 -->
<g id="edge49" class="edge"><title>Node2&#45;&gt;Node43</title>
<path fill="none" stroke="midnightblue" d="M1249.55,-508.332C1251.04,-508.218 1252.53,-508.107 1254,-508 1566.47,-485.22 1645.68,-496.698 1958,-472 1961.22,-471.746 1964.5,-471.469 1967.82,-471.174"/>
<polygon fill="midnightblue" stroke="midnightblue" points="1249.26,-504.843 1239.57,-509.123 1249.82,-511.821 1249.26,-504.843"/>
</g>
<!-- Node44 -->
<g id="node44" class="node"><title>Node44</title>
<g id="a_node44"><a xlink:href="vertex_8cpp_source.xhtml" target="_top" xlink:title="src/patchkernel/vertex.cpp">
<polygon fill="white" stroke="black" points="1812.5,-452.5 1812.5,-471.5 1949.5,-471.5 1949.5,-452.5 1812.5,-452.5"/>
<text text-anchor="middle" x="1881" y="-459.5" font-family="Helvetica,sans-Serif" font-size="10.00">src/patchkernel/vertex.cpp</text>
</a>
</g>
</g>
<!-- Node2&#45;&gt;Node44 -->
<g id="edge50" class="edge"><title>Node2&#45;&gt;Node44</title>
<path fill="none" stroke="midnightblue" d="M1249.55,-508.361C1251.05,-508.238 1252.53,-508.118 1254,-508 1497.74,-488.467 1559.47,-494.021 1803,-472 1805.99,-471.73 1809.04,-471.44 1812.12,-471.135"/>
<polygon fill="midnightblue" stroke="midnightblue" points="1249.25,-504.874 1239.58,-509.203 1249.84,-511.85 1249.25,-504.874"/>
</g>
<!-- Node45 -->
<g id="node45" class="node"><title>Node45</title>
<g id="a_node45"><a xlink:href="levelSetSegmentation_8cpp_source.xhtml" target="_top" xlink:title="src/levelset/levelSetSegmentation.cpp">
<polygon fill="white" stroke="black" points="347.5,-452.5 347.5,-471.5 538.5,-471.5 538.5,-452.5 347.5,-452.5"/>
<text text-anchor="middle" x="443" y="-459.5" font-family="Helvetica,sans-Serif" font-size="10.00">src/levelset/levelSetSegmentation.cpp</text>
</a>
</g>
</g>
<!-- Node2&#45;&gt;Node45 -->
<g id="edge53" class="edge"><title>Node2&#45;&gt;Node45</title>
<path fill="none" stroke="midnightblue" d="M1068.24,-510.657C948.885,-502.237 732.672,-486.715 548,-472 544.9,-471.753 541.748,-471.499 538.565,-471.24"/>
<polygon fill="midnightblue" stroke="midnightblue" points="1068.2,-514.163 1078.42,-511.374 1068.69,-507.18 1068.2,-514.163"/>
</g>
<!-- Node4 -->
<g id="node4" class="node"><title>Node4</title>
<g id="a_node4"><a xlink:href="bitpit__IO_8hpp_source.xhtml" target="_top" xlink:title="src/IO/bitpit_IO.hpp">
<polygon fill="white" stroke="black" points="134,-340.5 134,-359.5 238,-359.5 238,-340.5 134,-340.5"/>
<text text-anchor="middle" x="186" y="-347.5" font-family="Helvetica,sans-Serif" font-size="10.00">src/IO/bitpit_IO.hpp</text>
</a>
</g>
</g>
<!-- Node3&#45;&gt;Node4 -->
<g id="edge3" class="edge"><title>Node3&#45;&gt;Node4</title>
<path fill="none" stroke="midnightblue" d="M645.821,-399.198C635.585,-398.12 624.965,-397.015 615,-396 451.51,-379.348 410.115,-379.999 247,-360 244.131,-359.648 241.189,-359.271 238.221,-358.876"/>
<polygon fill="midnightblue" stroke="midnightblue" points="645.578,-402.692 655.89,-400.262 646.313,-395.731 645.578,-402.692"/>
</g>
<!-- Node25 -->
<g id="node25" class="node"><title>Node25</title>
<g id="a_node25"><a xlink:href="VTK_8cpp_source.xhtml" target="_top" xlink:title="src/IO/VTK.cpp">
<polygon fill="white" stroke="black" points="1111,-340.5 1111,-359.5 1199,-359.5 1199,-340.5 1111,-340.5"/>
<text text-anchor="middle" x="1155" y="-347.5" font-family="Helvetica,sans-Serif" font-size="10.00">src/IO/VTK.cpp</text>
</a>
</g>
</g>
<!-- Node3&#45;&gt;Node25 -->
<g id="edge27" class="edge"><title>Node3&#45;&gt;Node25</title>
<path fill="none" stroke="midnightblue" d="M754.109,-399.927C831.42,-392.455 977.877,-377.472 1102,-360 1104.87,-359.597 1107.81,-359.159 1110.78,-358.701"/>
<polygon fill="midnightblue" stroke="midnightblue" points="753.741,-396.446 744.122,-400.887 754.411,-403.414 753.741,-396.446"/>
</g>
<!-- Node26 -->
<g id="node26" class="node"><title>Node26</title>
<g id="a_node26"><a xlink:href="VTKField_8cpp_source.xhtml" target="_top" xlink:title="src/IO/VTKField.cpp">
<polygon fill="white" stroke="black" points="256,-340.5 256,-359.5 366,-359.5 366,-340.5 256,-340.5"/>
<text text-anchor="middle" x="311" y="-347.5" font-family="Helvetica,sans-Serif" font-size="10.00">src/IO/VTKField.cpp</text>
</a>
</g>
</g>
<!-- Node3&#45;&gt;Node26 -->
<g id="edge28" class="edge"><title>Node3&#45;&gt;Node26</title>
<path fill="none" stroke="midnightblue" d="M645.895,-397.544C581.388,-388.647 470.32,-373.301 375,-360 372.111,-359.597 369.148,-359.183 366.157,-358.764"/>
<polygon fill="midnightblue" stroke="midnightblue" points="645.455,-401.017 655.839,-398.916 646.411,-394.082 645.455,-401.017"/>
</g>
<!-- Node27 -->
<g id="node27" class="node"><title>Node27</title>
<g id="a_node27"><a xlink:href="VTKRectilinear_8cpp_source.xhtml" target="_top" xlink:title="src/IO/VTKRectilinear.cpp">
<polygon fill="white" stroke="black" points="384,-340.5 384,-359.5 520,-359.5 520,-340.5 384,-340.5"/>
<text text-anchor="middle" x="452" y="-347.5" font-family="Helvetica,sans-Serif" font-size="10.00">src/IO/VTKRectilinear.cpp</text>
</a>
</g>
</g>
<!-- Node3&#45;&gt;Node27 -->
<g id="edge29" class="edge"><title>Node3&#45;&gt;Node27</title>
<path fill="none" stroke="midnightblue" d="M650.774,-394.281C603.909,-384.077 534.301,-368.92 491.112,-359.516"/>
<polygon fill="midnightblue" stroke="midnightblue" points="650.188,-397.736 660.704,-396.444 651.677,-390.896 650.188,-397.736"/>
</g>
<!-- Node28 -->
<g id="node28" class="node"><title>Node28</title>
<g id="a_node28"><a xlink:href="VTKStreamer_8cpp_source.xhtml" target="_top" xlink:title="src/IO/VTKStreamer.cpp">
<polygon fill="white" stroke="black" points="538.5,-340.5 538.5,-359.5 667.5,-359.5 667.5,-340.5 538.5,-340.5"/>
<text text-anchor="middle" x="603" y="-347.5" font-family="Helvetica,sans-Serif" font-size="10.00">src/IO/VTKStreamer.cpp</text>
</a>
</g>
</g>
<!-- Node3&#45;&gt;Node28 -->
<g id="edge30" class="edge"><title>Node3&#45;&gt;Node28</title>
<path fill="none" stroke="midnightblue" d="M675.665,-391.453C657.757,-381.483 633.946,-368.228 618.546,-359.655"/>
<polygon fill="midnightblue" stroke="midnightblue" points="673.975,-394.518 684.415,-396.324 677.38,-388.402 673.975,-394.518"/>
</g>
<!-- Node29 -->
<g id="node29" class="node"><title>Node29</title>
<g id="a_node29"><a xlink:href="VTKTypes_8cpp_source.xhtml" target="_top" xlink:title="src/IO/VTKTypes.cpp">
<polygon fill="white" stroke="black" points="686,-340.5 686,-359.5 804,-359.5 804,-340.5 686,-340.5"/>
<text text-anchor="middle" x="745" y="-347.5" font-family="Helvetica,sans-Serif" font-size="10.00">src/IO/VTKTypes.cpp</text>
</a>
</g>
</g>
<!-- Node3&#45;&gt;Node29 -->
<g id="edge31" class="edge"><title>Node3&#45;&gt;Node29</title>
<path fill="none" stroke="midnightblue" d="M714.047,-388.144C721.887,-378.736 731.329,-367.405 737.707,-359.751"/>
<polygon fill="midnightblue" stroke="midnightblue" points="711.144,-386.16 707.431,-396.083 716.521,-390.641 711.144,-386.16"/>
</g>
<!-- Node30 -->
<g id="node30" class="node"><title>Node30</title>
<g id="a_node30"><a xlink:href="VTKUnstructured_8cpp_source.xhtml" target="_top" xlink:title="src/IO/VTKUnstructured.cpp">
<polygon fill="white" stroke="black" points="822,-340.5 822,-359.5 968,-359.5 968,-340.5 822,-340.5"/>
<text text-anchor="middle" x="895" y="-347.5" font-family="Helvetica,sans-Serif" font-size="10.00">src/IO/VTKUnstructured.cpp</text>
</a>
</g>
</g>
<!-- Node3&#45;&gt;Node30 -->
<g id="edge32" class="edge"><title>Node3&#45;&gt;Node30</title>
<path fill="none" stroke="midnightblue" d="M740.81,-393.699C777.613,-383.507 830.929,-368.743 864.246,-359.516"/>
<polygon fill="midnightblue" stroke="midnightblue" points="739.602,-390.402 730.898,-396.444 741.47,-397.148 739.602,-390.402"/>
</g>
<!-- Node31 -->
<g id="node31" class="node"><title>Node31</title>
<g id="a_node31"><a xlink:href="VTKUtils_8cpp_source.xhtml" target="_top" xlink:title="src/IO/VTKUtils.cpp">
<polygon fill="white" stroke="black" points="986.5,-340.5 986.5,-359.5 1093.5,-359.5 1093.5,-340.5 986.5,-340.5"/>
<text text-anchor="middle" x="1040" y="-347.5" font-family="Helvetica,sans-Serif" font-size="10.00">src/IO/VTKUtils.cpp</text>
</a>
</g>
</g>
<!-- Node3&#45;&gt;Node31 -->
<g id="edge33" class="edge"><title>Node3&#45;&gt;Node31</title>
<path fill="none" stroke="midnightblue" d="M754.348,-396.368C818.088,-386.245 923.073,-369.571 986.461,-359.503"/>
<polygon fill="midnightblue" stroke="midnightblue" points="753.428,-392.97 744.101,-397.996 754.526,-399.884 753.428,-392.97"/>
</g>
<!-- Node5 -->
<g id="node5" class="node"><title>Node5</title>
<g id="a_node5"><a xlink:href="communications_8cpp_source.xhtml" target="_top" xlink:title="src/communications\l/communications.cpp">
<polygon fill="white" stroke="black" points="947,-273 947,-303 1061,-303 1061,-273 947,-273"/>
<text text-anchor="start" x="955" y="-291" font-family="Helvetica,sans-Serif" font-size="10.00">src/communications</text>
<text text-anchor="middle" x="1004" y="-280" font-family="Helvetica,sans-Serif" font-size="10.00">/communications.cpp</text>
</a>
</g>
</g>
<!-- Node4&#45;&gt;Node5 -->
<g id="edge4" class="edge"><title>Node4&#45;&gt;Node5</title>
<path fill="none" stroke="midnightblue" d="M248.268,-339.977C554.766,-310.302 636.658,-345.779 938,-304 940.91,-303.597 943.881,-303.129 946.873,-302.613"/>
<polygon fill="midnightblue" stroke="midnightblue" points="247.813,-336.505 238.203,-340.967 248.498,-343.471 247.813,-336.505"/>
</g>
<!-- Node6 -->
<g id="node6" class="node"><title>Node6</title>
<g id="a_node6"><a xlink:href="ParaTree_8hpp_source.xhtml" target="_top" xlink:title="src/PABLO/ParaTree.hpp">
<polygon fill="white" stroke="black" points="795,-278.5 795,-297.5 929,-297.5 929,-278.5 795,-278.5"/>
<text text-anchor="middle" x="862" y="-285.5" font-family="Helvetica,sans-Serif" font-size="10.00">src/PABLO/ParaTree.hpp</text>
</a>
</g>
</g>
<!-- Node4&#45;&gt;Node6 -->
<g id="edge5" class="edge"><title>Node4&#45;&gt;Node6</title>
<path fill="none" stroke="midnightblue" d="M248.427,-339.933C483.057,-315.269 545.361,-331.884 776,-304 789.843,-302.326 804.843,-299.918 818.381,-297.52"/>
<polygon fill="midnightblue" stroke="midnightblue" points="247.782,-336.482 238.209,-341.022 248.523,-343.443 247.782,-336.482"/>
</g>
<!-- Node11 -->
<g id="node11" class="node"><title>Node11</title>
<g id="a_node11"><a xlink:href="patch__kernel_8hpp_source.xhtml" target="_top" xlink:title="src/patchkernel/patch\l_kernel.hpp">
<polygon fill="white" stroke="black" points="304,-273 304,-303 418,-303 418,-273 304,-273"/>
<text text-anchor="start" x="312" y="-291" font-family="Helvetica,sans-Serif" font-size="10.00">src/patchkernel/patch</text>
<text text-anchor="middle" x="361" y="-280" font-family="Helvetica,sans-Serif" font-size="10.00">_kernel.hpp</text>
</a>
</g>
</g>
<!-- Node4&#45;&gt;Node11 -->
<g id="edge10" class="edge"><title>Node4&#45;&gt;Node11</title>
<path fill="none" stroke="midnightblue" d="M220.65,-337.12C249.251,-327.314 289.897,-313.378 320.093,-303.025"/>
<polygon fill="midnightblue" stroke="midnightblue" points="219.398,-333.849 211.073,-340.403 221.668,-340.471 219.398,-333.849"/>
</g>
<!-- Node15 -->
<g id="node15" class="node"><title>Node15</title>
<g id="a_node15"><a xlink:href="surfunstructured_8hpp_source.xhtml" target="_top" xlink:title="src/surfunstructured\l/surfunstructured.hpp">
<polygon fill="white" stroke="black" points="767.5,-69 767.5,-99 880.5,-99 880.5,-69 767.5,-69"/>
<text text-anchor="start" x="775.5" y="-87" font-family="Helvetica,sans-Serif" font-size="10.00">src/surfunstructured</text>
<text text-anchor="middle" x="824" y="-76" font-family="Helvetica,sans-Serif" font-size="10.00">/surfunstructured.hpp</text>
</a>
</g>
</g>
<!-- Node4&#45;&gt;Node15 -->
<g id="edge25" class="edge"><title>Node4&#45;&gt;Node15</title>
<path fill="none" stroke="midnightblue" d="M248.21,-338.894C381.33,-316.844 684.844,-264.144 723,-236 764.348,-205.502 751.439,-178.023 781,-136 790.195,-122.928 801.972,-109.129 810.876,-99.1859"/>
<polygon fill="midnightblue" stroke="midnightblue" points="247.456,-335.471 238.161,-340.554 248.597,-342.377 247.456,-335.471"/>
</g>
<!-- Node24 -->
<g id="node24" class="node"><title>Node24</title>
<g id="a_node24"><a xlink:href="voloctree_8cpp_source.xhtml" target="_top" xlink:title="src/voloctree/voloctree.cpp">
<polygon fill="white" stroke="black" points="116,-278.5 116,-297.5 256,-297.5 256,-278.5 116,-278.5"/>
<text text-anchor="middle" x="186" y="-285.5" font-family="Helvetica,sans-Serif" font-size="10.00">src/voloctree/voloctree.cpp</text>
</a>
</g>
</g>
<!-- Node4&#45;&gt;Node24 -->
<g id="edge26" class="edge"><title>Node4&#45;&gt;Node24</title>
<path fill="none" stroke="midnightblue" d="M186,-330.16C186,-319.248 186,-306.04 186,-297.581"/>
<polygon fill="midnightblue" stroke="midnightblue" points="182.5,-330.403 186,-340.403 189.5,-330.403 182.5,-330.403"/>
</g>
<!-- Node7 -->
<g id="node7" class="node"><title>Node7</title>
<g id="a_node7"><a xlink:href="PabloUniform_8hpp_source.xhtml" target="_top" xlink:title="src/PABLO/PabloUniform.hpp">
<polygon fill="white" stroke="black" points="790.5,-210.5 790.5,-229.5 941.5,-229.5 941.5,-210.5 790.5,-210.5"/>
<text text-anchor="middle" x="866" y="-217.5" font-family="Helvetica,sans-Serif" font-size="10.00">src/PABLO/PabloUniform.hpp</text>
</a>
</g>
</g>
<!-- Node6&#45;&gt;Node7 -->
<g id="edge6" class="edge"><title>Node6&#45;&gt;Node7</title>
<path fill="none" stroke="midnightblue" d="M863.149,-268.041C863.911,-255.472 864.875,-239.563 865.464,-229.841"/>
<polygon fill="midnightblue" stroke="midnightblue" points="859.634,-268.178 862.523,-278.372 866.622,-268.602 859.634,-268.178"/>
</g>
<!-- Node6&#45;&gt;Node10 -->
<g id="edge9" class="edge"><title>Node6&#45;&gt;Node10</title>
<path fill="none" stroke="midnightblue" d="M906.397,-275.943C958.872,-262.873 1045.06,-241.407 1092.69,-229.546"/>
<polygon fill="midnightblue" stroke="midnightblue" points="905.23,-272.626 896.372,-278.439 906.922,-279.419 905.23,-272.626"/>
</g>
<!-- Node8 -->
<g id="node8" class="node"><title>Node8</title>
<g id="a_node8"><a xlink:href="bitpit__PABLO_8hpp_source.xhtml" target="_top" xlink:title="src/PABLO/bitpit_PABLO.hpp">
<polygon fill="white" stroke="red" points="959.5,-142.5 959.5,-161.5 1108.5,-161.5 1108.5,-142.5 959.5,-142.5"/>
<text text-anchor="middle" x="1034" y="-149.5" font-family="Helvetica,sans-Serif" font-size="10.00">src/PABLO/bitpit_PABLO.hpp</text>
</a>
</g>
</g>
<!-- Node7&#45;&gt;Node8 -->
<g id="edge7" class="edge"><title>Node7&#45;&gt;Node8</title>
<path fill="none" stroke="midnightblue" d="M897.294,-206.706C930.79,-193.547 983.049,-173.017 1012.3,-161.526"/>
<polygon fill="midnightblue" stroke="midnightblue" points="895.991,-203.457 887.963,-210.372 898.55,-209.973 895.991,-203.457"/>
</g>
<!-- Node9 -->
<g id="node9" class="node"><title>Node9</title>
<g id="a_node9"><a xlink:href="PabloUniform_8cpp_source.xhtml" target="_top" xlink:title="src/PABLO/PabloUniform.cpp">
<polygon fill="white" stroke="black" points="790.5,-142.5 790.5,-161.5 941.5,-161.5 941.5,-142.5 790.5,-142.5"/>
<text text-anchor="middle" x="866" y="-149.5" font-family="Helvetica,sans-Serif" font-size="10.00">src/PABLO/PabloUniform.cpp</text>
</a>
</g>
</g>
<!-- Node7&#45;&gt;Node9 -->
<g id="edge8" class="edge"><title>Node7&#45;&gt;Node9</title>
<path fill="none" stroke="midnightblue" d="M866,-200.041C866,-187.472 866,-171.563 866,-161.841"/>
<polygon fill="midnightblue" stroke="midnightblue" points="862.5,-200.372 866,-210.372 869.5,-200.372 862.5,-200.372"/>
</g>
<!-- Node12 -->
<g id="node12" class="node"><title>Node12</title>
<g id="a_node12"><a xlink:href="adaption_8cpp_source.xhtml" target="_top" xlink:title="src/patchkernel/adaption.cpp">
<polygon fill="white" stroke="black" points="132.5,-210.5 132.5,-229.5 281.5,-229.5 281.5,-210.5 132.5,-210.5"/>
<text text-anchor="middle" x="207" y="-217.5" font-family="Helvetica,sans-Serif" font-size="10.00">src/patchkernel/adaption.cpp</text>
</a>
</g>
</g>
<!-- Node11&#45;&gt;Node12 -->
<g id="edge11" class="edge"><title>Node11&#45;&gt;Node12</title>
<path fill="none" stroke="midnightblue" d="M318.637,-268.844C288.874,-256.089 250.389,-239.595 227.258,-229.682"/>
<polygon fill="midnightblue" stroke="midnightblue" points="317.393,-272.119 327.963,-272.841 320.15,-265.685 317.393,-272.119"/>
</g>
<!-- Node13 -->
<g id="node13" class="node"><title>Node13</title>
<g id="a_node13"><a xlink:href="bitpit__patchkernel_8hpp_source.xhtml" target="_top" xlink:title="src/patchkernel/bitpit\l_patchkernel.hpp">
<polygon fill="white" stroke="red" points="536,-137 536,-167 646,-167 646,-137 536,-137"/>
<text text-anchor="start" x="544" y="-155" font-family="Helvetica,sans-Serif" font-size="10.00">src/patchkernel/bitpit</text>
<text text-anchor="middle" x="591" y="-144" font-family="Helvetica,sans-Serif" font-size="10.00">_patchkernel.hpp</text>
</a>
</g>
</g>
<!-- Node11&#45;&gt;Node13 -->
<g id="edge12" class="edge"><title>Node11&#45;&gt;Node13</title>
<path fill="none" stroke="midnightblue" d="M428.46,-286.997C518.307,-285.391 670.017,-276.552 705,-236 730.426,-206.526 680.292,-181.646 638.649,-167.024"/>
<polygon fill="midnightblue" stroke="midnightblue" points="428.303,-283.499 418.358,-287.152 428.41,-290.498 428.303,-283.499"/>
</g>
<!-- Node20 -->
<g id="node20" class="node"><title>Node20</title>
<g id="a_node20"><a xlink:href="surface__kernel_8hpp_source.xhtml" target="_top" xlink:title="src/patchkernel/surface\l_kernel.hpp">
<polygon fill="white" stroke="red" points="299.5,-205 299.5,-235 422.5,-235 422.5,-205 299.5,-205"/>
<text text-anchor="start" x="307.5" y="-223" font-family="Helvetica,sans-Serif" font-size="10.00">src/patchkernel/surface</text>
<text text-anchor="middle" x="361" y="-212" font-family="Helvetica,sans-Serif" font-size="10.00">_kernel.hpp</text>
</a>
</g>
</g>
<!-- Node11&#45;&gt;Node20 -->
<g id="edge19" class="edge"><title>Node11&#45;&gt;Node20</title>
<path fill="none" stroke="midnightblue" d="M361,-262.532C361,-253.361 361,-243.245 361,-235.293"/>
<polygon fill="midnightblue" stroke="midnightblue" points="357.5,-262.679 361,-272.679 364.5,-262.679 357.5,-262.679"/>
</g>
<!-- Node21 -->
<g id="node21" class="node"><title>Node21</title>
<g id="a_node21"><a xlink:href="volume__kernel_8hpp_source.xhtml" target="_top" xlink:title="src/patchkernel/volume\l_kernel.hpp">
<polygon fill="white" stroke="red" points="440.5,-205 440.5,-235 563.5,-235 563.5,-205 440.5,-205"/>
<text text-anchor="start" x="448.5" y="-223" font-family="Helvetica,sans-Serif" font-size="10.00">src/patchkernel/volume</text>
<text text-anchor="middle" x="502" y="-212" font-family="Helvetica,sans-Serif" font-size="10.00">_kernel.hpp</text>
</a>
</g>
</g>
<!-- Node11&#45;&gt;Node21 -->
<g id="edge21" class="edge"><title>Node11&#45;&gt;Node21</title>
<path fill="none" stroke="midnightblue" d="M400.564,-268.48C423.141,-257.913 450.997,-244.874 471.802,-235.135"/>
<polygon fill="midnightblue" stroke="midnightblue" points="398.821,-265.432 391.248,-272.841 401.789,-271.772 398.821,-265.432"/>
</g>
<!-- Node11&#45;&gt;Node22 -->
<g id="edge23" class="edge"><title>Node11&#45;&gt;Node22</title>
<path fill="none" stroke="midnightblue" d="M294.129,-272.765C246.637,-262.617 181.376,-248.596 124,-236 120.74,-235.284 117.392,-234.546 114.013,-233.798"/>
<polygon fill="midnightblue" stroke="midnightblue" points="293.474,-276.204 303.985,-274.869 294.936,-269.358 293.474,-276.204"/>
</g>
<!-- Node23 -->
<g id="node23" class="node"><title>Node23</title>
<g id="a_node23"><a xlink:href="patch__kernel__parallel_8cpp_source.xhtml" target="_top" xlink:title="src/patchkernel/patch\l_kernel_parallel.cpp">
<polygon fill="white" stroke="black" points="582,-205 582,-235 696,-235 696,-205 582,-205"/>
<text text-anchor="start" x="590" y="-223" font-family="Helvetica,sans-Serif" font-size="10.00">src/patchkernel/patch</text>
<text text-anchor="middle" x="639" y="-212" font-family="Helvetica,sans-Serif" font-size="10.00">_kernel_parallel.cpp</text>
</a>
</g>
</g>
<!-- Node11&#45;&gt;Node23 -->
<g id="edge24" class="edge"><title>Node11&#45;&gt;Node23</title>
<path fill="none" stroke="midnightblue" d="M428.049,-271.082C475.035,-259.927 537.163,-245.177 581.81,-234.578"/>
<polygon fill="midnightblue" stroke="midnightblue" points="427.186,-267.689 418.265,-273.405 428.803,-274.5 427.186,-267.689"/>
</g>
<!-- Node14 -->
<g id="node14" class="node"><title>Node14</title>
<g id="a_node14"><a xlink:href="patchkernel__example__00001_8cpp_source.xhtml" target="_top" xlink:title="examples/patchkernel\l_example_00001.cpp">
<polygon fill="white" stroke="black" points="631,-69 631,-99 749,-99 749,-69 631,-69"/>
<text text-anchor="start" x="639" y="-87" font-family="Helvetica,sans-Serif" font-size="10.00">examples/patchkernel</text>
<text text-anchor="middle" x="690" y="-76" font-family="Helvetica,sans-Serif" font-size="10.00">_example_00001.cpp</text>
</a>
</g>
</g>
<!-- Node13&#45;&gt;Node14 -->
<g id="edge13" class="edge"><title>Node13&#45;&gt;Node14</title>
<path fill="none" stroke="midnightblue" d="M621.167,-130.888C636.6,-120.6 655.006,-108.329 668.901,-99.0663"/>
<polygon fill="midnightblue" stroke="midnightblue" points="618.861,-128.22 612.482,-136.679 622.744,-134.044 618.861,-128.22"/>
</g>
<!-- Node13&#45;&gt;Node15 -->
<g id="edge14" class="edge"><title>Node13&#45;&gt;Node15</title>
<path fill="none" stroke="midnightblue" d="M650.696,-134.091C689.02,-123.235 738.203,-109.303 774.378,-99.0561"/>
<polygon fill="midnightblue" stroke="midnightblue" points="649.366,-130.829 640.699,-136.922 651.274,-137.564 649.366,-130.829"/>
</g>
<!-- Node18 -->
<g id="node18" class="node"><title>Node18</title>
<g id="a_node18"><a xlink:href="volcartesian_8hpp_source.xhtml" target="_top" xlink:title="src/volcartesian/volcartesian.hpp">
<polygon fill="white" stroke="red" points="445.5,-74.5 445.5,-93.5 612.5,-93.5 612.5,-74.5 445.5,-74.5"/>
<text text-anchor="middle" x="529" y="-81.5" font-family="Helvetica,sans-Serif" font-size="10.00">src/volcartesian/volcartesian.hpp</text>
</a>
</g>
</g>
<!-- Node13&#45;&gt;Node18 -->
<g id="edge17" class="edge"><title>Node13&#45;&gt;Node18</title>
<path fill="none" stroke="midnightblue" d="M570.489,-129.166C559.172,-117.119 545.741,-102.822 537.293,-93.8283"/>
<polygon fill="midnightblue" stroke="midnightblue" points="568.149,-131.787 577.547,-136.679 573.251,-126.994 568.149,-131.787"/>
</g>
<!-- Node16 -->
<g id="node16" class="node"><title>Node16</title>
<g id="a_node16"><a xlink:href="bitpit__surfunstructured_8hpp_source.xhtml" target="_top" xlink:title="src/surfunstructured\l/bitpit_surfunstructured.hpp">
<polygon fill="white" stroke="red" points="754.5,-1 754.5,-31 893.5,-31 893.5,-1 754.5,-1"/>
<text text-anchor="start" x="762.5" y="-19" font-family="Helvetica,sans-Serif" font-size="10.00">src/surfunstructured</text>
<text text-anchor="middle" x="824" y="-8" font-family="Helvetica,sans-Serif" font-size="10.00">/bitpit_surfunstructured.hpp</text>
</a>
</g>
</g>
<!-- Node15&#45;&gt;Node16 -->
<g id="edge15" class="edge"><title>Node15&#45;&gt;Node16</title>
<path fill="none" stroke="midnightblue" d="M824,-58.5322C824,-49.3606 824,-39.2449 824,-31.2931"/>
<polygon fill="midnightblue" stroke="midnightblue" points="820.5,-58.6789 824,-68.679 827.5,-58.679 820.5,-58.6789"/>
</g>
<!-- Node15&#45;&gt;Node17 -->
<g id="edge16" class="edge"><title>Node15&#45;&gt;Node17</title>
<path fill="none" stroke="midnightblue" d="M890.663,-71.9453C967.601,-59.1868 1092.81,-38.4233 1165.27,-26.4071"/>
<polygon fill="midnightblue" stroke="midnightblue" points="889.894,-68.525 880.601,-73.6139 891.039,-75.4307 889.894,-68.525"/>
</g>
<!-- Node18&#45;&gt;Node19 -->
<g id="edge18" class="edge"><title>Node18&#45;&gt;Node19</title>
<path fill="none" stroke="midnightblue" d="M543.986,-67.0474C556.138,-54.1111 572.816,-36.3567 582.695,-25.8411"/>
<polygon fill="midnightblue" stroke="midnightblue" points="541.401,-64.6868 537.105,-74.3717 546.503,-69.4795 541.401,-64.6868"/>
</g>
<!-- Node20&#45;&gt;Node13 -->
<g id="edge20" class="edge"><title>Node20&#45;&gt;Node13</title>
<path fill="none" stroke="midnightblue" d="M419.927,-202.091C457.758,-191.235 506.308,-177.303 542.017,-167.056"/>
<polygon fill="midnightblue" stroke="midnightblue" points="418.705,-198.8 410.059,-204.922 420.636,-205.528 418.705,-198.8"/>
</g>
<!-- Node21&#45;&gt;Node13 -->
<g id="edge22" class="edge"><title>Node21&#45;&gt;Node13</title>
<path fill="none" stroke="midnightblue" d="M529.51,-198.599C543.303,-188.371 559.657,-176.243 572.032,-167.066"/>
<polygon fill="midnightblue" stroke="midnightblue" points="527.259,-195.911 521.312,-204.679 531.429,-201.534 527.259,-195.911"/>
</g>
<!-- Node32&#45;&gt;Node3 -->
<g id="edge35" class="edge"><title>Node32&#45;&gt;Node3</title>
<path fill="none" stroke="midnightblue" d="M339.705,-451.789C459.952,-436.166 589.648,-420.328 655.956,-412.304"/>
<polygon fill="midnightblue" stroke="midnightblue" points="339.052,-448.345 329.588,-453.106 339.956,-455.286 339.052,-448.345"/>
</g>
<!-- Node32&#45;&gt;Node4 -->
<g id="edge36" class="edge"><title>Node32&#45;&gt;Node4</title>
<path fill="none" stroke="midnightblue" d="M253.963,-445.813C244.713,-437.531 233.613,-426.788 225,-416 210.22,-397.488 196.943,-372.874 190.363,-359.89"/>
<polygon fill="midnightblue" stroke="midnightblue" points="251.671,-448.458 261.507,-452.398 256.274,-443.185 251.671,-448.458"/>
</g>
<!-- Node33 -->
<g id="node33" class="node"><title>Node33</title>
<g id="a_node33"><a xlink:href="GenericIO_8cpp_source.xhtml" target="_top" xlink:title="src/IO/GenericIO.cpp">
<polygon fill="white" stroke="black" points="233.5,-396.5 233.5,-415.5 348.5,-415.5 348.5,-396.5 233.5,-396.5"/>
<text text-anchor="middle" x="291" y="-403.5" font-family="Helvetica,sans-Serif" font-size="10.00">src/IO/GenericIO.cpp</text>
</a>
</g>
</g>
<!-- Node32&#45;&gt;Node33 -->
<g id="edge37" class="edge"><title>Node32&#45;&gt;Node33</title>
<path fill="none" stroke="midnightblue" d="M278.546,-442.396C281.724,-433.362 285.393,-422.936 287.921,-415.751"/>
<polygon fill="midnightblue" stroke="midnightblue" points="275.155,-441.488 275.137,-452.083 281.758,-443.812 275.155,-441.488"/>
</g>
<!-- Node34&#45;&gt;Node4 -->
<g id="edge39" class="edge"><title>Node34&#45;&gt;Node4</title>
<path fill="none" stroke="midnightblue" d="M600.528,-442.059C599.071,-427.167 594.499,-407.137 581,-396 523.417,-348.491 321.052,-369.45 247,-360 244.133,-359.634 241.192,-359.245 238.225,-358.842"/>
<polygon fill="midnightblue" stroke="midnightblue" points="597.044,-442.438 601.131,-452.213 604.032,-442.023 597.044,-442.438"/>
</g>
<!-- Node35 -->
<g id="node35" class="node"><title>Node35</title>
<g id="a_node35"><a xlink:href="DGF_8cpp_source.xhtml" target="_top" xlink:title="src/IO/DGF.cpp">
<polygon fill="white" stroke="black" points="483.5,-396.5 483.5,-415.5 572.5,-415.5 572.5,-396.5 483.5,-396.5"/>
<text text-anchor="middle" x="528" y="-403.5" font-family="Helvetica,sans-Serif" font-size="10.00">src/IO/DGF.cpp</text>
</a>
</g>
</g>
<!-- Node34&#45;&gt;Node35 -->
<g id="edge40" class="edge"><title>Node34&#45;&gt;Node35</title>
<path fill="none" stroke="midnightblue" d="M580.858,-446.101C567.721,-436.382 551.018,-424.027 539.942,-415.834"/>
<polygon fill="midnightblue" stroke="midnightblue" points="579.15,-449.191 589.271,-452.324 583.313,-443.563 579.15,-449.191"/>
</g>
<!-- Node48&#45;&gt;Node4 -->
<g id="edge57" class="edge"><title>Node48&#45;&gt;Node4</title>
<path fill="none" stroke="midnightblue" d="M245.838,-565.124C223.288,-558.914 199.652,-547.817 186,-528 148.868,-474.099 173.526,-387.36 182.857,-359.742"/>
<polygon fill="midnightblue" stroke="midnightblue" points="245.194,-568.57 255.742,-567.573 246.874,-561.775 245.194,-568.57"/>
</g>
<!-- Node49 -->
<g id="node49" class="node"><title>Node49</title>
<g id="a_node49"><a xlink:href="GenericIO_8tpp_source.xhtml" target="_top" xlink:title="src/IO/GenericIO.tpp">
<polygon fill="white" stroke="black" points="309,-508.5 309,-527.5 421,-527.5 421,-508.5 309,-508.5"/>
<text text-anchor="middle" x="365" y="-515.5" font-family="Helvetica,sans-Serif" font-size="10.00">src/IO/GenericIO.tpp</text>
</a>
</g>
</g>
<!-- Node48&#45;&gt;Node49 -->
<g id="edge58" class="edge"><title>Node48&#45;&gt;Node49</title>
<path fill="none" stroke="midnightblue" d="M321.467,-557.537C332.344,-547.909 345.944,-535.869 355.021,-527.834"/>
<polygon fill="midnightblue" stroke="midnightblue" points="318.968,-555.075 313.801,-564.324 323.608,-560.316 318.968,-555.075"/>
</g>
<!-- Node50 -->
<g id="node50" class="node"><title>Node50</title>
<g id="a_node50"><a xlink:href="logger_8cpp_source.xhtml" target="_top" xlink:title="src/IO/logger.cpp">
<polygon fill="white" stroke="black" points="195,-508.5 195,-527.5 291,-527.5 291,-508.5 195,-508.5"/>
<text text-anchor="middle" x="243" y="-515.5" font-family="Helvetica,sans-Serif" font-size="10.00">src/IO/logger.cpp</text>
</a>
</g>
</g>
<!-- Node48&#45;&gt;Node50 -->
<g id="edge60" class="edge"><title>Node48&#45;&gt;Node50</title>
<path fill="none" stroke="midnightblue" d="M286.533,-557.537C275.656,-547.909 262.056,-535.869 252.979,-527.834"/>
<polygon fill="midnightblue" stroke="midnightblue" points="284.392,-560.316 294.199,-564.324 289.032,-555.075 284.392,-560.316"/>
</g>
<!-- Node49&#45;&gt;Node32 -->
<g id="edge59" class="edge"><title>Node49&#45;&gt;Node32</title>
<path fill="none" stroke="midnightblue" d="M341.194,-503.177C324.081,-493.241 301.535,-480.149 286.905,-471.655"/>
<polygon fill="midnightblue" stroke="midnightblue" points="339.653,-506.329 350.058,-508.324 343.168,-500.276 339.653,-506.329"/>
</g>
</g>
</svg>
