<?xml version="1.0" encoding="UTF-8" standalone="no"?>
<!DOCTYPE svg PUBLIC "-//W3C//DTD SVG 1.1//EN"
 "http://www.w3.org/Graphics/SVG/1.1/DTD/svg11.dtd">
<!-- Generated by graphviz version 2.34.0 (20140112.1130)
 -->
<!-- Title: src/common/utils.hpp Pages: 1 -->
<svg width="814pt" height="84pt"
 viewBox="0.00 0.00 814.00 84.00" xmlns="http://www.w3.org/2000/svg" xmlns:xlink="http://www.w3.org/1999/xlink">
<g id="graph0" class="graph" transform="scale(1 1) rotate(0) translate(4 80)">
<title>src/common/utils.hpp</title>
<polygon fill="white" stroke="white" points="-4,4 -4,-80 810,-80 810,4 -4,4"/>
<!-- Node1 -->
<g id="node1" class="node"><title>Node1</title>
<polygon fill="#bfbfbf" stroke="black" points="341.5,-56.5 341.5,-75.5 454.5,-75.5 454.5,-56.5 341.5,-56.5"/>
<text text-anchor="middle" x="398" y="-63.5" font-family="Helvetica,sans-Serif" font-size="10.00">src/common/utils.hpp</text>
</g>
<!-- Node2 -->
<g id="node2" class="node"><title>Node2</title>
<polygon fill="white" stroke="#bfbfbf" points="0,-0.5 0,-19.5 40,-19.5 40,-0.5 0,-0.5"/>
<text text-anchor="middle" x="20" y="-7.5" font-family="Helvetica,sans-Serif" font-size="10.00">array</text>
</g>
<!-- Node1&#45;&gt;Node2 -->
<g id="edge1" class="edge"><title>Node1&#45;&gt;Node2</title>
<path fill="none" stroke="midnightblue" d="M341.272,-60.7163C273.893,-54.956 158.053,-42.9361 50.2351,-19.9321"/>
<polygon fill="midnightblue" stroke="midnightblue" points="50.6775,-16.4467 40.1625,-17.7454 49.1923,-23.2874 50.6775,-16.4467"/>
</g>
<!-- Node3 -->
<g id="node3" class="node"><title>Node3</title>
<polygon fill="white" stroke="#bfbfbf" points="58,-0.5 58,-19.5 116,-19.5 116,-0.5 58,-0.5"/>
<text text-anchor="middle" x="87" y="-7.5" font-family="Helvetica,sans-Serif" font-size="10.00">algorithm</text>
</g>
<!-- Node1&#45;&gt;Node3 -->
<g id="edge2" class="edge"><title>Node1&#45;&gt;Node3</title>
<path fill="none" stroke="midnightblue" d="M341.325,-56.8276C288.235,-48.9083 206.461,-36.0366 126.278,-20.1426"/>
<polygon fill="midnightblue" stroke="midnightblue" points="126.493,-16.6163 116.001,-18.0868 125.12,-23.4803 126.493,-16.6163"/>
</g>
<!-- Node4 -->
<g id="node4" class="node"><title>Node4</title>
<polygon fill="white" stroke="#bfbfbf" points="134.5,-0.5 134.5,-19.5 175.5,-19.5 175.5,-0.5 134.5,-0.5"/>
<text text-anchor="middle" x="155" y="-7.5" font-family="Helvetica,sans-Serif" font-size="10.00">cfloat</text>
</g>
<!-- Node1&#45;&gt;Node4 -->
<g id="edge3" class="edge"><title>Node1&#45;&gt;Node4</title>
<path fill="none" stroke="midnightblue" d="M352.04,-56.4381C310.843,-48.5061 248.579,-35.8856 185.338,-19.9106"/>
<polygon fill="midnightblue" stroke="midnightblue" points="186.149,-16.5054 175.594,-17.424 184.418,-23.288 186.149,-16.5054"/>
</g>
<!-- Node5 -->
<g id="node5" class="node"><title>Node5</title>
<polygon fill="white" stroke="#bfbfbf" points="194,-0.5 194,-19.5 238,-19.5 238,-0.5 194,-0.5"/>
<text text-anchor="middle" x="216" y="-7.5" font-family="Helvetica,sans-Serif" font-size="10.00">cmath</text>
</g>
<!-- Node1&#45;&gt;Node5 -->
<g id="edge4" class="edge"><title>Node1&#45;&gt;Node5</title>
<path fill="none" stroke="midnightblue" d="M369.162,-56.4435C336.188,-46.6602 282.357,-30.6884 248.084,-20.5194"/>
<polygon fill="midnightblue" stroke="midnightblue" points="248.702,-17.0522 238.12,-17.5631 246.711,-23.763 248.702,-17.0522"/>
</g>
<!-- Node6 -->
<g id="node6" class="node"><title>Node6</title>
<polygon fill="white" stroke="#bfbfbf" points="256.5,-0.5 256.5,-19.5 317.5,-19.5 317.5,-0.5 256.5,-0.5"/>
<text text-anchor="middle" x="287" y="-7.5" font-family="Helvetica,sans-Serif" font-size="10.00">functional</text>
</g>
<!-- Node1&#45;&gt;Node6 -->
<g id="edge5" class="edge"><title>Node1&#45;&gt;Node6</title>
<path fill="none" stroke="midnightblue" d="M380.166,-56.324C362.284,-47.6247 334.525,-34.1202 313.954,-24.113"/>
<polygon fill="midnightblue" stroke="midnightblue" points="315.313,-20.8819 304.79,-19.6545 312.251,-27.1765 315.313,-20.8819"/>
</g>
<!-- Node7 -->
<g id="node7" class="node"><title>Node7</title>
<polygon fill="white" stroke="#bfbfbf" points="335.5,-0.5 335.5,-19.5 388.5,-19.5 388.5,-0.5 335.5,-0.5"/>
<text text-anchor="middle" x="362" y="-7.5" font-family="Helvetica,sans-Serif" font-size="10.00">iomanip</text>
</g>
<!-- Node1&#45;&gt;Node7 -->
<g id="edge6" class="edge"><title>Node1&#45;&gt;Node7</title>
<path fill="none" stroke="midnightblue" d="M392.055,-56.083C387.023,-48.5341 379.663,-37.4948 373.487,-28.2298"/>
<polygon fill="midnightblue" stroke="midnightblue" points="376.293,-26.1301 367.834,-19.7511 370.469,-30.0131 376.293,-26.1301"/>
</g>
<!-- Node8 -->
<g id="node8" class="node"><title>Node8</title>
<polygon fill="white" stroke="#bfbfbf" points="407,-0.5 407,-19.5 463,-19.5 463,-0.5 407,-0.5"/>
<text text-anchor="middle" x="435" y="-7.5" font-family="Helvetica,sans-Serif" font-size="10.00">iostream</text>
</g>
<!-- Node1&#45;&gt;Node8 -->
<g id="edge7" class="edge"><title>Node1&#45;&gt;Node8</title>
<path fill="none" stroke="midnightblue" d="M404.11,-56.083C409.282,-48.5341 416.846,-37.4948 423.194,-28.2298"/>
<polygon fill="midnightblue" stroke="midnightblue" points="426.239,-29.9787 429.004,-19.7511 420.464,-26.0221 426.239,-29.9787"/>
</g>
<!-- Node9 -->
<g id="node9" class="node"><title>Node9</title>
<polygon fill="white" stroke="#bfbfbf" points="481.5,-0.5 481.5,-19.5 534.5,-19.5 534.5,-0.5 481.5,-0.5"/>
<text text-anchor="middle" x="508" y="-7.5" font-family="Helvetica,sans-Serif" font-size="10.00">sstream</text>
</g>
<!-- Node1&#45;&gt;Node9 -->
<g id="edge8" class="edge"><title>Node1&#45;&gt;Node9</title>
<path fill="none" stroke="midnightblue" d="M415.673,-56.324C433.394,-47.6247 460.903,-34.1202 481.288,-24.113"/>
<polygon fill="midnightblue" stroke="midnightblue" points="482.936,-27.2031 490.37,-19.6545 479.851,-20.9195 482.936,-27.2031"/>
</g>
<!-- Node10 -->
<g id="node10" class="node"><title>Node10</title>
<polygon fill="white" stroke="#bfbfbf" points="552.5,-0.5 552.5,-19.5 593.5,-19.5 593.5,-0.5 552.5,-0.5"/>
<text text-anchor="middle" x="573" y="-7.5" font-family="Helvetica,sans-Serif" font-size="10.00">string</text>
</g>
<!-- Node1&#45;&gt;Node10 -->
<g id="edge9" class="edge"><title>Node1&#45;&gt;Node10</title>
<path fill="none" stroke="midnightblue" d="M425.729,-56.4435C457.609,-46.6063 509.766,-30.5122 542.693,-20.3518"/>
<polygon fill="midnightblue" stroke="midnightblue" points="543.727,-23.6956 552.251,-17.4026 541.663,-17.0068 543.727,-23.6956"/>
</g>
<!-- Node11 -->
<g id="node11" class="node"><title>Node11</title>
<polygon fill="white" stroke="#bfbfbf" points="612,-0.5 612,-19.5 656,-19.5 656,-0.5 612,-0.5"/>
<text text-anchor="middle" x="634" y="-7.5" font-family="Helvetica,sans-Serif" font-size="10.00">vector</text>
</g>
<!-- Node1&#45;&gt;Node11 -->
<g id="edge10" class="edge"><title>Node1&#45;&gt;Node11</title>
<path fill="none" stroke="midnightblue" d="M439.969,-56.4729C479.226,-48.3336 539.709,-35.3789 601.704,-19.9539"/>
<polygon fill="midnightblue" stroke="midnightblue" points="602.815,-23.2838 611.664,-17.4574 601.113,-16.4938 602.815,-23.2838"/>
</g>
<!-- Node12 -->
<g id="node12" class="node"><title>Node12</title>
<polygon fill="white" stroke="#bfbfbf" points="674.5,-0.5 674.5,-19.5 711.5,-19.5 711.5,-0.5 674.5,-0.5"/>
<text text-anchor="middle" x="693" y="-7.5" font-family="Helvetica,sans-Serif" font-size="10.00">map</text>
</g>
<!-- Node1&#45;&gt;Node12 -->
<g id="edge11" class="edge"><title>Node1&#45;&gt;Node12</title>
<path fill="none" stroke="midnightblue" d="M454.743,-57.6374C508.9,-50.0849 592.589,-37.0412 664,-20 664.212,-19.9495 664.424,-19.8983 664.637,-19.8465"/>
<polygon fill="midnightblue" stroke="midnightblue" points="665.66,-23.1952 674.381,-17.1793 663.812,-16.4435 665.66,-23.1952"/>
</g>
<!-- Node13 -->
<g id="node13" class="node"><title>Node13</title>
<g id="a_node13"><a xlink:href="utilsString_8tpp_source.xhtml" target="_top" xlink:title="utilsString.tpp">
<polygon fill="white" stroke="black" points="729.5,-0.5 729.5,-19.5 806.5,-19.5 806.5,-0.5 729.5,-0.5"/>
<text text-anchor="middle" x="768" y="-7.5" font-family="Helvetica,sans-Serif" font-size="10.00">utilsString.tpp</text>
</a>
</g>
</g>
<!-- Node1&#45;&gt;Node13 -->
<g id="edge12" class="edge"><title>Node1&#45;&gt;Node13</title>
<path fill="none" stroke="midnightblue" d="M454.542,-57.907C516.863,-49.9075 620.314,-36.0944 719.375,-20.0362"/>
<polygon fill="midnightblue" stroke="midnightblue" points="719.949,-23.489 729.255,-18.4247 718.822,-16.5803 719.949,-23.489"/>
</g>
</g>
</svg>
