<?xml version="1.0" encoding="UTF-8" standalone="no"?>
<!DOCTYPE svg PUBLIC "-//W3C//DTD SVG 1.1//EN"
 "http://www.w3.org/Graphics/SVG/1.1/DTD/svg11.dtd">
<!-- Generated by graphviz version 2.34.0 (20140112.1130)
 -->
<!-- Title: src/common/utils.tpp Pages: 1 -->
<svg width="3019pt" height="704pt"
 viewBox="0.00 0.00 3019.00 704.00" xmlns="http://www.w3.org/2000/svg" xmlns:xlink="http://www.w3.org/1999/xlink">
<g id="graph0" class="graph" transform="scale(1 1) rotate(0) translate(4 700)">
<title>src/common/utils.tpp</title>
<polygon fill="white" stroke="white" points="-4,4 -4,-700 3015,-700 3015,4 -4,4"/>
<!-- Node1 -->
<g id="node1" class="node"><title>Node1</title>
<polygon fill="#bfbfbf" stroke="black" points="1933,-676.5 1933,-695.5 2043,-695.5 2043,-676.5 1933,-676.5"/>
<text text-anchor="middle" x="1988" y="-683.5" font-family="Helvetica,sans-Serif" font-size="10.00">src/common/utils.tpp</text>
</g>
<!-- Node2 -->
<g id="node2" class="node"><title>Node2</title>
<g id="a_node2"><a xlink:href="bitpit__common_8hpp_source.xhtml" target="_top" xlink:title="src/common/bitpit_common.hpp">
<polygon fill="white" stroke="black" points="1752.5,-620.5 1752.5,-639.5 1913.5,-639.5 1913.5,-620.5 1752.5,-620.5"/>
<text text-anchor="middle" x="1833" y="-627.5" font-family="Helvetica,sans-Serif" font-size="10.00">src/common/bitpit_common.hpp</text>
</a>
</g>
</g>
<!-- Node1&#45;&gt;Node2 -->
<g id="edge1" class="edge"><title>Node1&#45;&gt;Node2</title>
<path fill="none" stroke="midnightblue" d="M1953.67,-673.039C1924.5,-662.879 1883.36,-648.546 1857.45,-639.516"/>
<polygon fill="midnightblue" stroke="midnightblue" points="1952.84,-676.459 1963.44,-676.444 1955.15,-669.848 1952.84,-676.459"/>
</g>
<!-- Node49 -->
<g id="node49" class="node"><title>Node49</title>
<g id="a_node49"><a xlink:href="utils_8cpp_source.xhtml" target="_top" xlink:title="src/common/utils.cpp">
<polygon fill="white" stroke="black" points="1931.5,-620.5 1931.5,-639.5 2044.5,-639.5 2044.5,-620.5 1931.5,-620.5"/>
<text text-anchor="middle" x="1988" y="-627.5" font-family="Helvetica,sans-Serif" font-size="10.00">src/common/utils.cpp</text>
</a>
</g>
</g>
<!-- Node1&#45;&gt;Node49 -->
<g id="edge61" class="edge"><title>Node1&#45;&gt;Node49</title>
<path fill="none" stroke="midnightblue" d="M1988,-665.805C1988,-656.91 1988,-646.78 1988,-639.751"/>
<polygon fill="midnightblue" stroke="midnightblue" points="1984.5,-666.083 1988,-676.083 1991.5,-666.083 1984.5,-666.083"/>
</g>
<!-- Node50 -->
<g id="node50" class="node"><title>Node50</title>
<g id="a_node50"><a xlink:href="utilsString_8cpp_source.xhtml" target="_top" xlink:title="src/common/utilsString.cpp">
<polygon fill="white" stroke="black" points="2063,-620.5 2063,-639.5 2203,-639.5 2203,-620.5 2063,-620.5"/>
<text text-anchor="middle" x="2133" y="-627.5" font-family="Helvetica,sans-Serif" font-size="10.00">src/common/utilsString.cpp</text>
</a>
</g>
</g>
<!-- Node1&#45;&gt;Node50 -->
<g id="edge62" class="edge"><title>Node1&#45;&gt;Node50</title>
<path fill="none" stroke="midnightblue" d="M2020.48,-672.906C2047.74,-662.754 2085.99,-648.506 2110.13,-639.516"/>
<polygon fill="midnightblue" stroke="midnightblue" points="2019.13,-669.674 2010.98,-676.444 2021.57,-676.233 2019.13,-669.674"/>
</g>
<!-- Node3 -->
<g id="node3" class="node"><title>Node3</title>
<g id="a_node3"><a xlink:href="VTK_8hpp_source.xhtml" target="_top" xlink:title="src/IO/VTK.hpp">
<polygon fill="white" stroke="black" points="668,-508.5 668,-527.5 756,-527.5 756,-508.5 668,-508.5"/>
<text text-anchor="middle" x="712" y="-515.5" font-family="Helvetica,sans-Serif" font-size="10.00">src/IO/VTK.hpp</text>
</a>
</g>
</g>
<!-- Node2&#45;&gt;Node3 -->
<g id="edge2" class="edge"><title>Node2&#45;&gt;Node3</title>
<path fill="none" stroke="midnightblue" d="M1742.11,-628.204C1538.18,-625.845 1049.45,-616.841 888,-584 827.673,-571.728 760.492,-542.148 729.459,-527.505"/>
<polygon fill="midnightblue" stroke="midnightblue" points="1742.15,-631.705 1752.19,-628.318 1742.23,-624.705 1742.15,-631.705"/>
</g>
<!-- Node12 -->
<g id="node12" class="node"><title>Node12</title>
<g id="a_node12"><a xlink:href="ParaTree_8cpp_source.xhtml" target="_top" xlink:title="src/PABLO/ParaTree.cpp">
<polygon fill="white" stroke="black" points="656,-322.5 656,-341.5 790,-341.5 790,-322.5 656,-322.5"/>
<text text-anchor="middle" x="723" y="-329.5" font-family="Helvetica,sans-Serif" font-size="10.00">src/PABLO/ParaTree.cpp</text>
</a>
</g>
</g>
<!-- Node2&#45;&gt;Node12 -->
<g id="edge53" class="edge"><title>Node2&#45;&gt;Node12</title>
<path fill="none" stroke="midnightblue" d="M1742.08,-622.859C1563.69,-609.583 1185,-574.828 1185,-519 1185,-519 1185,-519 1185,-461 1185,-402.771 1132.96,-405.883 1079,-384 1072.24,-381.258 885.399,-355.309 785.172,-341.52"/>
<polygon fill="midnightblue" stroke="midnightblue" points="1742.01,-626.363 1752.24,-623.607 1742.52,-619.382 1742.01,-626.363"/>
</g>
<!-- Node20 -->
<g id="node20" class="node"><title>Node20</title>
<g id="a_node20"><a xlink:href="levelSetSegmentation_8cpp_source.xhtml" target="_top" xlink:title="src/levelset/levelSetSegmentation.cpp">
<polygon fill="white" stroke="black" points="1371.5,-0.5 1371.5,-19.5 1562.5,-19.5 1562.5,-0.5 1371.5,-0.5"/>
<text text-anchor="middle" x="1467" y="-7.5" font-family="Helvetica,sans-Serif" font-size="10.00">src/levelset/levelSetSegmentation.cpp</text>
</a>
</g>
</g>
<!-- Node2&#45;&gt;Node20 -->
<g id="edge60" class="edge"><title>Node2&#45;&gt;Node20</title>
<path fill="none" stroke="midnightblue" d="M1763.37,-617.637C1741.86,-611.02 1719.73,-600.553 1704,-584 1683.27,-562.179 1685,-549.098 1685,-519 1685,-519 1685,-519 1685,-127 1685,-59.9057 1603.53,-31.4929 1540.2,-19.5421"/>
<polygon fill="midnightblue" stroke="midnightblue" points="1762.6,-621.059 1773.18,-620.415 1764.51,-614.323 1762.6,-621.059"/>
</g>
<!-- Node21 -->
<g id="node21" class="node"><title>Node21</title>
<g id="a_node21"><a xlink:href="surfunstructured_8cpp_source.xhtml" target="_top" xlink:title="src/surfunstructured\l/surfunstructured.cpp">
<polygon fill="white" stroke="black" points="1319.5,-113 1319.5,-143 1432.5,-143 1432.5,-113 1319.5,-113"/>
<text text-anchor="start" x="1327.5" y="-131" font-family="Helvetica,sans-Serif" font-size="10.00">src/surfunstructured</text>
<text text-anchor="middle" x="1376" y="-120" font-family="Helvetica,sans-Serif" font-size="10.00">/surfunstructured.cpp</text>
</a>
</g>
</g>
<!-- Node2&#45;&gt;Node21 -->
<g id="edge58" class="edge"><title>Node2&#45;&gt;Node21</title>
<path fill="none" stroke="midnightblue" d="M1742.56,-620.209C1680.39,-608.588 1609,-581.613 1609,-519 1609,-519 1609,-519 1609,-263 1609,-225.157 1616.64,-206.878 1590,-180 1587.16,-177.139 1495.08,-155.889 1432.64,-141.737"/>
<polygon fill="midnightblue" stroke="midnightblue" points="1741.99,-623.663 1752.45,-621.945 1743.2,-616.768 1741.99,-623.663"/>
</g>
<!-- Node23 -->
<g id="node23" class="node"><title>Node23</title>
<g id="a_node23"><a xlink:href="volcartesian_8cpp_source.xhtml" target="_top" xlink:title="src/volcartesian/volcartesian.cpp">
<polygon fill="white" stroke="black" points="1452.5,-118.5 1452.5,-137.5 1619.5,-137.5 1619.5,-118.5 1452.5,-118.5"/>
<text text-anchor="middle" x="1536" y="-125.5" font-family="Helvetica,sans-Serif" font-size="10.00">src/volcartesian/volcartesian.cpp</text>
</a>
</g>
</g>
<!-- Node2&#45;&gt;Node23 -->
<g id="edge59" class="edge"><title>Node2&#45;&gt;Node23</title>
<path fill="none" stroke="midnightblue" d="M1742.49,-619.507C1716.85,-612.955 1690.61,-602.055 1671,-584 1648.34,-563.144 1647,-549.795 1647,-519 1647,-519 1647,-519 1647,-263 1647,-224.6 1646.57,-210.312 1623,-180 1607.09,-159.546 1580.5,-145.696 1560.89,-137.651"/>
<polygon fill="midnightblue" stroke="midnightblue" points="1741.74,-622.926 1752.28,-621.811 1743.34,-616.112 1741.74,-622.926"/>
</g>
<!-- Node36 -->
<g id="node36" class="node"><title>Node36</title>
<g id="a_node36"><a xlink:href="GenericIO_8hpp_source.xhtml" target="_top" xlink:title="src/IO/GenericIO.hpp">
<polygon fill="white" stroke="black" points="896.5,-564.5 896.5,-583.5 1011.5,-583.5 1011.5,-564.5 896.5,-564.5"/>
<text text-anchor="middle" x="954" y="-571.5" font-family="Helvetica,sans-Serif" font-size="10.00">src/IO/GenericIO.hpp</text>
</a>
</g>
</g>
<!-- Node2&#45;&gt;Node36 -->
<g id="edge41" class="edge"><title>Node2&#45;&gt;Node36</title>
<path fill="none" stroke="midnightblue" d="M1742.29,-624.534C1597.68,-617.233 1305.98,-601.761 1059,-584 1043.67,-582.898 1027.1,-581.55 1011.74,-580.236"/>
<polygon fill="midnightblue" stroke="midnightblue" points="1742.28,-628.038 1752.45,-625.046 1742.64,-621.047 1742.28,-628.038"/>
</g>
<!-- Node38 -->
<g id="node38" class="node"><title>Node38</title>
<g id="a_node38"><a xlink:href="DGF_8hpp_source.xhtml" target="_top" xlink:title="src/IO/DGF.hpp">
<polygon fill="white" stroke="black" points="1067.5,-564.5 1067.5,-583.5 1156.5,-583.5 1156.5,-564.5 1067.5,-564.5"/>
<text text-anchor="middle" x="1112" y="-571.5" font-family="Helvetica,sans-Serif" font-size="10.00">src/IO/DGF.hpp</text>
</a>
</g>
</g>
<!-- Node2&#45;&gt;Node38 -->
<g id="edge45" class="edge"><title>Node2&#45;&gt;Node38</title>
<path fill="none" stroke="midnightblue" d="M1742.17,-625.23C1614.41,-619.38 1374.46,-606.394 1171,-584 1166.37,-583.49 1161.54,-582.881 1156.73,-582.224"/>
<polygon fill="midnightblue" stroke="midnightblue" points="1742.15,-628.733 1752.3,-625.69 1742.47,-621.74 1742.15,-628.733"/>
</g>
<!-- Node40 -->
<g id="node40" class="node"><title>Node40</title>
<g id="a_node40"><a xlink:href="FileHandler_8cpp_source.xhtml" target="_top" xlink:title="src/IO/FileHandler.cpp">
<polygon fill="white" stroke="black" points="1713.5,-564.5 1713.5,-583.5 1832.5,-583.5 1832.5,-564.5 1713.5,-564.5"/>
<text text-anchor="middle" x="1773" y="-571.5" font-family="Helvetica,sans-Serif" font-size="10.00">src/IO/FileHandler.cpp</text>
</a>
</g>
</g>
<!-- Node2&#45;&gt;Node40 -->
<g id="edge48" class="edge"><title>Node2&#45;&gt;Node40</title>
<path fill="none" stroke="midnightblue" d="M1815.82,-613.537C1805.12,-603.909 1791.74,-591.869 1782.82,-583.834"/>
<polygon fill="midnightblue" stroke="midnightblue" points="1813.59,-616.236 1823.36,-620.324 1818.27,-611.033 1813.59,-616.236"/>
</g>
<!-- Node41 -->
<g id="node41" class="node"><title>Node41</title>
<g id="a_node41"><a xlink:href="STL_8cpp_source.xhtml" target="_top" xlink:title="src/IO/STL.cpp">
<polygon fill="white" stroke="black" points="1851,-564.5 1851,-583.5 1937,-583.5 1937,-564.5 1851,-564.5"/>
<text text-anchor="middle" x="1894" y="-571.5" font-family="Helvetica,sans-Serif" font-size="10.00">src/IO/STL.cpp</text>
</a>
</g>
</g>
<!-- Node2&#45;&gt;Node41 -->
<g id="edge49" class="edge"><title>Node2&#45;&gt;Node41</title>
<path fill="none" stroke="midnightblue" d="M1850.47,-613.537C1861.34,-603.909 1874.94,-591.869 1884.02,-583.834"/>
<polygon fill="midnightblue" stroke="midnightblue" points="1847.97,-611.075 1842.8,-620.324 1852.61,-616.316 1847.97,-611.075"/>
</g>
<!-- Node42 -->
<g id="node42" class="node"><title>Node42</title>
<g id="a_node42"><a xlink:href="CG__algorithms_8cpp_source.xhtml" target="_top" xlink:title="src/CG/CG_algorithms.cpp">
<polygon fill="white" stroke="black" points="1955.5,-564.5 1955.5,-583.5 2094.5,-583.5 2094.5,-564.5 1955.5,-564.5"/>
<text text-anchor="middle" x="2025" y="-571.5" font-family="Helvetica,sans-Serif" font-size="10.00">src/CG/CG_algorithms.cpp</text>
</a>
</g>
</g>
<!-- Node2&#45;&gt;Node42 -->
<g id="edge50" class="edge"><title>Node2&#45;&gt;Node42</title>
<path fill="none" stroke="midnightblue" d="M1873.18,-617.699C1909.42,-607.507 1961.91,-592.743 1994.72,-583.516"/>
<polygon fill="midnightblue" stroke="midnightblue" points="1872.1,-614.367 1863.42,-620.444 1874,-621.105 1872.1,-614.367"/>
</g>
<!-- Node43 -->
<g id="node43" class="node"><title>Node43</title>
<g id="a_node43"><a xlink:href="CG__elem_8cpp_source.xhtml" target="_top" xlink:title="src/CG/CG_elem.cpp">
<polygon fill="white" stroke="black" points="2112.5,-564.5 2112.5,-583.5 2227.5,-583.5 2227.5,-564.5 2112.5,-564.5"/>
<text text-anchor="middle" x="2170" y="-571.5" font-family="Helvetica,sans-Serif" font-size="10.00">src/CG/CG_elem.cpp</text>
</a>
</g>
</g>
<!-- Node2&#45;&gt;Node43 -->
<g id="edge51" class="edge"><title>Node2&#45;&gt;Node43</title>
<path fill="none" stroke="midnightblue" d="M1896.32,-618.854C1959.99,-608.651 2057.06,-593.098 2116.85,-583.516"/>
<polygon fill="midnightblue" stroke="midnightblue" points="1895.72,-615.405 1886.4,-620.444 1896.83,-622.317 1895.72,-615.405"/>
</g>
<!-- Node44 -->
<g id="node44" class="node"><title>Node44</title>
<g id="a_node44"><a xlink:href="LocalTree_8cpp_source.xhtml" target="_top" xlink:title="src/PABLO/LocalTree.cpp">
<polygon fill="white" stroke="black" points="2245.5,-564.5 2245.5,-583.5 2382.5,-583.5 2382.5,-564.5 2245.5,-564.5"/>
<text text-anchor="middle" x="2314" y="-571.5" font-family="Helvetica,sans-Serif" font-size="10.00">src/PABLO/LocalTree.cpp</text>
</a>
</g>
</g>
<!-- Node2&#45;&gt;Node44 -->
<g id="edge52" class="edge"><title>Node2&#45;&gt;Node44</title>
<path fill="none" stroke="midnightblue" d="M1920.12,-619.365C2001.75,-610.316 2127.16,-596.356 2236,-584 2238.98,-583.662 2242.02,-583.315 2245.1,-582.964"/>
<polygon fill="midnightblue" stroke="midnightblue" points="1919.45,-615.919 1909.89,-620.499 1920.22,-622.876 1919.45,-615.919"/>
</g>
<!-- Node45 -->
<g id="node45" class="node"><title>Node45</title>
<g id="a_node45"><a xlink:href="cell_8cpp_source.xhtml" target="_top" xlink:title="src/patchkernel/cell.cpp">
<polygon fill="white" stroke="black" points="2400.5,-564.5 2400.5,-583.5 2525.5,-583.5 2525.5,-564.5 2400.5,-564.5"/>
<text text-anchor="middle" x="2463" y="-571.5" font-family="Helvetica,sans-Serif" font-size="10.00">src/patchkernel/cell.cpp</text>
</a>
</g>
</g>
<!-- Node2&#45;&gt;Node45 -->
<g id="edge54" class="edge"><title>Node2&#45;&gt;Node45</title>
<path fill="none" stroke="midnightblue" d="M1923.56,-619.882C2131.92,-601.585 2186.25,-604.644 2391,-584 2394.01,-583.697 2397.08,-583.371 2400.19,-583.03"/>
<polygon fill="midnightblue" stroke="midnightblue" points="1923.17,-616.402 1913.52,-620.769 1923.79,-623.375 1923.17,-616.402"/>
</g>
<!-- Node46 -->
<g id="node46" class="node"><title>Node46</title>
<g id="a_node46"><a xlink:href="element_8cpp_source.xhtml" target="_top" xlink:title="src/patchkernel/element.cpp">
<polygon fill="white" stroke="black" points="2544,-564.5 2544,-583.5 2690,-583.5 2690,-564.5 2544,-564.5"/>
<text text-anchor="middle" x="2617" y="-571.5" font-family="Helvetica,sans-Serif" font-size="10.00">src/patchkernel/element.cpp</text>
</a>
</g>
</g>
<!-- Node2&#45;&gt;Node46 -->
<g id="edge55" class="edge"><title>Node2&#45;&gt;Node46</title>
<path fill="none" stroke="midnightblue" d="M1923.68,-619.898C2195.32,-598.489 2265.79,-606.416 2534,-584 2537.18,-583.734 2540.42,-583.448 2543.7,-583.146"/>
<polygon fill="midnightblue" stroke="midnightblue" points="1923.21,-616.424 1913.52,-620.705 1923.76,-623.402 1923.21,-616.424"/>
</g>
<!-- Node47 -->
<g id="node47" class="node"><title>Node47</title>
<g id="a_node47"><a xlink:href="interface_8cpp_source.xhtml" target="_top" xlink:title="src/patchkernel/interface.cpp">
<polygon fill="white" stroke="black" points="2708,-564.5 2708,-583.5 2856,-583.5 2856,-564.5 2708,-564.5"/>
<text text-anchor="middle" x="2782" y="-571.5" font-family="Helvetica,sans-Serif" font-size="10.00">src/patchkernel/interface.cpp</text>
</a>
</g>
</g>
<!-- Node2&#45;&gt;Node47 -->
<g id="edge56" class="edge"><title>Node2&#45;&gt;Node47</title>
<path fill="none" stroke="midnightblue" d="M1923.53,-619.927C2268.46,-594.902 2357.61,-610.393 2699,-584 2701.89,-583.777 2704.84,-583.533 2707.81,-583.274"/>
<polygon fill="midnightblue" stroke="midnightblue" points="1923.23,-616.439 1913.51,-620.66 1923.74,-623.421 1923.23,-616.439"/>
</g>
<!-- Node48 -->
<g id="node48" class="node"><title>Node48</title>
<g id="a_node48"><a xlink:href="vertex_8cpp_source.xhtml" target="_top" xlink:title="src/patchkernel/vertex.cpp">
<polygon fill="white" stroke="black" points="2874.5,-564.5 2874.5,-583.5 3011.5,-583.5 3011.5,-564.5 2874.5,-564.5"/>
<text text-anchor="middle" x="2943" y="-571.5" font-family="Helvetica,sans-Serif" font-size="10.00">src/patchkernel/vertex.cpp</text>
</a>
</g>
</g>
<!-- Node2&#45;&gt;Node48 -->
<g id="edge57" class="edge"><title>Node2&#45;&gt;Node48</title>
<path fill="none" stroke="midnightblue" d="M1923.77,-619.922C2342.14,-591.289 2450.18,-615.803 2865,-584 2867.99,-583.771 2871.04,-583.514 2874.12,-583.237"/>
<polygon fill="midnightblue" stroke="midnightblue" points="1923.25,-616.45 1913.51,-620.63 1923.73,-623.433 1923.25,-616.45"/>
</g>
<!-- Node4 -->
<g id="node4" class="node"><title>Node4</title>
<g id="a_node4"><a xlink:href="bitpit__IO_8hpp_source.xhtml" target="_top" xlink:title="src/IO/bitpit_IO.hpp">
<polygon fill="white" stroke="black" points="961,-452.5 961,-471.5 1065,-471.5 1065,-452.5 961,-452.5"/>
<text text-anchor="middle" x="1013" y="-459.5" font-family="Helvetica,sans-Serif" font-size="10.00">src/IO/bitpit_IO.hpp</text>
</a>
</g>
</g>
<!-- Node3&#45;&gt;Node4 -->
<g id="edge3" class="edge"><title>Node3&#45;&gt;Node4</title>
<path fill="none" stroke="midnightblue" d="M765.966,-507.318C822.777,-497.126 911.34,-481.238 965.562,-471.511"/>
<polygon fill="midnightblue" stroke="midnightblue" points="765.315,-503.879 756.09,-509.09 766.551,-510.769 765.315,-503.879"/>
</g>
<!-- Node29 -->
<g id="node29" class="node"><title>Node29</title>
<g id="a_node29"><a xlink:href="VTK_8cpp_source.xhtml" target="_top" xlink:title="src/IO/VTK.cpp">
<polygon fill="white" stroke="black" points="855,-452.5 855,-471.5 943,-471.5 943,-452.5 855,-452.5"/>
<text text-anchor="middle" x="899" y="-459.5" font-family="Helvetica,sans-Serif" font-size="10.00">src/IO/VTK.cpp</text>
</a>
</g>
</g>
<!-- Node3&#45;&gt;Node29 -->
<g id="edge34" class="edge"><title>Node3&#45;&gt;Node29</title>
<path fill="none" stroke="midnightblue" d="M751.59,-505.568C786.866,-495.381 837.694,-480.703 869.508,-471.516"/>
<polygon fill="midnightblue" stroke="midnightblue" points="750.267,-502.307 741.631,-508.444 752.209,-509.032 750.267,-502.307"/>
</g>
<!-- Node30 -->
<g id="node30" class="node"><title>Node30</title>
<g id="a_node30"><a xlink:href="VTKField_8cpp_source.xhtml" target="_top" xlink:title="src/IO/VTKField.cpp">
<polygon fill="white" stroke="black" points="0,-452.5 0,-471.5 110,-471.5 110,-452.5 0,-452.5"/>
<text text-anchor="middle" x="55" y="-459.5" font-family="Helvetica,sans-Serif" font-size="10.00">src/IO/VTKField.cpp</text>
</a>
</g>
</g>
<!-- Node3&#45;&gt;Node30 -->
<g id="edge35" class="edge"><title>Node3&#45;&gt;Node30</title>
<path fill="none" stroke="midnightblue" d="M657.652,-514.042C553.135,-508.096 316.937,-493.406 119,-472 116.1,-471.686 113.128,-471.344 110.13,-470.981"/>
<polygon fill="midnightblue" stroke="midnightblue" points="657.468,-517.537 667.649,-514.607 657.863,-510.548 657.468,-517.537"/>
</g>
<!-- Node31 -->
<g id="node31" class="node"><title>Node31</title>
<g id="a_node31"><a xlink:href="VTKRectilinear_8cpp_source.xhtml" target="_top" xlink:title="src/IO/VTKRectilinear.cpp">
<polygon fill="white" stroke="black" points="128,-452.5 128,-471.5 264,-471.5 264,-452.5 128,-452.5"/>
<text text-anchor="middle" x="196" y="-459.5" font-family="Helvetica,sans-Serif" font-size="10.00">src/IO/VTKRectilinear.cpp</text>
</a>
</g>
</g>
<!-- Node3&#45;&gt;Node31 -->
<g id="edge36" class="edge"><title>Node3&#45;&gt;Node31</title>
<path fill="none" stroke="midnightblue" d="M657.534,-511.668C574.528,-503.485 411.4,-487.181 273,-472 270.057,-471.677 267.051,-471.343 264.014,-471.003"/>
<polygon fill="midnightblue" stroke="midnightblue" points="657.442,-515.176 667.736,-512.673 658.128,-508.209 657.442,-515.176"/>
</g>
<!-- Node32 -->
<g id="node32" class="node"><title>Node32</title>
<g id="a_node32"><a xlink:href="VTKStreamer_8cpp_source.xhtml" target="_top" xlink:title="src/IO/VTKStreamer.cpp">
<polygon fill="white" stroke="black" points="282.5,-452.5 282.5,-471.5 411.5,-471.5 411.5,-452.5 282.5,-452.5"/>
<text text-anchor="middle" x="347" y="-459.5" font-family="Helvetica,sans-Serif" font-size="10.00">src/IO/VTKStreamer.cpp</text>
</a>
</g>
</g>
<!-- Node3&#45;&gt;Node32 -->
<g id="edge37" class="edge"><title>Node3&#45;&gt;Node32</title>
<path fill="none" stroke="midnightblue" d="M657.916,-508.998C590.067,-498.961 474.21,-481.82 404.704,-471.537"/>
<polygon fill="midnightblue" stroke="midnightblue" points="657.568,-512.485 667.972,-510.486 658.592,-505.56 657.568,-512.485"/>
</g>
<!-- Node33 -->
<g id="node33" class="node"><title>Node33</title>
<g id="a_node33"><a xlink:href="VTKTypes_8cpp_source.xhtml" target="_top" xlink:title="src/IO/VTKTypes.cpp">
<polygon fill="white" stroke="black" points="430,-452.5 430,-471.5 548,-471.5 548,-452.5 430,-452.5"/>
<text text-anchor="middle" x="489" y="-459.5" font-family="Helvetica,sans-Serif" font-size="10.00">src/IO/VTKTypes.cpp</text>
</a>
</g>
</g>
<!-- Node3&#45;&gt;Node33 -->
<g id="edge38" class="edge"><title>Node3&#45;&gt;Node33</title>
<path fill="none" stroke="midnightblue" d="M666.939,-506.088C624.809,-495.887 562.76,-480.861 524.17,-471.516"/>
<polygon fill="midnightblue" stroke="midnightblue" points="666.122,-509.492 676.665,-508.444 667.77,-502.688 666.122,-509.492"/>
</g>
<!-- Node34 -->
<g id="node34" class="node"><title>Node34</title>
<g id="a_node34"><a xlink:href="VTKUnstructured_8cpp_source.xhtml" target="_top" xlink:title="src/IO/VTKUnstructured.cpp">
<polygon fill="white" stroke="black" points="566,-452.5 566,-471.5 712,-471.5 712,-452.5 566,-452.5"/>
<text text-anchor="middle" x="639" y="-459.5" font-family="Helvetica,sans-Serif" font-size="10.00">src/IO/VTKUnstructured.cpp</text>
</a>
</g>
</g>
<!-- Node3&#45;&gt;Node34 -->
<g id="edge39" class="edge"><title>Node3&#45;&gt;Node34</title>
<path fill="none" stroke="midnightblue" d="M691.858,-502.101C678.721,-492.382 662.018,-480.027 650.942,-471.834"/>
<polygon fill="midnightblue" stroke="midnightblue" points="690.15,-505.191 700.271,-508.324 694.313,-499.563 690.15,-505.191"/>
</g>
<!-- Node35 -->
<g id="node35" class="node"><title>Node35</title>
<g id="a_node35"><a xlink:href="VTKUtils_8cpp_source.xhtml" target="_top" xlink:title="src/IO/VTKUtils.cpp">
<polygon fill="white" stroke="black" points="730.5,-452.5 730.5,-471.5 837.5,-471.5 837.5,-452.5 730.5,-452.5"/>
<text text-anchor="middle" x="784" y="-459.5" font-family="Helvetica,sans-Serif" font-size="10.00">src/IO/VTKUtils.cpp</text>
</a>
</g>
</g>
<!-- Node3&#45;&gt;Node35 -->
<g id="edge40" class="edge"><title>Node3&#45;&gt;Node35</title>
<path fill="none" stroke="midnightblue" d="M731.866,-502.101C744.823,-492.382 761.297,-480.027 772.221,-471.834"/>
<polygon fill="midnightblue" stroke="midnightblue" points="729.468,-499.524 723.568,-508.324 733.668,-505.124 729.468,-499.524"/>
</g>
<!-- Node5 -->
<g id="node5" class="node"><title>Node5</title>
<g id="a_node5"><a xlink:href="communications_8cpp_source.xhtml" target="_top" xlink:title="src/communications\l/communications.cpp">
<polygon fill="white" stroke="black" points="956,-385 956,-415 1070,-415 1070,-385 956,-385"/>
<text text-anchor="start" x="964" y="-403" font-family="Helvetica,sans-Serif" font-size="10.00">src/communications</text>
<text text-anchor="middle" x="1013" y="-392" font-family="Helvetica,sans-Serif" font-size="10.00">/communications.cpp</text>
</a>
</g>
</g>
<!-- Node4&#45;&gt;Node5 -->
<g id="edge4" class="edge"><title>Node4&#45;&gt;Node5</title>
<path fill="none" stroke="midnightblue" d="M1013,-442.371C1013,-433.585 1013,-423.272 1013,-415.141"/>
<polygon fill="midnightblue" stroke="midnightblue" points="1009.5,-442.403 1013,-452.403 1016.5,-442.403 1009.5,-442.403"/>
</g>
<!-- Node6 -->
<g id="node6" class="node"><title>Node6</title>
<g id="a_node6"><a xlink:href="ParaTree_8hpp_source.xhtml" target="_top" xlink:title="src/PABLO/ParaTree.hpp">
<polygon fill="white" stroke="black" points="656,-390.5 656,-409.5 790,-409.5 790,-390.5 656,-390.5"/>
<text text-anchor="middle" x="723" y="-397.5" font-family="Helvetica,sans-Serif" font-size="10.00">src/PABLO/ParaTree.hpp</text>
</a>
</g>
</g>
<!-- Node4&#45;&gt;Node6 -->
<g id="edge5" class="edge"><title>Node4&#45;&gt;Node6</title>
<path fill="none" stroke="midnightblue" d="M961.638,-450.373C905.297,-438.717 815.997,-420.241 764.1,-409.503"/>
<polygon fill="midnightblue" stroke="midnightblue" points="961.256,-453.868 971.758,-452.467 962.675,-447.014 961.256,-453.868"/>
</g>
<!-- Node10 -->
<g id="node10" class="node"><title>Node10</title>
<g id="a_node10"><a xlink:href="voloctree_8cpp_source.xhtml" target="_top" xlink:title="src/voloctree/voloctree.cpp">
<polygon fill="white" stroke="black" points="425,-118.5 425,-137.5 565,-137.5 565,-118.5 425,-118.5"/>
<text text-anchor="middle" x="495" y="-125.5" font-family="Helvetica,sans-Serif" font-size="10.00">src/voloctree/voloctree.cpp</text>
</a>
</g>
</g>
<!-- Node4&#45;&gt;Node10 -->
<g id="edge33" class="edge"><title>Node4&#45;&gt;Node10</title>
<path fill="none" stroke="midnightblue" d="M951.304,-452.04C951.202,-452.027 951.101,-452.013 951,-452 836.263,-436.881 444,-448.729 444,-333 444,-333 444,-333 444,-263 444,-212.718 475.754,-158.356 489.15,-137.66"/>
<polygon fill="midnightblue" stroke="midnightblue" points="950.54,-455.469 960.919,-453.338 951.477,-448.532 950.54,-455.469"/>
</g>
<!-- Node13 -->
<g id="node13" class="node"><title>Node13</title>
<g id="a_node13"><a xlink:href="patch__kernel_8hpp_source.xhtml" target="_top" xlink:title="src/patchkernel/patch\l_kernel.hpp">
<polygon fill="white" stroke="black" points="1213,-385 1213,-415 1327,-415 1327,-385 1213,-385"/>
<text text-anchor="start" x="1221" y="-403" font-family="Helvetica,sans-Serif" font-size="10.00">src/patchkernel/patch</text>
<text text-anchor="middle" x="1270" y="-392" font-family="Helvetica,sans-Serif" font-size="10.00">_kernel.hpp</text>
</a>
</g>
</g>
<!-- Node4&#45;&gt;Node13 -->
<g id="edge12" class="edge"><title>Node4&#45;&gt;Node13</title>
<path fill="none" stroke="midnightblue" d="M1059.47,-450.151C1102.48,-440.109 1166.58,-425.145 1212.74,-414.368"/>
<polygon fill="midnightblue" stroke="midnightblue" points="1058.49,-446.785 1049.55,-452.467 1060.08,-453.602 1058.49,-446.785"/>
</g>
<!-- Node17 -->
<g id="node17" class="node"><title>Node17</title>
<g id="a_node17"><a xlink:href="surfunstructured_8hpp_source.xhtml" target="_top" xlink:title="src/surfunstructured\l/surfunstructured.hpp">
<polygon fill="white" stroke="black" points="1101.5,-181 1101.5,-211 1214.5,-211 1214.5,-181 1101.5,-181"/>
<text text-anchor="start" x="1109.5" y="-199" font-family="Helvetica,sans-Serif" font-size="10.00">src/surfunstructured</text>
<text text-anchor="middle" x="1158" y="-188" font-family="Helvetica,sans-Serif" font-size="10.00">/surfunstructured.hpp</text>
</a>
</g>
</g>
<!-- Node4&#45;&gt;Node17 -->
<g id="edge32" class="edge"><title>Node4&#45;&gt;Node17</title>
<path fill="none" stroke="midnightblue" d="M974.736,-449.152C911.016,-427.378 794.181,-377.54 837,-316 896.83,-230.012 1026.43,-206.019 1101.37,-199.416"/>
<polygon fill="midnightblue" stroke="midnightblue" points="973.88,-452.556 984.473,-452.403 976.097,-445.916 973.88,-452.556"/>
</g>
<!-- Node7 -->
<g id="node7" class="node"><title>Node7</title>
<g id="a_node7"><a xlink:href="PabloUniform_8hpp_source.xhtml" target="_top" xlink:title="src/PABLO/PabloUniform.hpp">
<polygon fill="white" stroke="black" points="486.5,-322.5 486.5,-341.5 637.5,-341.5 637.5,-322.5 486.5,-322.5"/>
<text text-anchor="middle" x="562" y="-329.5" font-family="Helvetica,sans-Serif" font-size="10.00">src/PABLO/PabloUniform.hpp</text>
</a>
</g>
</g>
<!-- Node6&#45;&gt;Node7 -->
<g id="edge6" class="edge"><title>Node6&#45;&gt;Node7</title>
<path fill="none" stroke="midnightblue" d="M692.596,-386.536C660.48,-373.371 610.708,-352.967 582.798,-341.526"/>
<polygon fill="midnightblue" stroke="midnightblue" points="691.372,-389.817 701.952,-390.372 694.027,-383.34 691.372,-389.817"/>
</g>
<!-- Node6&#45;&gt;Node12 -->
<g id="edge11" class="edge"><title>Node6&#45;&gt;Node12</title>
<path fill="none" stroke="midnightblue" d="M723,-380.041C723,-367.472 723,-351.563 723,-341.841"/>
<polygon fill="midnightblue" stroke="midnightblue" points="719.5,-380.372 723,-390.372 726.5,-380.372 719.5,-380.372"/>
</g>
<!-- Node8 -->
<g id="node8" class="node"><title>Node8</title>
<g id="a_node8"><a xlink:href="bitpit__PABLO_8hpp_source.xhtml" target="_top" xlink:title="src/PABLO/bitpit_PABLO.hpp">
<polygon fill="white" stroke="red" points="471.5,-254.5 471.5,-273.5 620.5,-273.5 620.5,-254.5 471.5,-254.5"/>
<text text-anchor="middle" x="546" y="-261.5" font-family="Helvetica,sans-Serif" font-size="10.00">src/PABLO/bitpit_PABLO.hpp</text>
</a>
</g>
</g>
<!-- Node7&#45;&gt;Node8 -->
<g id="edge7" class="edge"><title>Node7&#45;&gt;Node8</title>
<path fill="none" stroke="midnightblue" d="M557.497,-312.425C554.436,-299.798 550.524,-283.662 548.143,-273.841"/>
<polygon fill="midnightblue" stroke="midnightblue" points="554.151,-313.478 559.908,-322.372 560.954,-311.829 554.151,-313.478"/>
</g>
<!-- Node11 -->
<g id="node11" class="node"><title>Node11</title>
<g id="a_node11"><a xlink:href="PabloUniform_8cpp_source.xhtml" target="_top" xlink:title="src/PABLO/PabloUniform.cpp">
<polygon fill="white" stroke="black" points="638.5,-254.5 638.5,-273.5 789.5,-273.5 789.5,-254.5 638.5,-254.5"/>
<text text-anchor="middle" x="714" y="-261.5" font-family="Helvetica,sans-Serif" font-size="10.00">src/PABLO/PabloUniform.cpp</text>
</a>
</g>
</g>
<!-- Node7&#45;&gt;Node11 -->
<g id="edge10" class="edge"><title>Node7&#45;&gt;Node11</title>
<path fill="none" stroke="midnightblue" d="M591.071,-318.377C621.31,-305.247 667.835,-285.045 694.124,-273.63"/>
<polygon fill="midnightblue" stroke="midnightblue" points="589.65,-315.178 581.871,-322.372 592.438,-321.599 589.65,-315.178"/>
</g>
<!-- Node9 -->
<g id="node9" class="node"><title>Node9</title>
<g id="a_node9"><a xlink:href="voloctree_8hpp_source.xhtml" target="_top" xlink:title="src/voloctree/voloctree.hpp">
<polygon fill="white" stroke="red" points="476,-186.5 476,-205.5 616,-205.5 616,-186.5 476,-186.5"/>
<text text-anchor="middle" x="546" y="-193.5" font-family="Helvetica,sans-Serif" font-size="10.00">src/voloctree/voloctree.hpp</text>
</a>
</g>
</g>
<!-- Node8&#45;&gt;Node9 -->
<g id="edge8" class="edge"><title>Node8&#45;&gt;Node9</title>
<path fill="none" stroke="midnightblue" d="M546,-244.041C546,-231.472 546,-215.563 546,-205.841"/>
<polygon fill="midnightblue" stroke="midnightblue" points="542.5,-244.372 546,-254.372 549.5,-244.372 542.5,-244.372"/>
</g>
<!-- Node9&#45;&gt;Node10 -->
<g id="edge9" class="edge"><title>Node9&#45;&gt;Node10</title>
<path fill="none" stroke="midnightblue" d="M533.103,-178.31C523.161,-165.444 509.804,-148.158 501.832,-137.841"/>
<polygon fill="midnightblue" stroke="midnightblue" points="530.449,-180.599 539.333,-186.372 535.988,-176.319 530.449,-180.599"/>
</g>
<!-- Node14 -->
<g id="node14" class="node"><title>Node14</title>
<g id="a_node14"><a xlink:href="adaption_8cpp_source.xhtml" target="_top" xlink:title="src/patchkernel/adaption.cpp">
<polygon fill="white" stroke="black" points="845.5,-322.5 845.5,-341.5 994.5,-341.5 994.5,-322.5 845.5,-322.5"/>
<text text-anchor="middle" x="920" y="-329.5" font-family="Helvetica,sans-Serif" font-size="10.00">src/patchkernel/adaption.cpp</text>
</a>
</g>
</g>
<!-- Node13&#45;&gt;Node14 -->
<g id="edge13" class="edge"><title>Node13&#45;&gt;Node14</title>
<path fill="none" stroke="midnightblue" d="M1202.79,-384.751C1201.52,-384.497 1200.25,-384.247 1199,-384 1155.46,-375.423 1034.92,-353.64 967.391,-341.501"/>
<polygon fill="midnightblue" stroke="midnightblue" points="1202.18,-388.199 1212.68,-386.749 1203.57,-381.338 1202.18,-388.199"/>
</g>
<!-- Node15 -->
<g id="node15" class="node"><title>Node15</title>
<g id="a_node15"><a xlink:href="bitpit__patchkernel_8hpp_source.xhtml" target="_top" xlink:title="src/patchkernel/bitpit\l_patchkernel.hpp">
<polygon fill="white" stroke="black" points="1283,-249 1283,-279 1393,-279 1393,-249 1283,-249"/>
<text text-anchor="start" x="1291" y="-267" font-family="Helvetica,sans-Serif" font-size="10.00">src/patchkernel/bitpit</text>
<text text-anchor="middle" x="1338" y="-256" font-family="Helvetica,sans-Serif" font-size="10.00">_patchkernel.hpp</text>
</a>
</g>
</g>
<!-- Node13&#45;&gt;Node15 -->
<g id="edge14" class="edge"><title>Node13&#45;&gt;Node15</title>
<path fill="none" stroke="midnightblue" d="M1336.98,-391.108C1363.97,-384.265 1392.55,-371.557 1409,-348 1417.14,-336.339 1415.49,-328.655 1409,-316 1400.69,-299.795 1384.57,-287.576 1369.79,-279.167"/>
<polygon fill="midnightblue" stroke="midnightblue" points="1336.1,-387.72 1327.14,-393.373 1337.67,-394.541 1336.1,-387.72"/>
</g>
<!-- Node24 -->
<g id="node24" class="node"><title>Node24</title>
<g id="a_node24"><a xlink:href="surface__kernel_8hpp_source.xhtml" target="_top" xlink:title="src/patchkernel/surface\l_kernel.hpp">
<polygon fill="white" stroke="black" points="1457.5,-317 1457.5,-347 1580.5,-347 1580.5,-317 1457.5,-317"/>
<text text-anchor="start" x="1465.5" y="-335" font-family="Helvetica,sans-Serif" font-size="10.00">src/patchkernel/surface</text>
<text text-anchor="middle" x="1519" y="-324" font-family="Helvetica,sans-Serif" font-size="10.00">_kernel.hpp</text>
</a>
</g>
</g>
<!-- Node13&#45;&gt;Node24 -->
<g id="edge25" class="edge"><title>Node13&#45;&gt;Node24</title>
<path fill="none" stroke="midnightblue" d="M1333.01,-382.298C1374.08,-371.413 1427.06,-357.368 1465.97,-347.056"/>
<polygon fill="midnightblue" stroke="midnightblue" points="1331.88,-378.977 1323.11,-384.922 1333.67,-385.743 1331.88,-378.977"/>
</g>
<!-- Node26 -->
<g id="node26" class="node"><title>Node26</title>
<g id="a_node26"><a xlink:href="volume__kernel_8hpp_source.xhtml" target="_top" xlink:title="src/patchkernel/volume\l_kernel.hpp">
<polygon fill="white" stroke="red" points="1277.5,-317 1277.5,-347 1400.5,-347 1400.5,-317 1277.5,-317"/>
<text text-anchor="start" x="1285.5" y="-335" font-family="Helvetica,sans-Serif" font-size="10.00">src/patchkernel/volume</text>
<text text-anchor="middle" x="1339" y="-324" font-family="Helvetica,sans-Serif" font-size="10.00">_kernel.hpp</text>
</a>
</g>
</g>
<!-- Node13&#45;&gt;Node26 -->
<g id="edge28" class="edge"><title>Node13&#45;&gt;Node26</title>
<path fill="none" stroke="midnightblue" d="M1292.49,-377.485C1302.84,-367.585 1314.84,-356.109 1324.06,-347.293"/>
<polygon fill="midnightblue" stroke="midnightblue" points="1289.78,-375.237 1284.97,-384.679 1294.62,-380.296 1289.78,-375.237"/>
</g>
<!-- Node27 -->
<g id="node27" class="node"><title>Node27</title>
<g id="a_node27"><a xlink:href="patch__kernel_8cpp_source.xhtml" target="_top" xlink:title="src/patchkernel/patch\l_kernel.cpp">
<polygon fill="white" stroke="black" points="1013,-317 1013,-347 1127,-347 1127,-317 1013,-317"/>
<text text-anchor="start" x="1021" y="-335" font-family="Helvetica,sans-Serif" font-size="10.00">src/patchkernel/patch</text>
<text text-anchor="middle" x="1070" y="-324" font-family="Helvetica,sans-Serif" font-size="10.00">_kernel.cpp</text>
</a>
</g>
</g>
<!-- Node13&#45;&gt;Node27 -->
<g id="edge30" class="edge"><title>Node13&#45;&gt;Node27</title>
<path fill="none" stroke="midnightblue" d="M1217.25,-381.592C1184.54,-370.798 1143.08,-357.116 1112.49,-347.022"/>
<polygon fill="midnightblue" stroke="midnightblue" points="1216.5,-385.031 1227.09,-384.841 1218.7,-378.384 1216.5,-385.031"/>
</g>
<!-- Node28 -->
<g id="node28" class="node"><title>Node28</title>
<g id="a_node28"><a xlink:href="patch__kernel__parallel_8cpp_source.xhtml" target="_top" xlink:title="src/patchkernel/patch\l_kernel_parallel.cpp">
<polygon fill="white" stroke="black" points="1145,-317 1145,-347 1259,-347 1259,-317 1145,-317"/>
<text text-anchor="start" x="1153" y="-335" font-family="Helvetica,sans-Serif" font-size="10.00">src/patchkernel/patch</text>
<text text-anchor="middle" x="1202" y="-324" font-family="Helvetica,sans-Serif" font-size="10.00">_kernel_parallel.cpp</text>
</a>
</g>
</g>
<!-- Node13&#45;&gt;Node28 -->
<g id="edge31" class="edge"><title>Node13&#45;&gt;Node28</title>
<path fill="none" stroke="midnightblue" d="M1247.83,-377.485C1237.63,-367.585 1225.81,-356.109 1216.73,-347.293"/>
<polygon fill="midnightblue" stroke="midnightblue" points="1245.63,-380.226 1255.25,-384.679 1250.51,-375.203 1245.63,-380.226"/>
</g>
<!-- Node15&#45;&gt;Node9 -->
<g id="edge23" class="edge"><title>Node15&#45;&gt;Node9</title>
<path fill="none" stroke="midnightblue" d="M1272.7,-257.558C1125.35,-245.279 768.111,-215.509 616.22,-202.852"/>
<polygon fill="midnightblue" stroke="midnightblue" points="1272.68,-261.069 1282.94,-258.411 1273.26,-254.093 1272.68,-261.069"/>
</g>
<!-- Node16 -->
<g id="node16" class="node"><title>Node16</title>
<g id="a_node16"><a xlink:href="patchkernel__example__00001_8cpp_source.xhtml" target="_top" xlink:title="examples/patchkernel\l_example_00001.cpp">
<polygon fill="white" stroke="black" points="1278,-181 1278,-211 1396,-211 1396,-181 1278,-181"/>
<text text-anchor="start" x="1286" y="-199" font-family="Helvetica,sans-Serif" font-size="10.00">examples/patchkernel</text>
<text text-anchor="middle" x="1337" y="-188" font-family="Helvetica,sans-Serif" font-size="10.00">_example_00001.cpp</text>
</a>
</g>
</g>
<!-- Node15&#45;&gt;Node16 -->
<g id="edge15" class="edge"><title>Node15&#45;&gt;Node16</title>
<path fill="none" stroke="midnightblue" d="M1337.63,-238.532C1337.49,-229.361 1337.34,-219.245 1337.22,-211.293"/>
<polygon fill="midnightblue" stroke="midnightblue" points="1334.13,-238.733 1337.78,-248.679 1341.13,-238.627 1334.13,-238.733"/>
</g>
<!-- Node15&#45;&gt;Node17 -->
<g id="edge16" class="edge"><title>Node15&#45;&gt;Node17</title>
<path fill="none" stroke="midnightblue" d="M1289.76,-245.312C1260.44,-234.563 1223.53,-221.029 1196.24,-211.022"/>
<polygon fill="midnightblue" stroke="midnightblue" points="1288.79,-248.685 1299.39,-248.841 1291.2,-242.113 1288.79,-248.685"/>
</g>
<!-- Node19 -->
<g id="node19" class="node"><title>Node19</title>
<g id="a_node19"><a xlink:href="levelSet_8hpp_source.xhtml" target="_top" xlink:title="src/levelset/levelSet.hpp">
<polygon fill="white" stroke="red" points="1186,-56.5 1186,-75.5 1314,-75.5 1314,-56.5 1186,-56.5"/>
<text text-anchor="middle" x="1250" y="-63.5" font-family="Helvetica,sans-Serif" font-size="10.00">src/levelset/levelSet.hpp</text>
</a>
</g>
</g>
<!-- Node15&#45;&gt;Node19 -->
<g id="edge24" class="edge"><title>Node15&#45;&gt;Node19</title>
<path fill="none" stroke="midnightblue" d="M1300.7,-243.511C1288.69,-235.379 1276.54,-224.807 1269,-212 1242.2,-166.498 1246.41,-99.2139 1248.93,-75.5823"/>
<polygon fill="midnightblue" stroke="midnightblue" points="1299.04,-246.601 1309.36,-249 1302.79,-240.689 1299.04,-246.601"/>
</g>
<!-- Node22 -->
<g id="node22" class="node"><title>Node22</title>
<g id="a_node22"><a xlink:href="volcartesian_8hpp_source.xhtml" target="_top" xlink:title="src/volcartesian/volcartesian.hpp">
<polygon fill="white" stroke="red" points="1414.5,-186.5 1414.5,-205.5 1581.5,-205.5 1581.5,-186.5 1414.5,-186.5"/>
<text text-anchor="middle" x="1498" y="-193.5" font-family="Helvetica,sans-Serif" font-size="10.00">src/volcartesian/volcartesian.hpp</text>
</a>
</g>
</g>
<!-- Node15&#45;&gt;Node22 -->
<g id="edge21" class="edge"><title>Node15&#45;&gt;Node22</title>
<path fill="none" stroke="midnightblue" d="M1381.61,-245.01C1412.59,-232.232 1452.82,-215.638 1476.95,-205.682"/>
<polygon fill="midnightblue" stroke="midnightblue" points="1380.23,-241.792 1372.32,-248.841 1382.9,-248.264 1380.23,-241.792"/>
</g>
<!-- Node18 -->
<g id="node18" class="node"><title>Node18</title>
<g id="a_node18"><a xlink:href="bitpit__surfunstructured_8hpp_source.xhtml" target="_top" xlink:title="src/surfunstructured\l/bitpit_surfunstructured.hpp">
<polygon fill="white" stroke="black" points="1082.5,-113 1082.5,-143 1221.5,-143 1221.5,-113 1082.5,-113"/>
<text text-anchor="start" x="1090.5" y="-131" font-family="Helvetica,sans-Serif" font-size="10.00">src/surfunstructured</text>
<text text-anchor="middle" x="1152" y="-120" font-family="Helvetica,sans-Serif" font-size="10.00">/bitpit_surfunstructured.hpp</text>
</a>
</g>
</g>
<!-- Node17&#45;&gt;Node18 -->
<g id="edge17" class="edge"><title>Node17&#45;&gt;Node18</title>
<path fill="none" stroke="midnightblue" d="M1155.78,-170.532C1154.94,-161.361 1154.02,-151.245 1153.3,-143.293"/>
<polygon fill="midnightblue" stroke="midnightblue" points="1152.31,-171.037 1156.7,-180.679 1159.28,-170.403 1152.31,-171.037"/>
</g>
<!-- Node17&#45;&gt;Node21 -->
<g id="edge20" class="edge"><title>Node17&#45;&gt;Node21</title>
<path fill="none" stroke="midnightblue" d="M1214.31,-177.952C1250.1,-167.116 1295.87,-153.259 1329.57,-143.056"/>
<polygon fill="midnightblue" stroke="midnightblue" points="1213.06,-174.675 1204.5,-180.922 1215.08,-181.374 1213.06,-174.675"/>
</g>
<!-- Node18&#45;&gt;Node19 -->
<g id="edge18" class="edge"><title>Node18&#45;&gt;Node19</title>
<path fill="none" stroke="midnightblue" d="M1184.06,-107.372C1201.64,-96.6076 1222.54,-83.8117 1236.03,-75.5557"/>
<polygon fill="midnightblue" stroke="midnightblue" points="1181.93,-104.574 1175.22,-112.781 1185.58,-110.544 1181.93,-104.574"/>
</g>
<!-- Node19&#45;&gt;Node20 -->
<g id="edge19" class="edge"><title>Node19&#45;&gt;Node20</title>
<path fill="none" stroke="midnightblue" d="M1294.11,-54.0237C1335.1,-43.8232 1395.3,-28.8414 1432.78,-19.5164"/>
<polygon fill="midnightblue" stroke="midnightblue" points="1293.24,-50.6322 1284.38,-56.4435 1294.93,-57.425 1293.24,-50.6322"/>
</g>
<!-- Node22&#45;&gt;Node23 -->
<g id="edge22" class="edge"><title>Node22&#45;&gt;Node23</title>
<path fill="none" stroke="midnightblue" d="M1508.04,-177.563C1515.4,-164.781 1525.08,-147.96 1530.91,-137.841"/>
<polygon fill="midnightblue" stroke="midnightblue" points="1504.92,-175.959 1502.97,-186.372 1510.99,-179.452 1504.92,-175.959"/>
</g>
<!-- Node24&#45;&gt;Node15 -->
<g id="edge26" class="edge"><title>Node24&#45;&gt;Node15</title>
<path fill="none" stroke="midnightblue" d="M1470.49,-313.312C1441.01,-302.563 1403.9,-289.029 1376.45,-279.022"/>
<polygon fill="midnightblue" stroke="midnightblue" points="1469.58,-316.704 1480.17,-316.841 1471.98,-310.127 1469.58,-316.704"/>
</g>
<!-- Node25 -->
<g id="node25" class="node"><title>Node25</title>
<g id="a_node25"><a xlink:href="surface__kernel_8cpp_source.xhtml" target="_top" xlink:title="src/patchkernel/surface\l_kernel.cpp">
<polygon fill="white" stroke="black" points="1457.5,-249 1457.5,-279 1580.5,-279 1580.5,-249 1457.5,-249"/>
<text text-anchor="start" x="1465.5" y="-267" font-family="Helvetica,sans-Serif" font-size="10.00">src/patchkernel/surface</text>
<text text-anchor="middle" x="1519" y="-256" font-family="Helvetica,sans-Serif" font-size="10.00">_kernel.cpp</text>
</a>
</g>
</g>
<!-- Node24&#45;&gt;Node25 -->
<g id="edge27" class="edge"><title>Node24&#45;&gt;Node25</title>
<path fill="none" stroke="midnightblue" d="M1519,-306.532C1519,-297.361 1519,-287.245 1519,-279.293"/>
<polygon fill="midnightblue" stroke="midnightblue" points="1515.5,-306.679 1519,-316.679 1522.5,-306.679 1515.5,-306.679"/>
</g>
<!-- Node26&#45;&gt;Node15 -->
<g id="edge29" class="edge"><title>Node26&#45;&gt;Node15</title>
<path fill="none" stroke="midnightblue" d="M1338.63,-306.532C1338.49,-297.361 1338.34,-287.245 1338.22,-279.293"/>
<polygon fill="midnightblue" stroke="midnightblue" points="1335.13,-306.733 1338.78,-316.679 1342.13,-306.627 1335.13,-306.733"/>
</g>
<!-- Node36&#45;&gt;Node3 -->
<g id="edge42" class="edge"><title>Node36&#45;&gt;Node3</title>
<path fill="none" stroke="midnightblue" d="M905.677,-562.217C859.949,-552.013 792.221,-536.901 750.166,-527.516"/>
<polygon fill="midnightblue" stroke="midnightblue" points="905.132,-565.682 915.654,-564.444 906.657,-558.85 905.132,-565.682"/>
</g>
<!-- Node36&#45;&gt;Node4 -->
<g id="edge43" class="edge"><title>Node36&#45;&gt;Node4</title>
<path fill="none" stroke="midnightblue" d="M964.798,-555.765C969.88,-547.466 975.924,-537.315 981,-528 991.834,-508.12 1003.25,-484.061 1009.08,-471.528"/>
<polygon fill="midnightblue" stroke="midnightblue" points="961.681,-554.152 959.391,-564.496 967.632,-557.837 961.681,-554.152"/>
</g>
<!-- Node37 -->
<g id="node37" class="node"><title>Node37</title>
<g id="a_node37"><a xlink:href="GenericIO_8cpp_source.xhtml" target="_top" xlink:title="src/IO/GenericIO.cpp">
<polygon fill="white" stroke="black" points="857.5,-508.5 857.5,-527.5 972.5,-527.5 972.5,-508.5 857.5,-508.5"/>
<text text-anchor="middle" x="915" y="-515.5" font-family="Helvetica,sans-Serif" font-size="10.00">src/IO/GenericIO.cpp</text>
</a>
</g>
</g>
<!-- Node36&#45;&gt;Node37 -->
<g id="edge44" class="edge"><title>Node36&#45;&gt;Node37</title>
<path fill="none" stroke="midnightblue" d="M941.618,-555.855C934.865,-546.505 926.791,-535.327 921.32,-527.751"/>
<polygon fill="midnightblue" stroke="midnightblue" points="938.868,-558.025 947.56,-564.083 944.542,-553.927 938.868,-558.025"/>
</g>
<!-- Node38&#45;&gt;Node4 -->
<g id="edge46" class="edge"><title>Node38&#45;&gt;Node4</title>
<path fill="none" stroke="midnightblue" d="M1092.18,-558.138C1081.74,-549.843 1069.06,-538.989 1059,-528 1042.01,-509.442 1025.93,-484.418 1018.05,-471.502"/>
<polygon fill="midnightblue" stroke="midnightblue" points="1090.26,-561.082 1100.31,-564.449 1094.56,-555.552 1090.26,-561.082"/>
</g>
<!-- Node39 -->
<g id="node39" class="node"><title>Node39</title>
<g id="a_node39"><a xlink:href="DGF_8cpp_source.xhtml" target="_top" xlink:title="src/IO/DGF.cpp">
<polygon fill="white" stroke="black" points="1067.5,-508.5 1067.5,-527.5 1156.5,-527.5 1156.5,-508.5 1067.5,-508.5"/>
<text text-anchor="middle" x="1112" y="-515.5" font-family="Helvetica,sans-Serif" font-size="10.00">src/IO/DGF.cpp</text>
</a>
</g>
</g>
<!-- Node38&#45;&gt;Node39 -->
<g id="edge47" class="edge"><title>Node38&#45;&gt;Node39</title>
<path fill="none" stroke="midnightblue" d="M1112,-553.805C1112,-544.91 1112,-534.78 1112,-527.751"/>
<polygon fill="midnightblue" stroke="midnightblue" points="1108.5,-554.083 1112,-564.083 1115.5,-554.083 1108.5,-554.083"/>
</g>
</g>
</svg>
